<?xml version="1.0" encoding="utf-8"?>
<!-- Generator: Adobe Illustrator 23.0.1, SVG Export Plug-In . SVG Version: 6.00 Build 0)  -->
<svg version="1.1" id="Laag_1" xmlns="http://www.w3.org/2000/svg" xmlns:xlink="http://www.w3.org/1999/xlink" x="0px" y="0px"
	 viewBox="0 0 1440 1024" style="enable-background:new 0 0 1440 1024;" xml:space="preserve">
<style type="text/css">
	.st0{clip-path:url(#SVGID_2_);}
	.st1{fill:url(#SVGID_3_);}
	.st2{fill:#6A7B27;}
	.st3{fill:#808181;}
	.st4{fill:#9A9999;}
	.st5{fill:#FFFFFF;}
	.st6{fill:#B8B32E;}
	.st7{fill:#CAC334;}
	.st8{fill:#A9A325;}
	.st9{fill:#1B1B1B;}
	.st10{fill:#F2F2F2;}
	.st11{fill:#881E2B;}
	.st12{fill:#CDCCCC;}
	.st13{fill-rule:evenodd;clip-rule:evenodd;fill:#C69988;}
	.st14{fill-rule:evenodd;clip-rule:evenodd;fill:#F8AB18;}
	.st15{fill-rule:evenodd;clip-rule:evenodd;fill:#1B1B1B;}
	.st16{fill-rule:evenodd;clip-rule:evenodd;fill:#663810;}
	.st17{fill:#727272;}
	.st18{fill:#A45A2E;}
	.st19{fill:#989898;}
	.st20{fill-rule:evenodd;clip-rule:evenodd;fill:#6BA1AB;}
	.st21{fill-rule:evenodd;clip-rule:evenodd;fill:#89C4CC;}
	.st22{fill:#C69988;}
	.st23{fill-rule:evenodd;clip-rule:evenodd;fill:#2A275E;}
	.st24{fill-rule:evenodd;clip-rule:evenodd;fill:#DCE2E8;}
	.st25{fill-rule:evenodd;clip-rule:evenodd;fill:#32358C;}
	.st26{opacity:0.1;fill-rule:evenodd;clip-rule:evenodd;fill:#020203;}
	.st27{clip-path:url(#SVGID_5_);}
	.st28{fill:url(#SVGID_6_);}
	.st29{clip-path:url(#SVGID_8_);}
	.st30{fill:url(#SVGID_9_);}
	.st31{fill:#E7E6E6;}
	.st32{fill:#D21226;}
	.st33{fill:#BC1829;}
	.st34{clip-path:url(#SVGID_11_);fill:#D21226;}
	.st35{fill:url(#SVGID_12_);}
	.st36{clip-path:url(#SVGID_14_);fill:#D21226;}
	.st37{fill-rule:evenodd;clip-rule:evenodd;fill:#946131;}
	.st38{fill-rule:evenodd;clip-rule:evenodd;fill:#304697;}
	.st39{fill-rule:evenodd;clip-rule:evenodd;fill:#3954A1;}
	.st40{fill-rule:evenodd;clip-rule:evenodd;fill:#E3E3E2;}
	.st41{fill-rule:evenodd;clip-rule:evenodd;fill:#2F3676;}
	.st42{fill-rule:evenodd;clip-rule:evenodd;fill:#222046;}
	.st43{fill-rule:evenodd;clip-rule:evenodd;fill:#27388D;}
	.st44{fill-rule:evenodd;clip-rule:evenodd;fill:#F1F1F1;}
	.st45{fill-rule:evenodd;clip-rule:evenodd;fill:#452311;}
	.st46{fill-rule:evenodd;clip-rule:evenodd;fill:#997759;}
	.st47{fill-rule:evenodd;clip-rule:evenodd;fill:#AEB8C4;}
	.st48{fill-rule:evenodd;clip-rule:evenodd;fill:#C4CED5;}
	.st49{fill-rule:evenodd;clip-rule:evenodd;fill:#020203;fill-opacity:0.1;}
	.st50{fill-rule:evenodd;clip-rule:evenodd;fill:#794A31;}
	.st51{fill-rule:evenodd;clip-rule:evenodd;fill:#333438;}
	.st52{fill-rule:evenodd;clip-rule:evenodd;fill:#DA2922;}
	.st53{fill-rule:evenodd;clip-rule:evenodd;fill:#E9473C;}
	.st54{fill-rule:evenodd;clip-rule:evenodd;fill:#020203;}
	.st55{fill-rule:evenodd;clip-rule:evenodd;fill:#D4A181;}
	.st56{fill-rule:evenodd;clip-rule:evenodd;fill:#B98C74;}
	.st57{fill-rule:evenodd;clip-rule:evenodd;fill:#693189;}
	.st58{fill-rule:evenodd;clip-rule:evenodd;fill:#952C87;}
	.st59{fill-rule:evenodd;clip-rule:evenodd;fill:#B08A67;}
	.st60{fill-rule:evenodd;clip-rule:evenodd;fill:#E87616;}
	.st61{fill-rule:evenodd;clip-rule:evenodd;fill:#F4992B;}
	.st62{fill-rule:evenodd;clip-rule:evenodd;fill:#006C34;}
	.st63{fill-rule:evenodd;clip-rule:evenodd;fill:#00A66B;}
	.st64{fill:#B6181D;}
	.st65{fill-rule:evenodd;clip-rule:evenodd;fill:#E7E6E6;}
	.st66{fill-rule:evenodd;clip-rule:evenodd;fill:#CDCCCC;}
	.st67{fill:#663810;}
	.st68{fill-rule:evenodd;clip-rule:evenodd;fill:#B6181D;}
	.st69{fill-rule:evenodd;clip-rule:evenodd;fill:#B4B4B4;}
	.st70{fill-rule:evenodd;clip-rule:evenodd;fill:#CDA442;}
	.st71{fill:#B4B4B4;}
	.st72{fill-rule:evenodd;clip-rule:evenodd;fill:#AD7B4B;}
	.st73{fill-rule:evenodd;clip-rule:evenodd;fill:#FFFFFF;}
	.st74{fill-rule:evenodd;clip-rule:evenodd;fill:#7C4B1A;}
	.st75{fill:#3D4B59;}
	.st76{fill:#1D2B39;}
	.st77{fill:#4E5B69;}
	.st78{fill:#2C3A49;}
	.st79{fill:#9C6D4F;}
	.st80{fill:#7E4E2F;}
	.st81{fill:#8C5D3F;}
	.st82{fill:#6E3D21;}
	.st83{fill:#863819;}
	.st84{clip-path:url(#SVGID_16_);}
	.st85{fill:url(#SVGID_17_);}
	.st86{clip-path:url(#SVGID_19_);}
	.st87{fill:url(#SVGID_20_);}
	.st88{clip-path:url(#SVGID_22_);}
	.st89{fill:url(#SVGID_23_);}
	.st90{fill:#FFFFFF;stroke:#020203;stroke-miterlimit:10;}
	.st91{fill:url(#SVGID_24_);}
	.st92{clip-path:url(#SVGID_26_);fill:#D21226;}
	.st93{fill:url(#SVGID_27_);}
	.st94{clip-path:url(#SVGID_29_);fill:#D21226;}
	.st95{fill:url(#SVGID_30_);}
	.st96{fill:#020203;}
	.st97{fill:#F8AB18;}
	.st98{fill:#2A275E;}
	.st99{fill-rule:evenodd;clip-rule:evenodd;fill:#9A182A;}
	.st100{fill:#9A182A;}
	.st101{clip-path:url(#SVGID_32_);}
	.st102{fill:url(#SVGID_33_);}
	.st103{clip-path:url(#SVGID_35_);}
	.st104{fill:url(#SVGID_36_);}
	.st105{clip-path:url(#SVGID_38_);}
	.st106{fill:url(#SVGID_39_);}
	.st107{clip-path:url(#SVGID_41_);fill:#D21226;}
	.st108{fill:url(#SVGID_42_);}
	.st109{clip-path:url(#SVGID_44_);fill:#D21226;}
	.st110{clip-path:url(#SVGID_46_);}
	.st111{fill:url(#SVGID_47_);}
	.st112{clip-path:url(#SVGID_49_);fill:#D21226;}
	.st113{fill:url(#SVGID_50_);}
	.st114{clip-path:url(#SVGID_52_);fill:#D21226;}
	.st115{clip-path:url(#SVGID_54_);}
	.st116{fill:url(#SVGID_55_);}
	.st117{clip-path:url(#SVGID_57_);}
	.st118{fill:url(#SVGID_58_);}
	.st119{fill:url(#SVGID_59_);}
	.st120{fill:url(#SVGID_60_);}
	.st121{fill:#DFDFDF;}
	.st122{fill:#32358C;}
	.st123{fill-rule:evenodd;clip-rule:evenodd;fill:#234D64;}
	.st124{fill-rule:evenodd;clip-rule:evenodd;fill:#398AB1;}
	.st125{fill:#234D64;}
	.st126{fill:#9B9B9A;}
	.st127{fill:#B579B2;}
	.st128{fill:#AB6EAC;}
	.st129{fill:#F28C00;}
	.st130{fill:#62B22F;}
	.st131{fill:#54AF32;}
	.st132{fill:#57C0D3;}
	.st133{fill:#36B2BB;}
	.st134{fill:#E83E5D;}
	.st135{fill:#E72E55;}
	.st136{fill:#F7E700;}
	.st137{clip-path:url(#SVGID_62_);}
	.st138{clip-path:url(#SVGID_64_);fill:#D21226;}
	.st139{fill:url(#SVGID_65_);}
	.st140{fill:#4D4230;}
	.st141{fill:#5F4A2F;}
	.st142{fill:#E30613;}
	.st143{clip-path:url(#SVGID_67_);}
	.st144{fill:url(#SVGID_68_);}
	.st145{clip-path:url(#SVGID_70_);fill:#D21226;}
	.st146{fill:url(#SVGID_71_);}
	.st147{clip-path:url(#SVGID_73_);fill:#D21226;}
	.st148{clip-path:url(#SVGID_75_);}
	.st149{fill:url(#SVGID_76_);}
	.st150{clip-path:url(#SVGID_78_);fill:#D21226;}
	.st151{fill:url(#SVGID_79_);}
	.st152{clip-path:url(#SVGID_81_);}
	.st153{fill:url(#SVGID_82_);}
	.st154{clip-path:url(#SVGID_84_);fill:#D21226;}
	.st155{fill:url(#SVGID_85_);}
	.st156{clip-path:url(#SVGID_87_);fill:#D21226;}
	.st157{fill:url(#SVGID_88_);}
	.st158{clip-path:url(#SVGID_90_);}
	.st159{clip-path:url(#SVGID_92_);}
	.st160{fill:url(#SVGID_93_);}
</style>
<g>
	<defs>
		<rect id="SVGID_91_" x="0" width="1440" height="1024"/>
	</defs>
	<clipPath id="SVGID_2_">
		<use xlink:href="#SVGID_91_"  style="overflow:visible;"/>
	</clipPath>
	<g class="st0">
		<g>
			<linearGradient id="SVGID_3_" gradientUnits="userSpaceOnUse" x1="719.5245" y1="-597.4393" x2="719.5245" y2="1024.0001">
				<stop  offset="0" style="stop-color:#FFFFFF"/>
				<stop  offset="0.2149" style="stop-color:#FBFDFF"/>
				<stop  offset="0.4187" style="stop-color:#F0F9FD"/>
				<stop  offset="0.6181" style="stop-color:#DDF1FB"/>
				<stop  offset="0.8135" style="stop-color:#C2E6F9"/>
				<stop  offset="1" style="stop-color:#A1D9F5"/>
			</linearGradient>
			<rect x="0" y="-597.44" class="st1" width="1439.05" height="1621.44"/>
		</g>
		<g>
			<g>
				<path class="st2" d="M1176.5,730.13V1024H263.31l0.01-10.96l0.1-228.05l0.04-87.94c77.34-34.86,142.55-57.27,245.7-56.52
					c50.86,0.37,144.12,10.89,205.83,19.43c9.58,1.33,18.4,2.61,26.18,3.8C886.29,685.89,1031.39,708.01,1176.5,730.13z"/>
				<g>
					<rect x="399.96" y="657.21" class="st3" width="20.67" height="69.33"/>
					
						<rect x="420.64" y="657.21" transform="matrix(-1 -1.224647e-16 1.224647e-16 -1 850.8943 1383.7446)" class="st4" width="9.62" height="69.33"/>
					<rect x="335.44" y="670.3" class="st3" width="20.67" height="56.24"/>
					
						<rect x="356.11" y="670.3" transform="matrix(-1 -1.224647e-16 1.224647e-16 -1 721.8479 1396.834)" class="st4" width="9.62" height="56.24"/>
					<rect x="362.28" y="680.96" class="st3" width="31.25" height="45.57"/>
					
						<rect x="393.52" y="680.96" transform="matrix(-1 -1.224647e-16 1.224647e-16 -1 801.5859 1407.4994)" class="st4" width="14.54" height="45.57"/>
					
						<rect x="296.56" y="651.88" transform="matrix(-1 -1.224647e-16 1.224647e-16 -1 613.789 1378.4115)" class="st3" width="20.67" height="74.66"/>
					<rect x="286.94" y="651.88" class="st4" width="9.62" height="74.66"/>
				</g>
			</g>
			<g>
				<path class="st5" d="M491.11,608.21h-92.49c2.46-7.21,8.15-13.66,14.56-14.93c6.41-1.27,13.3,1.72,17.55,7.61
					c4.32-9.34,11.83-16.52,20.29-19.54c3.94-1.41,8.08-1.91,12.19-1.3C476.17,581.95,487.74,593.09,491.11,608.21z"/>
			</g>
			<g>
				<path class="st5" d="M721.76,616.42h-51.73c1.89-8.46,8.36-14.68,15.6-15.75c7.24-1.07,14.63,4,18.16,11.66
					c1.23-1.71,2.86-2.97,4.64-3.7c1.66-0.68,3.45-0.89,5.18-0.55C717.21,608.78,720.39,612.39,721.76,616.42z"/>
			</g>
			<g>
				<path class="st6" d="M1176.5,625.3c0,0,69.86,35.48,95.21,40.7c125.58,25.87,328.24-25.48,328.24-25.48V1024H1176.5H263.31
					V795.99c0.05-0.02,0.1-0.03,0.15-0.05c76.96-25.34,154.83-48.15,233.22-69.38c123.41-33.44,248.14-63,372.75-92.53
					c65.52-15.53,132.08-31.17,199.72-29.54C1105.72,605.37,1143,611.96,1176.5,625.3z"/>
			</g>
			<g>
				<path class="st5" d="M893.95,657.51H788.22c1.48-6.84,5.07-11.88,10.8-13.53c5.72-1.64,12.13,0.79,16.02,6.1
					c1.09-9.56,6.48-17.97,13.53-22.51c3.43-2.21,7.27-3.51,11.19-3.56c11.96-0.18,23.3,11.25,25.21,25.42
					c4.55-4.66,11.41-7.43,17.27-5.98C888.09,644.91,891.9,650.12,893.95,657.51z"/>
			</g>
			<g>
				<path class="st5" d="M348.04,633.87H285.8c0.87-4.03,2.98-7,6.35-7.96c3.37-0.97,7.14,0.47,9.44,3.59
					c0.95-8.37,7.5-15.25,14.55-15.35c0.15,0,0.31,0,0.46,0.01c6.87,0.18,13.28,6.8,14.38,14.96c2.68-2.74,6.72-4.38,10.17-3.52
					C344.59,626.45,346.83,629.52,348.04,633.87z"/>
			</g>
			<g>
				<path class="st7" d="M1176.65,698.92c0,0,78.13,19.62,107.91,20.92c76.04,3.33,315.35-36.45,315.35-36.45v86.79
					c0,0-233.72-30.39-311.63-28.99c-27.91,0.5-111.64,12.13-111.64,12.13c-30.14,5.25-60.26,9.75-90.64,6.71
					c-42.7-4.28-81.06-23.08-123.21-29.97c-51.95-8.49-105.91,1.69-155.66,16.29c-111.53,32.73-210.81,87.2-319.24,125.96
					c-71.31,25.49-148.53,41.32-224.44,39.18v-52.46c143.62-41.17,287.24-82.33,430.85-123.5c79.24-22.71,159.29-45.58,242.87-53.86
					C1017.33,673.76,1099.52,679.91,1176.65,698.92z"/>
			</g>
			<g>
				<path class="st8" d="M1176.65,946.76V1024H263.46V795.94c76.96-25.34,154.83-48.15,233.22-69.38
					c201.44,49.07,489.33,128.37,679.82,220.12C1176.55,946.71,1176.6,946.74,1176.65,946.76z"/>
			</g>
			<g>
				<path class="st6" d="M1176.65,957.71V1024H263.46h-423.41V616.42l423.41,68.48c0,0,79.81,15.98,196.67,43.81
					c1.76,0.42,3.52,0.84,5.29,1.26C667.39,778.24,976.08,861.07,1176.65,957.71z"/>
			</g>
			<g>
				<path class="st2" d="M823.85,1024C652.07,879.34,461.29,777.02,263.43,723.38L28.44,646.89l-188.39-30.47v189.04
					c0,0,128.26,47.43,184.93,16.21c89.42-49.26,238.45-60.41,238.45-60.41c21.75,0,43.73-0.68,65.09,4.23
					c21.36,4.91,42.38,18.43,53.11,41.12c4.32,9.13,6.89,19.48,12.19,27.84c7.13,11.25,18.47,17.62,29.91,20.99
					c11.44,3.37,23.29,4.14,34.9,6.54c46.08,9.54,85.44,43.87,124.13,75.36c38.69,31.49,81.23,86.38,127.99,86.66H823.85z"/>
			</g>
			<g>
				<path class="st2" d="M1176.65,1024H263.46l0.11-20.48L197.18,1024h-357.13l423.9-93.13c0,0,19.9-4.5,55.56-11.78
					c11.75-2.39,25.21-5.09,40.23-8.03c124.72-24.39,357.15-65.26,612.38-87.19c8.94-0.77,17.89-1.52,26.88-2.24
					c23.17-1.86,46.51-3.55,69.94-5.05c13.68-0.88,27.39-1.69,41.13-2.43c22.11-1.19,44.27-2.2,66.43-3.01l423.38-13.02l0.07,225.87
					H1176.65z"/>
			</g>
			<g>
				<path class="st6" d="M1176.56,886.96c-29.19-1.29-58.98-0.04-88.19,2.4c-58.27,4.86-116.01,14.2-174.48,16.59
					c-51.38,2.09-103.93-1.1-153.38,9.96c-43.98,9.83-82.09,30.25-124.84,42.69c-71.41,20.79-151.13,18.2-225.11,33.31
					c-34.36,7.01-67.21,17.95-97.13,32.09H197.18l66.39-20.48c284.39-99.06,600.27-149.97,912.96-147.64l423.42-19.3l-1.12,70.23
					L1176.56,886.96z"/>
			</g>
			<g>
				<path class="st2" d="M827.05,816.11c-0.27,2.67-1.45,5.11-2.97,6.77c-1.08,1.18-2.34,2-3.66,2.45c-1.68,0.57-3.47,0.52-5.13-0.2
					c-2.96-1.29-5.4-4.7-6.35-8.85c-0.25-1.1-0.4-2.28-0.21-3.4c0.19-1.12,0.77-2.16,1.57-2.42c1.33-0.43,2.47,1.32,3.28,2.87
					c-0.43-4.11,0.42-8.23,2.16-11.59c0.57-1.1,1.38-2.19,2.35-2.1c0.88,0.08,1.55,1.11,2.02,2.15c1.18,2.63,1.51,5.84,1.37,8.93
					c0.46-1.54,1.61-2.31,2.73-2.13c0.55,0.09,1.05,0.42,1.48,0.91c0.45,0.51,0.81,1.19,1.05,1.93
					C827.18,812.89,827.21,814.54,827.05,816.11z"/>
			</g>
			<g>
				<rect x="817.42" y="812.28" class="st9" width="0.8" height="20.86"/>
			</g>
			<g>
				<path class="st2" d="M348.53,872.81c-0.79,7.65-4.16,14.64-8.5,19.38c-1.94,2.13-4.1,3.85-6.37,5.15
					c-5.92,3.4-12.68,3.95-18.79,1.29c-8.46-3.69-15.47-13.45-18.16-25.32c-0.71-3.14-1.14-6.52-0.6-9.72
					c0.54-3.21,2.21-6.2,4.49-6.94c3.82-1.24,7.07,3.77,9.38,8.22c-1.22-11.76,1.21-23.56,6.17-33.17c1.64-3.16,3.96-6.27,6.73-6
					c2.51,0.24,4.43,3.18,5.78,6.16c3.38,7.52,4.31,16.7,3.93,25.54c1.31-4.42,4.6-6.62,7.81-6.09c0.62,0.1,1.22,0.31,1.8,0.62
					c2.4,1.27,4.36,4.16,5.42,7.5C348.91,863.59,348.99,868.32,348.53,872.81z"/>
			</g>
			<g>
				<rect x="320.98" y="861.85" class="st9" width="2.28" height="59.71"/>
			</g>
			<g>
				<path class="st2" d="M388.59,866.06c-0.34,4.89-1.55,10.17-4.93,12.94c-0.81,0.66-1.69,1.12-2.63,1.4
					c-3.48,1.05-7.54-0.5-10.08-3.69c-3.22-4.04-4.27-10.05-3.72-15.6c0.48-4.95,2.17-13.9,6.12-16.76
					c3.94-2.84,9.47,0.85,12.04,4.78c0.13,0.2,0.25,0.4,0.37,0.6C388.44,854.4,388.98,860.41,388.59,866.06z"/>
			</g>
			<g>
				<rect x="376.72" y="859.78" class="st9" width="2.28" height="40.54"/>
			</g>
			<g>
				<path class="st2" d="M1103.85,743.71c-0.2,1.96-1.07,3.76-2.18,4.98c-0.79,0.86-1.72,1.47-2.69,1.8
					c-1.24,0.42-2.55,0.38-3.77-0.15c-2.17-0.95-3.97-3.45-4.66-6.5c-0.18-0.81-0.29-1.67-0.15-2.5c0.14-0.82,0.57-1.59,1.15-1.78
					c0.98-0.32,1.82,0.97,2.41,2.11c-0.31-3.02,0.31-6.05,1.58-8.52c0.42-0.81,1.02-1.61,1.73-1.54c0.64,0.06,1.14,0.82,1.48,1.58
					c0.87,1.93,1.11,4.29,1.01,6.56c0.34-1.13,1.18-1.7,2.01-1.56c0.4,0.07,0.77,0.31,1.09,0.67c0.33,0.37,0.6,0.87,0.77,1.42
					C1103.95,741.35,1103.97,742.56,1103.85,743.71z"/>
			</g>
			<g>
				<rect x="1096.78" y="740.9" class="st9" width="0.59" height="15.33"/>
			</g>
			<g>
				<path class="st2" d="M1048.73,660.43c-0.16,1.57-0.86,3.01-1.75,3.99c-0.63,0.69-1.37,1.18-2.16,1.44
					c-0.99,0.33-2.04,0.31-3.02-0.12c-1.74-0.76-3.18-2.77-3.74-5.21c-0.15-0.65-0.23-1.34-0.12-2c0.11-0.66,0.45-1.27,0.92-1.43
					c0.79-0.25,1.45,0.78,1.93,1.69c-0.25-2.42,0.25-4.84,1.27-6.82c0.34-0.65,0.81-1.29,1.38-1.23c0.52,0.05,0.91,0.65,1.19,1.27
					c0.69,1.55,0.89,3.43,0.81,5.25c0.27-0.91,0.95-1.36,1.61-1.25c0.32,0.05,0.62,0.25,0.87,0.54c0.26,0.3,0.48,0.7,0.62,1.14
					C1048.81,658.53,1048.82,659.5,1048.73,660.43z"/>
			</g>
			<g>
				<rect x="1043.06" y="658.17" class="st9" width="0.47" height="12.28"/>
			</g>
			<g>
				<path class="st2" d="M1056.57,661.71c-0.08,1.16-0.37,2.4-1.17,3.06c-0.19,0.16-0.4,0.27-0.62,0.33
					c-0.82,0.25-1.78-0.12-2.38-0.87c-0.76-0.95-1.01-2.38-0.88-3.69c0.11-1.17,0.51-3.29,1.45-3.96c0.93-0.67,2.24,0.2,2.85,1.13
					c0.03,0.05,0.06,0.09,0.09,0.14C1056.54,658.95,1056.67,660.37,1056.57,661.71z"/>
			</g>
			<g>
				<rect x="1053.77" y="660.22" class="st9" width="0.54" height="9.58"/>
			</g>
			<g>
				<path class="st8" d="M1104.93,847.47c-0.38,5.49-1.74,11.41-5.53,14.53c-0.91,0.74-1.9,1.26-2.95,1.57
					c-3.91,1.17-8.46-0.57-11.32-4.14c-3.61-4.53-4.79-11.28-4.18-17.51c0.54-5.56,2.44-15.61,6.88-18.82
					c4.42-3.19,10.63,0.96,13.52,5.37c0.14,0.22,0.28,0.45,0.41,0.67C1104.76,834.37,1105.37,841.12,1104.93,847.47z"/>
			</g>
			<g>
				<rect x="1091.6" y="840.41" class="st9" width="2.56" height="45.51"/>
			</g>
			<g>
				<path class="st5" d="M1024.23,587.73h-51.73c1.89-8.46,8.36-14.68,15.6-15.75c7.24-1.07,14.63,4,18.16,11.66
					c1.23-1.71,2.86-2.97,4.64-3.7c1.66-0.68,3.45-0.89,5.18-0.55C1019.68,580.09,1022.86,583.7,1024.23,587.73z"/>
			</g>
			<g>
				<path class="st5" d="M1141.47,608.21h-64.6c1.72-5.04,5.69-9.54,10.17-10.43c4.48-0.88,9.29,1.2,12.26,5.31
					c3.01-6.52,8.26-11.54,14.17-13.65c2.75-0.98,5.64-1.34,8.52-0.91C1131.03,589.87,1139.11,597.65,1141.47,608.21z"/>
			</g>
			<g>
				<path class="st2" d="M795.27,823.07c-0.26,2.49-1.35,4.76-2.76,6.3c-1,1.09-2.17,1.86-3.41,2.28c-1.57,0.53-3.23,0.49-4.77-0.19
					c-2.75-1.2-5.02-4.37-5.9-8.23c-0.23-1.02-0.37-2.12-0.2-3.16c0.18-1.04,0.72-2.01,1.46-2.25c1.24-0.4,2.3,1.22,3.05,2.67
					c-0.4-3.82,0.39-7.65,2-10.78c0.53-1.03,1.29-2.04,2.19-1.95c0.81,0.08,1.44,1.03,1.88,2c1.1,2.44,1.4,5.43,1.28,8.3
					c0.42-1.43,1.5-2.15,2.54-1.98c0.51,0.08,0.98,0.39,1.37,0.85c0.42,0.47,0.75,1.1,0.97,1.79
					C795.39,820.08,795.42,821.61,795.27,823.07z"/>
			</g>
			<g>
				<rect x="786.32" y="819.51" class="st9" width="0.74" height="19.4"/>
			</g>
			<g>
				
					<rect x="458.24" y="791.04" transform="matrix(-1 -1.224647e-16 1.224647e-16 -1 937.2139 1605.1462)" class="st5" width="20.73" height="23.06"/>
				<rect x="423.29" y="791.04" class="st10" width="34.96" height="23.06"/>
				<rect x="465.43" y="796.82" class="st11" width="7.62" height="17.29"/>
				<polygon class="st11" points="433.53,765.82 423.29,791.04 458.49,791.04 468.73,765.82 				"/>
				<rect x="437.61" y="759.95" class="st10" width="6.46" height="8.63"/>
				<polygon class="st5" points="468.73,765.82 458.49,791.04 478.97,791.04 				"/>
				<polygon class="st5" points="444.07,768.57 446.92,765.47 446.92,759.95 444.07,759.95 				"/>
				
					<rect x="466.49" y="776.08" transform="matrix(-1 -1.224647e-16 1.224647e-16 -1 937.2139 1556.8674)" class="st3" width="4.22" height="4.7"/>
				
					<rect x="433.88" y="793.43" transform="matrix(-1 -1.224647e-16 1.224647e-16 -1 871.9888 1596.2646)" class="st3" width="4.22" height="9.4"/>
				
					<rect x="441.27" y="793.43" transform="matrix(-1 -1.224647e-16 1.224647e-16 -1 886.7651 1596.2646)" class="st3" width="4.22" height="9.4"/>
			</g>
			<g>
				<rect x="586.32" y="848.81" class="st5" width="25.16" height="20.13"/>
				
					<rect x="611.47" y="848.81" transform="matrix(-1 -3.700918e-11 3.700918e-11 -1 1265.3647 1717.7469)" class="st10" width="42.42" height="20.13"/>
				
					<rect x="601.06" y="853.85" transform="matrix(-1 -5.134394e-11 5.134394e-11 -1 1208.7278 1722.7845)" class="st11" width="6.61" height="15.09"/>
				<polygon class="st11" points="641.46,826.8 653.89,848.81 611.17,848.81 598.75,826.8 				"/>
				
					<rect x="629.34" y="821.67" transform="matrix(-1 -5.341029e-11 5.341029e-11 -1 1264.118 1650.8744)" class="st10" width="5.43" height="7.53"/>
				<polygon class="st5" points="598.75,826.8 611.17,848.81 586.32,848.81 				"/>
				<polygon class="st5" points="629.34,829.2 626.94,826.5 626.94,821.67 629.34,821.67 				"/>
				<rect x="597.36" y="835.75" class="st3" width="3.08" height="7.54"/>
				<rect x="645.09" y="853.94" class="st3" width="3.38" height="8.2"/>
				<rect x="639.18" y="853.94" class="st3" width="3.38" height="8.2"/>
				<rect x="622.94" y="853.94" class="st3" width="3.38" height="8.2"/>
				<rect x="617.03" y="853.94" class="st3" width="3.38" height="8.2"/>
				<rect x="595.07" y="853.94" class="st3" width="3.38" height="8.2"/>
				<rect x="589.16" y="853.94" class="st3" width="3.38" height="8.2"/>
			</g>
			<g>
				<path class="st2" d="M874.46,812.27c-0.24,2.53-1.24,4.83-2.54,6.4c-0.92,1.11-2,1.89-3.14,2.32c-1.44,0.54-2.97,0.49-4.39-0.19
					c-2.53-1.22-4.63-4.44-5.43-8.36c-0.21-1.04-0.34-2.15-0.18-3.21c0.16-1.06,0.66-2.05,1.34-2.29c1.14-0.41,2.12,1.24,2.81,2.72
					c-0.36-3.88,0.36-7.78,1.85-10.95c0.49-1.04,1.18-2.07,2.01-1.98c0.75,0.08,1.33,1.05,1.73,2.03c1.01,2.48,1.29,5.52,1.18,8.43
					c0.39-1.46,1.38-2.19,2.34-2.01c0.47,0.09,0.9,0.4,1.27,0.86c0.38,0.48,0.69,1.12,0.9,1.82
					C874.57,809.23,874.6,810.79,874.46,812.27z"/>
			</g>
			<g>
				<rect x="866.22" y="808.65" class="st9" width="0.68" height="19.72"/>
			</g>
			<g>
				<path class="st2" d="M847.25,818.85c-0.22,2.35-1.16,4.49-2.37,5.95c-0.86,1.03-1.86,1.76-2.92,2.15
					c-1.34,0.5-2.77,0.46-4.09-0.17c-2.35-1.13-4.3-4.13-5.05-7.77c-0.2-0.96-0.32-2-0.17-2.99c0.15-0.99,0.61-1.9,1.25-2.13
					c1.06-0.38,1.97,1.16,2.61,2.52c-0.34-3.61,0.34-7.23,1.72-10.18c0.45-0.97,1.1-1.93,1.87-1.84c0.7,0.07,1.23,0.98,1.61,1.89
					c0.94,2.31,1.2,5.13,1.09,7.84c0.36-1.36,1.28-2.03,2.17-1.87c0.44,0.08,0.84,0.37,1.18,0.8c0.36,0.45,0.65,1.04,0.83,1.7
					C847.36,816.02,847.38,817.47,847.25,818.85z"/>
			</g>
			<g>
				<rect x="839.58" y="815.49" class="st9" width="0.64" height="18.33"/>
			</g>
			<g>
				<path class="st2" d="M1118.58,742.17c-0.2,2.21-1.07,4.22-2.18,5.59c-0.79,0.97-1.72,1.65-2.69,2.02
					c-1.24,0.47-2.55,0.43-3.77-0.16c-2.17-1.06-3.97-3.88-4.66-7.3c-0.18-0.9-0.29-1.88-0.15-2.8c0.14-0.93,0.57-1.79,1.15-2
					c0.98-0.36,1.82,1.09,2.41,2.37c-0.31-3.39,0.31-6.79,1.58-9.56c0.42-0.91,1.02-1.81,1.73-1.73c0.64,0.07,1.14,0.92,1.48,1.78
					c0.87,2.17,1.11,4.81,1.01,7.36c0.34-1.27,1.18-1.91,2-1.76c0.4,0.07,0.77,0.35,1.09,0.75c0.33,0.42,0.6,0.98,0.77,1.59
					C1118.68,739.52,1118.7,740.88,1118.58,742.17z"/>
			</g>
			<g>
				<rect x="1111.51" y="739.01" class="st9" width="0.59" height="17.21"/>
			</g>
			<g>
				
					<rect x="923.87" y="675.79" transform="matrix(-1 -1.224647e-16 1.224647e-16 -1 1857.7852 1362.7467)" class="st5" width="10.04" height="11.17"/>
				<rect x="906.94" y="675.79" class="st10" width="16.93" height="11.17"/>
				<rect x="927.36" y="678.59" class="st11" width="3.69" height="8.37"/>
				<polygon class="st11" points="911.9,663.58 906.94,675.79 923.99,675.79 928.95,663.58 				"/>
				<rect x="913.88" y="660.73" class="st10" width="3.13" height="4.18"/>
				<polygon class="st5" points="928.95,663.58 923.99,675.79 933.91,675.79 				"/>
				<polygon class="st5" points="917.01,664.91 918.39,663.41 918.39,660.73 917.01,660.73 				"/>
				
					<rect x="927.87" y="668.55" transform="matrix(-1 -1.224647e-16 1.224647e-16 -1 1857.7852 1339.366)" class="st3" width="2.05" height="2.28"/>
				
					<rect x="912.08" y="676.95" transform="matrix(-1 -1.224647e-16 1.224647e-16 -1 1826.1974 1358.4454)" class="st3" width="2.05" height="4.55"/>
				
					<rect x="915.65" y="676.95" transform="matrix(-1 -1.224647e-16 1.224647e-16 -1 1833.3534 1358.4454)" class="st3" width="2.05" height="4.55"/>
			</g>
			<g>
				<rect x="862.09" y="683.34" class="st5" width="12.18" height="9.75"/>
				
					<rect x="874.27" y="683.34" transform="matrix(-1 -3.701451e-11 3.701451e-11 -1 1769.0785 1376.4247)" class="st10" width="20.54" height="9.75"/>
				
					<rect x="869.23" y="685.78" transform="matrix(-1 -5.002499e-11 5.002499e-11 -1 1741.6499 1378.8644)" class="st11" width="3.2" height="7.31"/>
				<polygon class="st11" points="888.79,672.68 894.81,683.34 874.12,683.34 868.1,672.68 				"/>
				
					<rect x="882.92" y="670.2" transform="matrix(-1 -5.324153e-11 5.324153e-11 -1 1768.4747 1344.0392)" class="st10" width="2.63" height="3.65"/>
				<polygon class="st5" points="868.1,672.68 874.12,683.34 862.09,683.34 				"/>
				<polygon class="st5" points="882.92,673.84 881.76,672.53 881.76,670.2 882.92,670.2 				"/>
				<rect x="867.43" y="677.02" class="st3" width="1.49" height="3.65"/>
				<rect x="890.55" y="685.82" class="st3" width="1.64" height="3.97"/>
				<rect x="887.69" y="685.82" class="st3" width="1.64" height="3.97"/>
				<rect x="879.82" y="685.82" class="st3" width="1.64" height="3.97"/>
				<rect x="876.96" y="685.82" class="st3" width="1.64" height="3.97"/>
				<rect x="866.33" y="685.82" class="st3" width="1.64" height="3.97"/>
				<rect x="863.46" y="685.82" class="st3" width="1.64" height="3.97"/>
			</g>
			<g>
				
					<rect x="845" y="692.54" transform="matrix(-1 -1.224647e-16 1.224647e-16 -1 1701.4272 1394.4775)" class="st5" width="11.42" height="9.39"/>
				<rect x="825.75" y="692.54" class="st10" width="19.25" height="9.39"/>
				<rect x="848.97" y="694.89" class="st11" width="4.19" height="7.04"/>
				<polygon class="st11" points="831.39,682.28 825.75,692.54 845.14,692.54 850.78,682.28 				"/>
				<rect x="833.64" y="679.88" class="st10" width="3.56" height="3.51"/>
				<polygon class="st5" points="850.78,682.28 845.14,692.54 856.42,692.54 				"/>
				<polygon class="st5" points="837.2,683.4 838.77,682.14 838.77,679.88 837.2,679.88 				"/>
				
					<rect x="849.55" y="686.45" transform="matrix(-1 -1.224647e-16 1.224647e-16 -1 1701.4272 1374.8221)" class="st3" width="2.33" height="1.91"/>
				
					<rect x="831.59" y="693.52" transform="matrix(-1 -1.224647e-16 1.224647e-16 -1 1665.4996 1390.8617)" class="st3" width="2.33" height="3.83"/>
				
					<rect x="835.66" y="693.52" transform="matrix(-1 -1.224647e-16 1.224647e-16 -1 1673.6387 1390.8617)" class="st3" width="2.33" height="3.83"/>
			</g>
			<g>
				<rect x="946.62" y="675.4" class="st5" width="13.25" height="11.75"/>
				<rect x="975.58" y="647.32" class="st5" width="13.25" height="39.83"/>
				
					<rect x="959.86" y="675.4" transform="matrix(-1 -3.134039e-11 3.134039e-11 -1 1948.7792 1362.5444)" class="st10" width="29.05" height="11.75"/>
				<path class="st11" d="M950.64,687.15h5.2v-7.31c0-0.5-0.41-0.91-0.91-0.91h-3.38c-0.5,0-0.91,0.41-0.91,0.91V687.15z"/>
				<polygon class="st11" points="975.66,662.55 982.2,675.4 959.71,675.4 953.16,662.55 				"/>
				
					<rect x="969.27" y="659.55" transform="matrix(-1 -6.295998e-11 6.295998e-11 -1 1941.4076 1323.5052)" class="st10" width="2.86" height="4.4"/>
				<polygon class="st5" points="953.16,662.55 959.71,675.4 946.62,675.4 				"/>
				<polygon class="st5" points="969.27,663.95 968.01,662.37 968.01,659.55 969.27,659.55 				"/>
				<path class="st3" d="M953.77,667.78h-1.05c-0.16,0-0.28,0.13-0.28,0.28v4.12h1.62v-4.12
					C954.05,667.9,953.92,667.78,953.77,667.78z"/>
				<path class="st3" d="M977.52,678.39h-1.16c-0.17,0-0.31,0.14-0.31,0.31v4.48h1.78v-4.48
					C977.83,678.53,977.69,678.39,977.52,678.39z"/>
				<path class="st3" d="M965.7,678.39h-1.16c-0.17,0-0.31,0.14-0.31,0.31v4.48h1.78v-4.48
					C966.02,678.53,965.88,678.39,965.7,678.39z"/>
				<path class="st3" d="M958.58,678.39h-1.16c-0.17,0-0.31,0.14-0.31,0.31v4.48h1.78v-4.48
					C958.89,678.53,958.75,678.39,958.58,678.39z"/>
				<path class="st3" d="M949.14,678.39h-1.16c-0.17,0-0.31,0.14-0.31,0.31v4.48h1.78v-4.48
					C949.45,678.53,949.31,678.39,949.14,678.39z"/>
				<path class="st3" d="M971.62,678.39h-1.16c-0.17,0-0.31,0.14-0.31,0.31v4.48h1.78v-4.48
					C971.93,678.53,971.79,678.39,971.62,678.39z"/>
				
					<rect x="982.2" y="647.32" transform="matrix(-1 -4.632016e-10 4.632016e-10 -1 1971.1133 1334.4624)" class="st10" width="6.72" height="39.83"/>
				<polygon class="st11" points="982.25,635.02 989.31,647.87 975.18,647.87 				"/>
				<path class="st3" d="M979.3,658.15h-1.05c-0.16,0-0.28,0.13-0.28,0.28v4.12h1.62v-4.12
					C979.58,658.27,979.46,658.15,979.3,658.15z"/>
				<circle class="st3" cx="978.77" cy="652.62" r="1.66"/>
				<path class="st3" d="M986.08,658.15h-1.05c-0.16,0-0.28,0.13-0.28,0.28v4.12h1.62v-4.12
					C986.37,658.27,986.24,658.15,986.08,658.15z"/>
				<path class="st3" d="M986.08,666.01h-1.05c-0.16,0-0.28,0.13-0.28,0.28v4.12h1.62v-4.12
					C986.37,666.13,986.24,666.01,986.08,666.01z"/>
				<circle class="st3" cx="985.56" cy="652.62" r="1.66"/>
			</g>
			<g>
				<path class="st5" d="M133.18,657.51H27.45c1.48-6.84,5.07-11.88,10.8-13.53c5.72-1.64,12.13,0.79,16.02,6.1
					c1.09-9.56,6.48-17.97,13.53-22.51c3.43-2.21,7.27-3.51,11.19-3.56c11.96-0.18,23.3,11.25,25.21,25.42
					c4.55-4.66,11.41-7.43,17.27-5.98C127.32,644.91,131.13,650.12,133.18,657.51z"/>
			</g>
			<g>
				<path class="st5" d="M263.46,587.73h-51.73c1.89-8.46,8.36-14.68,15.6-15.75c7.24-1.07,14.63,4,18.16,11.66
					c1.23-1.71,2.86-2.97,4.64-3.7c1.66-0.68,3.45-0.89,5.18-0.55C258.9,580.09,262.09,583.7,263.46,587.73z"/>
			</g>
			<g>
				<path class="st5" d="M1437.76,608.21h-92.49c2.46-7.21,8.15-13.66,14.56-14.93c6.41-1.27,13.3,1.72,17.55,7.61
					c4.32-9.34,11.83-16.52,20.29-19.54c3.94-1.41,8.08-1.91,12.19-1.3C1422.82,581.95,1434.39,593.09,1437.76,608.21z"/>
			</g>
			<g>
				<path class="st5" d="M1270.01,651.3h-62.24c0.87-4.03,2.98-7,6.35-7.96c3.37-0.97,7.14,0.47,9.44,3.59
					c0.95-8.37,7.5-15.25,14.55-15.35c0.15,0,0.31,0,0.46,0.01c6.87,0.18,13.28,6.8,14.38,14.96c2.68-2.74,6.72-4.38,10.17-3.52
					C1266.56,643.89,1268.8,646.95,1270.01,651.3z"/>
			</g>
			<g>
				<path class="st8" d="M1411.28,960.09c-0.51,7.3-2.32,15.2-7.37,19.34c-1.21,0.99-2.53,1.68-3.93,2.1
					c-5.21,1.56-11.26-0.75-15.07-5.52c-4.81-6.03-6.38-15.03-5.56-23.32c0.72-7.4,3.24-20.78,9.16-25.06
					c5.88-4.25,14.16,1.28,18,7.15c0.19,0.29,0.38,0.6,0.55,0.89C1411.04,942.66,1411.86,951.64,1411.28,960.09z"/>
			</g>
			<g>
				<rect x="1393.53" y="950.7" class="st9" width="3.41" height="60.59"/>
			</g>
			<g>
				<path class="st8" d="M1449.24,942.08c-0.51,7.3-2.32,15.2-7.37,19.34c-1.21,0.99-2.53,1.68-3.93,2.1
					c-5.21,1.56-11.26-0.75-15.07-5.52c-4.81-6.03-6.38-15.03-5.56-23.32c0.72-7.4,3.24-20.78,9.16-25.06
					c5.88-4.25,14.16,1.28,18,7.15c0.19,0.29,0.38,0.6,0.55,0.89C1449.01,924.65,1449.83,933.63,1449.24,942.08z"/>
			</g>
			<g>
				<rect x="1431.49" y="932.69" class="st9" width="3.41" height="60.59"/>
			</g>
			<g>
				<path class="st2" d="M1391.47,781.46c-0.15,2.18-0.69,4.53-2.19,5.76c-0.36,0.3-0.75,0.5-1.17,0.62
					c-1.55,0.47-3.36-0.22-4.49-1.64c-1.43-1.8-1.9-4.48-1.66-6.95c0.21-2.21,0.97-6.19,2.73-7.46c1.75-1.27,4.22,0.38,5.36,2.13
					c0.06,0.09,0.11,0.18,0.16,0.27C1391.4,776.27,1391.64,778.94,1391.47,781.46z"/>
			</g>
			<g>
				<rect x="1386.18" y="778.66" class="st9" width="1.02" height="18.05"/>
			</g>
			<g>
				<path class="st2" d="M1372.06,768.77c-0.15,2.18-0.69,4.53-2.19,5.76c-0.36,0.3-0.75,0.5-1.17,0.62
					c-1.55,0.47-3.36-0.22-4.49-1.64c-1.43-1.8-1.9-4.48-1.66-6.95c0.21-2.21,0.97-6.19,2.73-7.46c1.75-1.27,4.22,0.38,5.36,2.13
					c0.06,0.09,0.11,0.18,0.16,0.27C1371.99,763.58,1372.23,766.26,1372.06,768.77z"/>
			</g>
			<g>
				<rect x="1366.77" y="765.98" class="st9" width="1.02" height="18.05"/>
			</g>
		</g>
	</g>
	<g class="st0">
		<g>
			<g>
				<path class="st18" d="M494.13,904.27l50.39-26.53l1.36,2.59l-50.39,26.53c-0.3,0.16-0.66,0.04-0.82-0.25l-0.8-1.51
					C493.72,904.79,493.83,904.42,494.13,904.27z"/>
			</g>
			<g>
				<path class="st83" d="M544.82,878.3c0,0-18.39,10.19-24.47,13.33s-13.94,7.11-19.96,10.36c0,0,16.74-8.36,22.43-11.44
					C528.5,887.47,541.79,880.58,544.82,878.3L544.82,878.3z"/>
			</g>
			<g>
				<path class="st83" d="M543.54,880.4c0,0-7.05,4.31-9.78,5.65c-2.72,1.34-3.79,1.75-7.31,3.56c0,0,4.05-2.31,6.43-3.47
					C538.9,883.19,543.54,880.4,543.54,880.4z"/>
			</g>
			<g>
				<path class="st83" d="M494.46,906.2c0,0,7.48-3.59,9.16-4.59c1.68-1.01,3.78-2.51,5.05-3.05c0,0-2.54,1.85-4.19,2.81
					C502.51,902.5,497.8,905.01,494.46,906.2z"/>
			</g>
			<g>
				<path class="st18" d="M543.02,874.88l4.37,8.31c0.18,0.34,0.05,0.76-0.29,0.94l-1.74,0.91c-0.34,0.18-0.76,0.05-0.94-0.29
					l-4.37-8.31c-0.18-0.34-0.05-0.76,0.29-0.94l1.74-0.91C542.42,874.41,542.84,874.54,543.02,874.88z"/>
			</g>
			<g>
				<path class="st83" d="M547.07,884.15c0,0-2.3-3.24-2.84-4.41s-1.16-2.7-1.83-3.8c0,0,1.23,3.31,1.87,4.35
					S546.13,883.85,547.07,884.15L547.07,884.15z"/>
			</g>
			<g>
				<path class="st83" d="M545.61,884.47c0,0-1.26-1.09-1.44-1.63c-0.18-0.55-0.15-0.8-0.45-1.48c0,0,0.57,0.69,0.72,1.17
					C544.82,883.74,545.61,884.47,545.61,884.47z"/>
			</g>
			<g>
				<path class="st83" d="M540.8,875.26c0,0,0.41,1.54,0.69,1.81c0.28,0.27,0.86,0.51,0.87,0.79c0,0-0.74-0.27-0.98-0.55
					C541.09,876.98,540.6,876.11,540.8,875.26z"/>
			</g>
		</g>
		<g>
			<g>
				<g>
					<g id="Head_97_" transform="translate(54.000000, 31.000000)">
						<g>
							<g>
								<path class="st13" d="M455.7,843.54c-0.48-0.56-0.81-1.26-0.75-2.03c0.16-2.23,3.26-1.74,3.87-0.61
									c0.6,1.13,0.53,3.99-0.25,4.19c-0.31,0.08-0.98-0.12-1.65-0.52l0.42,3h-2.5L455.7,843.54z"/>
							</g>
						</g>
					</g>
					<g id="Hair_33_">
						<g>
							<path class="st14" d="M511.05,872.75c0.1,1.34,0.35,2,0.76,2c0.62,0,1.14-0.39,1.41-0.39c0.2,0,0.15,0.25,0.02,0.43
								c-0.11,0.15-0.63,0.3-0.63,0.53c0,0.23,0.42,0.05,0.42,0.19c0,0.23,0.07,0.66-0.33,0.66c-0.4,0-1.56-0.15-1.76-0.75
								c-0.13-0.39-0.21-1.19-0.25-2.4c-0.02,0-0.05,0-0.07,0c-0.35,0-0.63,0.28-0.63,0.63c0,0.18,0.07,0.33,0.19,0.45
								c-0.14,0.2-0.31,0.42-0.49,0.64c-0.7-0.42-1.22-1.65-0.53-2.83c0.19-0.58,0.62-0.89,1.12-1.03c0.41-0.17,0.83-0.19,1.19-0.09
								c0.7,0.06,1.33,0.27,1.51,0.4c0,0.67-0.13,0.86-1.23,0.85C511.47,872.18,511.26,872.43,511.05,872.75z"/>
						</g>
					</g>
				</g>
				<g>
					<g id="Leg_64_">
						<g>
							<polygon class="st54" points="509.13,888.52 514.25,901.48 517.68,912.44 519.04,912.44 513.79,888.52 							"/>
						</g>
					</g>
					<g>
						<g>
							<path class="st15" d="M508.09,888.52c-0.05,4.55-0.85,10.69-0.98,10.97c-0.08,0.19-3.01,2.6-8.77,7.22l0.93,1
								c6.8-3.96,10.36-6.21,10.67-6.74c0.47-0.79,2.01-8.09,3.24-12.45H508.09z"/>
						</g>
					</g>
					
						<g transform="translate(51.500000, 189.000000) rotate(50.000000) translate(-51.500000, -189.000000) translate(21.000000, 169.000000)">
						<g id="shoe_57_">
							<g>
								<path class="st16" d="M867.19,138.91c-0.12,0.31-0.18,0.54-0.18,0.7c0,0.19,0.03,0.46,0.09,0.82c0.22,0,2.18,0,5.88,0
									c0.15-0.51,0.06-0.78-0.26-0.82s-0.6-0.08-0.82-0.11l-2.73-1.22c-0.05-0.02-0.11,0-0.14,0.05c0,0,0,0,0,0l-0.18,0.43
									c-0.3,0.14-0.55,0.21-0.74,0.21c-0.15,0-0.37-0.06-0.64-0.19l0,0c-0.1-0.05-0.23,0-0.28,0.1
									C867.19,138.9,867.19,138.91,867.19,138.91z"/>
							</g>
						</g>
					</g>
					<g transform="translate(208.000000, 199.000000)">
						<g>
							<g>
								<path class="st16" d="M309.13,712.93c-0.12,0.31-0.18,0.54-0.18,0.7c0,0.19,0.03,0.46,0.09,0.82c0.22,0,2.18,0,5.88,0
									c0.15-0.51,0.06-0.78-0.26-0.82c-0.33-0.04-0.6-0.08-0.82-0.11l-2.73-1.22c-0.05-0.02-0.11,0-0.14,0.05c0,0,0,0,0,0
									l-0.18,0.43c-0.3,0.14-0.55,0.21-0.74,0.21c-0.15,0-0.37-0.06-0.64-0.19l0,0c-0.1-0.05-0.23,0-0.28,0.1
									C309.13,712.92,309.13,712.93,309.13,712.93z"/>
							</g>
						</g>
					</g>
				</g>
				<g>
					<g id="Skin_65_">
						<g>
							<path class="st13" d="M516.94,886.25l3.33,2.44c0.78,0.21,1.44,0.46,2,0.76l-1.29,0.68c-0.08,0.2,0.26,0.4,0.09,0.67
								c-0.11,0.18-0.63-0.27-1.56-1.37l-3.3-1.37L516.94,886.25z M503.64,887.11l1.74-1.31c-1.21,6.83-0.87,3.85-1.21,6.83
								c0.17,0.62,1.13,1.04,1.6,1.3c-0.37,0.68-1.03-0.3-1.49,0.58c-0.42,0.8-0.5,1.73-1.61,1.83c-0.14,0.01-0.4-0.12-0.28-0.48
								c0.29-0.88,0.61-2.29,0.55-2.62C503.64,887.11,502.94,893.23,503.64,887.11z"/>
						</g>
					</g>
					<g id="Coat-Back_59_">
						<g>
							<path class="st54" d="M510.36,877.19l0.9-0.15c3.35,2.89,4.72,8.45,8.82,11.39l-0.99,1.22
								C511.98,888.76,510.22,881.99,510.36,877.19z"/>
						</g>
					</g>
					<g id="Shirt_59_">
						<g>
							<path class="st15" d="M508.07,890.71c3.62,0,4.64,0,6.34,0c0.36,0,0.3-0.53,0.24-0.79c-0.61-3.07-0.96-7.86-2.98-12.93
								l-2.3-0.36C507.46,879.69,508.44,885.65,508.07,890.71z"/>
						</g>
					</g>
					<g>
						<g>
							<path class="st15" d="M510.13,876.69l-0.72-0.04c-0.06-0.01-0.14-0.01-0.21-0.01c-1.43,0-3.04,2.91-2.7,3.01
								c-2.64,3.63-3.88,8.06-3.72,13.26h1.71c0.34-0.59,0.7-1.32,1.07-2.19c0.43-1.01,0.89-2.21,1.37-3.6
								c0.2,1.65,0.52,2.85,0.96,3.6h3.95C512.77,888.37,512.2,883.69,510.13,876.69z"/>
						</g>
					</g>
				</g>
				<g>
					<g>
						<path class="st68" d="M510.77,876.8l-2.87-0.37c0,0-0.99,2.1-0.35,2.68c0.64,0.58,2.99,0.65,3.37,0.22
							c0.13-0.15,0.14-0.68,0.11-1.07l0.72,0.17c-0.02-0.22-0.08-1.43-0.08-1.43L510.77,876.8z"/>
					</g>
				</g>
				<g>
					<g>
						<path class="st5" d="M507.96,876.54l2.72,0.35c0.04,0.19,0.17,0.72,0.23,1.24l-3.36-0.44
							C507.68,877.19,507.88,876.71,507.96,876.54 M507.9,876.43c0,0-0.31,0.67-0.47,1.36l3.61,0.47c-0.07-0.7-0.26-1.45-0.26-1.45
							L507.9,876.43L507.9,876.43z"/>
					</g>
				</g>
				<g>
					<g>
						
							<rect x="507.28" y="877.11" transform="matrix(0.6723 -0.7402 0.7402 0.6723 -482.8412 663.5117)" class="st5" width="1.58" height="0.1"/>
					</g>
				</g>
				<g>
					<g>
						
							<rect x="508.22" y="876.4" transform="matrix(0.8871 -0.4615 0.4615 0.8871 -347.465 333.5751)" class="st5" width="0.1" height="1.58"/>
					</g>
				</g>
				<g>
					<g>
						
							<rect x="508.35" y="877.25" transform="matrix(0.6723 -0.7402 0.7402 0.6723 -482.5933 664.3499)" class="st5" width="1.58" height="0.1"/>
					</g>
				</g>
				<g>
					<g>
						
							<rect x="509.29" y="876.54" transform="matrix(0.8871 -0.4615 0.4615 0.8871 -347.4083 334.085)" class="st5" width="0.1" height="1.58"/>
					</g>
				</g>
				<g>
					<g>
						
							<rect x="509.41" y="877.39" transform="matrix(0.6723 -0.7402 0.7402 0.6723 -482.3473 665.1819)" class="st5" width="1.58" height="0.1"/>
					</g>
				</g>
				<g>
					<g>
						
							<rect x="510.35" y="876.67" transform="matrix(0.8871 -0.4615 0.4615 0.8871 -347.352 334.591)" class="st5" width="0.1" height="1.58"/>
					</g>
				</g>
				<g>
					<g>
						<circle class="st71" cx="511.54" cy="879.05" r="0.24"/>
					</g>
				</g>
				<g>
					<g>
						<circle class="st71" cx="511.79" cy="880.36" r="0.24"/>
					</g>
				</g>
				<g>
					<g>
						<circle class="st71" cx="512.12" cy="881.67" r="0.24"/>
					</g>
				</g>
				<g>
					<g>
						<circle class="st71" cx="512.36" cy="882.98" r="0.24"/>
					</g>
				</g>
				<g>
					<g>
						<circle class="st71" cx="512.6" cy="884.3" r="0.24"/>
					</g>
				</g>
				<g>
					<g>
						<circle class="st71" cx="512.93" cy="885.61" r="0.24"/>
					</g>
				</g>
				<g>
					<g>
						<circle class="st71" cx="513.17" cy="886.92" r="0.24"/>
					</g>
				</g>
				<g>
					<g>
						<circle class="st71" cx="513.45" cy="888.23" r="0.24"/>
					</g>
				</g>
				<g>
					<g>
						<circle class="st71" cx="513.69" cy="889.54" r="0.24"/>
					</g>
				</g>
				<g>
					<g>
						<path class="st64" d="M512.36,890.65c-0.01,0-0.01,0-0.02,0l0.02-0.1l-0.01,0.05l0-0.05c0,0,0.02,0,0.04-0.04
							c0.17-0.23,0.56-1.72-1.53-11.17l0.1-0.02c2.09,9.44,1.74,11.04,1.49,11.29C512.42,890.65,512.38,890.65,512.36,890.65z"/>
					</g>
				</g>
				<g>
					<g>
						<polygon class="st64" points="498.79,907.17 498.73,907.09 508.22,900.45 510.15,890.7 510.25,890.72 508.32,900.51 
							508.3,900.52 						"/>
					</g>
				</g>
				<g>
					<g>
						<path class="st64" d="M518.33,911.96c-3.03-11.47-6.07-19.82-6.1-19.9l0.1-0.04c0.03,0.08,3.07,8.43,6.11,19.91L518.33,911.96
							z"/>
					</g>
				</g>
				<g>
					<g>
						<path class="st64" d="M514.46,890.74l-0.09-0.05c0.02-0.04,0.4-1.19-2.67-12.26l0.1-0.03
							C514.91,889.66,514.48,890.7,514.46,890.74z"/>
					</g>
				</g>
				<g>
					<g>
						<g>
							<path class="st15" d="M504.52,894.38c0,0-1.53-0.73-2.74-0.8c-2.02-1.4-1.98-1.09-1.98-1.09s0.18,0.93,0.64,1.27
								c0.09,0.06-1.46,2.89-1.78,3.11c-0.32,0.22-0.27,0.86,0.09,1.06c0.36,0.2,3.65,1.39,3.65,1.39s0.97,0.4,1.05-0.47
								C503.53,897.98,504.15,895.34,504.52,894.38z"/>
						</g>
					</g>
					<g>
						<g>
							<circle class="st68" cx="498.7" cy="897.64" r="0.59"/>
						</g>
					</g>
					<g>
						<g>
							<path class="st5" d="M498.95,897.12l-0.09-0.06c1.79-2.67,4.09-3,4.12-3l0.01,0.1C502.97,894.17,500.72,894.5,498.95,897.12z
								"/>
						</g>
					</g>
					<g>
						<g>
							<circle class="st69" cx="502.96" cy="894.1" r="0.22"/>
						</g>
					</g>
					<g>
						<g>
							<path class="st70" d="M500.45,893.76c0,0,0.88,0.13,1.07,0.03c0.2-0.11-0.45,0.59-0.65,0.6c-0.2,0.01-0.04,0.2-0.04,0.2
								s0.13,0.28-0.6,0.47c-0.3,0.08-0.73,0.58-0.73,0.58S500.36,894.16,500.45,893.76z"/>
						</g>
					</g>
				</g>
			</g>
			<g>
				<path class="st68" d="M502.78,892.91h1.71c0,0,0.66-1.13,0.65-1.29c-0.01-0.15-2.26-0.27-2.36-0.25S502.78,892.91,502.78,892.91
					z"/>
			</g>
			<g>
				<path class="st5" d="M504.34,892.71h-1.24l0-0.05c-0.07-1.07-0.01-1.08,0.04-1.1c0.07-0.02,1.48,0.05,1.64,0.16
					c0.03,0.02,0.03,0.04,0.03,0.05c0.01,0.11-0.31,0.67-0.45,0.9L504.34,892.71z M503.19,892.61h1.09c0.19-0.33,0.39-0.7,0.41-0.8
					c-0.17-0.07-1.31-0.15-1.52-0.14C503.16,891.77,503.17,892.2,503.19,892.61z"/>
			</g>
			<g>
				<path class="st68" d="M520.09,888.42l-0.99,1.22c0,0-1.3-0.03-1.52-0.3c-0.22-0.27,1.3-1.79,1.44-1.8
					C519.17,887.54,520.09,888.42,520.09,888.42z"/>
			</g>
			<g>
				<path class="st5" d="M519.02,889.3l-0.03,0c-0.09,0-0.84-0.02-0.99-0.2c-0.05-0.06-0.01-0.16,0-0.19c0.13-0.29,0.81-1,0.93-1.01
					c0.09,0,0.43,0.3,0.7,0.56l0.03,0.03L519.02,889.3z M518.95,888c-0.12,0.06-0.79,0.73-0.86,0.99c-0.01,0.03,0,0.04,0,0.04
					c0.09,0.11,0.58,0.16,0.88,0.17l0.57-0.7C519.3,888.26,519.02,888.02,518.95,888z"/>
			</g>
		</g>
	</g>
</g>
</svg>
