<?xml version="1.0" encoding="utf-8"?>
<!-- Generator: Adobe Illustrator 23.0.1, SVG Export Plug-In . SVG Version: 6.00 Build 0)  -->
<svg version="1.1" id="Laag_1" xmlns="http://www.w3.org/2000/svg" xmlns:xlink="http://www.w3.org/1999/xlink" x="0px" y="0px"
	 viewBox="0 0 1440 1024" style="enable-background:new 0 0 1440 1024;" xml:space="preserve">
<style type="text/css">
	.st0{clip-path:url(#SVGID_2_);}
	.st1{fill:url(#SVGID_3_);}
	.st2{fill:#6A7B27;}
	.st3{fill:#808181;}
	.st4{fill:#9A9999;}
	.st5{fill:#FFFFFF;}
	.st6{fill:#B8B32E;}
	.st7{fill:#CAC334;}
	.st8{fill:#A9A325;}
	.st9{fill:#1B1B1B;}
	.st10{fill:#F2F2F2;}
	.st11{fill:#881E2B;}
	.st12{fill:#CDCCCC;}
	.st13{fill-rule:evenodd;clip-rule:evenodd;fill:#C69988;}
	.st14{fill-rule:evenodd;clip-rule:evenodd;fill:#F8AB18;}
	.st15{fill-rule:evenodd;clip-rule:evenodd;fill:#1B1B1B;}
	.st16{fill-rule:evenodd;clip-rule:evenodd;fill:#663810;}
	.st17{fill:#727272;}
	.st18{fill:#A45A2E;}
	.st19{fill:#989898;}
	.st20{fill-rule:evenodd;clip-rule:evenodd;fill:#6BA1AB;}
	.st21{fill-rule:evenodd;clip-rule:evenodd;fill:#89C4CC;}
	.st22{fill:#C69988;}
	.st23{fill-rule:evenodd;clip-rule:evenodd;fill:#2A275E;}
	.st24{fill-rule:evenodd;clip-rule:evenodd;fill:#DCE2E8;}
	.st25{fill-rule:evenodd;clip-rule:evenodd;fill:#32358C;}
	.st26{opacity:0.1;fill-rule:evenodd;clip-rule:evenodd;fill:#020203;}
	.st27{clip-path:url(#SVGID_5_);}
	.st28{fill:url(#SVGID_6_);}
	.st29{clip-path:url(#SVGID_8_);}
	.st30{fill:url(#SVGID_9_);}
	.st31{fill:#E7E6E6;}
	.st32{fill:#D21226;}
	.st33{fill:#BC1829;}
	.st34{clip-path:url(#SVGID_11_);fill:#D21226;}
	.st35{fill:url(#SVGID_12_);}
	.st36{clip-path:url(#SVGID_14_);fill:#D21226;}
	.st37{fill-rule:evenodd;clip-rule:evenodd;fill:#946131;}
	.st38{fill-rule:evenodd;clip-rule:evenodd;fill:#304697;}
	.st39{fill-rule:evenodd;clip-rule:evenodd;fill:#3954A1;}
	.st40{fill-rule:evenodd;clip-rule:evenodd;fill:#E3E3E2;}
	.st41{fill-rule:evenodd;clip-rule:evenodd;fill:#2F3676;}
	.st42{fill-rule:evenodd;clip-rule:evenodd;fill:#222046;}
	.st43{fill-rule:evenodd;clip-rule:evenodd;fill:#27388D;}
	.st44{fill-rule:evenodd;clip-rule:evenodd;fill:#F1F1F1;}
	.st45{fill-rule:evenodd;clip-rule:evenodd;fill:#452311;}
	.st46{fill-rule:evenodd;clip-rule:evenodd;fill:#997759;}
	.st47{fill-rule:evenodd;clip-rule:evenodd;fill:#AEB8C4;}
	.st48{fill-rule:evenodd;clip-rule:evenodd;fill:#C4CED5;}
	.st49{fill-rule:evenodd;clip-rule:evenodd;fill:#020203;fill-opacity:0.1;}
	.st50{fill-rule:evenodd;clip-rule:evenodd;fill:#794A31;}
	.st51{fill-rule:evenodd;clip-rule:evenodd;fill:#333438;}
	.st52{fill-rule:evenodd;clip-rule:evenodd;fill:#DA2922;}
	.st53{fill-rule:evenodd;clip-rule:evenodd;fill:#E9473C;}
	.st54{fill-rule:evenodd;clip-rule:evenodd;fill:#020203;}
	.st55{fill-rule:evenodd;clip-rule:evenodd;fill:#D4A181;}
	.st56{fill-rule:evenodd;clip-rule:evenodd;fill:#B98C74;}
	.st57{fill-rule:evenodd;clip-rule:evenodd;fill:#693189;}
	.st58{fill-rule:evenodd;clip-rule:evenodd;fill:#952C87;}
	.st59{fill-rule:evenodd;clip-rule:evenodd;fill:#B08A67;}
	.st60{fill-rule:evenodd;clip-rule:evenodd;fill:#E87616;}
	.st61{fill-rule:evenodd;clip-rule:evenodd;fill:#F4992B;}
	.st62{fill-rule:evenodd;clip-rule:evenodd;fill:#006C34;}
	.st63{fill-rule:evenodd;clip-rule:evenodd;fill:#00A66B;}
	.st64{fill:#B6181D;}
	.st65{fill-rule:evenodd;clip-rule:evenodd;fill:#E7E6E6;}
	.st66{fill-rule:evenodd;clip-rule:evenodd;fill:#CDCCCC;}
	.st67{fill:#663810;}
	.st68{fill-rule:evenodd;clip-rule:evenodd;fill:#B6181D;}
	.st69{fill-rule:evenodd;clip-rule:evenodd;fill:#B4B4B4;}
	.st70{fill-rule:evenodd;clip-rule:evenodd;fill:#CDA442;}
	.st71{fill:#B4B4B4;}
	.st72{fill-rule:evenodd;clip-rule:evenodd;fill:#AD7B4B;}
	.st73{fill-rule:evenodd;clip-rule:evenodd;fill:#FFFFFF;}
	.st74{fill-rule:evenodd;clip-rule:evenodd;fill:#7C4B1A;}
	.st75{fill:#3D4B59;}
	.st76{fill:#1D2B39;}
	.st77{fill:#4E5B69;}
	.st78{fill:#2C3A49;}
	.st79{fill:#9C6D4F;}
	.st80{fill:#7E4E2F;}
	.st81{fill:#8C5D3F;}
	.st82{fill:#6E3D21;}
	.st83{fill:#863819;}
	.st84{clip-path:url(#SVGID_16_);}
	.st85{fill:url(#SVGID_17_);}
	.st86{clip-path:url(#SVGID_19_);}
	.st87{fill:url(#SVGID_20_);}
	.st88{clip-path:url(#SVGID_22_);}
	.st89{fill:url(#SVGID_23_);}
	.st90{fill:#FFFFFF;stroke:#020203;stroke-miterlimit:10;}
	.st91{fill:url(#SVGID_24_);}
	.st92{clip-path:url(#SVGID_26_);fill:#D21226;}
	.st93{fill:url(#SVGID_27_);}
	.st94{clip-path:url(#SVGID_29_);fill:#D21226;}
	.st95{fill:url(#SVGID_30_);}
	.st96{fill:#020203;}
	.st97{fill:#F8AB18;}
	.st98{fill:#2A275E;}
	.st99{fill-rule:evenodd;clip-rule:evenodd;fill:#9A182A;}
	.st100{fill:#9A182A;}
	.st101{clip-path:url(#SVGID_32_);}
	.st102{fill:url(#SVGID_33_);}
	.st103{clip-path:url(#SVGID_35_);}
	.st104{fill:url(#SVGID_36_);}
	.st105{clip-path:url(#SVGID_38_);}
	.st106{fill:url(#SVGID_39_);}
	.st107{clip-path:url(#SVGID_41_);fill:#D21226;}
	.st108{fill:url(#SVGID_42_);}
	.st109{clip-path:url(#SVGID_44_);fill:#D21226;}
	.st110{clip-path:url(#SVGID_46_);}
	.st111{fill:url(#SVGID_47_);}
	.st112{clip-path:url(#SVGID_49_);fill:#D21226;}
	.st113{fill:url(#SVGID_50_);}
	.st114{clip-path:url(#SVGID_52_);fill:#D21226;}
	.st115{clip-path:url(#SVGID_54_);}
	.st116{fill:url(#SVGID_55_);}
	.st117{clip-path:url(#SVGID_57_);}
	.st118{fill:url(#SVGID_58_);}
	.st119{fill:url(#SVGID_59_);}
	.st120{fill:url(#SVGID_60_);}
	.st121{fill:#DFDFDF;}
	.st122{fill:#32358C;}
	.st123{fill-rule:evenodd;clip-rule:evenodd;fill:#234D64;}
	.st124{fill-rule:evenodd;clip-rule:evenodd;fill:#398AB1;}
	.st125{fill:#234D64;}
	.st126{fill:#9B9B9A;}
	.st127{fill:#B579B2;}
	.st128{fill:#AB6EAC;}
	.st129{fill:#F28C00;}
	.st130{fill:#62B22F;}
	.st131{fill:#54AF32;}
	.st132{fill:#57C0D3;}
	.st133{fill:#36B2BB;}
	.st134{fill:#E83E5D;}
	.st135{fill:#E72E55;}
	.st136{fill:#F7E700;}
	.st137{clip-path:url(#SVGID_62_);}
	.st138{clip-path:url(#SVGID_64_);fill:#D21226;}
	.st139{fill:url(#SVGID_65_);}
	.st140{fill:#4D4230;}
	.st141{fill:#5F4A2F;}
	.st142{fill:#E30613;}
	.st143{clip-path:url(#SVGID_67_);}
	.st144{fill:url(#SVGID_68_);}
	.st145{clip-path:url(#SVGID_70_);fill:#D21226;}
	.st146{fill:url(#SVGID_71_);}
	.st147{clip-path:url(#SVGID_73_);fill:#D21226;}
	.st148{clip-path:url(#SVGID_75_);}
	.st149{fill:url(#SVGID_76_);}
	.st150{clip-path:url(#SVGID_78_);fill:#D21226;}
	.st151{fill:url(#SVGID_79_);}
	.st152{clip-path:url(#SVGID_81_);}
	.st153{fill:url(#SVGID_82_);}
	.st154{clip-path:url(#SVGID_84_);fill:#D21226;}
	.st155{fill:url(#SVGID_85_);}
	.st156{clip-path:url(#SVGID_87_);fill:#D21226;}
	.st157{fill:url(#SVGID_88_);}
	.st158{clip-path:url(#SVGID_90_);}
	.st159{clip-path:url(#SVGID_92_);}
	.st160{fill:url(#SVGID_93_);}
</style>
<g>
	<defs>
		<rect id="SVGID_91_" x="0" width="1440" height="1024"/>
	</defs>
	<clipPath id="SVGID_2_">
		<use xlink:href="#SVGID_91_"  style="overflow:visible;"/>
	</clipPath>
	<g class="st0">
		<g>
			<linearGradient id="SVGID_3_" gradientUnits="userSpaceOnUse" x1="719.9777" y1="-954.3116" x2="719.9777" y2="1024">
				<stop  offset="0" style="stop-color:#FFFFFF"/>
				<stop  offset="0.2149" style="stop-color:#FBFDFF"/>
				<stop  offset="0.4187" style="stop-color:#F0F9FD"/>
				<stop  offset="0.6181" style="stop-color:#DDF1FB"/>
				<stop  offset="0.8135" style="stop-color:#C2E6F9"/>
				<stop  offset="1" style="stop-color:#A1D9F5"/>
			</linearGradient>
			<rect x="-353.63" y="-954.31" class="st1" width="2147.21" height="1978.31"/>
		</g>
		<g>
			<g>
				<path class="st2" d="M1276.98,665.46V1024H162.8l0.01-13.37l0.12-278.24l0.05-107.29c94.36-42.54,173.93-69.87,299.78-68.96
					c62.05,0.45,175.84,13.28,251.14,23.7c11.69,1.62,22.45,3.18,31.94,4.63C922.89,611.48,1099.93,638.47,1276.98,665.46z"/>
				<g>
					<rect x="329.53" y="576.48" class="st3" width="25.22" height="84.58"/>
					
						<rect x="354.75" y="576.48" transform="matrix(-1 -1.224647e-16 1.224647e-16 -1 721.2346 1237.5448)" class="st4" width="11.74" height="84.58"/>
					<rect x="250.8" y="592.45" class="st3" width="25.22" height="68.61"/>
					
						<rect x="276.02" y="592.45" transform="matrix(-1 -1.224647e-16 1.224647e-16 -1 563.7856 1253.5151)" class="st4" width="11.74" height="68.61"/>
					<rect x="283.54" y="605.46" class="st3" width="38.13" height="55.6"/>
					
						<rect x="321.67" y="605.46" transform="matrix(-1 -1.224647e-16 1.224647e-16 -1 661.0736 1266.528)" class="st4" width="17.74" height="55.6"/>
					
						<rect x="203.36" y="569.97" transform="matrix(-1 -1.224647e-16 1.224647e-16 -1 431.9434 1231.038)" class="st3" width="25.22" height="91.09"/>
					<rect x="191.62" y="569.97" class="st4" width="11.74" height="91.09"/>
				</g>
			</g>
			<g>
				<path class="st5" d="M440.73,516.69H327.89c3-8.8,9.94-16.67,17.77-18.21c7.82-1.54,16.22,2.1,21.42,9.28
					c5.27-11.4,14.43-20.16,24.75-23.84c4.8-1.72,9.86-2.33,14.88-1.59C422.5,484.66,436.62,498.24,440.73,516.69z"/>
			</g>
			<g>
				<path class="st5" d="M722.15,526.72h-63.11c2.3-10.32,10.2-17.91,19.04-19.22c8.84-1.3,17.85,4.88,22.16,14.22
					c1.5-2.09,3.49-3.63,5.66-4.52c2.02-0.84,4.21-1.09,6.32-0.68C716.59,517.39,720.47,521.79,722.15,526.72z"/>
			</g>
			<g>
				<path class="st6" d="M1276.98,537.55V1024H162.8V745.81c0.06-0.02,0.12-0.04,0.18-0.06c93.9-30.92,188.9-58.74,284.55-84.65
					c150.57-40.8,302.75-76.86,454.79-112.89c79.95-18.94,161.15-38.03,243.67-36.05C1190.61,513.23,1236.1,521.28,1276.98,537.55z"
					/>
			</g>
			<g>
				<path class="st5" d="M932.24,576.85H803.23c1.8-8.34,6.19-14.5,13.17-16.5c6.98-2,14.8,0.97,19.55,7.44
					c1.33-11.66,7.9-21.93,16.51-27.46c4.19-2.7,8.87-4.28,13.65-4.34c14.59-0.22,28.43,13.73,30.76,31.01
					c5.56-5.68,13.93-9.07,21.07-7.29C925.09,561.47,929.73,567.83,932.24,576.85z"/>
			</g>
			<g>
				<path class="st5" d="M266.17,548h-75.94c1.06-4.91,3.64-8.54,7.75-9.71c4.11-1.18,8.72,0.57,11.51,4.38
					c1.16-10.21,9.16-18.6,17.75-18.73c0.18,0,0.37,0,0.56,0.01c8.38,0.22,16.21,8.29,17.55,18.25c3.27-3.35,8.2-5.34,12.4-4.3
					C261.97,538.95,264.7,542.7,266.17,548z"/>
			</g>
			<g>
				<path class="st7" d="M1277.16,627.38v66.38c-36.77,6.41-73.53,11.9-110.59,8.19c-52.09-5.22-98.9-28.16-150.33-36.56
					c-63.38-10.36-129.22,2.06-189.93,19.88c-136.08,39.93-257.2,106.4-389.5,153.68c-87.01,31.11-181.22,50.41-273.83,47.81v-64
					c175.23-50.23,350.45-100.45,525.67-150.68c96.68-27.71,194.35-55.61,296.33-65.71
					C1082.78,596.68,1183.05,604.18,1277.16,627.38z"/>
			</g>
			<g>
				<path class="st8" d="M1277.16,929.76V1024H162.98V745.75c93.9-30.92,188.9-58.74,284.55-84.65
					c245.78,59.87,597.03,156.62,829.44,268.57C1277.03,929.7,1277.1,929.73,1277.16,929.76z"/>
			</g>
			<g>
				<path class="st6" d="M1277.16,943.12V1024H162.98V610.27c0,0,97.38,19.5,239.95,53.46c2.14,0.51,4.29,1.02,6.45,1.54
					C655.82,724.15,1032.44,825.21,1277.16,943.12z"/>
			</g>
			<g>
				<path class="st2" d="M846.71,1024c-209.6-176.5-442.36-301.34-683.77-366.78v46.22c26.54,0,53.35-0.82,79.41,5.16
					c26.06,5.99,51.7,22.49,64.8,50.17c5.27,11.14,8.4,23.77,14.87,33.96c8.7,13.72,22.53,21.5,36.49,25.61
					c13.96,4.11,28.42,5.05,42.58,7.98c56.22,11.64,104.24,53.52,151.45,91.95c47.21,38.42,99.11,105.4,156.16,105.73H846.71z"/>
			</g>
			<g>
				<path class="st2" d="M1277.16,1024H162.98l0.13-24.98l0.46-88.64c0,0,24.28-5.49,67.79-14.37c14.34-2.92,30.75-6.21,49.08-9.79
					c152.17-29.76,435.76-79.62,747.17-106.37c10.9-0.94,21.83-1.85,32.79-2.73c28.27-2.27,56.75-4.33,85.34-6.16
					c16.69-1.07,33.42-2.06,50.18-2.97c26.97-1.46,54.01-2.69,81.06-3.68l0.04,54.58l0.03,37.92L1277.16,1024z"/>
			</g>
			<g>
				<path class="st6" d="M1277.04,856.8c-35.62-1.57-71.96-0.05-107.6,2.93c-71.1,5.94-141.55,17.32-212.88,20.24
					c-62.68,2.55-126.81-1.34-187.14,12.16c-53.65,12-100.16,36.9-152.31,52.09c-87.13,25.37-184.39,22.21-274.66,40.64
					c-41.92,8.56-82,21.9-118.5,39.15h-60.97l0.13-24.98c346.99-120.87,732.38-182.98,1113.9-180.13L1277.04,856.8z"/>
			</g>
			<g>
				<path class="st2" d="M850.61,770.35c-0.33,3.26-1.77,6.24-3.63,8.26c-1.31,1.44-2.85,2.45-4.47,2.99
					c-2.05,0.69-4.24,0.64-6.26-0.24c-3.61-1.57-6.59-5.73-7.74-10.79c-0.3-1.34-0.48-2.78-0.26-4.15c0.23-1.37,0.94-2.64,1.92-2.96
					c1.63-0.53,3.02,1.61,4,3.51c-0.52-5.01,0.51-10.04,2.63-14.14c0.7-1.35,1.69-2.67,2.87-2.56c1.07,0.1,1.89,1.35,2.46,2.63
					c1.44,3.2,1.84,7.12,1.67,10.89c0.56-1.88,1.96-2.82,3.33-2.6c0.67,0.11,1.28,0.51,1.8,1.11c0.55,0.62,0.99,1.45,1.28,2.35
					C850.77,766.42,850.81,768.44,850.61,770.35z"/>
			</g>
			<g>
				<rect x="838.86" y="765.68" class="st9" width="0.97" height="25.46"/>
			</g>
			<g>
				<path class="st2" d="M266.77,839.54c-0.96,9.34-5.08,17.86-10.38,23.65c-2.37,2.59-5,4.7-7.77,6.29
					c-7.22,4.14-15.47,4.82-22.93,1.57c-10.33-4.5-18.87-16.41-22.16-30.89c-0.87-3.83-1.39-7.95-0.74-11.86
					c0.66-3.92,2.7-7.56,5.48-8.46c4.66-1.51,8.63,4.6,11.44,10.03c-1.49-14.34,1.47-28.74,7.53-40.47c2-3.86,4.83-7.65,8.21-7.33
					c3.06,0.29,5.41,3.88,7.05,7.52c4.12,9.17,5.26,20.38,4.79,31.17c1.59-5.39,5.62-8.08,9.53-7.43c0.76,0.13,1.49,0.38,2.2,0.76
					c2.93,1.54,5.32,5.07,6.61,9.15C267.23,828.29,267.33,834.06,266.77,839.54z"/>
			</g>
			<g>
				<rect x="233.15" y="826.16" class="st9" width="2.79" height="72.85"/>
			</g>
			<g>
				<path class="st2" d="M315.65,831.3c-0.41,5.96-1.89,12.41-6.01,15.79c-0.99,0.81-2.07,1.37-3.2,1.71
					c-4.25,1.28-9.19-0.61-12.3-4.5c-3.93-4.93-5.2-12.27-4.54-19.04c0.59-6.04,2.65-16.96,7.47-20.45
					c4.8-3.47,11.56,1.04,14.69,5.84c0.16,0.24,0.31,0.49,0.45,0.73C315.46,817.07,316.13,824.4,315.65,831.3z"/>
			</g>
			<g>
				<rect x="301.16" y="823.64" class="st9" width="2.79" height="49.46"/>
			</g>
			<g>
				<path class="st2" d="M1188.33,682.02c-0.25,2.4-1.3,4.58-2.66,6.07c-0.96,1.06-2.09,1.8-3.28,2.2c-1.51,0.51-3.11,0.47-4.6-0.18
					c-2.65-1.15-4.84-4.21-5.69-7.93c-0.22-0.98-0.36-2.04-0.19-3.05c0.17-1.01,0.69-1.94,1.41-2.17c1.2-0.39,2.22,1.18,2.94,2.58
					c-0.38-3.68,0.38-7.38,1.93-10.39c0.51-0.99,1.24-1.96,2.11-1.88c0.79,0.08,1.39,1,1.81,1.93c1.06,2.35,1.35,5.23,1.23,8
					c0.41-1.38,1.44-2.07,2.45-1.91c0.49,0.08,0.94,0.38,1.32,0.82c0.4,0.46,0.73,1.06,0.94,1.73
					C1188.45,679.13,1188.48,680.62,1188.33,682.02z"/>
			</g>
			<g>
				<rect x="1179.7" y="678.59" class="st9" width="0.72" height="18.7"/>
			</g>
			<g>
				<path class="st2" d="M1121.08,580.41c-0.2,1.92-1.04,3.67-2.13,4.86c-0.77,0.85-1.68,1.44-2.63,1.76
					c-1.21,0.41-2.49,0.38-3.68-0.14c-2.12-0.92-3.88-3.37-4.56-6.35c-0.18-0.79-0.29-1.64-0.15-2.44c0.14-0.81,0.55-1.55,1.13-1.74
					c0.96-0.31,1.78,0.95,2.35,2.06c-0.31-2.95,0.3-5.91,1.55-8.32c0.41-0.79,0.99-1.57,1.69-1.51c0.63,0.06,1.11,0.8,1.45,1.55
					c0.85,1.89,1.08,4.19,0.99,6.41c0.33-1.11,1.16-1.66,1.96-1.53c0.39,0.06,0.75,0.3,1.06,0.65c0.32,0.37,0.58,0.85,0.75,1.39
					C1121.17,578.09,1121.19,579.28,1121.08,580.41z"/>
			</g>
			<g>
				<rect x="1114.17" y="577.65" class="st9" width="0.57" height="14.98"/>
			</g>
			<g>
				<path class="st2" d="M1130.65,581.97c-0.1,1.41-0.45,2.93-1.42,3.73c-0.23,0.19-0.49,0.32-0.76,0.4
					c-1.01,0.3-2.17-0.15-2.91-1.07c-0.93-1.16-1.23-2.9-1.07-4.5c0.14-1.43,0.63-4.01,1.77-4.84c1.14-0.82,2.73,0.25,3.47,1.38
					c0.04,0.06,0.07,0.12,0.11,0.17C1130.61,578.6,1130.77,580.34,1130.65,581.97z"/>
			</g>
			<g>
				<rect x="1127.23" y="580.15" class="st9" width="0.66" height="11.69"/>
			</g>
			<g>
				<path class="st8" d="M1189.65,808.61c-0.46,6.69-2.13,13.93-6.75,17.72c-1.11,0.91-2.32,1.54-3.6,1.92
					c-4.77,1.43-10.32-0.69-13.81-5.06c-4.41-5.53-5.84-13.77-5.1-21.37c0.66-6.78,2.97-19.04,8.39-22.96
					c5.39-3.89,12.97,1.17,16.49,6.55c0.18,0.27,0.34,0.55,0.5,0.82C1189.44,792.64,1190.19,800.87,1189.65,808.61z"/>
			</g>
			<g>
				<rect x="1173.39" y="800.01" class="st9" width="3.13" height="55.52"/>
			</g>
			<g>
				<path class="st5" d="M1091.19,491.71h-63.11c2.3-10.32,10.2-17.91,19.04-19.22c8.84-1.3,17.85,4.88,22.16,14.22
					c1.5-2.09,3.49-3.63,5.66-4.52c2.02-0.84,4.21-1.09,6.32-0.68C1085.63,482.39,1089.52,486.79,1091.19,491.71z"/>
			</g>
			<g>
				<path class="st5" d="M1234.23,516.69h-78.81c2.09-6.15,6.94-11.64,12.41-12.72c5.46-1.08,11.33,1.47,14.96,6.48
					c3.68-7.96,10.08-14.08,17.29-16.65c3.35-1.2,6.89-1.63,10.39-1.11C1221.5,494.32,1231.36,503.81,1234.23,516.69z"/>
			</g>
			<g>
				<path class="st2" d="M811.84,778.85c-0.31,3.03-1.65,5.8-3.37,7.68c-1.22,1.34-2.65,2.27-4.16,2.78
					c-1.91,0.64-3.94,0.59-5.82-0.23c-3.35-1.46-6.13-5.33-7.2-10.04c-0.28-1.24-0.45-2.58-0.24-3.85c0.21-1.27,0.88-2.46,1.78-2.75
					c1.51-0.49,2.8,1.49,3.72,3.26c-0.48-4.66,0.48-9.34,2.45-13.15c0.65-1.25,1.57-2.49,2.67-2.38c0.99,0.1,1.76,1.26,2.29,2.44
					c1.34,2.98,1.71,6.62,1.56,10.13c0.52-1.75,1.83-2.63,3.1-2.41c0.62,0.1,1.19,0.48,1.68,1.03c0.51,0.58,0.92,1.35,1.19,2.19
					C811.99,775.19,812.02,777.07,811.84,778.85z"/>
			</g>
			<g>
				<rect x="800.91" y="774.5" class="st9" width="0.91" height="23.67"/>
			</g>
			<g>
				
					<rect x="400.63" y="739.77" transform="matrix(-1 -1.224647e-16 1.224647e-16 -1 826.5528 1507.676)" class="st5" width="25.29" height="28.13"/>
				<rect x="357.98" y="739.77" class="st10" width="42.65" height="28.13"/>
				<rect x="409.4" y="746.81" class="st11" width="9.29" height="21.09"/>
				<polygon class="st11" points="370.48,709 357.98,739.77 400.93,739.77 413.43,709 				"/>
				<rect x="375.46" y="701.83" class="st10" width="7.88" height="10.53"/>
				<polygon class="st5" points="413.43,709 400.93,739.77 425.92,739.77 				"/>
				<polygon class="st5" points="383.34,712.36 386.82,708.57 386.82,701.83 383.34,701.83 				"/>
				
					<rect x="410.7" y="721.52" transform="matrix(-1 -1.224647e-16 1.224647e-16 -1 826.5528 1448.7712)" class="st3" width="5.15" height="5.73"/>
				
					<rect x="370.91" y="742.69" transform="matrix(-1 -1.224647e-16 1.224647e-16 -1 746.972 1496.8395)" class="st3" width="5.15" height="11.47"/>
				
					<rect x="379.92" y="742.69" transform="matrix(-1 -1.224647e-16 1.224647e-16 -1 765.0004 1496.8395)" class="st3" width="5.15" height="11.47"/>
			</g>
			<g>
				<rect x="556.89" y="810.25" class="st5" width="30.69" height="24.55"/>
				
					<rect x="587.59" y="810.25" transform="matrix(-1 -3.701096e-11 3.701096e-11 -1 1226.9282 1645.0596)" class="st10" width="51.75" height="24.55"/>
				
					<rect x="574.88" y="816.4" transform="matrix(-1 -5.043045e-11 5.043045e-11 -1 1157.8257 1651.2061)" class="st11" width="8.06" height="18.41"/>
				<polygon class="st11" points="624.18,783.4 639.34,810.25 587.22,810.25 572.06,783.4 				"/>
				
					<rect x="609.39" y="777.14" transform="matrix(-1 -5.379309e-11 5.379309e-11 -1 1225.4071 1563.4686)" class="st10" width="6.63" height="9.19"/>
				<polygon class="st5" points="572.06,783.4 587.22,810.25 556.89,810.25 				"/>
				<polygon class="st5" points="609.39,786.33 606.46,783.03 606.46,777.14 609.39,777.14 				"/>
				<rect x="570.36" y="794.32" class="st3" width="3.75" height="9.2"/>
				<rect x="628.6" y="816.51" class="st3" width="4.12" height="10.01"/>
				<rect x="621.39" y="816.51" class="st3" width="4.12" height="10.01"/>
				<rect x="601.58" y="816.51" class="st3" width="4.12" height="10.01"/>
				<rect x="594.37" y="816.51" class="st3" width="4.12" height="10.01"/>
				<rect x="567.58" y="816.51" class="st3" width="4.12" height="10.01"/>
				<rect x="560.37" y="816.51" class="st3" width="4.12" height="10.01"/>
			</g>
			<g>
				<path class="st2" d="M908.46,765.67c-0.29,3.08-1.52,5.9-3.1,7.81c-1.12,1.36-2.44,2.31-3.83,2.83
					c-1.76,0.66-3.63,0.6-5.36-0.23c-3.09-1.49-5.65-5.42-6.63-10.2c-0.26-1.26-0.42-2.63-0.22-3.92c0.2-1.29,0.81-2.5,1.64-2.79
					c1.39-0.5,2.58,1.52,3.42,3.31c-0.45-4.74,0.44-9.49,2.25-13.36c0.6-1.27,1.45-2.53,2.46-2.42c0.92,0.1,1.62,1.28,2.11,2.48
					c1.23,3.03,1.57,6.73,1.43,10.29c0.48-1.78,1.68-2.67,2.85-2.45c0.57,0.1,1.1,0.49,1.54,1.05c0.47,0.59,0.85,1.37,1.09,2.22
					C908.6,761.96,908.63,763.86,908.46,765.67z"/>
			</g>
			<g>
				<rect x="898.4" y="761.26" class="st9" width="0.83" height="24.06"/>
			</g>
			<g>
				<path class="st2" d="M875.26,773.7c-0.27,2.87-1.41,5.48-2.89,7.26c-1.04,1.26-2.27,2.15-3.56,2.63
					c-1.64,0.61-3.38,0.56-4.98-0.21c-2.87-1.38-5.25-5.04-6.17-9.48c-0.24-1.18-0.39-2.44-0.2-3.64c0.18-1.2,0.75-2.32,1.53-2.6
					c1.3-0.46,2.4,1.41,3.18,3.08c-0.41-4.4,0.41-8.82,2.09-12.43c0.55-1.18,1.34-2.35,2.28-2.25c0.85,0.09,1.51,1.19,1.96,2.31
					c1.15,2.82,1.46,6.26,1.33,9.57c0.44-1.65,1.56-2.48,2.65-2.28c0.53,0.1,1.02,0.45,1.44,0.97c0.44,0.55,0.79,1.27,1.02,2.07
					C875.39,770.25,875.41,772.02,875.26,773.7z"/>
			</g>
			<g>
				<rect x="865.9" y="769.59" class="st9" width="0.78" height="22.37"/>
			</g>
			<g>
				<path class="st2" d="M1206.31,680.15c-0.25,2.69-1.3,5.15-2.66,6.82c-0.96,1.18-2.09,2.02-3.28,2.47
					c-1.51,0.57-3.11,0.53-4.6-0.2c-2.65-1.3-4.84-4.73-5.69-8.9c-0.22-1.1-0.36-2.29-0.19-3.42c0.17-1.13,0.69-2.18,1.41-2.44
					c1.2-0.44,2.22,1.33,2.94,2.89c-0.38-4.13,0.38-8.28,1.93-11.67c0.51-1.11,1.24-2.21,2.11-2.11c0.79,0.08,1.39,1.12,1.81,2.17
					c1.06,2.64,1.35,5.87,1.23,8.98c0.41-1.55,1.44-2.33,2.45-2.14c0.49,0.09,0.94,0.42,1.32,0.92c0.4,0.51,0.73,1.19,0.94,1.94
					C1206.43,676.9,1206.45,678.57,1206.31,680.15z"/>
			</g>
			<g>
				<rect x="1197.68" y="676.29" class="st9" width="0.72" height="21"/>
			</g>
			<g>
				
					<rect x="968.74" y="599.15" transform="matrix(-1 -1.224647e-16 1.224647e-16 -1 1949.7378 1211.9254)" class="st5" width="12.25" height="13.63"/>
				<rect x="948.09" y="599.15" class="st10" width="20.65" height="13.63"/>
				<rect x="972.99" y="602.56" class="st11" width="4.5" height="10.21"/>
				<polygon class="st11" points="954.14,584.25 948.09,599.15 968.89,599.15 974.94,584.25 				"/>
				<rect x="956.55" y="580.78" class="st10" width="3.82" height="5.1"/>
				<polygon class="st5" points="974.94,584.25 968.89,599.15 980.99,599.15 				"/>
				<polygon class="st5" points="960.37,585.87 962.06,584.04 962.06,580.78 960.37,580.78 				"/>
				
					<rect x="973.62" y="590.31" transform="matrix(-1 -1.224647e-16 1.224647e-16 -1 1949.7378 1183.3986)" class="st3" width="2.5" height="2.78"/>
				
					<rect x="954.35" y="600.56" transform="matrix(-1 -1.224647e-16 1.224647e-16 -1 1911.1979 1206.6775)" class="st3" width="2.5" height="5.55"/>
				
					<rect x="958.72" y="600.56" transform="matrix(-1 -1.224647e-16 1.224647e-16 -1 1919.9288 1206.6775)" class="st3" width="2.5" height="5.55"/>
			</g>
			<g>
				<rect x="893.36" y="608.36" class="st5" width="14.86" height="11.89"/>
				
					<rect x="908.22" y="608.36" transform="matrix(-1 -3.701451e-11 3.701451e-11 -1 1841.5072 1228.6139)" class="st10" width="25.06" height="11.89"/>
				
					<rect x="902.07" y="611.34" transform="matrix(-1 -5.078528e-11 5.078528e-11 -1 1808.0417 1231.5905)" class="st11" width="3.9" height="8.91"/>
				<polygon class="st11" points="925.94,595.36 933.29,608.36 908.04,608.36 900.7,595.36 				"/>
				
					<rect x="918.78" y="592.33" transform="matrix(-1 -5.553836e-11 5.553836e-11 -1 1840.7706 1189.1003)" class="st10" width="3.21" height="4.45"/>
				<polygon class="st5" points="900.7,595.36 908.04,608.36 893.36,608.36 				"/>
				<polygon class="st5" points="918.78,596.78 917.36,595.18 917.36,592.33 918.78,592.33 				"/>
				<rect x="899.88" y="600.65" class="st3" width="1.82" height="4.45"/>
				<rect x="928.08" y="611.39" class="st3" width="2" height="4.85"/>
				<rect x="924.59" y="611.39" class="st3" width="2" height="4.85"/>
				<rect x="915" y="611.39" class="st3" width="2" height="4.85"/>
				<rect x="911.51" y="611.39" class="st3" width="2" height="4.85"/>
				<rect x="898.53" y="611.39" class="st3" width="2" height="4.85"/>
				<rect x="895.04" y="611.39" class="st3" width="2" height="4.85"/>
			</g>
			<g>
				
					<rect x="872.52" y="619.59" transform="matrix(-1 -1.224647e-16 1.224647e-16 -1 1758.9663 1250.64)" class="st5" width="13.93" height="11.45"/>
				<rect x="849.02" y="619.59" class="st10" width="23.49" height="11.45"/>
				<rect x="877.35" y="622.46" class="st11" width="5.12" height="8.59"/>
				<polygon class="st11" points="855.91,607.07 849.02,619.59 872.68,619.59 879.57,607.07 				"/>
				<rect x="858.65" y="604.15" class="st10" width="4.34" height="4.29"/>
				<polygon class="st5" points="879.57,607.07 872.68,619.59 886.45,619.59 				"/>
				<polygon class="st5" points="862.99,608.43 864.91,606.89 864.91,604.15 862.99,604.15 				"/>
				
					<rect x="878.06" y="612.16" transform="matrix(-1 -1.224647e-16 1.224647e-16 -1 1758.9663 1226.6586)" class="st3" width="2.84" height="2.33"/>
				
					<rect x="856.15" y="620.78" transform="matrix(-1 -1.224647e-16 1.224647e-16 -1 1715.1311 1246.2283)" class="st3" width="2.84" height="4.67"/>
				
					<rect x="861.11" y="620.78" transform="matrix(-1 -1.224647e-16 1.224647e-16 -1 1725.0616 1246.2283)" class="st3" width="2.84" height="4.67"/>
			</g>
			<g>
				<rect x="996.5" y="598.67" class="st5" width="16.16" height="14.33"/>
				<rect x="1031.83" y="564.41" class="st5" width="16.16" height="48.6"/>
				
					<rect x="1012.66" y="598.67" transform="matrix(-1 -3.130663e-11 3.130663e-11 -1 2060.7593 1211.6786)" class="st10" width="35.44" height="14.33"/>
				<path class="st11" d="M1001.4,613.01h6.35v-9.12c0-0.5-0.41-0.91-0.91-0.91h-4.53c-0.5,0-0.91,0.41-0.91,0.91V613.01z"/>
				<polygon class="st11" points="1031.92,582.99 1039.91,598.67 1012.47,598.67 1004.48,582.99 				"/>
				
					<rect x="1024.14" y="579.34" transform="matrix(-1 -6.202740e-11 6.202740e-11 -1 2051.7654 1164.047)" class="st10" width="3.49" height="5.36"/>
				<polygon class="st5" points="1004.48,582.99 1012.47,598.67 996.5,598.67 				"/>
				<polygon class="st5" points="1024.14,584.71 1022.59,582.78 1022.59,579.34 1024.14,579.34 				"/>
				<path class="st3" d="M1005.28,589.37h-1.41c-0.16,0-0.28,0.13-0.28,0.28v5.09h1.98v-5.09
					C1005.57,589.5,1005.44,589.37,1005.28,589.37z"/>
				<path class="st3" d="M1034.26,602.33h-1.55c-0.17,0-0.31,0.14-0.31,0.31v5.53h2.17v-5.53
					C1034.57,602.47,1034.44,602.33,1034.26,602.33z"/>
				<path class="st3" d="M1019.85,602.33h-1.55c-0.17,0-0.31,0.14-0.31,0.31v5.53h2.17v-5.53
					C1020.16,602.47,1020.02,602.33,1019.85,602.33z"/>
				<path class="st3" d="M1011.15,602.33h-1.55c-0.17,0-0.31,0.14-0.31,0.31v5.53h2.17v-5.53
					C1011.47,602.47,1011.33,602.33,1011.15,602.33z"/>
				<path class="st3" d="M999.64,602.33h-1.55c-0.17,0-0.31,0.14-0.31,0.31v5.53h2.17v-5.53
					C999.96,602.47,999.82,602.33,999.64,602.33z"/>
				<path class="st3" d="M1027.07,602.33h-1.55c-0.17,0-0.31,0.14-0.31,0.31v5.53h2.17v-5.53
					C1027.38,602.47,1027.24,602.33,1027.07,602.33z"/>
				
					<rect x="1039.91" y="564.41" transform="matrix(-1 -4.620105e-10 4.620105e-10 -1 2088.009 1177.4158)" class="st10" width="8.19" height="48.6"/>
				<polygon class="st11" points="1039.96,549.4 1048.58,565.08 1031.35,565.08 				"/>
				<path class="st3" d="M1036.43,577.62h-1.41c-0.16,0-0.28,0.13-0.28,0.28v5.09h1.98v-5.09
					C1036.72,577.75,1036.59,577.62,1036.43,577.62z"/>
				<circle class="st3" cx="1035.73" cy="570.88" r="2.03"/>
				<path class="st3" d="M1044.71,577.62h-1.41c-0.16,0-0.28,0.13-0.28,0.28v5.09h1.98v-5.09
					C1044.99,577.75,1044.87,577.62,1044.71,577.62z"/>
				<path class="st3" d="M1044.71,587.21h-1.41c-0.16,0-0.28,0.13-0.28,0.28v5.09h1.98v-5.09
					C1044.99,587.34,1044.87,587.21,1044.71,587.21z"/>
				<circle class="st3" cx="1044" cy="570.88" r="2.03"/>
			</g>
		</g>
		<g>
			<g>
				<path class="st2" d="M1276.98,665.46V1024H162.8l0.01-13.37l0.12-278.24l0.05-107.29c94.36-42.54,173.93-69.87,299.78-68.96
					c62.05,0.45,175.84,13.28,251.14,23.7c11.69,1.62,22.45,3.18,31.94,4.63C922.89,611.48,1099.93,638.47,1276.98,665.46z"/>
				<g>
					<rect x="329.53" y="576.48" class="st3" width="25.22" height="84.58"/>
					
						<rect x="354.75" y="576.48" transform="matrix(-1 -1.224647e-16 1.224647e-16 -1 721.2346 1237.5448)" class="st4" width="11.74" height="84.58"/>
					<rect x="250.8" y="592.45" class="st3" width="25.22" height="68.61"/>
					
						<rect x="276.02" y="592.45" transform="matrix(-1 -1.224647e-16 1.224647e-16 -1 563.7856 1253.5151)" class="st4" width="11.74" height="68.61"/>
					<rect x="283.54" y="605.46" class="st3" width="38.13" height="55.6"/>
					
						<rect x="321.67" y="605.46" transform="matrix(-1 -1.224647e-16 1.224647e-16 -1 661.0736 1266.528)" class="st4" width="17.74" height="55.6"/>
					
						<rect x="203.36" y="569.97" transform="matrix(-1 -1.224647e-16 1.224647e-16 -1 431.9434 1231.038)" class="st3" width="25.22" height="91.09"/>
					<rect x="191.62" y="569.97" class="st4" width="11.74" height="91.09"/>
				</g>
			</g>
			<g>
				<path class="st5" d="M440.73,516.69H327.89c3-8.8,9.94-16.67,17.77-18.21c7.82-1.54,16.22,2.1,21.42,9.28
					c5.27-11.4,14.43-20.16,24.75-23.84c4.8-1.72,9.86-2.33,14.88-1.59C422.5,484.66,436.62,498.24,440.73,516.69z"/>
			</g>
			<g>
				<path class="st5" d="M722.15,526.72h-63.11c2.3-10.32,10.2-17.91,19.04-19.22c8.84-1.3,17.85,4.88,22.16,14.22
					c1.5-2.09,3.49-3.63,5.66-4.52c2.02-0.84,4.21-1.09,6.32-0.68C716.59,517.39,720.47,521.79,722.15,526.72z"/>
			</g>
			<g>
				<path class="st6" d="M1276.98,537.55c0,0,85.23,43.29,116.17,49.66c153.23,31.56,400.48-31.09,400.48-31.09V1024h-516.65H162.8
					V745.81c0.06-0.02,0.12-0.04,0.18-0.06c93.9-30.92,188.9-58.74,284.55-84.65c150.57-40.8,302.75-76.86,454.79-112.89
					c79.95-18.94,161.15-38.03,243.67-36.05C1190.61,513.23,1236.1,521.28,1276.98,537.55z"/>
			</g>
			<g>
				<path class="st5" d="M932.24,576.85H803.23c1.8-8.34,6.19-14.5,13.17-16.5c6.98-2,14.8,0.97,19.55,7.44
					c1.33-11.66,7.9-21.93,16.51-27.46c4.19-2.7,8.87-4.28,13.65-4.34c14.59-0.22,28.43,13.73,30.76,31.01
					c5.56-5.68,13.93-9.07,21.07-7.29C925.09,561.47,929.73,567.83,932.24,576.85z"/>
			</g>
			<g>
				<path class="st5" d="M266.17,548h-75.94c1.06-4.91,3.64-8.54,7.75-9.71c4.11-1.18,8.72,0.57,11.51,4.38
					c1.16-10.21,9.16-18.6,17.75-18.73c0.18,0,0.37,0,0.56,0.01c8.38,0.22,16.21,8.29,17.55,18.25c3.27-3.35,8.2-5.34,12.4-4.3
					C261.97,538.95,264.7,542.7,266.17,548z"/>
			</g>
			<g>
				<path class="st7" d="M1277.16,627.38c0,0,95.33,23.94,131.66,25.53c92.78,4.07,384.76-44.47,384.76-44.47v105.89
					c0,0-285.16-37.08-380.21-35.37c-34.05,0.61-136.21,14.8-136.21,14.8c-36.77,6.41-73.53,11.9-110.59,8.19
					c-52.09-5.22-98.9-28.16-150.33-36.56c-63.38-10.36-129.22,2.06-189.93,19.88c-136.08,39.93-257.2,106.4-389.5,153.68
					c-87.01,31.11-181.22,50.41-273.83,47.81v-64c175.23-50.23,350.45-100.45,525.67-150.68c96.68-27.71,194.35-55.61,296.33-65.71
					C1082.78,596.68,1183.05,604.18,1277.16,627.38z"/>
			</g>
			<g>
				<path class="st8" d="M1277.16,929.76V1024H162.98V745.75c93.9-30.92,188.9-58.74,284.55-84.65
					c245.78,59.87,597.03,156.62,829.44,268.57C1277.03,929.7,1277.1,929.73,1277.16,929.76z"/>
			</g>
			<g>
				<path class="st6" d="M1277.16,943.12V1024H162.98h-516.6V526.72l516.6,83.55c0,0,97.38,19.5,239.95,53.46
					c2.14,0.51,4.29,1.02,6.45,1.54C655.82,724.15,1032.44,825.21,1277.16,943.12z"/>
			</g>
			<g>
				<path class="st2" d="M846.71,1024c-209.6-176.5-442.36-301.34-683.77-366.78l-286.7-93.33l-229.86-37.17v230.64
					c0,0,156.49,57.87,225.63,19.78c109.1-60.11,290.94-73.7,290.94-73.7c26.54,0,53.35-0.82,79.41,5.16
					c26.06,5.99,51.7,22.49,64.8,50.17c5.27,11.14,8.4,23.77,14.87,33.96c8.7,13.72,22.53,21.5,36.49,25.61
					c13.96,4.11,28.42,5.05,42.58,7.98c56.22,11.64,104.24,53.52,151.45,91.95c47.21,38.42,99.11,105.4,156.16,105.73H846.71z"/>
			</g>
			<g>
				<path class="st2" d="M1277.16,1024H162.98l0.13-24.98l-81,24.98h-435.73l517.2-113.63c0,0,24.28-5.49,67.79-14.37
					c14.34-2.92,30.75-6.21,49.08-9.79c152.17-29.76,435.76-79.62,747.17-106.37c10.9-0.94,21.83-1.85,32.79-2.73
					c28.27-2.27,56.75-4.33,85.34-6.16c16.69-1.07,33.42-2.06,50.18-2.97c26.97-1.46,54.01-2.69,81.06-3.68l516.56-15.88
					l0.09,275.58H1277.16z"/>
			</g>
			<g>
				<path class="st6" d="M1277.04,856.8c-35.62-1.57-71.96-0.05-107.6,2.93c-71.1,5.94-141.55,17.32-212.88,20.24
					c-62.68,2.55-126.81-1.34-187.14,12.16c-53.65,12-100.16,36.9-152.31,52.09c-87.13,25.37-184.39,22.21-274.66,40.64
					c-41.92,8.56-82,21.9-118.5,39.15H82.11l81-24.98c346.99-120.87,732.38-182.98,1113.9-180.13l516.61-23.55l-1.37,85.68
					L1277.04,856.8z"/>
			</g>
			<g>
				<path class="st2" d="M850.61,770.35c-0.33,3.26-1.77,6.24-3.63,8.26c-1.31,1.44-2.85,2.45-4.47,2.99
					c-2.05,0.69-4.24,0.64-6.26-0.24c-3.61-1.57-6.59-5.73-7.74-10.79c-0.3-1.34-0.48-2.78-0.26-4.15c0.23-1.37,0.94-2.64,1.92-2.96
					c1.63-0.53,3.02,1.61,4,3.51c-0.52-5.01,0.51-10.04,2.63-14.14c0.7-1.35,1.69-2.67,2.87-2.56c1.07,0.1,1.89,1.35,2.46,2.63
					c1.44,3.2,1.84,7.12,1.67,10.89c0.56-1.88,1.96-2.82,3.33-2.6c0.67,0.11,1.28,0.51,1.8,1.11c0.55,0.62,0.99,1.45,1.28,2.35
					C850.77,766.42,850.81,768.44,850.61,770.35z"/>
			</g>
			<g>
				<rect x="838.86" y="765.68" class="st9" width="0.97" height="25.46"/>
			</g>
			<g>
				<path class="st2" d="M266.77,839.54c-0.96,9.34-5.08,17.86-10.38,23.65c-2.37,2.59-5,4.7-7.77,6.29
					c-7.22,4.14-15.47,4.82-22.93,1.57c-10.33-4.5-18.87-16.41-22.16-30.89c-0.87-3.83-1.39-7.95-0.74-11.86
					c0.66-3.92,2.7-7.56,5.48-8.46c4.66-1.51,8.63,4.6,11.44,10.03c-1.49-14.34,1.47-28.74,7.53-40.47c2-3.86,4.83-7.65,8.21-7.33
					c3.06,0.29,5.41,3.88,7.05,7.52c4.12,9.17,5.26,20.38,4.79,31.17c1.59-5.39,5.62-8.08,9.53-7.43c0.76,0.13,1.49,0.38,2.2,0.76
					c2.93,1.54,5.32,5.07,6.61,9.15C267.23,828.29,267.33,834.06,266.77,839.54z"/>
			</g>
			<g>
				<rect x="233.15" y="826.16" class="st9" width="2.79" height="72.85"/>
			</g>
			<g>
				<path class="st2" d="M315.65,831.3c-0.41,5.96-1.89,12.41-6.01,15.79c-0.99,0.81-2.07,1.37-3.2,1.71
					c-4.25,1.28-9.19-0.61-12.3-4.5c-3.93-4.93-5.2-12.27-4.54-19.04c0.59-6.04,2.65-16.96,7.47-20.45
					c4.8-3.47,11.56,1.04,14.69,5.84c0.16,0.24,0.31,0.49,0.45,0.73C315.46,817.07,316.13,824.4,315.65,831.3z"/>
			</g>
			<g>
				<rect x="301.16" y="823.64" class="st9" width="2.79" height="49.46"/>
			</g>
			<g>
				<path class="st2" d="M1188.33,682.02c-0.25,2.4-1.3,4.58-2.66,6.07c-0.96,1.06-2.09,1.8-3.28,2.2c-1.51,0.51-3.11,0.47-4.6-0.18
					c-2.65-1.15-4.84-4.21-5.69-7.93c-0.22-0.98-0.36-2.04-0.19-3.05c0.17-1.01,0.69-1.94,1.41-2.17c1.2-0.39,2.22,1.18,2.94,2.58
					c-0.38-3.68,0.38-7.38,1.93-10.39c0.51-0.99,1.24-1.96,2.11-1.88c0.79,0.08,1.39,1,1.81,1.93c1.06,2.35,1.35,5.23,1.23,8
					c0.41-1.38,1.44-2.07,2.45-1.91c0.49,0.08,0.94,0.38,1.32,0.82c0.4,0.46,0.73,1.06,0.94,1.73
					C1188.45,679.13,1188.48,680.62,1188.33,682.02z"/>
			</g>
			<g>
				<rect x="1179.7" y="678.59" class="st9" width="0.72" height="18.7"/>
			</g>
			<g>
				<path class="st2" d="M1121.08,580.41c-0.2,1.92-1.04,3.67-2.13,4.86c-0.77,0.85-1.68,1.44-2.63,1.76
					c-1.21,0.41-2.49,0.38-3.68-0.14c-2.12-0.92-3.88-3.37-4.56-6.35c-0.18-0.79-0.29-1.64-0.15-2.44c0.14-0.81,0.55-1.55,1.13-1.74
					c0.96-0.31,1.78,0.95,2.35,2.06c-0.31-2.95,0.3-5.91,1.55-8.32c0.41-0.79,0.99-1.57,1.69-1.51c0.63,0.06,1.11,0.8,1.45,1.55
					c0.85,1.89,1.08,4.19,0.99,6.41c0.33-1.11,1.16-1.66,1.96-1.53c0.39,0.06,0.75,0.3,1.06,0.65c0.32,0.37,0.58,0.85,0.75,1.39
					C1121.17,578.09,1121.19,579.28,1121.08,580.41z"/>
			</g>
			<g>
				<rect x="1114.17" y="577.65" class="st9" width="0.57" height="14.98"/>
			</g>
			<g>
				<path class="st2" d="M1130.65,581.97c-0.1,1.41-0.45,2.93-1.42,3.73c-0.23,0.19-0.49,0.32-0.76,0.4
					c-1.01,0.3-2.17-0.15-2.91-1.07c-0.93-1.16-1.23-2.9-1.07-4.5c0.14-1.43,0.63-4.01,1.77-4.84c1.14-0.82,2.73,0.25,3.47,1.38
					c0.04,0.06,0.07,0.12,0.11,0.17C1130.61,578.6,1130.77,580.34,1130.65,581.97z"/>
			</g>
			<g>
				<rect x="1127.23" y="580.15" class="st9" width="0.66" height="11.69"/>
			</g>
			<g>
				<path class="st8" d="M1189.65,808.61c-0.46,6.69-2.13,13.93-6.75,17.72c-1.11,0.91-2.32,1.54-3.6,1.92
					c-4.77,1.43-10.32-0.69-13.81-5.06c-4.41-5.53-5.84-13.77-5.1-21.37c0.66-6.78,2.97-19.04,8.39-22.96
					c5.39-3.89,12.97,1.17,16.49,6.55c0.18,0.27,0.34,0.55,0.5,0.82C1189.44,792.64,1190.19,800.87,1189.65,808.61z"/>
			</g>
			<g>
				<rect x="1173.39" y="800.01" class="st9" width="3.13" height="55.52"/>
			</g>
			<g>
				<path class="st5" d="M1091.19,491.71h-63.11c2.3-10.32,10.2-17.91,19.04-19.22c8.84-1.3,17.85,4.88,22.16,14.22
					c1.5-2.09,3.49-3.63,5.66-4.52c2.02-0.84,4.21-1.09,6.32-0.68C1085.63,482.39,1089.52,486.79,1091.19,491.71z"/>
			</g>
			<g>
				<path class="st5" d="M1234.23,516.69h-78.81c2.09-6.15,6.94-11.64,12.41-12.72c5.46-1.08,11.33,1.47,14.96,6.48
					c3.68-7.96,10.08-14.08,17.29-16.65c3.35-1.2,6.89-1.63,10.39-1.11C1221.5,494.32,1231.36,503.81,1234.23,516.69z"/>
			</g>
			<g>
				<path class="st2" d="M811.84,778.85c-0.31,3.03-1.65,5.8-3.37,7.68c-1.22,1.34-2.65,2.27-4.16,2.78
					c-1.91,0.64-3.94,0.59-5.82-0.23c-3.35-1.46-6.13-5.33-7.2-10.04c-0.28-1.24-0.45-2.58-0.24-3.85c0.21-1.27,0.88-2.46,1.78-2.75
					c1.51-0.49,2.8,1.49,3.72,3.26c-0.48-4.66,0.48-9.34,2.45-13.15c0.65-1.25,1.57-2.49,2.67-2.38c0.99,0.1,1.76,1.26,2.29,2.44
					c1.34,2.98,1.71,6.62,1.56,10.13c0.52-1.75,1.83-2.63,3.1-2.41c0.62,0.1,1.19,0.48,1.68,1.03c0.51,0.58,0.92,1.35,1.19,2.19
					C811.99,775.19,812.02,777.07,811.84,778.85z"/>
			</g>
			<g>
				<rect x="800.91" y="774.5" class="st9" width="0.91" height="23.67"/>
			</g>
			<g>
				
					<rect x="400.63" y="739.77" transform="matrix(-1 -1.224647e-16 1.224647e-16 -1 826.5528 1507.676)" class="st5" width="25.29" height="28.13"/>
				<rect x="357.98" y="739.77" class="st10" width="42.65" height="28.13"/>
				<rect x="409.4" y="746.81" class="st11" width="9.29" height="21.09"/>
				<polygon class="st11" points="370.48,709 357.98,739.77 400.93,739.77 413.43,709 				"/>
				<rect x="375.46" y="701.83" class="st10" width="7.88" height="10.53"/>
				<polygon class="st5" points="413.43,709 400.93,739.77 425.92,739.77 				"/>
				<polygon class="st5" points="383.34,712.36 386.82,708.57 386.82,701.83 383.34,701.83 				"/>
				
					<rect x="410.7" y="721.52" transform="matrix(-1 -1.224647e-16 1.224647e-16 -1 826.5528 1448.7712)" class="st3" width="5.15" height="5.73"/>
				
					<rect x="370.91" y="742.69" transform="matrix(-1 -1.224647e-16 1.224647e-16 -1 746.972 1496.8395)" class="st3" width="5.15" height="11.47"/>
				
					<rect x="379.92" y="742.69" transform="matrix(-1 -1.224647e-16 1.224647e-16 -1 765.0004 1496.8395)" class="st3" width="5.15" height="11.47"/>
			</g>
			<g>
				<rect x="556.89" y="810.25" class="st5" width="30.69" height="24.55"/>
				
					<rect x="587.59" y="810.25" transform="matrix(-1 -3.701096e-11 3.701096e-11 -1 1226.9282 1645.0596)" class="st10" width="51.75" height="24.55"/>
				
					<rect x="574.88" y="816.4" transform="matrix(-1 -5.043045e-11 5.043045e-11 -1 1157.8257 1651.2061)" class="st11" width="8.06" height="18.41"/>
				<polygon class="st11" points="624.18,783.4 639.34,810.25 587.22,810.25 572.06,783.4 				"/>
				
					<rect x="609.39" y="777.14" transform="matrix(-1 -5.379309e-11 5.379309e-11 -1 1225.4071 1563.4686)" class="st10" width="6.63" height="9.19"/>
				<polygon class="st5" points="572.06,783.4 587.22,810.25 556.89,810.25 				"/>
				<polygon class="st5" points="609.39,786.33 606.46,783.03 606.46,777.14 609.39,777.14 				"/>
				<rect x="570.36" y="794.32" class="st3" width="3.75" height="9.2"/>
				<rect x="628.6" y="816.51" class="st3" width="4.12" height="10.01"/>
				<rect x="621.39" y="816.51" class="st3" width="4.12" height="10.01"/>
				<rect x="601.58" y="816.51" class="st3" width="4.12" height="10.01"/>
				<rect x="594.37" y="816.51" class="st3" width="4.12" height="10.01"/>
				<rect x="567.58" y="816.51" class="st3" width="4.12" height="10.01"/>
				<rect x="560.37" y="816.51" class="st3" width="4.12" height="10.01"/>
			</g>
			<g>
				<path class="st2" d="M908.46,765.67c-0.29,3.08-1.52,5.9-3.1,7.81c-1.12,1.36-2.44,2.31-3.83,2.83
					c-1.76,0.66-3.63,0.6-5.36-0.23c-3.09-1.49-5.65-5.42-6.63-10.2c-0.26-1.26-0.42-2.63-0.22-3.92c0.2-1.29,0.81-2.5,1.64-2.79
					c1.39-0.5,2.58,1.52,3.42,3.31c-0.45-4.74,0.44-9.49,2.25-13.36c0.6-1.27,1.45-2.53,2.46-2.42c0.92,0.1,1.62,1.28,2.11,2.48
					c1.23,3.03,1.57,6.73,1.43,10.29c0.48-1.78,1.68-2.67,2.85-2.45c0.57,0.1,1.1,0.49,1.54,1.05c0.47,0.59,0.85,1.37,1.09,2.22
					C908.6,761.96,908.63,763.86,908.46,765.67z"/>
			</g>
			<g>
				<rect x="898.4" y="761.26" class="st9" width="0.83" height="24.06"/>
			</g>
			<g>
				<path class="st2" d="M875.26,773.7c-0.27,2.87-1.41,5.48-2.89,7.26c-1.04,1.26-2.27,2.15-3.56,2.63
					c-1.64,0.61-3.38,0.56-4.98-0.21c-2.87-1.38-5.25-5.04-6.17-9.48c-0.24-1.18-0.39-2.44-0.2-3.64c0.18-1.2,0.75-2.32,1.53-2.6
					c1.3-0.46,2.4,1.41,3.18,3.08c-0.41-4.4,0.41-8.82,2.09-12.43c0.55-1.18,1.34-2.35,2.28-2.25c0.85,0.09,1.51,1.19,1.96,2.31
					c1.15,2.82,1.46,6.26,1.33,9.57c0.44-1.65,1.56-2.48,2.65-2.28c0.53,0.1,1.02,0.45,1.44,0.97c0.44,0.55,0.79,1.27,1.02,2.07
					C875.39,770.25,875.41,772.02,875.26,773.7z"/>
			</g>
			<g>
				<rect x="865.9" y="769.59" class="st9" width="0.78" height="22.37"/>
			</g>
			<g>
				<path class="st2" d="M1206.31,680.15c-0.25,2.69-1.3,5.15-2.66,6.82c-0.96,1.18-2.09,2.02-3.28,2.47
					c-1.51,0.57-3.11,0.53-4.6-0.2c-2.65-1.3-4.84-4.73-5.69-8.9c-0.22-1.1-0.36-2.29-0.19-3.42c0.17-1.13,0.69-2.18,1.41-2.44
					c1.2-0.44,2.22,1.33,2.94,2.89c-0.38-4.13,0.38-8.28,1.93-11.67c0.51-1.11,1.24-2.21,2.11-2.11c0.79,0.08,1.39,1.12,1.81,2.17
					c1.06,2.64,1.35,5.87,1.23,8.98c0.41-1.55,1.44-2.33,2.45-2.14c0.49,0.09,0.94,0.42,1.32,0.92c0.4,0.51,0.73,1.19,0.94,1.94
					C1206.43,676.9,1206.45,678.57,1206.31,680.15z"/>
			</g>
			<g>
				<rect x="1197.68" y="676.29" class="st9" width="0.72" height="21"/>
			</g>
			<g>
				
					<rect x="968.74" y="599.15" transform="matrix(-1 -1.224647e-16 1.224647e-16 -1 1949.7378 1211.9254)" class="st5" width="12.25" height="13.63"/>
				<rect x="948.09" y="599.15" class="st10" width="20.65" height="13.63"/>
				<rect x="972.99" y="602.56" class="st11" width="4.5" height="10.21"/>
				<polygon class="st11" points="954.14,584.25 948.09,599.15 968.89,599.15 974.94,584.25 				"/>
				<rect x="956.55" y="580.78" class="st10" width="3.82" height="5.1"/>
				<polygon class="st5" points="974.94,584.25 968.89,599.15 980.99,599.15 				"/>
				<polygon class="st5" points="960.37,585.87 962.06,584.04 962.06,580.78 960.37,580.78 				"/>
				
					<rect x="973.62" y="590.31" transform="matrix(-1 -1.224647e-16 1.224647e-16 -1 1949.7378 1183.3986)" class="st3" width="2.5" height="2.78"/>
				
					<rect x="954.35" y="600.56" transform="matrix(-1 -1.224647e-16 1.224647e-16 -1 1911.1979 1206.6775)" class="st3" width="2.5" height="5.55"/>
				
					<rect x="958.72" y="600.56" transform="matrix(-1 -1.224647e-16 1.224647e-16 -1 1919.9288 1206.6775)" class="st3" width="2.5" height="5.55"/>
			</g>
			<g>
				<rect x="893.36" y="608.36" class="st5" width="14.86" height="11.89"/>
				
					<rect x="908.22" y="608.36" transform="matrix(-1 -3.701451e-11 3.701451e-11 -1 1841.5072 1228.6139)" class="st10" width="25.06" height="11.89"/>
				
					<rect x="902.07" y="611.34" transform="matrix(-1 -5.078528e-11 5.078528e-11 -1 1808.0417 1231.5905)" class="st11" width="3.9" height="8.91"/>
				<polygon class="st11" points="925.94,595.36 933.29,608.36 908.04,608.36 900.7,595.36 				"/>
				
					<rect x="918.78" y="592.33" transform="matrix(-1 -5.553836e-11 5.553836e-11 -1 1840.7706 1189.1003)" class="st10" width="3.21" height="4.45"/>
				<polygon class="st5" points="900.7,595.36 908.04,608.36 893.36,608.36 				"/>
				<polygon class="st5" points="918.78,596.78 917.36,595.18 917.36,592.33 918.78,592.33 				"/>
				<rect x="899.88" y="600.65" class="st3" width="1.82" height="4.45"/>
				<rect x="928.08" y="611.39" class="st3" width="2" height="4.85"/>
				<rect x="924.59" y="611.39" class="st3" width="2" height="4.85"/>
				<rect x="915" y="611.39" class="st3" width="2" height="4.85"/>
				<rect x="911.51" y="611.39" class="st3" width="2" height="4.85"/>
				<rect x="898.53" y="611.39" class="st3" width="2" height="4.85"/>
				<rect x="895.04" y="611.39" class="st3" width="2" height="4.85"/>
			</g>
			<g>
				
					<rect x="872.52" y="619.59" transform="matrix(-1 -1.224647e-16 1.224647e-16 -1 1758.9663 1250.64)" class="st5" width="13.93" height="11.45"/>
				<rect x="849.02" y="619.59" class="st10" width="23.49" height="11.45"/>
				<rect x="877.35" y="622.46" class="st11" width="5.12" height="8.59"/>
				<polygon class="st11" points="855.91,607.07 849.02,619.59 872.68,619.59 879.57,607.07 				"/>
				<rect x="858.65" y="604.15" class="st10" width="4.34" height="4.29"/>
				<polygon class="st5" points="879.57,607.07 872.68,619.59 886.45,619.59 				"/>
				<polygon class="st5" points="862.99,608.43 864.91,606.89 864.91,604.15 862.99,604.15 				"/>
				
					<rect x="878.06" y="612.16" transform="matrix(-1 -1.224647e-16 1.224647e-16 -1 1758.9663 1226.6586)" class="st3" width="2.84" height="2.33"/>
				
					<rect x="856.15" y="620.78" transform="matrix(-1 -1.224647e-16 1.224647e-16 -1 1715.1311 1246.2283)" class="st3" width="2.84" height="4.67"/>
				
					<rect x="861.11" y="620.78" transform="matrix(-1 -1.224647e-16 1.224647e-16 -1 1725.0616 1246.2283)" class="st3" width="2.84" height="4.67"/>
			</g>
			<g>
				<rect x="996.5" y="598.67" class="st5" width="16.16" height="14.33"/>
				<rect x="1031.83" y="564.41" class="st5" width="16.16" height="48.6"/>
				
					<rect x="1012.66" y="598.67" transform="matrix(-1 -3.130663e-11 3.130663e-11 -1 2060.7593 1211.6786)" class="st10" width="35.44" height="14.33"/>
				<path class="st11" d="M1001.4,613.01h6.35v-9.12c0-0.5-0.41-0.91-0.91-0.91h-4.53c-0.5,0-0.91,0.41-0.91,0.91V613.01z"/>
				<polygon class="st11" points="1031.92,582.99 1039.91,598.67 1012.47,598.67 1004.48,582.99 				"/>
				
					<rect x="1024.14" y="579.34" transform="matrix(-1 -6.202740e-11 6.202740e-11 -1 2051.7654 1164.047)" class="st10" width="3.49" height="5.36"/>
				<polygon class="st5" points="1004.48,582.99 1012.47,598.67 996.5,598.67 				"/>
				<polygon class="st5" points="1024.14,584.71 1022.59,582.78 1022.59,579.34 1024.14,579.34 				"/>
				<path class="st3" d="M1005.28,589.37h-1.41c-0.16,0-0.28,0.13-0.28,0.28v5.09h1.98v-5.09
					C1005.57,589.5,1005.44,589.37,1005.28,589.37z"/>
				<path class="st3" d="M1034.26,602.33h-1.55c-0.17,0-0.31,0.14-0.31,0.31v5.53h2.17v-5.53
					C1034.57,602.47,1034.44,602.33,1034.26,602.33z"/>
				<path class="st3" d="M1019.85,602.33h-1.55c-0.17,0-0.31,0.14-0.31,0.31v5.53h2.17v-5.53
					C1020.16,602.47,1020.02,602.33,1019.85,602.33z"/>
				<path class="st3" d="M1011.15,602.33h-1.55c-0.17,0-0.31,0.14-0.31,0.31v5.53h2.17v-5.53
					C1011.47,602.47,1011.33,602.33,1011.15,602.33z"/>
				<path class="st3" d="M999.64,602.33h-1.55c-0.17,0-0.31,0.14-0.31,0.31v5.53h2.17v-5.53
					C999.96,602.47,999.82,602.33,999.64,602.33z"/>
				<path class="st3" d="M1027.07,602.33h-1.55c-0.17,0-0.31,0.14-0.31,0.31v5.53h2.17v-5.53
					C1027.38,602.47,1027.24,602.33,1027.07,602.33z"/>
				
					<rect x="1039.91" y="564.41" transform="matrix(-1 -4.620105e-10 4.620105e-10 -1 2088.009 1177.4158)" class="st10" width="8.19" height="48.6"/>
				<polygon class="st11" points="1039.96,549.4 1048.58,565.08 1031.35,565.08 				"/>
				<path class="st3" d="M1036.43,577.62h-1.41c-0.16,0-0.28,0.13-0.28,0.28v5.09h1.98v-5.09
					C1036.72,577.75,1036.59,577.62,1036.43,577.62z"/>
				<circle class="st3" cx="1035.73" cy="570.88" r="2.03"/>
				<path class="st3" d="M1044.71,577.62h-1.41c-0.16,0-0.28,0.13-0.28,0.28v5.09h1.98v-5.09
					C1044.99,577.75,1044.87,577.62,1044.71,577.62z"/>
				<path class="st3" d="M1044.71,587.21h-1.41c-0.16,0-0.28,0.13-0.28,0.28v5.09h1.98v-5.09
					C1044.99,587.34,1044.87,587.21,1044.71,587.21z"/>
				<circle class="st3" cx="1044" cy="570.88" r="2.03"/>
			</g>
			<g>
				<path class="st5" d="M4.03,576.85h-129.01c1.8-8.34,6.19-14.5,13.17-16.5c6.98-2,14.8,0.97,19.55,7.44
					c1.33-11.66,7.9-21.93,16.51-27.46c4.19-2.7,8.87-4.28,13.65-4.34c14.59-0.22,28.43,13.73,30.76,31.01
					c5.56-5.68,13.93-9.07,21.07-7.29C-3.12,561.47,1.52,567.83,4.03,576.85z"/>
			</g>
			<g>
				<path class="st5" d="M162.98,491.71H99.87c2.3-10.32,10.2-17.91,19.04-19.22c8.84-1.3,17.85,4.88,22.16,14.22
					c1.5-2.09,3.49-3.63,5.66-4.52c2.02-0.84,4.21-1.09,6.32-0.68C157.42,482.39,161.3,486.79,162.98,491.71z"/>
			</g>
			<g>
				<path class="st5" d="M1391.07,569.27h-75.94c1.06-4.91,3.64-8.54,7.75-9.71c4.11-1.18,8.72,0.57,11.51,4.38
					c1.16-10.21,9.16-18.6,17.75-18.73c0.18,0,0.37,0,0.56,0.01c8.38,0.22,16.21,8.29,17.55,18.25c3.27-3.35,8.2-5.34,12.4-4.3
					C1386.86,560.22,1389.59,563.97,1391.07,569.27z"/>
			</g>
		</g>
	</g>
	<g class="st0">
		<g>
			<g>
				<path class="st18" d="M567.11,883.23V750.06h6.83v133.18c0,0.6-0.49,1.09-1.09,1.09h-4.65
					C567.59,884.32,567.11,883.84,567.11,883.23z"/>
			</g>
			<g>
				<path class="st83" d="M568.58,750.06c0,0,1.06,49.04,0.93,65s-0.48,36.49-0.3,52.46c0,0,0.92-43.64,0.75-58.73
					C569.78,793.69,570.01,758.78,568.58,750.06L568.58,750.06z"/>
			</g>
			<g>
				<path class="st83" d="M571.52,754.98c0,0,1.23,19.25,1.04,26.32s-0.49,9.72-0.59,18.97c0,0-0.37-10.87-0.18-17.06
					C572.25,767.58,571.52,754.98,571.52,754.98z"/>
			</g>
			<g>
				<path class="st83" d="M571.46,884.32c0,0,0.73-19.34,0.47-23.9c-0.25-4.56-1.07-10.54-0.81-13.73c0,0,1.07,7.25,1.24,11.7
					C572.57,863.69,572.63,876.14,571.46,884.32z"/>
			</g>
			<g>
				<path class="st8" d="M564.23,882.24c0.07-0.56-0.04-1.14-0.09-1.71c-0.05-0.57-0.01-1.21,0.3-1.61c0.15-0.19,0.38-0.31,0.57-0.2
					c0.19,0.11,0.28,0.39,0.35,0.64c0.17,0.59,0.34,1.19,0.51,1.78c0.28-0.19,0.22-0.76,0.41-1.1c0.24-0.46,0.84-0.31,1.11,0.14
					c0.26,0.45,0.28,1.05,0.3,1.61c0.3-0.65,0.78-1.14,1.33-1.38c0.43-0.13,0.66,1.64,0.56,2.53c0.11-0.58,0.79-0.68,1.14-0.28
					s0.43,1.06,0.43,1.66c0,0.12-0.01,0.26-0.07,0.35c-0.07,0.1-0.19,0.1-0.3,0.1c-2.1-0.04-4.77,0.5-6.81-0.14
					c-0.69-0.21-1.43-0.66-1.25-1.8C562.91,881.57,564.3,882.02,564.23,882.24z"/>
			</g>
			<g>
				<path class="st6" d="M569.67,882.44c0.33-0.31,0.79-0.2,1.07,0.27c-0.04-0.62,0.38-1.08,0.75-0.96
					c0.37,0.12,0.66,0.62,0.86,1.16c0.07,0.18,0.14,0.38,0.26,0.45c0.11,0.07,0.23,0,0.33-0.08c0.54-0.45,1.05-1.51,1.61-1.06
					c0.32,0.25,0.5,0.94,0.85,1.05c0.19,0.06,0.38-0.07,0.56-0.16c0.32-0.17,0.69-0.22,1.01-0.02c0.33,0.21,0.61,0.72,0.63,1.3
					c0,0.47-1.08,0.53-1.65,0.55c-1.76,0.06-3.52,0.07-5.29,0.03C569.86,884.95,568.41,883.64,569.67,882.44z"/>
			</g>
			<g>
				<path class="st18" d="M559.19,750.06h22.66c0.69,0,1.25,0.56,1.25,1.25v5.33c0,0.69-0.56,1.25-1.25,1.25h-22.66
					c-0.69,0-1.25-0.56-1.25-1.25v-5.33C557.94,750.62,558.5,750.06,559.19,750.06z"/>
			</g>
			<g>
				<path class="st83" d="M583.1,751.75c0,0-9.19,1.22-12.18,1.07c-2.99-0.15-6.84-0.55-9.83-0.35c0,0,8.18,1.06,11.01,0.86
					C574.92,753.13,581.47,753.38,583.1,751.75L583.1,751.75z"/>
			</g>
			<g>
				<path class="st83" d="M582.18,755.12c0,0-3.61,1.42-4.93,1.19c-1.33-0.23-1.82-0.57-3.56-0.68c0,0,2.04-0.42,3.2-0.21
					C579.82,755.96,582.18,755.12,582.18,755.12z"/>
			</g>
			<g>
				<path class="st83" d="M557.94,755.06c0,0,3.62,0.83,4.48,0.54c0.85-0.29,1.97-1.22,2.57-0.93c0,0-1.36,1.23-2.19,1.43
					C561.81,756.32,559.47,756.39,557.94,755.06z"/>
			</g>
		</g>
		<g>
			<g>
				<g>
					<g id="Head_97_" transform="translate(54.000000, 31.000000)">
						<g>
							<g>
								<path class="st13" d="M486.29,759.82c-1.14-1.34-1.91-2.97-1.78-4.81c0.37-5.29,7.73-4.12,9.16-1.46s1.26,9.44-0.59,9.91
									c-0.74,0.19-2.31-0.28-3.91-1.24l1,7.1h-5.93L486.29,759.82z"/>
							</g>
						</g>
					</g>
					<g id="Hair_33_">
						<g>
							<path class="st14" d="M543.47,786.6c0.23,3.16,0.83,4.74,1.8,4.74c1.46,0,2.7-0.93,3.34-0.93c0.47,0,0.36,0.58,0.05,1.02
								c-0.26,0.36-1.5,0.7-1.5,1.26c0,0.55,0.98,0.13,0.98,0.45c0,0.54,0.17,1.57-0.77,1.57c-0.96,0-3.69-0.35-4.16-1.77
								c-0.3-0.92-0.5-2.81-0.59-5.69c-0.06-0.01-0.12-0.01-0.18-0.01c-0.82,0-1.48,0.66-1.48,1.48c0,0.42,0.17,0.79,0.45,1.06
								c-0.34,0.48-0.73,0.99-1.17,1.51c-1.65-0.99-2.88-3.9-1.26-6.69c0.45-1.37,1.46-2.1,2.65-2.44c0.97-0.41,1.97-0.45,2.82-0.21
								c1.66,0.14,3.15,0.65,3.57,0.95c0,1.57-0.31,2.04-2.91,2C544.48,785.25,543.98,785.83,543.47,786.6z"/>
						</g>
					</g>
				</g>
				<g>
					<g id="Leg_64_">
						<g>
							<polygon class="st54" points="538.93,823.93 551.05,854.62 559.18,880.56 562.39,880.56 549.96,823.93 							"/>
						</g>
					</g>
					<g>
						<g>
							<path class="st15" d="M536.48,823.93c-0.13,10.78-2.01,25.3-2.31,25.97c-0.2,0.45-7.12,6.15-20.77,17.1l2.21,2.37
								c16.1-9.39,24.52-14.71,25.27-15.96c1.12-1.88,4.76-19.16,7.68-29.48H536.48z"/>
						</g>
					</g>
					
						<g transform="translate(51.500000, 189.000000) rotate(50.000000) translate(-51.500000, -189.000000) translate(21.000000, 169.000000)">
						<g id="shoe_57_">
							<g>
								<path class="st16" d="M845.99,101.69c-0.28,0.74-0.41,1.29-0.41,1.66c0,0.45,0.07,1.1,0.22,1.95c0.52,0,5.16,0,13.93,0
									c0.36-1.2,0.15-1.84-0.63-1.94c-0.78-0.1-1.43-0.18-1.94-0.26l-6.48-2.89c-0.12-0.06-0.27,0-0.33,0.13c0,0,0,0,0,0.01
									l-0.42,1.01c-0.72,0.34-1.31,0.51-1.76,0.51c-0.37,0-0.87-0.15-1.52-0.44l0,0c-0.25-0.11-0.54,0-0.65,0.24
									C846,101.67,845.99,101.68,845.99,101.69z"/>
							</g>
						</g>
					</g>
					<g transform="translate(208.000000, 199.000000)">
						<g>
							<g>
								<path class="st16" d="M349.87,680.36c-0.28,0.74-0.41,1.29-0.41,1.66c0,0.45,0.07,1.1,0.22,1.95c0.52,0,5.16,0,13.93,0
									c0.36-1.2,0.15-1.84-0.63-1.94c-0.78-0.1-1.43-0.18-1.94-0.26l-6.48-2.89c-0.12-0.06-0.27,0-0.33,0.13c0,0,0,0,0,0.01
									l-0.42,1.01c-0.72,0.34-1.31,0.51-1.76,0.51c-0.37,0-0.87-0.15-1.52-0.44l0,0c-0.25-0.11-0.54,0-0.65,0.24
									C349.88,680.34,349.87,680.35,349.87,680.36z"/>
							</g>
						</g>
					</g>
				</g>
				<g>
					<g id="Skin_65_">
						<g>
							<path class="st13" d="M557.43,818.56l7.88,5.79c2.14,0.58,3.92,1.29,5.36,2.15c0.34,0.31,0.75,0.93-0.66,0.83
								c-1.4-0.11-2.89-0.16-3.08,0.32c-0.19,0.48,0.66,1.05,0.26,1.7c-0.26,0.43-1.5-0.65-3.7-3.24l-7.8-3.24L557.43,818.56z
								 M525.95,820.58l4.12-3.11c-2.87,16.16-2.06,9.12-2.87,16.16c0.4,1.47,2.67,2.46,3.79,3.07c-0.88,1.62-2.43-0.71-3.52,1.36
								c-1,1.89-1.18,4.09-3.8,4.34c-0.32,0.03-0.95-0.3-0.67-1.13c0.69-2.09,1.46-5.41,1.3-6.2
								C525.95,820.58,524.28,835.07,525.95,820.58z"/>
						</g>
					</g>
					<g id="Coat-Back_59_">
						<g>
							<path class="st54" d="M541.85,797.09l2.14-0.37c7.93,6.85,11.18,20,20.89,26.97l-2.34,2.9
								C545.69,824.51,541.51,808.46,541.85,797.09z"/>
						</g>
					</g>
					<g id="Shirt_59_">
						<g>
							<path class="st15" d="M536.42,829.12c8.56,0,10.98,0,15.02,0c0.86,0,0.7-1.25,0.58-1.88c-1.44-7.26-2.27-18.61-7.07-30.62
								l-5.45-0.85C534.99,803.03,537.31,817.15,536.42,829.12z"/>
						</g>
					</g>
					<g>
						<g>
							<path class="st15" d="M541.3,795.91l-1.71-0.1c-0.15-0.02-0.32-0.03-0.51-0.03c-3.39,0-7.19,6.9-6.4,7.13
								c-6.25,8.6-9.18,19.07-8.8,31.41h4.05c0.81-1.4,1.65-3.13,2.53-5.19c1.03-2.4,2.11-5.24,3.24-8.52
								c0.47,3.91,1.23,6.76,2.28,8.52h9.36C547.55,823.58,546.2,812.5,541.3,795.91z"/>
						</g>
					</g>
				</g>
				<g>
					<g>
						<path class="st68" d="M542.81,796.18l-6.8-0.88c0,0-2.33,4.98-0.82,6.34c1.51,1.36,7.08,1.53,7.98,0.53
							c0.31-0.35,0.33-1.6,0.26-2.54l1.7,0.4c-0.05-0.52-0.18-3.39-0.18-3.39L542.81,796.18z"/>
					</g>
				</g>
				<g>
					<g>
						<path class="st5" d="M536.16,795.56l6.45,0.84c0.1,0.44,0.39,1.7,0.54,2.93l-7.95-1.03
							C535.5,797.11,535.98,795.98,536.16,795.56 M536.01,795.3c0,0-0.75,1.59-1.12,3.22l8.54,1.11c-0.17-1.65-0.62-3.44-0.62-3.44
							L536.01,795.3L536.01,795.3z"/>
					</g>
				</g>
				<g>
					<g>
						
							<rect x="534.54" y="796.91" transform="matrix(0.6723 -0.7402 0.7402 0.6723 -414.2386 658.2421)" class="st5" width="3.74" height="0.25"/>
					</g>
				</g>
				<g>
					<g>
						
							<rect x="536.77" y="795.23" transform="matrix(0.8871 -0.4615 0.4615 0.8871 -307.2714 337.7481)" class="st5" width="0.25" height="3.74"/>
					</g>
				</g>
				<g>
					<g>
						
							<rect x="537.08" y="797.24" transform="matrix(0.6723 -0.7402 0.7402 0.6723 -413.6516 660.2267)" class="st5" width="3.74" height="0.25"/>
					</g>
				</g>
				<g>
					<g>
						
							<rect x="539.31" y="795.56" transform="matrix(0.8871 -0.4615 0.4615 0.8871 -307.1372 338.9554)" class="st5" width="0.25" height="3.74"/>
					</g>
				</g>
				<g>
					<g>
						
							<rect x="539.6" y="797.57" transform="matrix(0.6723 -0.7402 0.7402 0.6723 -413.0691 662.1965)" class="st5" width="3.74" height="0.25"/>
					</g>
				</g>
				<g>
					<g>
						
							<rect x="541.83" y="795.88" transform="matrix(0.8871 -0.4615 0.4615 0.8871 -307.004 340.1534)" class="st5" width="0.25" height="3.74"/>
					</g>
				</g>
				<g>
					<g>
						<circle class="st71" cx="544.65" cy="801.5" r="0.57"/>
					</g>
				</g>
				<g>
					<g>
						<circle class="st71" cx="545.22" cy="804.61" r="0.57"/>
					</g>
				</g>
				<g>
					<g>
						<circle class="st71" cx="546" cy="807.71" r="0.57"/>
					</g>
				</g>
				<g>
					<g>
						<circle class="st71" cx="546.57" cy="810.82" r="0.57"/>
					</g>
				</g>
				<g>
					<g>
						<circle class="st71" cx="547.14" cy="813.93" r="0.57"/>
					</g>
				</g>
				<g>
					<g>
						<circle class="st71" cx="547.92" cy="817.03" r="0.57"/>
					</g>
				</g>
				<g>
					<g>
						<circle class="st71" cx="548.49" cy="820.14" r="0.57"/>
					</g>
				</g>
				<g>
					<g>
						<circle class="st71" cx="549.17" cy="823.25" r="0.57"/>
					</g>
				</g>
				<g>
					<g>
						<circle class="st71" cx="549.74" cy="826.35" r="0.57"/>
					</g>
				</g>
				<g>
					<g>
						<path class="st64" d="M546.59,828.98c-0.02,0-0.03,0-0.04,0l0.05-0.24l-0.03,0.12l0.01-0.12c0,0,0.04,0,0.1-0.08
							c0.4-0.55,1.33-4.08-3.63-26.46l0.24-0.05c4.95,22.35,4.12,26.14,3.53,26.73C546.73,828.96,546.64,828.98,546.59,828.98z"/>
					</g>
				</g>
				<g>
					<g>
						<polygon class="st64" points="514.46,868.1 514.31,867.89 536.79,852.17 541.34,829.1 541.59,829.15 537.01,852.32 
							536.97,852.35 						"/>
					</g>
				</g>
				<g>
					<g>
						<path class="st64" d="M560.71,879.44c-7.18-27.16-14.38-46.92-14.45-47.12l0.23-0.08c0.07,0.2,7.28,19.97,14.46,47.14
							L560.71,879.44z"/>
					</g>
				</g>
				<g>
					<g>
						<path class="st64" d="M551.55,829.18l-0.22-0.11c0.04-0.1,0.94-2.81-6.32-29.02l0.24-0.07
							C552.62,826.63,551.6,829.09,551.55,829.18z"/>
					</g>
				</g>
				<g>
					<g>
						<g>
							<path class="st15" d="M528.03,837.8c0,0-3.63-1.72-6.49-1.9c-4.79-3.32-4.68-2.57-4.68-2.57s0.42,2.2,1.52,3
								c0.21,0.15-3.46,6.84-4.21,7.36c-0.75,0.52-0.64,2.03,0.21,2.5c0.85,0.47,8.65,3.3,8.65,3.3s2.3,0.95,2.47-1.11
								S527.15,840.07,528.03,837.8z"/>
						</g>
					</g>
					<g>
						<g>
							<circle class="st68" cx="514.24" cy="845.53" r="1.4"/>
						</g>
					</g>
					<g>
						<g>
							<path class="st5" d="M514.83,844.3l-0.2-0.14c4.25-6.32,9.69-7.11,9.75-7.11l0.03,0.25
								C524.35,837.3,519.02,838.08,514.83,844.3z"/>
						</g>
					</g>
					<g>
						<g>
							<circle class="st69" cx="524.32" cy="837.14" r="0.51"/>
						</g>
					</g>
					<g>
						<g>
							<path class="st70" d="M518.38,836.33c0,0,2.07,0.32,2.54,0.06c0.47-0.26-1.06,1.4-1.55,1.42c-0.48,0.03-0.1,0.46-0.1,0.46
								s0.3,0.67-1.43,1.12c-0.71,0.18-1.72,1.37-1.72,1.37S518.17,837.28,518.38,836.33z"/>
						</g>
					</g>
				</g>
			</g>
			<g>
				<path class="st68" d="M523.89,834.31h4.05c0,0,1.55-2.68,1.53-3.04s-5.36-0.65-5.58-0.58S523.89,834.31,523.89,834.31z"/>
			</g>
			<g>
				<path class="st5" d="M527.6,833.86h-2.95l-0.01-0.12c-0.16-2.52-0.02-2.57,0.09-2.6c0.16-0.04,3.51,0.12,3.88,0.38
					c0.06,0.04,0.08,0.09,0.08,0.13c0.02,0.26-0.74,1.58-1.06,2.14L527.6,833.86z M524.88,833.61h2.57c0.46-0.79,0.92-1.66,0.98-1.9
					c-0.4-0.16-3.1-0.35-3.59-0.33C524.8,831.63,524.83,832.65,524.88,833.61z"/>
			</g>
			<g>
				<path class="st68" d="M564.88,823.69l-2.34,2.9c0,0-3.08-0.07-3.6-0.7c-0.53-0.63,3.07-4.25,3.42-4.26
					C562.71,821.61,564.88,823.69,564.88,823.69z"/>
			</g>
			<g>
				<path class="st5" d="M562.35,825.78l-0.06,0c-0.2,0-1.98-0.06-2.33-0.48c-0.13-0.15-0.02-0.39,0.01-0.46
					c0.31-0.69,1.92-2.38,2.21-2.39c0.22,0,1.02,0.71,1.66,1.32l0.08,0.08L562.35,825.78z M562.19,822.69
					c-0.29,0.14-1.87,1.73-2.03,2.35c-0.02,0.07-0.01,0.1-0.01,0.1c0.21,0.25,1.36,0.37,2.09,0.39l1.34-1.67
					C563.01,823.32,562.35,822.76,562.19,822.69z"/>
			</g>
		</g>
	</g>
</g>
</svg>
