<?xml version="1.0" encoding="utf-8"?>
<!-- Generator: Adobe Illustrator 23.0.1, SVG Export Plug-In . SVG Version: 6.00 Build 0)  -->
<svg version="1.1" id="Laag_1" xmlns="http://www.w3.org/2000/svg" xmlns:xlink="http://www.w3.org/1999/xlink" x="0px" y="0px"
	 viewBox="0 0 1440 1024" style="enable-background:new 0 0 1440 1024;" xml:space="preserve">
<style type="text/css">
	.st0{clip-path:url(#SVGID_2_);}
	.st1{fill:url(#SVGID_3_);}
	.st2{fill:#6A7B27;}
	.st3{fill:#808181;}
	.st4{fill:#9A9999;}
	.st5{fill:#FFFFFF;}
	.st6{fill:#B8B32E;}
	.st7{fill:#CAC334;}
	.st8{fill:#A9A325;}
	.st9{fill:#1B1B1B;}
	.st10{fill:#F2F2F2;}
	.st11{fill:#881E2B;}
	.st12{fill:#CDCCCC;}
	.st13{fill-rule:evenodd;clip-rule:evenodd;fill:#C69988;}
	.st14{fill-rule:evenodd;clip-rule:evenodd;fill:#F8AB18;}
	.st15{fill-rule:evenodd;clip-rule:evenodd;fill:#1B1B1B;}
	.st16{fill-rule:evenodd;clip-rule:evenodd;fill:#663810;}
	.st17{fill:#727272;}
	.st18{fill:#A45A2E;}
	.st19{fill:#989898;}
	.st20{fill-rule:evenodd;clip-rule:evenodd;fill:#6BA1AB;}
	.st21{fill-rule:evenodd;clip-rule:evenodd;fill:#89C4CC;}
	.st22{fill:#C69988;}
	.st23{fill-rule:evenodd;clip-rule:evenodd;fill:#2A275E;}
	.st24{fill-rule:evenodd;clip-rule:evenodd;fill:#DCE2E8;}
	.st25{fill-rule:evenodd;clip-rule:evenodd;fill:#32358C;}
	.st26{opacity:0.1;fill-rule:evenodd;clip-rule:evenodd;fill:#020203;}
	.st27{clip-path:url(#SVGID_5_);}
	.st28{fill:url(#SVGID_6_);}
	.st29{clip-path:url(#SVGID_8_);}
	.st30{fill:url(#SVGID_9_);}
	.st31{fill:#E7E6E6;}
	.st32{fill:#D21226;}
	.st33{fill:#BC1829;}
	.st34{clip-path:url(#SVGID_11_);fill:#D21226;}
	.st35{fill:url(#SVGID_12_);}
	.st36{clip-path:url(#SVGID_14_);fill:#D21226;}
	.st37{fill-rule:evenodd;clip-rule:evenodd;fill:#946131;}
	.st38{fill-rule:evenodd;clip-rule:evenodd;fill:#304697;}
	.st39{fill-rule:evenodd;clip-rule:evenodd;fill:#3954A1;}
	.st40{fill-rule:evenodd;clip-rule:evenodd;fill:#E3E3E2;}
	.st41{fill-rule:evenodd;clip-rule:evenodd;fill:#2F3676;}
	.st42{fill-rule:evenodd;clip-rule:evenodd;fill:#222046;}
	.st43{fill-rule:evenodd;clip-rule:evenodd;fill:#27388D;}
	.st44{fill-rule:evenodd;clip-rule:evenodd;fill:#F1F1F1;}
	.st45{fill-rule:evenodd;clip-rule:evenodd;fill:#452311;}
	.st46{fill-rule:evenodd;clip-rule:evenodd;fill:#997759;}
	.st47{fill-rule:evenodd;clip-rule:evenodd;fill:#AEB8C4;}
	.st48{fill-rule:evenodd;clip-rule:evenodd;fill:#C4CED5;}
	.st49{fill-rule:evenodd;clip-rule:evenodd;fill:#020203;fill-opacity:0.1;}
	.st50{fill-rule:evenodd;clip-rule:evenodd;fill:#794A31;}
	.st51{fill-rule:evenodd;clip-rule:evenodd;fill:#333438;}
	.st52{fill-rule:evenodd;clip-rule:evenodd;fill:#DA2922;}
	.st53{fill-rule:evenodd;clip-rule:evenodd;fill:#E9473C;}
	.st54{fill-rule:evenodd;clip-rule:evenodd;fill:#020203;}
	.st55{fill-rule:evenodd;clip-rule:evenodd;fill:#D4A181;}
	.st56{fill-rule:evenodd;clip-rule:evenodd;fill:#B98C74;}
	.st57{fill-rule:evenodd;clip-rule:evenodd;fill:#693189;}
	.st58{fill-rule:evenodd;clip-rule:evenodd;fill:#952C87;}
	.st59{fill-rule:evenodd;clip-rule:evenodd;fill:#B08A67;}
	.st60{fill-rule:evenodd;clip-rule:evenodd;fill:#E87616;}
	.st61{fill-rule:evenodd;clip-rule:evenodd;fill:#F4992B;}
	.st62{fill-rule:evenodd;clip-rule:evenodd;fill:#006C34;}
	.st63{fill-rule:evenodd;clip-rule:evenodd;fill:#00A66B;}
	.st64{fill:#B6181D;}
	.st65{fill-rule:evenodd;clip-rule:evenodd;fill:#E7E6E6;}
	.st66{fill-rule:evenodd;clip-rule:evenodd;fill:#CDCCCC;}
	.st67{fill:#663810;}
	.st68{fill-rule:evenodd;clip-rule:evenodd;fill:#B6181D;}
	.st69{fill-rule:evenodd;clip-rule:evenodd;fill:#B4B4B4;}
	.st70{fill-rule:evenodd;clip-rule:evenodd;fill:#CDA442;}
	.st71{fill:#B4B4B4;}
	.st72{fill-rule:evenodd;clip-rule:evenodd;fill:#AD7B4B;}
	.st73{fill-rule:evenodd;clip-rule:evenodd;fill:#FFFFFF;}
	.st74{fill-rule:evenodd;clip-rule:evenodd;fill:#7C4B1A;}
	.st75{fill:#3D4B59;}
	.st76{fill:#1D2B39;}
	.st77{fill:#4E5B69;}
	.st78{fill:#2C3A49;}
	.st79{fill:#9C6D4F;}
	.st80{fill:#7E4E2F;}
	.st81{fill:#8C5D3F;}
	.st82{fill:#6E3D21;}
	.st83{fill:#863819;}
	.st84{clip-path:url(#SVGID_16_);}
	.st85{fill:url(#SVGID_17_);}
	.st86{clip-path:url(#SVGID_19_);}
	.st87{fill:url(#SVGID_20_);}
	.st88{clip-path:url(#SVGID_22_);}
	.st89{fill:url(#SVGID_23_);}
	.st90{fill:#FFFFFF;stroke:#020203;stroke-miterlimit:10;}
	.st91{fill:url(#SVGID_24_);}
	.st92{clip-path:url(#SVGID_26_);fill:#D21226;}
	.st93{fill:url(#SVGID_27_);}
	.st94{clip-path:url(#SVGID_29_);fill:#D21226;}
	.st95{fill:url(#SVGID_30_);}
	.st96{fill:#020203;}
	.st97{fill:#F8AB18;}
	.st98{fill:#2A275E;}
	.st99{fill-rule:evenodd;clip-rule:evenodd;fill:#9A182A;}
	.st100{fill:#9A182A;}
	.st101{clip-path:url(#SVGID_32_);}
	.st102{fill:url(#SVGID_33_);}
	.st103{clip-path:url(#SVGID_35_);}
	.st104{fill:url(#SVGID_36_);}
	.st105{clip-path:url(#SVGID_38_);}
	.st106{fill:url(#SVGID_39_);}
	.st107{clip-path:url(#SVGID_41_);fill:#D21226;}
	.st108{fill:url(#SVGID_42_);}
	.st109{clip-path:url(#SVGID_44_);fill:#D21226;}
	.st110{clip-path:url(#SVGID_46_);}
	.st111{fill:url(#SVGID_47_);}
	.st112{clip-path:url(#SVGID_49_);fill:#D21226;}
	.st113{fill:url(#SVGID_50_);}
	.st114{clip-path:url(#SVGID_52_);fill:#D21226;}
	.st115{clip-path:url(#SVGID_54_);}
	.st116{fill:url(#SVGID_55_);}
	.st117{clip-path:url(#SVGID_57_);}
	.st118{fill:url(#SVGID_58_);}
	.st119{fill:url(#SVGID_59_);}
	.st120{fill:url(#SVGID_60_);}
	.st121{fill:#DFDFDF;}
	.st122{fill:#32358C;}
	.st123{fill-rule:evenodd;clip-rule:evenodd;fill:#234D64;}
	.st124{fill-rule:evenodd;clip-rule:evenodd;fill:#398AB1;}
	.st125{fill:#234D64;}
	.st126{fill:#9B9B9A;}
	.st127{fill:#B579B2;}
	.st128{fill:#AB6EAC;}
	.st129{fill:#F28C00;}
	.st130{fill:#62B22F;}
	.st131{fill:#54AF32;}
	.st132{fill:#57C0D3;}
	.st133{fill:#36B2BB;}
	.st134{fill:#E83E5D;}
	.st135{fill:#E72E55;}
	.st136{fill:#F7E700;}
	.st137{clip-path:url(#SVGID_62_);}
	.st138{clip-path:url(#SVGID_64_);fill:#D21226;}
	.st139{fill:url(#SVGID_65_);}
	.st140{fill:#4D4230;}
	.st141{fill:#5F4A2F;}
	.st142{fill:#E30613;}
	.st143{clip-path:url(#SVGID_67_);}
	.st144{fill:url(#SVGID_68_);}
	.st145{clip-path:url(#SVGID_70_);fill:#D21226;}
	.st146{fill:url(#SVGID_71_);}
	.st147{clip-path:url(#SVGID_73_);fill:#D21226;}
	.st148{clip-path:url(#SVGID_75_);}
	.st149{fill:url(#SVGID_76_);}
	.st150{clip-path:url(#SVGID_78_);fill:#D21226;}
	.st151{fill:url(#SVGID_79_);}
	.st152{clip-path:url(#SVGID_81_);}
	.st153{fill:url(#SVGID_82_);}
	.st154{clip-path:url(#SVGID_84_);fill:#D21226;}
	.st155{fill:url(#SVGID_85_);}
	.st156{clip-path:url(#SVGID_87_);fill:#D21226;}
	.st157{fill:url(#SVGID_88_);}
	.st158{clip-path:url(#SVGID_90_);}
	.st159{clip-path:url(#SVGID_92_);}
	.st160{fill:url(#SVGID_93_);}
	.st161{clip-path:url(#SVGID_95_);fill:#D21226;}
	.st162{fill:url(#SVGID_96_);}
	.st163{clip-path:url(#SVGID_98_);fill:#D21226;}
</style>
<g>
	<defs>
		<rect id="SVGID_91_" x="0" width="1440" height="1024"/>
	</defs>
	<clipPath id="SVGID_2_">
		<use xlink:href="#SVGID_91_"  style="overflow:visible;"/>
	</clipPath>
	<g class="st0">
		<g>
			<g>
				<linearGradient id="SVGID_3_" gradientUnits="userSpaceOnUse" x1="719.9998" y1="-1931.6293" x2="719.9998" y2="1024.0001">
					<stop  offset="0" style="stop-color:#FFFFFF"/>
					<stop  offset="0.2149" style="stop-color:#FBFDFF"/>
					<stop  offset="0.4187" style="stop-color:#F0F9FD"/>
					<stop  offset="0.6181" style="stop-color:#DDF1FB"/>
					<stop  offset="0.8135" style="stop-color:#C2E6F9"/>
					<stop  offset="1" style="stop-color:#A1D9F5"/>
				</linearGradient>
				<rect x="-112.44" y="-1931.63" class="st1" width="1664.87" height="2955.63"/>
			</g>
			<g>
				<g>
					<path class="st2" d="M1552.16,488.33V1024h-1664.6l0.01-19.97l0.18-415.69l0.08-160.29
						C28.81,364.49,147.69,323.65,335.7,325.02c92.71,0.68,262.71,19.84,375.2,35.41c17.46,2.43,33.54,4.75,47.73,6.92
						C1023.15,407.68,1287.65,448.01,1552.16,488.33z"/>
					<g>
						<rect x="136.66" y="355.4" class="st3" width="37.68" height="126.37"/>
						
							<rect x="174.34" y="355.4" transform="matrix(-1 -1.224647e-16 1.224647e-16 -1 366.2188 837.1671)" class="st4" width="17.53" height="126.37"/>
						<rect x="19.04" y="379.26" class="st3" width="37.68" height="102.51"/>
						
							<rect x="56.73" y="379.26" transform="matrix(-1 -1.224647e-16 1.224647e-16 -1 130.9876 861.0269)" class="st4" width="17.53" height="102.51"/>
						<rect x="67.96" y="398.7" class="st3" width="56.96" height="83.07"/>
						
							<rect x="124.92" y="398.7" transform="matrix(-1 -1.224647e-16 1.224647e-16 -1 276.3374 880.4683)" class="st4" width="26.5" height="83.07"/>
					</g>
				</g>
				<g>
					<path class="st5" d="M302.8,266.07H134.21c4.48-13.15,14.85-24.9,26.54-27.21s24.24,3.14,32,13.87
						c7.87-17.03,21.56-30.12,36.98-35.62c7.18-2.57,14.73-3.49,22.23-2.38C275.56,218.21,296.66,238.51,302.8,266.07z"/>
				</g>
				<g>
					<path class="st5" d="M723.25,281.05h-94.29c3.44-15.42,15.24-26.76,28.44-28.71c13.2-1.95,26.67,7.29,33.11,21.25
						c2.25-3.12,5.21-5.42,8.45-6.75c3.02-1.25,6.29-1.63,9.44-1.01C714.94,267.12,720.74,273.69,723.25,281.05z"/>
				</g>
				<g>
					<path class="st6" d="M1552.16,297.24V1024h-1664.6V608.38c0.09-0.03,0.18-0.06,0.27-0.09
						c140.28-46.19,282.22-87.77,425.13-126.47c224.95-60.95,452.32-114.84,679.46-168.66c119.44-28.3,240.77-56.82,364.05-53.85
						C1423.14,260.9,1491.09,272.92,1552.16,297.24z"/>
				</g>
				<g>
					<path class="st5" d="M1037.12,355.95H844.39c2.69-12.46,9.24-21.66,19.68-24.66c10.43-2.99,22.11,1.45,29.21,11.11
						c1.98-17.43,11.81-32.76,24.66-41.03c6.26-4.03,13.25-6.39,20.39-6.49c21.8-0.33,42.48,20.51,45.96,46.33
						c8.3-8.49,20.81-13.55,31.48-10.89C1026.44,332.98,1033.38,342.47,1037.12,355.95z"/>
				</g>
				<g>
					<path class="st5" d="M42.01,312.85H-71.44c1.58-7.34,5.44-12.75,11.58-14.51c6.14-1.77,13.02,0.85,17.2,6.54
						c1.73-15.26,13.68-27.79,26.52-27.98c0.27,0,0.56,0,0.83,0.02c12.52,0.33,24.21,12.39,26.22,27.26
						c4.89-5,12.25-7.98,18.53-6.42C35.72,299.33,39.8,304.92,42.01,312.85z"/>
				</g>
				<g>
					<path class="st7" d="M1552.44,431.44v99.17c-54.94,9.58-109.85,17.77-165.22,12.23c-77.83-7.8-147.75-42.08-224.6-54.62
						c-94.69-15.47-193.06,3.08-283.75,29.7c-203.3,59.65-384.27,158.96-581.92,229.6c-129.99,46.47-270.74,75.31-409.11,71.43
						v-95.62c261.79-75.04,523.58-150.07,785.37-225.11c144.45-41.4,290.36-83.09,442.72-98.17
						C1262.03,385.57,1411.84,396.78,1552.44,431.44z"/>
				</g>
				<g>
					<path class="st8" d="M1552.44,883.2V1024h-1664.6V608.29c140.28-46.19,282.22-87.77,425.13-126.47
						c367.2,89.45,891.98,234,1239.2,401.25C1552.25,883.11,1552.35,883.16,1552.44,883.2z"/>
				</g>
				<g>
					<path class="st6" d="M1552.44,903.17V1024h-1664.6V405.88c0,0,145.49,29.13,358.49,79.87c3.2,0.76,6.41,1.53,9.64,2.3
						C624.14,576.01,1186.82,727,1552.44,903.17z"/>
				</g>
				<g>
					<path class="st2" d="M909.34,1024C596.2,760.3,248.45,573.8-112.23,476.03v69.05c39.65,0,79.71-1.23,118.65,7.71
						c38.94,8.94,77.25,33.6,96.82,74.95c7.88,16.64,12.55,35.51,22.21,50.74c13,20.5,33.66,32.13,54.51,38.27
						c20.85,6.14,42.45,7.54,63.61,11.93c83.99,17.39,155.74,79.96,226.26,137.37c70.53,57.4,148.08,157.47,233.31,157.96H909.34z"
						/>
				</g>
				<g>
					<path class="st2" d="M1552.44,1024h-1664.6l0.2-37.33l0.69-132.43c0,0,36.27-8.21,101.28-21.47
						c21.42-4.36,45.95-9.28,73.33-14.63c227.35-44.46,651.03-118.95,1116.28-158.93c16.29-1.41,32.62-2.77,48.99-4.07
						c42.24-3.39,84.78-6.47,127.5-9.21c24.94-1.6,49.93-3.08,74.97-4.43c40.3-2.18,80.69-4.01,121.1-5.49l0.05,81.54l0.04,56.65
						L1552.44,1024z"/>
				</g>
				<g>
					<path class="st6" d="M1552.26,774.2c-53.21-2.35-107.51-0.07-160.76,4.37c-106.22,8.87-211.47,25.88-318.04,30.24
						c-93.65,3.81-189.45-2-279.59,18.16c-80.16,17.92-149.64,55.13-227.56,77.82c-130.18,37.9-275.49,33.18-410.35,60.71
						C93.35,978.29,33.46,998.23-21.07,1024h-91.09l0.2-37.33C406.43,806.1,982.22,713.3,1552.22,717.55L1552.26,774.2z"/>
				</g>
				<g>
					<path class="st2" d="M915.16,645.05c-0.5,4.87-2.65,9.32-5.42,12.34c-1.96,2.15-4.26,3.65-6.68,4.47
						c-3.07,1.04-6.33,0.95-9.35-0.36c-5.39-2.35-9.85-8.57-11.57-16.13c-0.45-2-0.72-4.15-0.38-6.19c0.34-2.04,1.41-3.95,2.86-4.42
						c2.43-0.79,4.51,2.4,5.97,5.24c-0.78-7.49,0.77-15,3.93-21.13c1.04-2.01,2.52-4,4.29-3.82c1.6,0.15,2.82,2.02,3.68,3.93
						c2.15,4.79,2.75,10.64,2.5,16.27c0.83-2.81,2.93-4.22,4.97-3.88c1,0.16,1.91,0.77,2.69,1.66c0.82,0.93,1.48,2.16,1.91,3.52
						C915.41,639.18,915.46,642.19,915.16,645.05z"/>
				</g>
				<g>
					<rect x="897.61" y="638.06" class="st9" width="1.45" height="38.03"/>
				</g>
				<g>
					<path class="st2" d="M42.9,748.41c-1.43,13.95-7.58,26.68-15.5,35.33c-3.54,3.87-7.47,7.02-11.61,9.4
						c-10.79,6.19-23.11,7.2-34.26,2.35c-15.43-6.72-28.19-24.52-33.11-46.15c-1.3-5.72-2.07-11.88-1.1-17.72
						c0.98-5.85,4.03-11.29,8.19-12.64c6.96-2.26,12.9,6.87,17.09,14.99c-2.22-21.43,2.2-42.94,11.25-60.46
						c2.98-5.76,7.22-11.43,12.26-10.94c4.57,0.44,8.08,5.79,10.53,11.23c6.16,13.7,7.86,30.45,7.16,46.56
						c2.38-8.05,8.39-12.07,14.24-11.1c1.13,0.19,2.23,0.57,3.29,1.14c4.37,2.31,7.95,7.58,9.87,13.67
						C43.59,731.6,43.74,740.22,42.9,748.41z"/>
				</g>
				<g>
					<path class="st2" d="M115.93,736.11c-0.62,8.91-2.83,18.53-8.98,23.59c-1.47,1.21-3.09,2.05-4.79,2.56
						c-6.35,1.91-13.74-0.92-18.38-6.73c-5.87-7.36-7.78-18.32-6.79-28.44c0.87-9.03,3.95-25.34,11.16-30.56
						c7.18-5.18,17.27,1.56,21.95,8.72c0.23,0.36,0.46,0.73,0.67,1.09C115.65,714.85,116.64,725.8,115.93,736.11z"/>
				</g>
				<g>
					<rect x="94.28" y="724.65" class="st9" width="4.16" height="73.9"/>
				</g>
				<g>
					<path class="st2" d="M1419.73,513.08c-0.37,3.58-1.95,6.85-3.98,9.07c-1.44,1.58-3.13,2.68-4.9,3.28
						c-2.25,0.76-4.65,0.7-6.87-0.27c-3.96-1.73-7.24-6.29-8.5-11.85c-0.33-1.47-0.53-3.05-0.28-4.55c0.25-1.5,1.03-2.9,2.1-3.25
						c1.79-0.58,3.31,1.76,4.39,3.85c-0.57-5.5,0.56-11.02,2.89-15.52c0.77-1.48,1.85-2.94,3.15-2.81c1.17,0.11,2.08,1.49,2.7,2.88
						c1.58,3.52,2.02,7.82,1.84,11.95c0.61-2.07,2.15-3.1,3.65-2.85c0.73,0.12,1.41,0.56,1.98,1.22c0.6,0.68,1.09,1.59,1.4,2.58
						C1419.91,508.77,1419.95,510.98,1419.73,513.08z"/>
				</g>
				<g>
					<rect x="1406.84" y="507.95" class="st9" width="1.07" height="27.94"/>
				</g>
				<g>
					<path class="st2" d="M1319.25,361.26c-0.29,2.87-1.56,5.49-3.19,7.26c-1.15,1.26-2.51,2.15-3.93,2.63
						c-1.81,0.61-3.73,0.56-5.5-0.21c-3.17-1.38-5.8-5.04-6.81-9.49c-0.27-1.18-0.43-2.44-0.23-3.64c0.2-1.2,0.83-2.32,1.68-2.6
						c1.43-0.46,2.65,1.41,3.51,3.08c-0.46-4.41,0.45-8.83,2.31-12.43c0.61-1.18,1.48-2.35,2.52-2.25c0.94,0.09,1.66,1.19,2.17,2.31
						c1.27,2.82,1.62,6.26,1.47,9.58c0.49-1.66,1.73-2.48,2.93-2.28c0.59,0.1,1.13,0.45,1.59,0.98c0.48,0.55,0.87,1.27,1.12,2.07
						C1319.39,357.81,1319.42,359.58,1319.25,361.26z"/>
				</g>
				<g>
					<rect x="1308.92" y="357.15" class="st9" width="0.86" height="22.38"/>
				</g>
				<g>
					<path class="st2" d="M1333.56,363.6c-0.15,2.11-0.67,4.38-2.12,5.58c-0.35,0.29-0.73,0.48-1.13,0.6
						c-1.5,0.45-3.25-0.22-4.35-1.59c-1.39-1.74-1.84-4.33-1.6-6.72c0.21-2.13,0.93-5.99,2.64-7.22c1.7-1.23,4.08,0.37,5.19,2.06
						c0.06,0.08,0.11,0.17,0.16,0.26C1333.49,358.57,1333.72,361.16,1333.56,363.6z"/>
				</g>
				<g>
					<rect x="1328.44" y="360.89" class="st9" width="0.98" height="17.47"/>
				</g>
				<g>
					<path class="st8" d="M1421.7,702.21c-0.69,10-3.18,20.81-10.08,26.48c-1.65,1.36-3.47,2.3-5.37,2.87
						c-7.13,2.14-15.42-1.03-20.64-7.56c-6.59-8.26-8.73-20.57-7.62-31.93c0.98-10.13,4.44-28.45,12.53-34.3
						c8.06-5.82,19.38,1.75,24.64,9.79c0.26,0.4,0.51,0.82,0.75,1.22C1421.39,678.34,1422.5,690.64,1421.7,702.21z"/>
				</g>
				<g>
					<rect x="1397.4" y="689.35" class="st9" width="4.67" height="82.96"/>
				</g>
				<g>
					<path class="st5" d="M1274.6,228.76h-94.29c3.44-15.42,15.24-26.76,28.44-28.71c13.2-1.95,26.67,7.29,33.11,21.25
						c2.25-3.12,5.21-5.42,8.45-6.75c3.02-1.25,6.29-1.63,9.44-1.01C1266.29,214.83,1272.1,221.4,1274.6,228.76z"/>
				</g>
				<g>
					<path class="st5" d="M1488.3,266.07h-117.75c3.13-9.19,10.37-17.39,18.54-19.01s16.93,2.19,22.35,9.69
						c5.49-11.89,15.06-21.03,25.83-24.88c5.01-1.79,10.29-2.43,15.53-1.66C1469.28,232.65,1484.01,246.82,1488.3,266.07z"/>
				</g>
				<g>
					<path class="st2" d="M857.24,657.74c-0.47,4.53-2.46,8.67-5.04,11.48c-1.82,2-3.96,3.4-6.21,4.15
						c-2.85,0.96-5.89,0.89-8.7-0.34c-5.01-2.18-9.16-7.96-10.76-15c-0.42-1.86-0.67-3.86-0.36-5.76c0.32-1.9,1.31-3.67,2.66-4.11
						c2.26-0.73,4.19,2.23,5.55,4.87c-0.72-6.96,0.71-13.95,3.65-19.64c0.97-1.87,2.35-3.71,3.98-3.56
						c1.48,0.14,2.63,1.88,3.42,3.65c2,4.45,2.55,9.89,2.33,15.13c0.77-2.61,2.73-3.92,4.63-3.61c0.93,0.15,1.78,0.71,2.5,1.54
						c0.76,0.86,1.37,2.01,1.77,3.27C857.46,652.28,857.51,655.08,857.24,657.74z"/>
				</g>
				<g>
					<rect x="840.92" y="651.25" class="st9" width="1.35" height="35.36"/>
				</g>
				<g>
					
						<rect x="242.89" y="599.36" transform="matrix(-1 -1.224647e-16 1.224647e-16 -1 523.5659 1240.7473)" class="st5" width="37.79" height="42.03"/>
					<rect x="179.17" y="599.36" class="st10" width="63.72" height="42.03"/>
					<rect x="256" y="609.88" class="st11" width="13.88" height="31.51"/>
					<polygon class="st11" points="197.84,553.39 179.17,599.36 243.34,599.36 262.01,553.39 					"/>
					<rect x="205.28" y="542.67" class="st10" width="11.77" height="15.73"/>
					<polygon class="st5" points="262.01,553.39 243.34,599.36 280.68,599.36 					"/>
					<polygon class="st5" points="217.05,558.4 222.26,552.75 222.26,542.67 217.05,542.67 					"/>
					
						<rect x="257.93" y="572.09" transform="matrix(-1 -1.224647e-16 1.224647e-16 -1 523.5659 1152.7428)" class="st3" width="7.7" height="8.57"/>
					
						<rect x="198.48" y="603.71" transform="matrix(-1 -1.224647e-16 1.224647e-16 -1 404.6709 1224.5575)" class="st3" width="7.7" height="17.13"/>
					
						<rect x="211.95" y="603.71" transform="matrix(-1 -1.224647e-16 1.224647e-16 -1 431.6056 1224.5575)" class="st3" width="7.7" height="17.13"/>
				</g>
				<g>
					<rect x="476.35" y="704.66" class="st5" width="45.86" height="36.68"/>
					
						<rect x="522.21" y="704.66" transform="matrix(-1 -3.686530e-11 3.686530e-11 -1 1121.7333 1446.0007)" class="st10" width="77.32" height="36.68"/>
					
						<rect x="503.22" y="713.84" transform="matrix(-1 -4.976387e-11 4.976387e-11 -1 1018.493 1455.1836)" class="st11" width="12.04" height="27.5"/>
					<polygon class="st11" points="576.87,664.54 599.53,704.66 521.66,704.66 499,664.54 					"/>
					
						<rect x="554.78" y="655.19" transform="matrix(-1 -5.152868e-11 5.152868e-11 -1 1119.4608 1324.1025)" class="st10" width="9.9" height="13.73"/>
					<polygon class="st5" points="499,664.54 521.66,704.66 476.35,704.66 					"/>
					<polygon class="st5" points="554.78,668.92 550.4,663.98 550.4,655.19 554.78,655.19 					"/>
					<rect x="496.48" y="680.86" class="st3" width="5.61" height="13.74"/>
					<rect x="583.48" y="714.01" class="st3" width="6.16" height="14.95"/>
					<rect x="572.71" y="714.01" class="st3" width="6.16" height="14.95"/>
					<rect x="543.11" y="714.01" class="st3" width="6.16" height="14.95"/>
					<rect x="532.34" y="714.01" class="st3" width="6.16" height="14.95"/>
					<rect x="492.31" y="714.01" class="st3" width="6.16" height="14.95"/>
					<rect x="481.54" y="714.01" class="st3" width="6.16" height="14.95"/>
				</g>
				<g>
					<path class="st2" d="M1001.59,638.06c-0.43,4.61-2.27,8.81-4.64,11.67c-1.68,2.03-3.65,3.45-5.72,4.22
						c-2.63,0.98-5.42,0.9-8.01-0.34c-4.62-2.22-8.43-8.09-9.91-15.24c-0.39-1.89-0.62-3.92-0.33-5.85
						c0.29-1.93,1.21-3.73,2.45-4.17c2.08-0.75,3.86,2.27,5.11,4.95c-0.67-7.08,0.66-14.18,3.37-19.97c0.89-1.9,2.16-3.78,3.67-3.61
						c1.37,0.15,2.42,1.91,3.15,3.71c1.84,4.52,2.35,10.05,2.14,15.38c0.71-2.66,2.51-3.99,4.26-3.67c0.85,0.15,1.64,0.73,2.31,1.57
						c0.7,0.88,1.27,2.04,1.63,3.32C1001.8,632.51,1001.84,635.35,1001.59,638.06z"/>
				</g>
				<g>
					<rect x="986.56" y="631.46" class="st9" width="1.25" height="35.94"/>
				</g>
				<g>
					<path class="st2" d="M951.99,650.05c-0.4,4.28-2.11,8.19-4.31,10.85c-1.56,1.89-3.39,3.21-5.32,3.92
						c-2.44,0.91-5.04,0.84-7.45-0.32c-4.29-2.06-7.84-7.53-9.21-14.17c-0.36-1.76-0.58-3.65-0.31-5.44
						c0.27-1.8,1.12-3.47,2.28-3.88c1.94-0.69,3.59,2.11,4.76,4.6c-0.62-6.58,0.61-13.18,3.13-18.56c0.83-1.77,2.01-3.51,3.41-3.36
						c1.27,0.13,2.25,1.78,2.93,3.45c1.71,4.21,2.19,9.35,1.99,14.3c0.66-2.47,2.33-3.71,3.96-3.41c0.79,0.14,1.52,0.67,2.14,1.46
						c0.65,0.82,1.18,1.9,1.52,3.09C952.18,644.89,952.22,647.54,951.99,650.05z"/>
				</g>
				<g>
					<rect x="938.02" y="643.91" class="st9" width="1.16" height="33.42"/>
				</g>
				<g>
					<path class="st2" d="M1446.58,510.28c-0.37,4.02-1.95,7.69-3.98,10.18c-1.44,1.77-3.13,3.01-4.9,3.68
						c-2.25,0.85-4.65,0.79-6.87-0.3c-3.96-1.94-7.24-7.07-8.5-13.3c-0.33-1.65-0.53-3.43-0.28-5.11c0.25-1.69,1.03-3.26,2.1-3.64
						c1.79-0.65,3.31,1.98,4.39,4.32c-0.57-6.18,0.56-12.38,2.89-17.43c0.77-1.66,1.85-3.3,3.15-3.15c1.17,0.13,2.08,1.67,2.7,3.24
						c1.58,3.95,2.02,8.78,1.84,13.42c0.61-2.32,2.15-3.48,3.65-3.2c0.73,0.14,1.41,0.63,1.98,1.37c0.6,0.77,1.09,1.78,1.4,2.9
						C1446.76,505.43,1446.8,507.92,1446.58,510.28z"/>
				</g>
				<g>
					<rect x="1433.69" y="504.51" class="st9" width="1.07" height="31.37"/>
				</g>
				<g>
					
						<rect x="1091.66" y="389.27" transform="matrix(-1 -1.224647e-16 1.224647e-16 -1 2201.6226 798.8912)" class="st5" width="18.3" height="20.36"/>
					<rect x="1060.8" y="389.27" class="st10" width="30.86" height="20.36"/>
					<rect x="1098.01" y="394.36" class="st11" width="6.72" height="15.26"/>
					<polygon class="st11" points="1069.84,367 1060.8,389.27 1091.88,389.27 1100.92,367 					"/>
					<rect x="1073.45" y="361.82" class="st10" width="5.7" height="7.62"/>
					<polygon class="st5" points="1100.92,367 1091.88,389.27 1109.96,389.27 					"/>
					<polygon class="st5" points="1079.15,369.43 1081.67,366.7 1081.67,361.82 1079.15,361.82 					"/>
					
						<rect x="1098.95" y="376.06" transform="matrix(-1 -1.224647e-16 1.224647e-16 -1 2201.6226 756.2717)" class="st3" width="3.73" height="4.15"/>
					
						<rect x="1070.16" y="391.38" transform="matrix(-1 -1.224647e-16 1.224647e-16 -1 2144.0432 791.0507)" class="st3" width="3.73" height="8.3"/>
					
						<rect x="1076.68" y="391.38" transform="matrix(-1 -1.224647e-16 1.224647e-16 -1 2157.0874 791.0507)" class="st3" width="3.73" height="8.3"/>
				</g>
				<g>
					<rect x="979.03" y="403.03" class="st5" width="22.21" height="17.77"/>
					
						<rect x="1001.24" y="403.03" transform="matrix(-1 -3.745416e-11 3.745416e-11 -1 2039.9242 823.824)" class="st10" width="37.44" height="17.77"/>
					
						<rect x="992.05" y="407.48" transform="matrix(-1 -4.802615e-11 4.802615e-11 -1 1989.9263 828.2712)" class="st11" width="5.83" height="13.32"/>
					<polygon class="st11" points="1027.71,383.6 1038.68,403.03 1000.97,403.03 990,383.6 					"/>
					
						<rect x="1017.01" y="379.07" transform="matrix(-1 -5.917457e-11 5.917457e-11 -1 2038.8236 764.7903)" class="st10" width="4.8" height="6.65"/>
					<polygon class="st5" points="990,383.6 1000.97,403.03 979.03,403.03 					"/>
					<polygon class="st5" points="1017.01,385.72 1014.89,383.33 1014.89,379.07 1017.01,379.07 					"/>
					<rect x="988.78" y="391.5" class="st3" width="2.72" height="6.66"/>
					<rect x="1030.92" y="407.56" class="st3" width="2.98" height="7.24"/>
					<rect x="1025.7" y="407.56" class="st3" width="2.98" height="7.24"/>
					<rect x="1011.36" y="407.56" class="st3" width="2.98" height="7.24"/>
					<rect x="1006.15" y="407.56" class="st3" width="2.98" height="7.24"/>
					<rect x="986.76" y="407.56" class="st3" width="2.98" height="7.24"/>
					<rect x="981.54" y="407.56" class="st3" width="2.98" height="7.24"/>
				</g>
				<g>
					
						<rect x="947.9" y="419.81" transform="matrix(-1 -1.224647e-16 1.224647e-16 -1 1916.6067 856.7315)" class="st5" width="20.82" height="17.11"/>
					<rect x="912.8" y="419.81" class="st10" width="35.1" height="17.11"/>
					<rect x="955.12" y="424.09" class="st11" width="7.65" height="12.83"/>
					<polygon class="st11" points="923.08,401.09 912.8,419.81 948.14,419.81 958.43,401.09 					"/>
					<rect x="927.18" y="396.73" class="st10" width="6.48" height="6.4"/>
					<polygon class="st5" points="958.43,401.09 948.14,419.81 968.71,419.81 					"/>
					<polygon class="st5" points="933.66,403.13 936.53,400.83 936.53,396.73 933.66,396.73 					"/>
					
						<rect x="956.18" y="408.71" transform="matrix(-1 -1.224647e-16 1.224647e-16 -1 1916.6067 820.9028)" class="st3" width="4.24" height="3.49"/>
					
						<rect x="923.44" y="421.58" transform="matrix(-1 -1.224647e-16 1.224647e-16 -1 1851.1162 850.1403)" class="st3" width="4.24" height="6.97"/>
					
						<rect x="930.86" y="421.58" transform="matrix(-1 -1.224647e-16 1.224647e-16 -1 1865.9526 850.1403)" class="st3" width="4.24" height="6.97"/>
				</g>
				<g>
					<rect x="1133.12" y="388.55" class="st5" width="24.15" height="21.42"/>
					<rect x="1185.91" y="337.36" class="st5" width="24.15" height="72.61"/>
					
						<rect x="1157.27" y="388.55" transform="matrix(-1 -3.168944e-11 3.168944e-11 -1 2367.4905 798.5225)" class="st10" width="52.95" height="21.42"/>
					<path class="st11" d="M1140.45,409.97h9.49v-14.08c0-0.5-0.41-0.91-0.91-0.91h-7.66c-0.5,0-0.91,0.41-0.91,0.91V409.97z"/>
					<polygon class="st11" points="1186.05,365.13 1197.98,388.55 1156.98,388.55 1145.05,365.13 					"/>
					
						<rect x="1174.42" y="359.67" transform="matrix(-1 -5.861235e-11 5.861235e-11 -1 2354.0532 727.3602)" class="st10" width="5.21" height="8.01"/>
					<polygon class="st5" points="1145.05,365.13 1156.98,388.55 1133.12,388.55 					"/>
					<polygon class="st5" points="1174.42,367.69 1172.11,364.81 1172.11,359.67 1174.42,359.67 					"/>
					<path class="st3" d="M1146.39,374.66H1144c-0.16,0-0.28,0.13-0.28,0.28v7.74h2.95v-7.74
						C1146.67,374.79,1146.55,374.66,1146.39,374.66z"/>
					<path class="st3" d="M1189.7,394.01h-2.62c-0.17,0-0.31,0.14-0.31,0.31v8.42h3.24v-8.42
						C1190.01,394.15,1189.87,394.01,1189.7,394.01z"/>
					<path class="st3" d="M1168.17,394.01h-2.62c-0.17,0-0.31,0.14-0.31,0.31v8.42h3.24v-8.42
						C1168.48,394.15,1168.34,394.01,1168.17,394.01z"/>
					<path class="st3" d="M1155.18,394.01h-2.62c-0.17,0-0.31,0.14-0.31,0.31v8.42h3.24v-8.42
						C1155.49,394.15,1155.35,394.01,1155.18,394.01z"/>
					<path class="st3" d="M1137.98,394.01h-2.62c-0.17,0-0.31,0.14-0.31,0.31v8.42h3.24v-8.42
						C1138.29,394.15,1138.15,394.01,1137.98,394.01z"/>
					<path class="st3" d="M1178.95,394.01h-2.62c-0.17,0-0.31,0.14-0.31,0.31v8.42h3.24v-8.42
						C1179.26,394.15,1179.12,394.01,1178.95,394.01z"/>
					
						<rect x="1197.98" y="337.36" transform="matrix(-1 -4.618551e-10 4.618551e-10 -1 2408.2019 747.3333)" class="st10" width="12.24" height="72.61"/>
					<polygon class="st11" points="1198.06,314.95 1210.94,338.37 1185.19,338.37 					"/>
					<path class="st3" d="M1192.93,357.11h-2.38c-0.16,0-0.28,0.13-0.28,0.28v7.74h2.95v-7.74
						C1193.21,357.23,1193.08,357.11,1192.93,357.11z"/>
					<circle class="st3" cx="1191.73" cy="347.04" r="3.03"/>
					<path class="st3" d="M1205.29,357.11h-2.38c-0.16,0-0.28,0.13-0.28,0.28v7.74h2.95v-7.74
						C1205.58,357.23,1205.45,357.11,1205.29,357.11z"/>
					<path class="st3" d="M1205.29,371.44h-2.38c-0.16,0-0.28,0.13-0.28,0.28v7.74h2.95v-7.74
						C1205.58,371.56,1205.45,371.44,1205.29,371.44z"/>
					<circle class="st3" cx="1204.1" cy="347.04" r="3.03"/>
				</g>
			</g>
			<g>
				<g>
					<path class="st2" d="M1552.16,488.33V1024h-1664.6l0.01-19.97l0.18-415.69l0.08-160.29
						C28.81,364.49,147.69,323.65,335.7,325.02c92.71,0.68,262.71,19.84,375.2,35.41c17.46,2.43,33.54,4.75,47.73,6.92
						C1023.15,407.68,1287.65,448.01,1552.16,488.33z"/>
					<g>
						<rect x="136.66" y="355.4" class="st3" width="37.68" height="126.37"/>
						
							<rect x="174.34" y="355.4" transform="matrix(-1 -1.224647e-16 1.224647e-16 -1 366.2188 837.1671)" class="st4" width="17.53" height="126.37"/>
						<rect x="19.04" y="379.26" class="st3" width="37.68" height="102.51"/>
						
							<rect x="56.73" y="379.26" transform="matrix(-1 -1.224647e-16 1.224647e-16 -1 130.9876 861.0269)" class="st4" width="17.53" height="102.51"/>
						<rect x="67.96" y="398.7" class="st3" width="56.96" height="83.07"/>
						
							<rect x="124.92" y="398.7" transform="matrix(-1 -1.224647e-16 1.224647e-16 -1 276.3374 880.4683)" class="st4" width="26.5" height="83.07"/>
					</g>
				</g>
				<g>
					<path class="st5" d="M302.8,266.07H134.21c4.48-13.15,14.85-24.9,26.54-27.21s24.24,3.14,32,13.87
						c7.87-17.03,21.56-30.12,36.98-35.62c7.18-2.57,14.73-3.49,22.23-2.38C275.56,218.21,296.66,238.51,302.8,266.07z"/>
				</g>
				<g>
					<path class="st5" d="M723.25,281.05h-94.29c3.44-15.42,15.24-26.76,28.44-28.71c13.2-1.95,26.67,7.29,33.11,21.25
						c2.25-3.12,5.21-5.42,8.45-6.75c3.02-1.25,6.29-1.63,9.44-1.01C714.94,267.12,720.74,273.69,723.25,281.05z"/>
				</g>
				<g>
					<path class="st6" d="M1552.16,297.24V1024h-1664.6V608.38c0.09-0.03,0.18-0.06,0.27-0.09
						c140.28-46.19,282.22-87.77,425.13-126.47c224.95-60.95,452.32-114.84,679.46-168.66c119.44-28.3,240.77-56.82,364.05-53.85
						C1423.14,260.9,1491.09,272.92,1552.16,297.24z"/>
				</g>
				<g>
					<path class="st5" d="M1037.12,355.95H844.39c2.69-12.46,9.24-21.66,19.68-24.66c10.43-2.99,22.11,1.45,29.21,11.11
						c1.98-17.43,11.81-32.76,24.66-41.03c6.26-4.03,13.25-6.39,20.39-6.49c21.8-0.33,42.48,20.51,45.96,46.33
						c8.3-8.49,20.81-13.55,31.48-10.89C1026.44,332.98,1033.38,342.47,1037.12,355.95z"/>
				</g>
				<g>
					<path class="st5" d="M42.01,312.85H-71.44c1.58-7.34,5.44-12.75,11.58-14.51c6.14-1.77,13.02,0.85,17.2,6.54
						c1.73-15.26,13.68-27.79,26.52-27.98c0.27,0,0.56,0,0.83,0.02c12.52,0.33,24.21,12.39,26.22,27.26
						c4.89-5,12.25-7.98,18.53-6.42C35.72,299.33,39.8,304.92,42.01,312.85z"/>
				</g>
				<g>
					<path class="st7" d="M1552.44,431.44v99.17c-54.94,9.58-109.85,17.77-165.22,12.23c-77.83-7.8-147.75-42.08-224.6-54.62
						c-94.69-15.47-193.06,3.08-283.75,29.7c-203.3,59.65-384.27,158.96-581.92,229.6c-129.99,46.47-270.74,75.31-409.11,71.43
						v-95.62c261.79-75.04,523.58-150.07,785.37-225.11c144.45-41.4,290.36-83.09,442.72-98.17
						C1262.03,385.57,1411.84,396.78,1552.44,431.44z"/>
				</g>
				<g>
					<path class="st8" d="M1552.44,883.2V1024h-1664.6V608.29c140.28-46.19,282.22-87.77,425.13-126.47
						c367.2,89.45,891.98,234,1239.2,401.25C1552.25,883.11,1552.35,883.16,1552.44,883.2z"/>
				</g>
				<g>
					<path class="st6" d="M1552.44,903.17V1024h-1664.6V405.88c0,0,145.49,29.13,358.49,79.87c3.2,0.76,6.41,1.53,9.64,2.3
						C624.14,576.01,1186.82,727,1552.44,903.17z"/>
				</g>
				<g>
					<path class="st2" d="M909.34,1024C596.2,760.3,248.45,573.8-112.23,476.03v69.05c39.65,0,79.71-1.23,118.65,7.71
						c38.94,8.94,77.25,33.6,96.82,74.95c7.88,16.64,12.55,35.51,22.21,50.74c13,20.5,33.66,32.13,54.51,38.27
						c20.85,6.14,42.45,7.54,63.61,11.93c83.99,17.39,155.74,79.96,226.26,137.37c70.53,57.4,148.08,157.47,233.31,157.96H909.34z"
						/>
				</g>
				<g>
					<path class="st2" d="M1552.44,1024h-1664.6l0.2-37.33l0.69-132.43c0,0,36.27-8.21,101.28-21.47
						c21.42-4.36,45.95-9.28,73.33-14.63c227.35-44.46,651.03-118.95,1116.28-158.93c16.29-1.41,32.62-2.77,48.99-4.07
						c42.24-3.39,84.78-6.47,127.5-9.21c24.94-1.6,49.93-3.08,74.97-4.43c40.3-2.18,80.69-4.01,121.1-5.49l0.05,81.54l0.04,56.65
						L1552.44,1024z"/>
				</g>
				<g>
					<path class="st6" d="M1552.26,774.2c-53.21-2.35-107.51-0.07-160.76,4.37c-106.22,8.87-211.47,25.88-318.04,30.24
						c-93.65,3.81-189.45-2-279.59,18.16c-80.16,17.92-149.64,55.13-227.56,77.82c-130.18,37.9-275.49,33.18-410.35,60.71
						C93.35,978.29,33.46,998.23-21.07,1024h-91.09l0.2-37.33C406.43,806.1,982.22,713.3,1552.22,717.55L1552.26,774.2z"/>
				</g>
				<g>
					<path class="st2" d="M915.16,645.05c-0.5,4.87-2.65,9.32-5.42,12.34c-1.96,2.15-4.26,3.65-6.68,4.47
						c-3.07,1.04-6.33,0.95-9.35-0.36c-5.39-2.35-9.85-8.57-11.57-16.13c-0.45-2-0.72-4.15-0.38-6.19c0.34-2.04,1.41-3.95,2.86-4.42
						c2.43-0.79,4.51,2.4,5.97,5.24c-0.78-7.49,0.77-15,3.93-21.13c1.04-2.01,2.52-4,4.29-3.82c1.6,0.15,2.82,2.02,3.68,3.93
						c2.15,4.79,2.75,10.64,2.5,16.27c0.83-2.81,2.93-4.22,4.97-3.88c1,0.16,1.91,0.77,2.69,1.66c0.82,0.93,1.48,2.16,1.91,3.52
						C915.41,639.18,915.46,642.19,915.16,645.05z"/>
				</g>
				<g>
					<rect x="897.61" y="638.06" class="st9" width="1.45" height="38.03"/>
				</g>
				<g>
					<path class="st2" d="M42.9,748.41c-1.43,13.95-7.58,26.68-15.5,35.33c-3.54,3.87-7.47,7.02-11.61,9.4
						c-10.79,6.19-23.11,7.2-34.26,2.35c-15.43-6.72-28.19-24.52-33.11-46.15c-1.3-5.72-2.07-11.88-1.1-17.72
						c0.98-5.85,4.03-11.29,8.19-12.64c6.96-2.26,12.9,6.87,17.09,14.99c-2.22-21.43,2.2-42.94,11.25-60.46
						c2.98-5.76,7.22-11.43,12.26-10.94c4.57,0.44,8.08,5.79,10.53,11.23c6.16,13.7,7.86,30.45,7.16,46.56
						c2.38-8.05,8.39-12.07,14.24-11.1c1.13,0.19,2.23,0.57,3.29,1.14c4.37,2.31,7.95,7.58,9.87,13.67
						C43.59,731.6,43.74,740.22,42.9,748.41z"/>
				</g>
				<g>
					<path class="st2" d="M115.93,736.11c-0.62,8.91-2.83,18.53-8.98,23.59c-1.47,1.21-3.09,2.05-4.79,2.56
						c-6.35,1.91-13.74-0.92-18.38-6.73c-5.87-7.36-7.78-18.32-6.79-28.44c0.87-9.03,3.95-25.34,11.16-30.56
						c7.18-5.18,17.27,1.56,21.95,8.72c0.23,0.36,0.46,0.73,0.67,1.09C115.65,714.85,116.64,725.8,115.93,736.11z"/>
				</g>
				<g>
					<rect x="94.28" y="724.65" class="st9" width="4.16" height="73.9"/>
				</g>
				<g>
					<path class="st2" d="M1419.73,513.08c-0.37,3.58-1.95,6.85-3.98,9.07c-1.44,1.58-3.13,2.68-4.9,3.28
						c-2.25,0.76-4.65,0.7-6.87-0.27c-3.96-1.73-7.24-6.29-8.5-11.85c-0.33-1.47-0.53-3.05-0.28-4.55c0.25-1.5,1.03-2.9,2.1-3.25
						c1.79-0.58,3.31,1.76,4.39,3.85c-0.57-5.5,0.56-11.02,2.89-15.52c0.77-1.48,1.85-2.94,3.15-2.81c1.17,0.11,2.08,1.49,2.7,2.88
						c1.58,3.52,2.02,7.82,1.84,11.95c0.61-2.07,2.15-3.1,3.65-2.85c0.73,0.12,1.41,0.56,1.98,1.22c0.6,0.68,1.09,1.59,1.4,2.58
						C1419.91,508.77,1419.95,510.98,1419.73,513.08z"/>
				</g>
				<g>
					<rect x="1406.84" y="507.95" class="st9" width="1.07" height="27.94"/>
				</g>
				<g>
					<path class="st2" d="M1319.25,361.26c-0.29,2.87-1.56,5.49-3.19,7.26c-1.15,1.26-2.51,2.15-3.93,2.63
						c-1.81,0.61-3.73,0.56-5.5-0.21c-3.17-1.38-5.8-5.04-6.81-9.49c-0.27-1.18-0.43-2.44-0.23-3.64c0.2-1.2,0.83-2.32,1.68-2.6
						c1.43-0.46,2.65,1.41,3.51,3.08c-0.46-4.41,0.45-8.83,2.31-12.43c0.61-1.18,1.48-2.35,2.52-2.25c0.94,0.09,1.66,1.19,2.17,2.31
						c1.27,2.82,1.62,6.26,1.47,9.58c0.49-1.66,1.73-2.48,2.93-2.28c0.59,0.1,1.13,0.45,1.59,0.98c0.48,0.55,0.87,1.27,1.12,2.07
						C1319.39,357.81,1319.42,359.58,1319.25,361.26z"/>
				</g>
				<g>
					<rect x="1308.92" y="357.15" class="st9" width="0.86" height="22.38"/>
				</g>
				<g>
					<path class="st2" d="M1333.56,363.6c-0.15,2.11-0.67,4.38-2.12,5.58c-0.35,0.29-0.73,0.48-1.13,0.6
						c-1.5,0.45-3.25-0.22-4.35-1.59c-1.39-1.74-1.84-4.33-1.6-6.72c0.21-2.13,0.93-5.99,2.64-7.22c1.7-1.23,4.08,0.37,5.19,2.06
						c0.06,0.08,0.11,0.17,0.16,0.26C1333.49,358.57,1333.72,361.16,1333.56,363.6z"/>
				</g>
				<g>
					<rect x="1328.44" y="360.89" class="st9" width="0.98" height="17.47"/>
				</g>
				<g>
					<path class="st8" d="M1421.7,702.21c-0.69,10-3.18,20.81-10.08,26.48c-1.65,1.36-3.47,2.3-5.37,2.87
						c-7.13,2.14-15.42-1.03-20.64-7.56c-6.59-8.26-8.73-20.57-7.62-31.93c0.98-10.13,4.44-28.45,12.53-34.3
						c8.06-5.82,19.38,1.75,24.64,9.79c0.26,0.4,0.51,0.82,0.75,1.22C1421.39,678.34,1422.5,690.64,1421.7,702.21z"/>
				</g>
				<g>
					<rect x="1397.4" y="689.35" class="st9" width="4.67" height="82.96"/>
				</g>
				<g>
					<path class="st5" d="M1274.6,228.76h-94.29c3.44-15.42,15.24-26.76,28.44-28.71c13.2-1.95,26.67,7.29,33.11,21.25
						c2.25-3.12,5.21-5.42,8.45-6.75c3.02-1.25,6.29-1.63,9.44-1.01C1266.29,214.83,1272.1,221.4,1274.6,228.76z"/>
				</g>
				<g>
					<path class="st5" d="M1488.3,266.07h-117.75c3.13-9.19,10.37-17.39,18.54-19.01s16.93,2.19,22.35,9.69
						c5.49-11.89,15.06-21.03,25.83-24.88c5.01-1.79,10.29-2.43,15.53-1.66C1469.28,232.65,1484.01,246.82,1488.3,266.07z"/>
				</g>
				<g>
					<path class="st2" d="M857.24,657.74c-0.47,4.53-2.46,8.67-5.04,11.48c-1.82,2-3.96,3.4-6.21,4.15
						c-2.85,0.96-5.89,0.89-8.7-0.34c-5.01-2.18-9.16-7.96-10.76-15c-0.42-1.86-0.67-3.86-0.36-5.76c0.32-1.9,1.31-3.67,2.66-4.11
						c2.26-0.73,4.19,2.23,5.55,4.87c-0.72-6.96,0.71-13.95,3.65-19.64c0.97-1.87,2.35-3.71,3.98-3.56
						c1.48,0.14,2.63,1.88,3.42,3.65c2,4.45,2.55,9.89,2.33,15.13c0.77-2.61,2.73-3.92,4.63-3.61c0.93,0.15,1.78,0.71,2.5,1.54
						c0.76,0.86,1.37,2.01,1.77,3.27C857.46,652.28,857.51,655.08,857.24,657.74z"/>
				</g>
				<g>
					<rect x="840.92" y="651.25" class="st9" width="1.35" height="35.36"/>
				</g>
				<g>
					
						<rect x="242.89" y="599.36" transform="matrix(-1 -1.224647e-16 1.224647e-16 -1 523.5659 1240.7473)" class="st5" width="37.79" height="42.03"/>
					<rect x="179.17" y="599.36" class="st10" width="63.72" height="42.03"/>
					<rect x="256" y="609.88" class="st11" width="13.88" height="31.51"/>
					<polygon class="st11" points="197.84,553.39 179.17,599.36 243.34,599.36 262.01,553.39 					"/>
					<rect x="205.28" y="542.67" class="st10" width="11.77" height="15.73"/>
					<polygon class="st5" points="262.01,553.39 243.34,599.36 280.68,599.36 					"/>
					<polygon class="st5" points="217.05,558.4 222.26,552.75 222.26,542.67 217.05,542.67 					"/>
					
						<rect x="257.93" y="572.09" transform="matrix(-1 -1.224647e-16 1.224647e-16 -1 523.5659 1152.7428)" class="st3" width="7.7" height="8.57"/>
					
						<rect x="198.48" y="603.71" transform="matrix(-1 -1.224647e-16 1.224647e-16 -1 404.6709 1224.5575)" class="st3" width="7.7" height="17.13"/>
					
						<rect x="211.95" y="603.71" transform="matrix(-1 -1.224647e-16 1.224647e-16 -1 431.6056 1224.5575)" class="st3" width="7.7" height="17.13"/>
				</g>
				<g>
					<rect x="476.35" y="704.66" class="st5" width="45.86" height="36.68"/>
					
						<rect x="522.21" y="704.66" transform="matrix(-1 -3.686530e-11 3.686530e-11 -1 1121.7333 1446.0007)" class="st10" width="77.32" height="36.68"/>
					
						<rect x="503.22" y="713.84" transform="matrix(-1 -4.976387e-11 4.976387e-11 -1 1018.493 1455.1836)" class="st11" width="12.04" height="27.5"/>
					<polygon class="st11" points="576.87,664.54 599.53,704.66 521.66,704.66 499,664.54 					"/>
					
						<rect x="554.78" y="655.19" transform="matrix(-1 -5.152868e-11 5.152868e-11 -1 1119.4608 1324.1025)" class="st10" width="9.9" height="13.73"/>
					<polygon class="st5" points="499,664.54 521.66,704.66 476.35,704.66 					"/>
					<polygon class="st5" points="554.78,668.92 550.4,663.98 550.4,655.19 554.78,655.19 					"/>
					<rect x="496.48" y="680.86" class="st3" width="5.61" height="13.74"/>
					<rect x="583.48" y="714.01" class="st3" width="6.16" height="14.95"/>
					<rect x="572.71" y="714.01" class="st3" width="6.16" height="14.95"/>
					<rect x="543.11" y="714.01" class="st3" width="6.16" height="14.95"/>
					<rect x="532.34" y="714.01" class="st3" width="6.16" height="14.95"/>
					<rect x="492.31" y="714.01" class="st3" width="6.16" height="14.95"/>
					<rect x="481.54" y="714.01" class="st3" width="6.16" height="14.95"/>
				</g>
				<g>
					<path class="st2" d="M1001.59,638.06c-0.43,4.61-2.27,8.81-4.64,11.67c-1.68,2.03-3.65,3.45-5.72,4.22
						c-2.63,0.98-5.42,0.9-8.01-0.34c-4.62-2.22-8.43-8.09-9.91-15.24c-0.39-1.89-0.62-3.92-0.33-5.85
						c0.29-1.93,1.21-3.73,2.45-4.17c2.08-0.75,3.86,2.27,5.11,4.95c-0.67-7.08,0.66-14.18,3.37-19.97c0.89-1.9,2.16-3.78,3.67-3.61
						c1.37,0.15,2.42,1.91,3.15,3.71c1.84,4.52,2.35,10.05,2.14,15.38c0.71-2.66,2.51-3.99,4.26-3.67c0.85,0.15,1.64,0.73,2.31,1.57
						c0.7,0.88,1.27,2.04,1.63,3.32C1001.8,632.51,1001.84,635.35,1001.59,638.06z"/>
				</g>
				<g>
					<rect x="986.56" y="631.46" class="st9" width="1.25" height="35.94"/>
				</g>
				<g>
					<path class="st2" d="M951.99,650.05c-0.4,4.28-2.11,8.19-4.31,10.85c-1.56,1.89-3.39,3.21-5.32,3.92
						c-2.44,0.91-5.04,0.84-7.45-0.32c-4.29-2.06-7.84-7.53-9.21-14.17c-0.36-1.76-0.58-3.65-0.31-5.44
						c0.27-1.8,1.12-3.47,2.28-3.88c1.94-0.69,3.59,2.11,4.76,4.6c-0.62-6.58,0.61-13.18,3.13-18.56c0.83-1.77,2.01-3.51,3.41-3.36
						c1.27,0.13,2.25,1.78,2.93,3.45c1.71,4.21,2.19,9.35,1.99,14.3c0.66-2.47,2.33-3.71,3.96-3.41c0.79,0.14,1.52,0.67,2.14,1.46
						c0.65,0.82,1.18,1.9,1.52,3.09C952.18,644.89,952.22,647.54,951.99,650.05z"/>
				</g>
				<g>
					<rect x="938.02" y="643.91" class="st9" width="1.16" height="33.42"/>
				</g>
				<g>
					<path class="st2" d="M1446.58,510.28c-0.37,4.02-1.95,7.69-3.98,10.18c-1.44,1.77-3.13,3.01-4.9,3.68
						c-2.25,0.85-4.65,0.79-6.87-0.3c-3.96-1.94-7.24-7.07-8.5-13.3c-0.33-1.65-0.53-3.43-0.28-5.11c0.25-1.69,1.03-3.26,2.1-3.64
						c1.79-0.65,3.31,1.98,4.39,4.32c-0.57-6.18,0.56-12.38,2.89-17.43c0.77-1.66,1.85-3.3,3.15-3.15c1.17,0.13,2.08,1.67,2.7,3.24
						c1.58,3.95,2.02,8.78,1.84,13.42c0.61-2.32,2.15-3.48,3.65-3.2c0.73,0.14,1.41,0.63,1.98,1.37c0.6,0.77,1.09,1.78,1.4,2.9
						C1446.76,505.43,1446.8,507.92,1446.58,510.28z"/>
				</g>
				<g>
					<rect x="1433.69" y="504.51" class="st9" width="1.07" height="31.37"/>
				</g>
				<g>
					
						<rect x="1091.66" y="389.27" transform="matrix(-1 -1.224647e-16 1.224647e-16 -1 2201.6226 798.8912)" class="st5" width="18.3" height="20.36"/>
					<rect x="1060.8" y="389.27" class="st10" width="30.86" height="20.36"/>
					<rect x="1098.01" y="394.36" class="st11" width="6.72" height="15.26"/>
					<polygon class="st11" points="1069.84,367 1060.8,389.27 1091.88,389.27 1100.92,367 					"/>
					<rect x="1073.45" y="361.82" class="st10" width="5.7" height="7.62"/>
					<polygon class="st5" points="1100.92,367 1091.88,389.27 1109.96,389.27 					"/>
					<polygon class="st5" points="1079.15,369.43 1081.67,366.7 1081.67,361.82 1079.15,361.82 					"/>
					
						<rect x="1098.95" y="376.06" transform="matrix(-1 -1.224647e-16 1.224647e-16 -1 2201.6226 756.2717)" class="st3" width="3.73" height="4.15"/>
					
						<rect x="1070.16" y="391.38" transform="matrix(-1 -1.224647e-16 1.224647e-16 -1 2144.0432 791.0507)" class="st3" width="3.73" height="8.3"/>
					
						<rect x="1076.68" y="391.38" transform="matrix(-1 -1.224647e-16 1.224647e-16 -1 2157.0874 791.0507)" class="st3" width="3.73" height="8.3"/>
				</g>
				<g>
					<rect x="979.03" y="403.03" class="st5" width="22.21" height="17.77"/>
					
						<rect x="1001.24" y="403.03" transform="matrix(-1 -3.745416e-11 3.745416e-11 -1 2039.9242 823.824)" class="st10" width="37.44" height="17.77"/>
					
						<rect x="992.05" y="407.48" transform="matrix(-1 -4.802615e-11 4.802615e-11 -1 1989.9263 828.2712)" class="st11" width="5.83" height="13.32"/>
					<polygon class="st11" points="1027.71,383.6 1038.68,403.03 1000.97,403.03 990,383.6 					"/>
					
						<rect x="1017.01" y="379.07" transform="matrix(-1 -5.917457e-11 5.917457e-11 -1 2038.8236 764.7903)" class="st10" width="4.8" height="6.65"/>
					<polygon class="st5" points="990,383.6 1000.97,403.03 979.03,403.03 					"/>
					<polygon class="st5" points="1017.01,385.72 1014.89,383.33 1014.89,379.07 1017.01,379.07 					"/>
					<rect x="988.78" y="391.5" class="st3" width="2.72" height="6.66"/>
					<rect x="1030.92" y="407.56" class="st3" width="2.98" height="7.24"/>
					<rect x="1025.7" y="407.56" class="st3" width="2.98" height="7.24"/>
					<rect x="1011.36" y="407.56" class="st3" width="2.98" height="7.24"/>
					<rect x="1006.15" y="407.56" class="st3" width="2.98" height="7.24"/>
					<rect x="986.76" y="407.56" class="st3" width="2.98" height="7.24"/>
					<rect x="981.54" y="407.56" class="st3" width="2.98" height="7.24"/>
				</g>
				<g>
					
						<rect x="947.9" y="419.81" transform="matrix(-1 -1.224647e-16 1.224647e-16 -1 1916.6067 856.7315)" class="st5" width="20.82" height="17.11"/>
					<rect x="912.8" y="419.81" class="st10" width="35.1" height="17.11"/>
					<rect x="955.12" y="424.09" class="st11" width="7.65" height="12.83"/>
					<polygon class="st11" points="923.08,401.09 912.8,419.81 948.14,419.81 958.43,401.09 					"/>
					<rect x="927.18" y="396.73" class="st10" width="6.48" height="6.4"/>
					<polygon class="st5" points="958.43,401.09 948.14,419.81 968.71,419.81 					"/>
					<polygon class="st5" points="933.66,403.13 936.53,400.83 936.53,396.73 933.66,396.73 					"/>
					
						<rect x="956.18" y="408.71" transform="matrix(-1 -1.224647e-16 1.224647e-16 -1 1916.6067 820.9028)" class="st3" width="4.24" height="3.49"/>
					
						<rect x="923.44" y="421.58" transform="matrix(-1 -1.224647e-16 1.224647e-16 -1 1851.1162 850.1403)" class="st3" width="4.24" height="6.97"/>
					
						<rect x="930.86" y="421.58" transform="matrix(-1 -1.224647e-16 1.224647e-16 -1 1865.9526 850.1403)" class="st3" width="4.24" height="6.97"/>
				</g>
				<g>
					<rect x="1133.12" y="388.55" class="st5" width="24.15" height="21.42"/>
					<rect x="1185.91" y="337.36" class="st5" width="24.15" height="72.61"/>
					
						<rect x="1157.27" y="388.55" transform="matrix(-1 -3.168944e-11 3.168944e-11 -1 2367.4905 798.5225)" class="st10" width="52.95" height="21.42"/>
					<path class="st11" d="M1140.45,409.97h9.49v-14.08c0-0.5-0.41-0.91-0.91-0.91h-7.66c-0.5,0-0.91,0.41-0.91,0.91V409.97z"/>
					<polygon class="st11" points="1186.05,365.13 1197.98,388.55 1156.98,388.55 1145.05,365.13 					"/>
					
						<rect x="1174.42" y="359.67" transform="matrix(-1 -5.861235e-11 5.861235e-11 -1 2354.0532 727.3602)" class="st10" width="5.21" height="8.01"/>
					<polygon class="st5" points="1145.05,365.13 1156.98,388.55 1133.12,388.55 					"/>
					<polygon class="st5" points="1174.42,367.69 1172.11,364.81 1172.11,359.67 1174.42,359.67 					"/>
					<path class="st3" d="M1146.39,374.66H1144c-0.16,0-0.28,0.13-0.28,0.28v7.74h2.95v-7.74
						C1146.67,374.79,1146.55,374.66,1146.39,374.66z"/>
					<path class="st3" d="M1189.7,394.01h-2.62c-0.17,0-0.31,0.14-0.31,0.31v8.42h3.24v-8.42
						C1190.01,394.15,1189.87,394.01,1189.7,394.01z"/>
					<path class="st3" d="M1168.17,394.01h-2.62c-0.17,0-0.31,0.14-0.31,0.31v8.42h3.24v-8.42
						C1168.48,394.15,1168.34,394.01,1168.17,394.01z"/>
					<path class="st3" d="M1155.18,394.01h-2.62c-0.17,0-0.31,0.14-0.31,0.31v8.42h3.24v-8.42
						C1155.49,394.15,1155.35,394.01,1155.18,394.01z"/>
					<path class="st3" d="M1137.98,394.01h-2.62c-0.17,0-0.31,0.14-0.31,0.31v8.42h3.24v-8.42
						C1138.29,394.15,1138.15,394.01,1137.98,394.01z"/>
					<path class="st3" d="M1178.95,394.01h-2.62c-0.17,0-0.31,0.14-0.31,0.31v8.42h3.24v-8.42
						C1179.26,394.15,1179.12,394.01,1178.95,394.01z"/>
					
						<rect x="1197.98" y="337.36" transform="matrix(-1 -4.618551e-10 4.618551e-10 -1 2408.2019 747.3333)" class="st10" width="12.24" height="72.61"/>
					<polygon class="st11" points="1198.06,314.95 1210.94,338.37 1185.19,338.37 					"/>
					<path class="st3" d="M1192.93,357.11h-2.38c-0.16,0-0.28,0.13-0.28,0.28v7.74h2.95v-7.74
						C1193.21,357.23,1193.08,357.11,1192.93,357.11z"/>
					<circle class="st3" cx="1191.73" cy="347.04" r="3.03"/>
					<path class="st3" d="M1205.29,357.11h-2.38c-0.16,0-0.28,0.13-0.28,0.28v7.74h2.95v-7.74
						C1205.58,357.23,1205.45,357.11,1205.29,357.11z"/>
					<path class="st3" d="M1205.29,371.44h-2.38c-0.16,0-0.28,0.13-0.28,0.28v7.74h2.95v-7.74
						C1205.58,371.56,1205.45,371.44,1205.29,371.44z"/>
					<circle class="st3" cx="1204.1" cy="347.04" r="3.03"/>
				</g>
			</g>
		</g>
		<g>
			<g>
				<g>
					<ellipse class="st13" cx="441.33" cy="684.3" rx="7.09" ry="9.56"/>
				</g>
				<g>
					<g id="Head_99_" transform="translate(54.000000, 31.000000)">
						<g>
							<g>
								<g>
									<path class="st13" d="M389.09,657.46l2,11.34h-8.19l2.82-11.45"/>
								</g>
							</g>
						</g>
					</g>
				</g>
				<g>
					<g>
						<g id="Leg_110_">
							<g>
								<g>
									<polygon class="st54" points="435.16,734.08 447.3,773.91 453.9,812.29 461.32,812.29 450.41,734.08 									"/>
								</g>
							</g>
						</g>
						<g transform="translate(208.000000, 199.000000)">
							<g>
								<g>
									<g>
										<path class="st54" d="M246.36,611.64c-0.18,1.02-0.27,1.78-0.27,2.29c0,0.62,0.05,1.51,0.14,2.69c0.33,0,3.33,0,8.99,0
											c0.23-1.65,0.1-2.55-0.4-2.68c-0.5-0.13-0.92-0.25-1.25-0.36l-4.18-3.99c-0.08-0.08-0.17,0-0.21,0.17c0,0,0,0.01,0,0.01
											l-0.27,1.39c-0.47,0.47-0.84,0.7-1.14,0.7c-0.24,0-0.56-0.2-0.98-0.61l0,0c-0.16-0.16-0.35-0.01-0.42,0.34
											C246.36,611.61,246.36,611.63,246.36,611.64z"/>
									</g>
								</g>
							</g>
						</g>
					</g>
					<g>
						<g>
							<g>
								<path class="st64" d="M458.94,809.92c-1.94-13.89-3.26-27.41-4.87-38.19c-2.78-18.64-5.92-30.25-5.99-30.43l0.32-0.12
									c0.06,0.17,3.22,12.11,6.1,31.16c1.61,10.63,2.96,23.73,4.76,37.48L458.94,809.92z"/>
							</g>
						</g>
					</g>
				</g>
				<g>
					<g>
						<g id="Leg_66_">
							<g>
								<g>
									<polygon class="st54" points="448.06,734.08 435.93,773.91 429.33,812.29 421.91,812.29 432.82,734.08 									"/>
								</g>
							</g>
						</g>
						<g transform="translate(208.000000, 199.000000)">
							<g>
								<g>
									<g>
										<path class="st54" d="M220.87,611.64c0.18,1.02,0.27,1.78,0.27,2.29c0,0.62-0.05,1.51-0.14,2.69c-0.33,0-3.33,0-8.99,0
											c-0.23-1.65-0.1-2.55,0.4-2.68c0.5-0.13,0.92-0.25,1.25-0.36l4.18-3.99c0.08-0.08,0.17,0,0.21,0.17c0,0,0,0.01,0,0.01
											l0.27,1.39c0.47,0.47,0.84,0.7,1.14,0.7c0.24,0,0.56-0.2,0.98-0.61l0,0c0.16-0.16,0.35-0.01,0.42,0.34
											C220.86,611.61,220.87,611.63,220.87,611.64z"/>
									</g>
								</g>
							</g>
						</g>
					</g>
					<g>
						<g>
							<g>
								<path class="st64" d="M424.29,809.92c1.94-13.89,3.26-27.41,4.87-38.19c2.78-18.64,5.92-30.25,5.99-30.43l-0.32-0.12
									c-0.06,0.17-3.22,12.11-6.1,31.16c-1.61,10.63-2.96,23.73-4.76,37.48L424.29,809.92z"/>
							</g>
						</g>
					</g>
				</g>
				<g>
					<g>
						<g>
							<path class="st73" d="M464.44,699.57l-6.27,3.4c7.24-21.48,4.68-12.04,7.24-21.48c-0.25-2.1-3.14-3.91-4.54-4.97
								c1.54-2.03,3.18,1.47,5.09-1.14c1.75-2.38,2.45-5.34,6.09-5.15c0.45,0.02,1.24,0.6,0.68,1.69c-1.38,2.72-3.1,7.09-3.05,8.2
								C464.44,699.57,469.68,680.12,464.44,699.57z"/>
						</g>
					</g>
				</g>
				<g>
					<g>
						<g>
							<path class="st15" d="M443.5,699.29l3.53-4.05c0.21-0.03,0.45-0.05,0.7-0.05c4.69,0,8.16,4.29,7.06,4.6
								c3.5-2.27,6.12-11.92,9.98-16.85l5.23,1.35c-0.84,4.53-2.08,15.25-3.87,18.66c-1.67,3.19-9.01,11.52-10.33,11.74
								c-0.65,5.41-2.35,24.12-3.8,26.56h-12.92C436.05,733.59,436.74,722.21,443.5,699.29z"/>
						</g>
					</g>
				</g>
				<g>
					<g>
						<g>
							<path class="st73" d="M417.17,729.45l5.69-4.29c-3.96,22.32-2.84,12.6-3.96,22.32c0.56,2.04,3.69,3.4,5.23,4.24
								c-1.22,2.24-3.36-0.98-4.87,1.88c-1.38,2.61-1.63,5.65-5.25,6c-0.45,0.04-1.31-0.41-0.93-1.57c0.96-2.89,2.01-7.48,1.8-8.56
								C417.17,729.45,414.88,749.47,417.17,729.45z"/>
						</g>
					</g>
				</g>
				<g>
					<g>
						<g>
							<path class="st15" d="M439.51,699.29l-3.49-4.05c-0.21-0.03-0.45-0.05-0.7-0.05c-4.69,0-9.93,9.53-8.83,9.85
								c-8.63,11.88-12.68,26.34-12.15,43.38h5.6c1.11-1.94,2.28-4.33,3.49-7.16c1.42-3.31,2.91-13.85,4.47-18.39
								c0.65,5.41,1.7,15.95,3.15,18.39h12.92C447.01,733.59,446.27,722.21,439.51,699.29z"/>
						</g>
					</g>
				</g>
				<g>
					<g>
						<g>
							<g>
								<path class="st68" d="M436.73,698.32l-3.46-2.94c0,0-5.64,1.76-5.85,3.03s3.09,3.39,4.5,3.19c0.49-0.07,1.55-0.72,2.3-1.24
									l0.72,0.83c0.4-0.29,2.74-1.84,2.74-1.84L436.73,698.32z"/>
							</g>
						</g>
					</g>
					<g>
						<g>
							<g>
								<path class="st5" d="M433.13,695.57l3.29,2.79c-0.31,0.27-1.19,1.03-2.14,1.74l-4.05-3.44
									C431.42,696.14,432.67,695.72,433.13,695.57 M433.27,695.38c0,0-1.8,0.56-3.41,1.28l4.35,3.7c1.29-0.93,2.52-2.03,2.52-2.03
									L433.27,695.38L433.27,695.38z"/>
							</g>
						</g>
					</g>
					<g>
						<g>
							<g>
								<polygon class="st5" points="430.09,696.78 430.12,696.62 434.01,696.09 433.98,696.24 								"/>
							</g>
						</g>
					</g>
					<g>
						<g>
							<g>
								<polygon class="st5" points="431.32,697.82 433.04,695.45 433.27,695.47 431.55,697.84 								"/>
							</g>
						</g>
					</g>
					<g>
						<g>
							<g>
								<polygon class="st5" points="431.38,697.87 431.41,697.72 435.3,697.19 435.27,697.34 								"/>
							</g>
						</g>
					</g>
					<g>
						<g>
							<g>
								<polygon class="st5" points="432.61,698.92 434.34,696.55 434.57,696.57 432.84,698.94 								"/>
							</g>
						</g>
					</g>
					<g>
						<g>
							<g>
								<polygon class="st5" points="432.67,698.96 432.69,698.81 436.58,698.28 436.55,698.43 								"/>
							</g>
						</g>
					</g>
					<g>
						<g>
							<g>
								<polygon class="st5" points="433.89,700 435.62,697.64 435.85,697.66 434.12,700.02 								"/>
							</g>
						</g>
					</g>
				</g>
				<g>
					<g>
						<g>
							<circle class="st71" cx="441.33" cy="707.69" r="0.79"/>
						</g>
					</g>
				</g>
				<g>
					<g>
						<g>
							<g>
								<path class="st68" d="M414.34,748.42h5.6c0,0,2.15-3.8,2.32-4.52c0.17-0.72-7.88-0.56-7.91-0.28
									C414.31,743.9,413.8,747.37,414.34,748.42z"/>
							</g>
						</g>
					</g>
					<g>
						<g>
							<g>
								<path class="st5" d="M419.36,747.62h-3.64l-0.05-0.09c-0.22-0.42-0.23-1.42-0.03-2.97l0.01-0.08c0-0.04,0.03-0.12,0.14-0.16
									c0.36-0.14,4.5-0.26,4.98,0.15c0.07,0.06,0.11,0.15,0.09,0.24c-0.11,0.46-1.31,2.59-1.44,2.83L419.36,747.62z
									 M415.93,747.28h3.23c0.49-0.87,1.19-2.17,1.34-2.58c-0.51-0.22-3.89-0.23-4.52-0.09
									C415.76,746.31,415.84,747,415.93,747.28z M415.99,744.51L415.99,744.51C415.99,744.52,415.99,744.51,415.99,744.51z"/>
							</g>
						</g>
					</g>
				</g>
				<g>
					<g>
						<g>
							<g>
								<path class="st68" d="M463.07,682.11l7.03,2.03c0,0-0.67,4.44-0.72,5.27s-7.72-1.87-7.67-2.18
									C461.76,686.92,462.25,683.06,463.07,682.11z"/>
							</g>
						</g>
					</g>
					<g>
						<g>
							<g>
								<path class="st5" d="M469.34,684.92c0.06,0.3-0.84,2.67-1.08,3.18c-0.04,0.09-0.06,0.18-0.15,0.23
									c-0.57,0.29-4.51-1.14-4.82-1.4c-0.09-0.08-0.09-0.17-0.08-0.22l0.01-0.09c0.24-1.71,0.54-2.77,0.86-3.16l0.07-0.08
									l5.16,1.42L469.34,684.92z M463.56,686.68c0.57,0.35,3.81,1.4,4.36,1.33c0.29-0.57,1-2.33,1.11-2.89l-4.76-1.29
									C464.1,684.09,463.83,684.8,463.56,686.68z M463.55,686.78L463.55,686.78C463.55,686.79,463.55,686.78,463.55,686.78z"/>
							</g>
						</g>
					</g>
				</g>
				<g>
					<g>
						<g>
							<circle class="st71" cx="441.33" cy="712.14" r="0.79"/>
						</g>
					</g>
				</g>
				<g>
					<g>
						<g>
							<circle class="st71" cx="441.33" cy="716.76" r="0.79"/>
						</g>
					</g>
				</g>
				<g>
					<g>
						<g>
							<circle class="st71" cx="441.33" cy="721.21" r="0.79"/>
						</g>
					</g>
				</g>
				<g>
					<g>
						<g>
							<circle class="st71" cx="441.33" cy="725.59" r="0.79"/>
						</g>
					</g>
				</g>
				<g>
					<g>
						<g>
							<circle class="st71" cx="441.33" cy="730.04" r="0.79"/>
						</g>
					</g>
				</g>
				<g>
					<polygon class="st9" points="437.67,697.29 441.33,706.91 445.52,697.19 441.49,699.72 					"/>
				</g>
				<g>
					<g>
						<g>
							<circle class="st71" cx="441.33" cy="734.66" r="0.79"/>
						</g>
					</g>
				</g>
				<g>
					<g>
						<g>
							<circle class="st71" cx="441.33" cy="739.1" r="0.79"/>
						</g>
					</g>
				</g>
				<g>
					<path class="st64" d="M442.73,741.5l-3.81-0.09l-0.01-0.16c-0.27-4.2,0.39-39.68,0.4-40.04l0-0.17h2.8v0.34h-2.47
						c-0.05,2.64-0.65,35.03-0.41,39.69l3.5,0.08L442.73,741.5z"/>
				</g>
				<g>
					<polygon class="st64" points="435.15,695.2 435.49,693.46 440.71,696.34 439.9,699.14 					"/>
				</g>
				<g>
					<path class="st45" d="M434.25,684.5c0,0,0.91,1.12,0.92,1.95c0.01,0.83,1.08,0.78,1.08,0.78s-1.38-5.02-0.67-5.59
						s-0.97-0.33-0.97-0.33S434.11,682.73,434.25,684.5z"/>
				</g>
				<g>
					<g>
						<g>
							<circle class="st71" cx="441.33" cy="703.24" r="0.79"/>
						</g>
					</g>
				</g>
				<g>
					<g>
						<g>
							<g>
								<path class="st68" d="M446.2,698.32l3.46-2.94c0,0,5.64,1.76,5.85,3.03c0.21,1.27-3.09,3.39-4.5,3.19
									c-0.49-0.07-1.55-0.72-2.3-1.24l-0.72,0.83c-0.4-0.29-2.74-1.84-2.74-1.84L446.2,698.32z"/>
							</g>
						</g>
					</g>
					<g>
						<g>
							<g>
								<path class="st5" d="M449.8,695.57c0.46,0.15,1.71,0.57,2.91,1.08l-4.05,3.44c-0.95-0.7-1.83-1.47-2.14-1.74L449.8,695.57
									 M449.66,695.38l-3.46,2.94c0,0,1.23,1.11,2.52,2.03l4.35-3.7C451.46,695.94,449.66,695.38,449.66,695.38L449.66,695.38z"/>
							</g>
						</g>
					</g>
					<g>
						<g>
							<g>
								<polygon class="st5" points="452.84,696.78 452.81,696.62 448.92,696.09 448.95,696.24 								"/>
							</g>
						</g>
					</g>
					<g>
						<g>
							<g>
								<polygon class="st5" points="451.61,697.82 449.89,695.45 449.65,695.47 451.38,697.84 								"/>
							</g>
						</g>
					</g>
					<g>
						<g>
							<g>
								<polygon class="st5" points="451.55,697.87 451.52,697.72 447.63,697.19 447.66,697.34 								"/>
							</g>
						</g>
					</g>
					<g>
						<g>
							<g>
								<polygon class="st5" points="450.32,698.92 448.59,696.55 448.36,696.57 450.09,698.94 								"/>
							</g>
						</g>
					</g>
					<g>
						<g>
							<g>
								<polygon class="st5" points="450.26,698.96 450.24,698.81 446.35,698.28 446.38,698.43 								"/>
							</g>
						</g>
					</g>
					<g>
						<g>
							<g>
								<polygon class="st5" points="449.04,700 447.31,697.64 447.08,697.66 448.81,700.02 								"/>
							</g>
						</g>
					</g>
				</g>
				<g>
					<path class="st45" d="M448.39,684.5c0,0-0.91,1.12-0.92,1.95c-0.01,0.83-1.08,0.78-1.08,0.78s1.38-5.02,0.67-5.59
						s0.97-0.33,0.97-0.33S448.53,682.73,448.39,684.5z"/>
				</g>
				<g>
					<polygon class="st64" points="447.78,695.2 447.43,693.46 442.22,696.34 443.03,699.14 					"/>
				</g>
				<g>
					<g>
						<path class="st9" d="M448.6,663.94c-0.16-0.08-0.33-0.14-0.51-0.17c-0.65-0.09-3.77-0.09-6.76-0.07
							c-2.99-0.02-6.11-0.02-6.76,0.07c-0.18,0.03-0.35,0.08-0.51,0.17c-0.89,0.25-1.87,0.89-1.4,2.49
							c0.63,2.17,1.5,8.13,1.83,12.19c0.09,1.07,0.14,2.01,0.13,2.72c0,0,0.25,0.02,0.68,0.04c0.92-0.18,11.16-0.18,12.08,0
							c0.43-0.02,0.68-0.04,0.68-0.04c0-0.7,0.05-1.64,0.13-2.72c0.33-4.06,1.2-10.02,1.83-12.19
							C450.47,664.82,449.49,664.19,448.6,663.94z"/>
					</g>
					<g>
						<path class="st70" d="M445.77,678.61c-0.99-0.27,0.17-0.65,0.17-0.65s1.16-0.72-2.1-2.14c-1.34-0.59-2.51-2.61-2.51-2.61
							s-1.17,2.02-2.51,2.61c-3.25,1.43-2.1,2.14-2.1,2.14s1.16,0.37,0.17,0.65c-0.99,0.27-2.87,3.17-2.1,2.6
							c0.77-0.57,5.36-1.18,5.36-1.18h2.35c0,0,4.59,0.61,5.36,1.18C448.64,681.78,446.76,678.88,445.77,678.61z"/>
					</g>
					<g>
						<path class="st96" d="M434.61,681.32c0,0,5.76-6.5,13.44,0C448.05,681.32,442.13,684.98,434.61,681.32z"/>
					</g>
					<g>
						<g>
							<g>
								<path class="st5" d="M434.59,680.28l0.33,0.09c-0.01-0.09-0.63-9.28,6.18-15.71l-0.24-0.38
									C433.94,670.82,434.58,680.18,434.59,680.28z"/>
							</g>
						</g>
					</g>
					<g>
						<g>
							<g>
								<ellipse class="st69" cx="434.7" cy="680.35" rx="0.25" ry="0.71"/>
							</g>
						</g>
					</g>
					<g>
						<g>
							<g>
								<path class="st5" d="M448.05,680.28l-0.33,0.09c0.01-0.09,0.63-9.28-6.18-15.71l0.24-0.38
									C448.69,670.82,448.06,680.18,448.05,680.28z"/>
							</g>
						</g>
					</g>
					<g>
						<g>
							<g>
								<circle class="st68" cx="441.33" cy="664.56" r="1.93"/>
							</g>
						</g>
					</g>
					<g>
						<g>
							<g>
								<ellipse class="st69" cx="447.94" cy="680.35" rx="0.25" ry="0.71"/>
							</g>
						</g>
					</g>
				</g>
				<g>
					<g>
						<path class="st69" d="M436.28,712.6l-1.08-0.59c0,0-0.47,0.54-2.01,0.59c-1.54-0.05-2.01-0.59-2.01-0.59l-1.08,0.59
							c0,0,1.93,1.93,0.53,3.05c-1.4,1.13,0.76,1.75,1.62,1.82c0.86,0.07,0.95,0.68,0.95,0.68s0.09-0.61,0.95-0.68
							c0.86-0.07,3.01-0.69,1.62-1.82C434.36,714.53,436.28,712.6,436.28,712.6z"/>
					</g>
					<g>
						<ellipse class="st69" cx="441.49" cy="716.21" rx="2.1" ry="3.07"/>
					</g>
					<g>
						<path class="st69" d="M452.9,712.6l-1.08-0.59c0,0-0.47,0.54-2.01,0.59c-1.54-0.05-2.01-0.59-2.01-0.59l-1.08,0.59
							c0,0,1.93,1.93,0.53,3.05c-1.4,1.13,0.76,1.75,1.62,1.82c0.86,0.07,0.95,0.68,0.95,0.68s0.09-0.61,0.95-0.68
							c0.86-0.07,3.01-0.69,1.62-1.82C450.97,714.53,452.9,712.6,452.9,712.6z"/>
					</g>
					<g>
						<path class="st69" d="M444.59,724.09l-1.08-0.59c0,0-0.47,0.54-2.01,0.59c-1.54-0.05-2.01-0.59-2.01-0.59l-1.08,0.59
							c0,0,1.93,1.93,0.53,3.05c-1.4,1.13,0.76,1.75,1.62,1.82c0.86,0.07,0.95,0.68,0.95,0.68s0.09-0.61,0.95-0.68
							c0.86-0.07,3.01-0.69,1.62-1.82C442.66,726.02,444.59,724.09,444.59,724.09z"/>
					</g>
					<g>
						<path class="st69" d="M436.28,721.79l-1.08-0.59c0,0-0.47,0.54-2.01,0.59c-1.54-0.05-2.01-0.59-2.01-0.59l-1.08,0.59
							c0,0,1.93,1.93,0.53,3.05c-1.4,1.13,0.76,1.75,1.62,1.82c0.86,0.07,0.95,0.68,0.95,0.68s0.09-0.61,0.95-0.68
							c0.86-0.07,3.01-0.69,1.62-1.82C434.36,723.72,436.28,721.79,436.28,721.79z"/>
					</g>
					<g>
						<path class="st69" d="M452.9,721.79l-1.08-0.59c0,0-0.47,0.54-2.01,0.59c-1.54-0.05-2.01-0.59-2.01-0.59l-1.08,0.59
							c0,0,1.93,1.93,0.53,3.05c-1.4,1.13,0.76,1.75,1.62,1.82c0.86,0.07,0.95,0.68,0.95,0.68s0.09-0.61,0.95-0.68
							c0.86-0.07,3.01-0.69,1.62-1.82C450.97,723.72,452.9,721.79,452.9,721.79z"/>
					</g>
					<g>
						<path class="st69" d="M439.38,705.14l-1.08-0.59c0,0-0.47,0.54-2.01,0.59c-1.54-0.05-2.01-0.59-2.01-0.59l-1.08,0.59
							c0,0,1.93,1.93,0.53,3.05c-1.4,1.13,0.76,1.75,1.62,1.82c0.86,0.07,0.95,0.68,0.95,0.68s0.09-0.61,0.95-0.68
							c0.86-0.07,3.01-0.69,1.62-1.82C437.45,707.07,439.38,705.14,439.38,705.14z"/>
					</g>
					<g>
						<path class="st69" d="M449.8,705.14l-1.08-0.59c0,0-0.47,0.54-2.01,0.59c-1.54-0.05-2.01-0.59-2.01-0.59l-1.08,0.59
							c0,0,1.93,1.93,0.53,3.05c-1.4,1.13,0.76,1.75,1.62,1.82c0.86,0.07,0.95,0.68,0.95,0.68s0.09-0.61,0.95-0.68
							c0.86-0.07,3.01-0.69,1.62-1.82S449.8,705.14,449.8,705.14z"/>
					</g>
					<g>
						<polygon class="st71" points="449.97,721.79 449.63,721.79 449.63,712.7 446.69,710.89 441.49,713.33 436.3,710.89 
							433.36,712.7 433.36,721.79 433.02,721.79 433.02,712.51 436.27,710.5 441.49,712.95 446.71,710.5 449.97,712.51 						"/>
					</g>
					<g>
						<rect x="441.32" y="719.27" class="st71" width="0.34" height="4.82"/>
					</g>
					<g>
						
							<rect x="432.22" y="700.68" transform="matrix(0.0566 -0.9984 0.9984 0.0566 -287.9191 1096.9735)" class="st71" width="8.61" height="0.34"/>
					</g>
					<g>
						
							<rect x="446.26" y="696.54" transform="matrix(0.998 -0.0637 0.0637 0.998 -43.7242 29.8514)" class="st71" width="0.34" height="8.62"/>
					</g>
				</g>
			</g>
			<g>
				<g>
					<g>
						<path class="st75" d="M467.4,659.3c0.27,0.15,0.38,0.5,0.24,0.79l-3.63,7.47c-0.14,0.29-0.47,0.4-0.75,0.26l0,0
							c-0.27-0.15-0.38-0.5-0.24-0.79l3.63-7.47C466.79,659.27,467.12,659.15,467.4,659.3L467.4,659.3z"/>
					</g>
				</g>
				<g>
					<g>
						<path class="st76" d="M462.42,675.92c0.07,0.04,0.1,0.13,0.06,0.21l-0.75,1.55c-0.04,0.08-0.13,0.11-0.2,0.07l-0.47-2.38
							c0.04-0.08,0.13-0.11,0.2-0.07L462.42,675.92z"/>
					</g>
				</g>
				<g>
					<g>
						<g>
							<path class="st76" d="M461.52,673.95c0.16-0.32,0.53-0.44,0.83-0.28l0.18,0.1c0.3,0.17,0.41,0.56,0.25,0.88l0,0
								c-0.16,0.32-0.53,0.44-0.83,0.28l-0.18-0.1C461.47,674.66,461.36,674.27,461.52,673.95L461.52,673.95z"/>
						</g>
					</g>
					<g>
						<g>
							<path class="st76" d="M462.75,672.42c0.08-0.16,0.27-0.22,0.42-0.14l0,0c0.15,0.08,0.21,0.28,0.13,0.44l-0.72,1.44
								c-0.08,0.16-0.27,0.22-0.42,0.14l0,0c-0.15-0.08-0.21-0.28-0.13-0.44L462.75,672.42z"/>
						</g>
					</g>
				</g>
				<g>
					<g>
						<path class="st76" d="M468.43,673.48c0.08,0.28-0.06,0.57-0.32,0.66l0,0c-0.26,0.09-0.54-0.06-0.63-0.34l-0.67-2.22
							c-0.08-0.28,0.06-0.57,0.32-0.66l0,0c0.26-0.09,0.54,0.06,0.63,0.34L468.43,673.48z"/>
					</g>
				</g>
				<g>
					<g>
						<g>
							<path class="st76" d="M470.29,671.97l-1.88,3.87c-0.25,0.52-0.85,0.73-1.34,0.47l-1.85-0.99c-0.49-0.26-0.68-0.9-0.43-1.41
								l1.88-3.87c0.25-0.52,0.85-0.73,1.34-0.47l1.85,0.99C470.35,670.82,470.54,671.46,470.29,671.97z M465.38,674.22
								c-0.08,0.17-0.02,0.38,0.14,0.47l1.85,0.99c0.16,0.09,0.36,0.02,0.45-0.15l1.88-3.87c0.08-0.17,0.02-0.38-0.14-0.47
								l-1.85-0.99c-0.16-0.09-0.36-0.02-0.45,0.16L465.38,674.22z"/>
						</g>
					</g>
				</g>
				<g>
					<g>
						<path class="st77" d="M501.54,591.05l0.79,0.42c0.01,0.01,0.03,0.01,0.03,0.03c0.03,0.01,0.05,0.04,0.07,0.07
							c0.19,0.3,0.07,1.08-0.31,1.87l-35.1,72.13c-0.44,0.91-1.07,1.51-1.39,1.33l-0.79-0.42c-0.32-0.17-0.23-1.06,0.21-1.96
							l35.49-72.93C500.97,590.68,501.21,590.88,501.54,591.05z"/>
					</g>
				</g>
				<g>
					<g>
						<path class="st78" d="M502.36,591.5c0.03,0.01,0.05,0.04,0.07,0.07c0.19,0.3,0.46,0.28,0.08,1.07l-34.45,70.8
							c-0.12,0.13-0.27,0.17-0.38,0.11c-0.16-0.09-0.2-0.34-0.09-0.58L502.36,591.5z"/>
					</g>
				</g>
				<g>
					<g>
						<path class="st79" d="M503.13,595.37c0.5,0.27,0.32,1.71-0.41,3.22l-34.07,71.38c-0.73,1.51-1.74,2.52-2.25,2.25l-2.29-1.22
							c-0.5-0.27-0.32-1.72,0.42-3.23l34.6-71.1c0.73-1.51,1.74-2.51,2.24-2.24L503.13,595.37z"/>
					</g>
				</g>
				<g>
					<g>
						<path class="st79" d="M462.31,677.37l2.56,1.37c0.32,0.17,0.45,0.6,0.29,0.94l-0.34,1.14l-9.36,26.95l-0.2,0.67
							c-0.17,0.35-0.57,0.48-0.9,0.31l-5.58-6.47c-0.33-0.18-0.45-0.6-0.29-0.94l0.33-0.6l12.6-23.06
							C461.59,677.33,461.98,677.2,462.31,677.37z"/>
					</g>
				</g>
				<g>
					<g>
						<path class="st78" d="M499.29,593.31c0.36,0.2,0.57,0.54,0.45,0.78l-0.69,1.42c-0.11,0.23-0.5,0.27-0.87,0.07l0,0
							c-0.36-0.19-0.57-0.54-0.45-0.78l0.69-1.42C498.54,593.15,498.93,593.12,499.29,593.31L499.29,593.31z"/>
					</g>
				</g>
				<g>
					<g>
						<path class="st80" d="M464.52,680.67l0.29,0.16l-9.35,26.95l-0.2,0.67c-0.17,0.35-0.57,0.48-0.9,0.31l-2.74-3.18l12-24.59
							C463.79,680.63,464.19,680.5,464.52,680.67z"/>
					</g>
				</g>
				<g>
					<g>
						<path class="st80" d="M464.53,667.74l2.64,2.23l0.78,0.66c0.23,0.2,0.3,0.54,0.16,0.82c-0.02,0.04-0.04,0.08-0.07,0.11
							c0,0.01-0.59,0.8-1.17,2c-0.63,1.3-1.34,3.25-1.11,5.14c0.19,1.57,1.03,2.91,2.55,4.08c0.16,0.13,0.26,0.33,0.25,0.55
							c0,0.1-0.03,0.2-0.07,0.29c-0.05,0.1-0.12,0.18-0.2,0.25l-0.53,0.38l-4.17,3.03c-0.22,0.16-0.51,0.16-0.73-0.01
							c-3.6-2.78-2.81-7.09-1.52-9.73c2.03-4.17,1.23-6.65,1.84-8.48c0.22-0.67,0.3-0.91,0.37-1.05c0.03-0.05,0.06-0.1,0.09-0.14
							C463.87,667.56,464.26,667.51,464.53,667.74z"/>
					</g>
				</g>
				<g>
					<g>
						<path class="st81" d="M464.53,667.74l2.64,2.23c-0.27,0.4-0.8,1.22-1.33,2.31c-0.82,1.68-1.73,4.2-1.43,6.64
							c0.25,2.03,1.33,3.75,3.29,5.27c0.02,0.02,0.04,0.03,0.06,0.05l-4.17,3.03c-0.22,0.16-0.51,0.16-0.73-0.01
							c-3.6-2.78-2.81-7.09-1.52-9.73c2.03-4.17,1.23-6.65,1.84-8.48c0.22-0.67,0.3-0.91,0.37-1.05c0.03-0.05,0.06-0.1,0.09-0.14
							C463.87,667.56,464.26,667.51,464.53,667.74z"/>
					</g>
				</g>
				<g>
					<g>
						<path class="st80" d="M467.77,667.76c0.15,0.08,0.21,0.27,0.13,0.43c-0.08,0.16-0.26,0.22-0.41,0.14
							c-0.15-0.08-0.21-0.27-0.13-0.43C467.44,667.75,467.62,667.68,467.77,667.76z"/>
					</g>
				</g>
			</g>
			<g>
				<g>
					<path class="st18" d="M490.4,813.97V615.75h10.15v198.22c0,0.8-0.65,1.44-1.44,1.44h-7.27
						C491.05,815.41,490.4,814.77,490.4,813.97z"/>
				</g>
				<g>
					<path class="st83" d="M492.6,615.75c0,0,1.58,72.92,1.39,96.66c-0.19,23.74-0.71,54.27-0.45,78.01c0,0,1.37-64.89,1.11-87.34
						C494.38,680.64,494.72,628.72,492.6,615.75L492.6,615.75z"/>
				</g>
				<g>
					<path class="st83" d="M496.97,623.07c0,0,1.83,28.62,1.54,39.15c-0.29,10.53-0.73,14.46-0.88,28.21c0,0-0.55-16.17-0.27-25.36
						C498.06,641.81,496.97,623.07,496.97,623.07z"/>
				</g>
				<g>
					<path class="st83" d="M496.89,815.41c0,0,1.08-28.76,0.7-35.54c-0.38-6.78-1.58-15.67-1.21-20.42c0,0,1.59,10.78,1.85,17.4
						C498.53,784.73,498.62,803.24,496.89,815.41z"/>
				</g>
				<g>
					<path class="st8" d="M486.13,812.31c0.11-0.84-0.07-1.69-0.14-2.54c-0.07-0.85-0.01-1.8,0.45-2.39
						c0.22-0.29,0.56-0.46,0.85-0.3c0.28,0.16,0.42,0.58,0.53,0.95c0.25,0.88,0.5,1.77,0.75,2.65c0.42-0.29,0.33-1.12,0.6-1.63
						c0.36-0.68,1.25-0.46,1.64,0.21c0.39,0.67,0.42,1.56,0.44,2.4c0.44-0.96,1.16-1.7,1.98-2.05c0.64-0.19,0.99,2.43,0.83,3.76
						c0.17-0.86,1.17-1.01,1.69-0.41c0.52,0.6,0.64,1.58,0.63,2.47c0,0.18-0.01,0.38-0.11,0.51c-0.11,0.15-0.29,0.15-0.45,0.15
						c-3.12-0.06-7.09,0.74-10.13-0.2c-1.03-0.32-2.13-0.99-1.86-2.67C484.16,811.32,486.23,811.99,486.13,812.31z"/>
				</g>
				<g>
					<path class="st6" d="M494.22,812.62c0.49-0.46,1.17-0.29,1.59,0.4c-0.06-0.92,0.56-1.6,1.11-1.43
						c0.55,0.17,0.98,0.93,1.28,1.72c0.1,0.26,0.21,0.56,0.38,0.67c0.16,0.1,0.34,0,0.48-0.12c0.8-0.67,1.55-2.24,2.4-1.57
						c0.48,0.38,0.75,1.39,1.26,1.57c0.28,0.1,0.56-0.1,0.83-0.24c0.48-0.25,1.02-0.33,1.51-0.03c0.49,0.31,0.9,1.07,0.94,1.93
						c0,0.69-1.6,0.79-2.46,0.82c-2.62,0.09-5.24,0.1-7.87,0.04C494.5,816.35,492.35,814.4,494.22,812.62z"/>
				</g>
				<g>
					<path class="st18" d="M478.43,615.75h34.11c0.91,0,1.65,0.74,1.65,1.65v8.34c0,0.91-0.74,1.65-1.65,1.65h-34.11
						c-0.91,0-1.65-0.74-1.65-1.65v-8.34C476.77,616.49,477.51,615.75,478.43,615.75z"/>
				</g>
				<g>
					<path class="st83" d="M514.19,618.27c0,0-13.67,1.81-18.12,1.59c-4.45-0.22-10.17-0.81-14.62-0.52c0,0,12.16,1.57,16.37,1.27
						S511.76,620.7,514.19,618.27L514.19,618.27z"/>
				</g>
				<g>
					<path class="st83" d="M512.82,623.28c0,0-5.36,2.1-7.34,1.77c-1.97-0.34-2.71-0.84-5.29-1.01c0,0,3.03-0.63,4.75-0.31
						C509.3,624.53,512.82,623.28,512.82,623.28z"/>
				</g>
				<g>
					<path class="st83" d="M476.77,623.19c0,0,5.39,1.24,6.66,0.8c1.27-0.43,2.94-1.82,3.83-1.38c0,0-2.02,1.83-3.26,2.12
						C482.52,625.07,479.05,625.17,476.77,623.19z"/>
				</g>
			</g>
		</g>
		<g>
			<g>
				<g>
					<g id="Head_98_" transform="translate(54.000000, 31.000000)">
						<g>
							<g>
								<path class="st13" d="M560.91,656.9c1.58-1.85,2.65-4.12,2.47-6.67c-0.51-7.33-10.72-5.72-12.71-2.02
									c-1.99,3.7-1.75,13.09,0.82,13.75c1.02,0.26,3.2-0.38,5.42-1.72l-1.39,9.85h8.22L560.91,656.9z"/>
							</g>
						</g>
					</g>
					<g id="Hair_34_">
						<g>
							<path class="st72" d="M610.5,682.04c-0.04,5.01-2.97,10.01-2.94,8.66c0.03-1.24-3.3-3.37-4.19-3.37
								c-0.65,0-0.5,0.81-0.07,1.41c0.35,0.5,2.08,0.97,2.08,1.74s4.83,0.66,5.48-1.3c0.42-1.27,0.69-2.24,0.82-6.23
								c0.08-0.01,0.16-0.01,0.25-0.01c1.14,0,2.06,0.92,2.06,2.06c0,0.58-0.24,1.1-0.62,1.47c0.48,0.67,1.01,1.37,1.62,2.1
								c2.29-1.38,4-5.41,1.75-9.28c-0.62-1.9-2.02-2.91-3.68-3.38c-1.34-0.56-2.74-0.63-3.91-0.29c-2.31,0.2-4.37,0.9-4.95,1.32
								c0,2.18,0.42,2.83,4.04,2.77C609.11,680.17,609.79,680.98,610.5,682.04z"/>
						</g>
					</g>
				</g>
				<g>
					<g id="Leg_65_">
						<g>
							<polygon class="st54" points="616.81,733.82 599.99,776.38 588.71,812.36 584.26,812.36 601.5,733.82 							"/>
						</g>
					</g>
					<g>
						<g>
							<path class="st15" d="M620.19,733.82c0.18,14.96,2.79,35.09,3.21,36.02c0.28,0.62,9.88,8.52,28.8,23.71l-3.07,3.28
								c-22.33-13.02-34.01-20.4-35.04-22.13c-1.55-2.6-6.6-26.57-10.65-40.88H620.19z"/>
						</g>
					</g>
					
						<g transform="translate(51.500000, 189.000000) rotate(50.000000) translate(-51.500000, -189.000000) translate(21.000000, 169.000000)">
						<g id="shoe_58_">
							<g>
								<path class="st54" d="M879.16-52.58c0.94-0.56,1.66-0.88,2.16-0.96c0.61-0.11,1.51-0.16,2.72-0.17
									c0.12,0.71,1.24,7.05,3.36,19.03c-1.55,0.78-2.48,0.65-2.8-0.39c-0.32-1.04-0.59-1.91-0.82-2.59l-5.5-8.15
									c-0.11-0.16-0.06-0.37,0.09-0.48c0,0,0.01,0,0.01-0.01l1.28-0.81c0.29-1.07,0.38-1.91,0.27-2.53
									c-0.09-0.5-0.41-1.16-0.97-1.97v0c-0.22-0.31-0.14-0.74,0.17-0.95C879.14-52.57,879.15-52.57,879.16-52.58z"/>
							</g>
						</g>
					</g>
					<g transform="translate(208.000000, 199.000000)">
						<g>
							<g>
								<path class="st54" d="M382.54,611.7c0.38,1.02,0.57,1.79,0.57,2.3c0,0.62-0.1,1.52-0.31,2.7c-0.72,0-7.16,0-19.32,0
									c-0.5-1.66-0.21-2.56,0.87-2.69c1.08-0.13,1.98-0.25,2.7-0.36l8.98-4c0.17-0.08,0.38,0,0.45,0.17c0,0,0,0.01,0,0.01
									l0.58,1.4c1,0.47,1.82,0.7,2.44,0.7c0.51,0,1.21-0.21,2.11-0.62l0,0c0.34-0.16,0.75-0.01,0.91,0.34
									C382.52,611.67,382.53,611.68,382.54,611.7z"/>
							</g>
						</g>
					</g>
				</g>
				<g>
					<g id="Skin_65_">
						<g>
							<path class="st73" d="M593.55,732.34l-10.82,4.49c-3.06,3.6-4.77,5.09-5.13,4.5c-0.54-0.9,0.64-1.69,0.37-2.36
								s-2.32-0.59-4.27-0.44c-1.95,0.15-1.38-0.72-0.91-1.15c1.99-1.19,4.46-2.19,7.43-2.99l10.93-8.02L593.55,732.34z
								 M637.11,749.27c-0.21,1.09,0.85,5.7,1.81,8.6c0.39,1.16-0.49,1.62-0.93,1.57c-3.63-0.36-3.89-3.4-5.27-6.02
								c-1.52-2.88-3.66,0.36-4.89-1.89c1.54-0.85,4.69-2.21,5.25-4.25c-1.13-9.76,0,0-3.98-22.41l5.71,4.31
								C637.11,749.27,634.81,729.17,637.11,749.27z"/>
						</g>
					</g>
					<g id="Coat-Back_60_">
						<g>
							<path class="st54" d="M612.75,696.6l-2.96-0.51c-10.99,9.49-15.51,27.74-28.98,37.4l3.24,4.02
								C607.42,734.62,613.22,712.37,612.75,696.6z"/>
						</g>
					</g>
					<g id="Shirt_60_">
						<g>
							<path class="st15" d="M620.28,741.02c-11.88,0-15.23,0-20.83,0c-1.2,0-0.97-1.73-0.8-2.6c2-10.07,3.15-25.81,9.8-42.46
								l7.56-1.19C622.27,704.83,619.05,724.41,620.28,741.02z"/>
						</g>
					</g>
					<g>
						<g>
							<path class="st15" d="M613.51,694.96l2.37-0.14c0.21-0.03,0.45-0.05,0.7-0.05c4.71,0,9.97,9.57,8.87,9.89
								c8.66,11.93,12.73,26.45,12.2,43.56h-5.62c-1.12-1.95-2.29-4.34-3.51-7.19c-1.43-3.32-2.92-7.26-4.49-11.82
								c-0.65,5.43-1.7,9.37-3.16,11.82h-12.97C604.85,733.33,606.72,717.97,613.51,694.96z"/>
						</g>
					</g>
				</g>
				<g>
					<g>
						<path class="st68" d="M611.42,695.33l9.43-1.22c0,0,3.24,6.9,1.14,8.79c-2.1,1.89-9.83,2.13-11.07,0.73
							c-0.43-0.49-0.45-2.22-0.36-3.52l-2.35,0.55c0.07-0.72,0.25-4.7,0.25-4.7L611.42,695.33z"/>
					</g>
				</g>
				<g>
					<g>
						<path class="st5" d="M620.64,694.48c0.25,0.57,0.92,2.15,1.34,3.8l-11.03,1.43c0.21-1.71,0.61-3.46,0.75-4.07L620.64,694.48
							 M620.84,694.11l-9.43,1.22c0,0-0.63,2.49-0.86,4.78l11.84-1.54C621.88,696.31,620.84,694.11,620.84,694.11L620.84,694.11z"/>
					</g>
				</g>
				<g>
					<g>
						
							<rect x="620.12" y="693.92" transform="matrix(0.7402 -0.6723 0.6723 0.7402 -307.1699 597.9615)" class="st5" width="0.34" height="5.18"/>
					</g>
				</g>
				<g>
					<g>
						
							<rect x="617.03" y="696.43" transform="matrix(0.4615 -0.8871 0.8871 0.4615 -284.3162 924.8264)" class="st5" width="5.18" height="0.34"/>
					</g>
				</g>
				<g>
					<g>
						
							<rect x="616.6" y="694.38" transform="matrix(0.7402 -0.6723 0.6723 0.7402 -308.3903 595.7161)" class="st5" width="0.34" height="5.18"/>
					</g>
				</g>
				<g>
					<g>
						
							<rect x="613.51" y="696.89" transform="matrix(0.4615 -0.8871 0.8871 0.4615 -286.6215 921.9259)" class="st5" width="5.18" height="0.34"/>
					</g>
				</g>
				<g>
					<g>
						
							<rect x="613.11" y="694.83" transform="matrix(0.7402 -0.6723 0.6723 0.7402 -309.6013 593.4875)" class="st5" width="0.34" height="5.18"/>
					</g>
				</g>
				<g>
					<g>
						
							<rect x="610.02" y="697.34" transform="matrix(0.4615 -0.8871 0.8871 0.4615 -288.9029 919.0741)" class="st5" width="5.18" height="0.34"/>
					</g>
				</g>
				<g>
					<g>
						<circle class="st71" cx="608.86" cy="702.71" r="0.79"/>
					</g>
				</g>
				<g>
					<g>
						<circle class="st71" cx="608.07" cy="707.02" r="0.79"/>
					</g>
				</g>
				<g>
					<g>
						<circle class="st71" cx="606.99" cy="711.33" r="0.79"/>
					</g>
				</g>
				<g>
					<g>
						<circle class="st71" cx="606.2" cy="715.64" r="0.79"/>
					</g>
				</g>
				<g>
					<g>
						<circle class="st71" cx="605.41" cy="719.94" r="0.79"/>
					</g>
				</g>
				<g>
					<g>
						<circle class="st71" cx="604.32" cy="724.25" r="0.79"/>
					</g>
				</g>
				<g>
					<g>
						<circle class="st71" cx="603.53" cy="728.56" r="0.79"/>
					</g>
				</g>
				<g>
					<g>
						<circle class="st71" cx="602.6" cy="732.87" r="0.79"/>
					</g>
				</g>
				<g>
					<g>
						<circle class="st71" cx="601.81" cy="737.18" r="0.79"/>
					</g>
				</g>
				<g>
					<g>
						<path class="st64" d="M606.18,740.82c0.03,0,0.04,0,0.05-0.01l-0.04-0.17l-0.02-0.17c0,0-0.06-0.01-0.14-0.12
							c-0.56-0.76-1.84-5.66,5.04-36.69l-0.33-0.07c-6.87,31-5.71,36.25-4.89,37.07C605.99,740.8,606.11,740.82,606.18,740.82z"/>
					</g>
				</g>
				<g>
					<g>
						<polygon class="st64" points="650.74,795.07 650.94,794.79 619.77,772.99 613.45,740.99 613.12,741.06 619.46,773.19 
							619.52,773.23 						"/>
					</g>
				</g>
				<g>
					<g>
						<path class="st64" d="M586.59,810.8c9.96-37.67,19.95-65.07,20.05-65.35l-0.32-0.12c-0.1,0.27-10.09,27.7-20.06,65.38
							L586.59,810.8z"/>
					</g>
				</g>
				<g>
					<g>
						<path class="st64" d="M599.3,741.1l0.31-0.15c-0.06-0.14-1.3-3.89,8.76-40.25l-0.33-0.09
							C597.81,737.56,599.23,740.97,599.3,741.1z"/>
					</g>
				</g>
				<g>
					<g>
						<g>
							<path class="st15" d="M617.56,681.23c0,0-5.55,0.5-9.36-0.63c-7.82,2.03-7.32,1.11-7.32,1.11s1.6-2.66,3.42-3.18
								c0.34-0.1-1.24-10.56-1.96-11.6c-0.72-1.04,0.14-2.95,1.47-3.16c1.33-0.21,12.84-0.16,12.84-0.16s3.45-0.14,2.69,2.63
								C618.57,669,617.5,677.85,617.56,681.23z"/>
						</g>
					</g>
					<g>
						<g>
							<circle class="st68" cx="603.3" cy="664.57" r="1.93"/>
						</g>
					</g>
					<g>
						<g>
							<path class="st5" d="M612.44,680.46l0.16-0.3c-0.07-0.03-6.64-3.6-9.12-13.7l-0.33,0.08
								C605.67,676.8,612.38,680.43,612.44,680.46z"/>
						</g>
					</g>
					<g>
						<g>
							<circle class="st69" cx="612.42" cy="680.31" r="0.71"/>
						</g>
					</g>
					<g>
						<g>
							<path class="st70" d="M604.29,678.52c0,0,2.85,0.58,3.34,1.14c0.49,0.56-0.71-2.33-1.33-2.59c-0.62-0.27,0.09-0.65,0.09-0.65
								s0.71-0.73-1.33-2.14c-0.84-0.58-1.59-2.6-1.59-2.6S604.48,677.2,604.29,678.52z"/>
						</g>
					</g>
				</g>
				<g>
					<g>
						<path class="st73" d="M578.08,739.07l1.15,0.06v1.45c-0.9,0.8-2,1.47-2.18,1.17C576.54,740.92,578.13,739.7,578.08,739.07z"/>
					</g>
				</g>
			</g>
			<g>
				<path class="st68" d="M637.65,748.22h-5.62c0,0-2.15-3.71-2.12-4.22c0.03-0.51,7.43-0.9,7.74-0.81
					C637.97,743.28,637.65,748.22,637.65,748.22z"/>
			</g>
			<g>
				<path class="st5" d="M632.47,747.5c-0.45-0.77-1.49-2.61-1.47-2.97c0-0.05,0.02-0.12,0.11-0.18c0.51-0.36,5.16-0.59,5.38-0.53
					c0.15,0.04,0.35,0.1,0.12,3.6l-0.01,0.16h-4.09L632.47,747.5z M636.33,744.15c-0.66-0.03-4.42,0.21-4.98,0.45
					c0.09,0.33,0.73,1.54,1.36,2.64h3.57C636.36,745.91,636.4,744.49,636.33,744.15z"/>
			</g>
			<g>
				<path class="st68" d="M580.81,733.49l3.24,4.02c0,0,4.27-0.1,5-0.98c0.73-0.88-4.26-5.89-4.74-5.91
					C583.82,730.61,580.81,733.49,580.81,733.49z"/>
			</g>
			<g>
				<path class="st5" d="M582.15,733.7l0.11-0.11c0.88-0.84,1.99-1.83,2.3-1.83c0.39,0.02,2.63,2.35,3.06,3.31
					c0.05,0.11,0.19,0.43,0.02,0.64c-0.49,0.59-2.96,0.66-3.23,0.67l-0.08,0L582.15,733.7z M582.61,733.72l1.86,2.31
					c1-0.03,2.61-0.2,2.89-0.54c0,0,0.02-0.03-0.01-0.13c-0.23-0.85-2.42-3.06-2.82-3.26C584.31,732.19,583.4,732.98,582.61,733.72z
					"/>
			</g>
		</g>
		<g>
			<rect x="876.29" y="719.84" class="st5" width="7.83" height="38.83"/>
			
				<rect x="923.28" y="719.84" transform="matrix(-1 -1.224647e-16 1.224647e-16 -1 1919.9152 1478.512)" class="st31" width="73.36" height="38.83"/>
			<path class="st31" d="M974.18,688.09h-78.31c0,0,0,2.36,5.07,31.83h100.65C988.76,712.83,974.18,688.09,974.18,688.09z"/>
			<path class="st5" d="M895.87,688.09c0,0-11.67,23.42-27.41,31.83h54.82C910.45,712.83,895.87,688.09,895.87,688.09z"/>
			<rect x="891.95" y="719.84" class="st5" width="7.83" height="38.83"/>
			<rect x="907.62" y="719.84" class="st5" width="7.83" height="38.83"/>
			<rect x="915.45" y="719.84" class="st32" width="7.83" height="38.83"/>
			<rect x="868.46" y="719.84" class="st32" width="7.83" height="38.83"/>
			<rect x="946.77" y="719.84" class="st33" width="7.83" height="38.83"/>
			<rect x="962.43" y="719.84" class="st33" width="7.83" height="38.83"/>
			<rect x="978.1" y="719.84" class="st33" width="7.83" height="38.83"/>
			<rect x="931.11" y="719.84" class="st33" width="7.83" height="38.83"/>
			<rect x="993.76" y="719.84" class="st33" width="7.83" height="38.83"/>
			<g>
				<defs>
					<path id="SVGID_94_" d="M895.87,688.09c0,0-11.67,23.42-27.41,31.83h54.82C910.45,712.83,895.87,688.09,895.87,688.09z"/>
				</defs>
				<clipPath id="SVGID_5_">
					<use xlink:href="#SVGID_94_"  style="overflow:visible;"/>
				</clipPath>
				<rect x="884.12" y="681.09" style="clip-path:url(#SVGID_5_);fill:#D21226;" width="7.83" height="38.83"/>
				<rect x="899.78" y="681.09" style="clip-path:url(#SVGID_5_);fill:#D21226;" width="7.83" height="38.83"/>
				<rect x="915.45" y="681.09" style="clip-path:url(#SVGID_5_);fill:#D21226;" width="7.83" height="38.83"/>
				<rect x="868.46" y="681.09" style="clip-path:url(#SVGID_5_);fill:#D21226;" width="7.83" height="38.83"/>
			</g>
			<path class="st33" d="M974.18,688.09h-7.83c0,0,14.58,24.73,27.41,31.83h7.83C988.76,712.83,974.18,688.09,974.18,688.09z"/>
			<path class="st33" d="M958.52,688.09h-7.83c0,0,14.58,24.73,27.41,31.83h7.83C973.1,712.83,958.52,688.09,958.52,688.09z"/>
			<path class="st33" d="M942.86,688.09h-7.83c0,0,14.58,24.73,27.41,31.83h7.83C957.44,712.83,942.86,688.09,942.86,688.09z"/>
			<path class="st33" d="M927.19,688.09h-7.83c0,0,14.58,24.73,27.41,31.83h7.83C941.78,712.83,927.19,688.09,927.19,688.09z"/>
			<path class="st33" d="M911.53,688.09h-7.83c0,0,14.58,24.73,27.41,31.83h7.83C926.11,712.83,911.53,688.09,911.53,688.09z"/>
			<linearGradient id="SVGID_6_" gradientUnits="userSpaceOnUse" x1="884.1216" y1="739.256" x2="907.6155" y2="739.256">
				<stop  offset="0" style="stop-color:#E95019"/>
				<stop  offset="0.0189" style="stop-color:#EC6219"/>
				<stop  offset="0.0525" style="stop-color:#EF7A19"/>
				<stop  offset="0.0912" style="stop-color:#F28C19"/>
				<stop  offset="0.1364" style="stop-color:#F59A19"/>
				<stop  offset="0.1923" style="stop-color:#F7A418"/>
				<stop  offset="0.2707" style="stop-color:#F8A918"/>
				<stop  offset="0.4884" style="stop-color:#F8AB18"/>
				<stop  offset="0.6628" style="stop-color:#F8C400"/>
				<stop  offset="0.8861" style="stop-color:#F8DE00"/>
				<stop  offset="1" style="stop-color:#F7E700"/>
			</linearGradient>
			<rect x="884.12" y="719.84" class="st28" width="23.49" height="38.83"/>
			<path class="st32" d="M895.87,719.84h11.75l3.4,35.44c-1.59-0.55-3.4,3.38-3.4,3.38C907.93,734.11,895.87,719.84,895.87,719.84z"
				/>
			<path class="st32" d="M895.87,719.84h-11.75l-3.4,35.44c1.59-0.55,3.4,3.38,3.4,3.38C883.81,734.11,895.87,719.84,895.87,719.84z
				"/>
		</g>
		<g>
			<rect x="876.29" y="719.84" class="st5" width="7.83" height="38.83"/>
			
				<rect x="923.28" y="719.84" transform="matrix(-1 -1.224647e-16 1.224647e-16 -1 1919.9152 1478.512)" class="st31" width="73.36" height="38.83"/>
			<path class="st31" d="M974.18,688.09h-78.31c0,0,0,2.36,5.07,31.83h100.65C988.76,712.83,974.18,688.09,974.18,688.09z"/>
			<path class="st5" d="M895.87,688.09c0,0-11.67,23.42-27.41,31.83h54.82C910.45,712.83,895.87,688.09,895.87,688.09z"/>
			<rect x="891.95" y="719.84" class="st5" width="7.83" height="38.83"/>
			<rect x="907.62" y="719.84" class="st5" width="7.83" height="38.83"/>
			<rect x="915.45" y="719.84" class="st32" width="7.83" height="38.83"/>
			<rect x="868.46" y="719.84" class="st32" width="7.83" height="38.83"/>
			<rect x="946.77" y="719.84" class="st33" width="7.83" height="38.83"/>
			<rect x="962.43" y="719.84" class="st33" width="7.83" height="38.83"/>
			<rect x="978.1" y="719.84" class="st33" width="7.83" height="38.83"/>
			<rect x="931.11" y="719.84" class="st33" width="7.83" height="38.83"/>
			<rect x="993.76" y="719.84" class="st33" width="7.83" height="38.83"/>
			<g>
				<defs>
					<path id="SVGID_97_" d="M895.87,688.09c0,0-11.67,23.42-27.41,31.83h54.82C910.45,712.83,895.87,688.09,895.87,688.09z"/>
				</defs>
				<clipPath id="SVGID_8_">
					<use xlink:href="#SVGID_97_"  style="overflow:visible;"/>
				</clipPath>
				<rect x="884.12" y="681.09" style="clip-path:url(#SVGID_8_);fill:#D21226;" width="7.83" height="38.83"/>
				<rect x="899.78" y="681.09" style="clip-path:url(#SVGID_8_);fill:#D21226;" width="7.83" height="38.83"/>
				<rect x="915.45" y="681.09" style="clip-path:url(#SVGID_8_);fill:#D21226;" width="7.83" height="38.83"/>
				<rect x="868.46" y="681.09" style="clip-path:url(#SVGID_8_);fill:#D21226;" width="7.83" height="38.83"/>
			</g>
			<path class="st33" d="M974.18,688.09h-7.83c0,0,14.58,24.73,27.41,31.83h7.83C988.76,712.83,974.18,688.09,974.18,688.09z"/>
			<path class="st33" d="M958.52,688.09h-7.83c0,0,14.58,24.73,27.41,31.83h7.83C973.1,712.83,958.52,688.09,958.52,688.09z"/>
			<path class="st33" d="M942.86,688.09h-7.83c0,0,14.58,24.73,27.41,31.83h7.83C957.44,712.83,942.86,688.09,942.86,688.09z"/>
			<path class="st33" d="M927.19,688.09h-7.83c0,0,14.58,24.73,27.41,31.83h7.83C941.78,712.83,927.19,688.09,927.19,688.09z"/>
			<path class="st33" d="M911.53,688.09h-7.83c0,0,14.58,24.73,27.41,31.83h7.83C926.11,712.83,911.53,688.09,911.53,688.09z"/>
			<rect x="884.12" y="719.84" class="st32" width="7.83" height="38.83"/>
			<rect x="899.78" y="719.84" class="st32" width="7.83" height="38.83"/>
		</g>
		<g>
			<g>
				<g id="Leg_64_">
					<g>
						<polygon class="st54" points="902.22,734.32 885.29,777.16 873.94,813.38 869.46,813.38 886.81,734.32 						"/>
					</g>
				</g>
				<g>
					<g>
						<path class="st15" d="M905.63,734.32c0.18,15.05,2.81,35.32,3.23,36.26c0.28,0.63,9.95,8.58,29,23.87l-3.09,3.3
							c-22.48-13.11-34.24-20.53-35.28-22.28c-1.56-2.62-6.64-26.75-10.72-41.15H905.63z"/>
					</g>
				</g>
				
					<g transform="translate(51.500000, 189.000000) rotate(50.000000) translate(-51.500000, -189.000000) translate(21.000000, 169.000000)">
					<g id="shoe_57_">
						<g>
							<path class="st54" d="M1063.46-270.83c0.95-0.56,1.67-0.88,2.18-0.97c0.61-0.11,1.52-0.16,2.74-0.17
								c0.13,0.71,1.25,7.1,3.38,19.16c-1.56,0.79-2.5,0.66-2.82-0.39c-0.32-1.05-0.6-1.92-0.83-2.61l-5.54-8.2
								c-0.11-0.16-0.06-0.37,0.09-0.48c0,0,0.01,0,0.01-0.01l1.29-0.82c0.29-1.07,0.38-1.92,0.27-2.54
								c-0.09-0.5-0.42-1.16-0.98-1.98l0,0c-0.22-0.31-0.14-0.74,0.18-0.96C1063.43-270.81,1063.45-270.82,1063.46-270.83z"/>
						</g>
					</g>
				</g>
				<g transform="translate(208.000000, 199.000000)">
					<g>
						<g>
							<path class="st54" d="M667.77,612.71c0.39,1.03,0.58,1.8,0.58,2.31c0,0.62-0.1,1.53-0.31,2.72c-0.72,0-7.21,0-19.45,0
								c-0.51-1.67-0.21-2.57,0.88-2.71c1.09-0.13,1.99-0.25,2.71-0.36l9.04-4.03c0.17-0.08,0.38,0,0.46,0.17c0,0,0,0.01,0,0.01
								l0.58,1.41c1.01,0.47,1.83,0.71,2.46,0.71c0.51,0,1.22-0.21,2.12-0.62l0,0c0.35-0.16,0.76-0.01,0.91,0.34
								C667.76,612.68,667.77,612.7,667.77,612.71z"/>
						</g>
					</g>
				</g>
			</g>
			<g>
				<g>
					<g>
						<path class="st73" d="M876.76,725.81l-10.67,5.02c-2.91,3.76-4.56,5.34-4.95,4.76c-0.59-0.88,0.56-1.73,0.26-2.39
							c-0.3-0.66-0.77,2.8-2.72,3.04c-1.95,0.24,1.08-4.77,1.53-5.23c0,0,1.5-1.82,3.24-2.52l11.11-7.51L876.76,725.81z"/>
					</g>
				</g>
				<g>
					<g>
						<path class="st73" d="M920.34,729.64l-5.75-4.34c4.01,22.56,2.87,12.73,4.01,22.56c-0.56,2.06-3.73,3.43-5.28,4.28
							c1.23,2.26,3.4-0.99,4.92,1.9c1.39,2.64,1.65,5.71,5.31,6.06c0.45,0.04,1.33-0.41,0.94-1.58c-0.97-2.92-2.03-7.56-1.82-8.66
							C920.34,729.64,922.66,749.87,920.34,729.64z"/>
					</g>
				</g>
				<g id="Coat-Back_59_">
					<g>
						<path class="st54" d="M901.78,696.65l-2.84-1.03c-12.59,7.44-20.33,24.7-35.4,31.86l2.49,4.56
							C889.7,733.35,899.42,712.35,901.78,696.65z"/>
					</g>
				</g>
				<g>
					<g>
						<g>
							<path class="st68" d="M866.03,732.04l-2.49-4.56l4.04-2.25c0,0,2.7,5.08,2.38,6.88
								C869.96,732.09,866.67,732.25,866.03,732.04z"/>
						</g>
					</g>
					<g>
						<g>
							<path class="st5" d="M866.26,730.88l-0.06-0.02l-1.63-2.98l2.75-1.54l0.08,0.16c0.07,0.13,1.66,3.15,1.46,4.28l-0.02,0.14
								l-0.14,0.01c-0.12,0.01-0.73,0.03-1.33,0.03C866.9,730.96,866.44,730.94,866.26,730.88z M867.19,726.82l-2.15,1.2l1.39,2.55
								c0.34,0.06,1.39,0.05,2.11,0.02C868.57,729.7,867.65,727.72,867.19,726.82z"/>
						</g>
					</g>
				</g>
				<g id="Shirt_59_">
					<g>
						<path class="st15" d="M905.72,741.57c-11.96,0-15.33,0-20.97,0c-1.21,0-0.98-1.74-0.8-2.62c2.01-10.14,3.18-25.98,9.86-42.74
							l7.61-1.19C907.72,705.14,904.47,724.85,905.72,741.57z"/>
					</g>
				</g>
				<g>
					<g>
						<path class="st15" d="M898.9,695.2l2.38-0.14c0.21-0.03,0.45-0.05,0.71-0.05c4.74,0,10.04,9.63,8.93,9.95
							c8.72,12.01,12.81,26.63,12.28,43.85h-5.66c-1.12-1.96-2.3-4.37-3.53-7.24c-1.44-3.35-2.94-7.31-4.52-11.9
							c-0.65,5.46-1.71,9.43-3.18,11.9h-13.06C890.18,733.83,892.07,718.37,898.9,695.2z"/>
					</g>
				</g>
			</g>
			<g>
				<g id="Head_97_" transform="translate(54.000000, 31.000000)">
					<g>
						<g>
							<path class="st13" d="M846.31,657.09c1.59-1.87,2.66-4.15,2.48-6.71c-0.52-7.38-10.79-5.76-12.79-2.03
								c-2,3.72-1.76,13.17,0.82,13.84c1.03,0.27,3.22-0.38,5.46-1.73l-1.4,7.7h8.28L846.31,657.09z"/>
						</g>
					</g>
				</g>
				<g id="Hair_33_">
					<g>
						<path class="st14" d="M895.87,682.2c-0.32,4.41-1.15,6.62-2.51,6.62c-2.04,0-3.77-1.29-4.66-1.29c-0.65,0-0.51,0.82-0.07,1.42
							c0.36,0.5,2.09,0.98,2.09,1.75c0,0.77-1.37,0.18-1.37,0.63c0,0.76-0.24,2.19,1.08,2.19c1.33,0,5.16-0.49,5.81-2.47
							c0.42-1.28,0.7-3.92,0.82-7.94c0.08-0.01,0.16-0.01,0.25-0.01c1.14,0,2.07,0.93,2.07,2.07c0,0.58-0.24,1.1-0.62,1.48
							c0.48,0.68,1.02,1.38,1.63,2.11c2.31-1.39,4.02-5.44,1.77-9.34c-0.62-1.91-2.04-2.93-3.71-3.4c-1.35-0.57-2.76-0.63-3.94-0.29
							c-2.32,0.2-4.4,0.91-4.98,1.33c0,2.2,0.43,2.85,4.06,2.79C894.47,680.32,895.16,681.13,895.87,682.2z"/>
					</g>
				</g>
			</g>
			<g>
				<g>
					<path class="st68" d="M896.8,695.58l9.49-1.23c0,0,3.26,6.95,1.15,8.85c-2.11,1.91-9.89,2.14-11.14,0.73
						c-0.44-0.49-0.46-2.24-0.36-3.55l-2.37,0.55c0.07-0.72,0.25-4.73,0.25-4.73L896.8,695.58z"/>
				</g>
			</g>
			<g>
				<g>
					<path class="st5" d="M906.08,694.72c0.25,0.58,0.92,2.16,1.35,3.82l-11.1,1.44c0.21-1.73,0.61-3.48,0.76-4.1L906.08,694.72
						 M906.28,694.34l-9.49,1.23c0,0-0.63,2.5-0.87,4.81l11.92-1.55C907.33,696.56,906.28,694.34,906.28,694.34L906.28,694.34z"/>
				</g>
			</g>
			<g>
				<g>
					
						<rect x="905.55" y="694.16" transform="matrix(0.7402 -0.6723 0.6723 0.7402 -233.1974 789.9352)" class="st5" width="0.34" height="5.22"/>
				</g>
			</g>
			<g>
				<g>
					
						<rect x="902.44" y="696.68" transform="matrix(0.4615 -0.8871 0.8871 0.4615 -130.8454 1178.1523)" class="st5" width="5.22" height="0.34"/>
				</g>
			</g>
			<g>
				<g>
					
						<rect x="902.01" y="694.62" transform="matrix(0.7402 -0.6723 0.6723 0.7402 -234.4258 787.6748)" class="st5" width="0.34" height="5.22"/>
				</g>
			</g>
			<g>
				<g>
					
						<rect x="898.9" y="697.14" transform="matrix(0.4615 -0.8871 0.8871 0.4615 -133.1593 1175.2598)" class="st5" width="5.22" height="0.34"/>
				</g>
			</g>
			<g>
				<g>
					
						<rect x="898.5" y="695.08" transform="matrix(0.7402 -0.6723 0.6723 0.7402 -235.6451 785.4315)" class="st5" width="0.34" height="5.22"/>
				</g>
			</g>
			<g>
				<g>
					
						<rect x="895.39" y="697.6" transform="matrix(0.4615 -0.8871 0.8871 0.4615 -135.4555 1172.3888)" class="st5" width="5.22" height="0.34"/>
				</g>
			</g>
			<g>
				<g>
					<circle class="st71" cx="894.22" cy="703.01" r="0.8"/>
				</g>
			</g>
			<g>
				<g>
					<circle class="st71" cx="893.43" cy="707.34" r="0.8"/>
				</g>
			</g>
			<g>
				<g>
					<circle class="st71" cx="892.34" cy="711.68" r="0.8"/>
				</g>
			</g>
			<g>
				<g>
					<circle class="st71" cx="891.54" cy="716.02" r="0.8"/>
				</g>
			</g>
			<g>
				<g>
					<circle class="st71" cx="890.75" cy="720.35" r="0.8"/>
				</g>
			</g>
			<g>
				<g>
					<circle class="st71" cx="889.66" cy="724.69" r="0.8"/>
				</g>
			</g>
			<g>
				<g>
					<circle class="st71" cx="888.86" cy="729.03" r="0.8"/>
				</g>
			</g>
			<g>
				<g>
					<circle class="st71" cx="887.92" cy="733.36" r="0.8"/>
				</g>
			</g>
			<g>
				<g>
					<circle class="st71" cx="887.12" cy="737.7" r="0.8"/>
				</g>
			</g>
			<g>
				<g>
					<path class="st64" d="M891.52,741.37c0.03,0,0.04,0,0.05-0.01l-0.04-0.17l-0.02-0.17c0,0-0.06-0.01-0.14-0.12
						c-0.56-0.77-1.85-5.69,5.07-36.94l-0.34-0.07c-6.92,31.2-5.75,36.49-4.93,37.32C891.33,741.34,891.45,741.37,891.52,741.37z"/>
				</g>
			</g>
			<g>
				<g>
					<polygon class="st64" points="936.38,795.98 936.58,795.7 905.21,773.75 898.84,741.54 898.5,741.61 904.9,773.95 
						904.95,773.99 					"/>
				</g>
			</g>
			<g>
				<g>
					<path class="st64" d="M871.81,811.82c10.03-37.92,20.08-65.51,20.18-65.78l-0.32-0.12c-0.1,0.27-10.16,27.88-20.19,65.81
						L871.81,811.82z"/>
				</g>
			</g>
			<g>
				<g>
					<path class="st64" d="M884.6,741.65l0.31-0.16l-0.15,0.08l0.16-0.07c-0.06-0.14-1.31-3.92,8.82-40.52l-0.33-0.09
						C883.1,738.09,884.53,741.52,884.6,741.65z"/>
				</g>
			</g>
			<g>
				<g>
					<g>
						<path class="st15" d="M902.82,681.04c0,0-5.59,0.43-9.41-0.75c-7.9,1.94-7.39,1.02-7.39,1.02s1.65-2.66,3.48-3.16
							c0.35-0.09-1.11-10.65-1.82-11.7s0.18-2.97,1.52-3.16c1.34-0.19,12.93,0,12.93,0s3.48-0.1,2.68,2.68
							S902.8,677.64,902.82,681.04z"/>
					</g>
				</g>
				<g>
					<g>
						<circle class="st68" cx="888.67" cy="664.09" r="1.95"/>
					</g>
				</g>
				<g>
					<g>
						<path class="st5" d="M897.68,680.2l0.16-0.3c-0.07-0.04-6.64-3.71-9-13.9l-0.34,0.08C890.9,676.43,897.61,680.17,897.68,680.2
							z"/>
					</g>
				</g>
				<g>
					<g>
						<circle class="st69" cx="897.66" cy="680.05" r="0.71"/>
					</g>
				</g>
				<g>
					<g>
						<path class="st70" d="M889.5,678.15c0,0,2.86,0.62,3.35,1.19c0.48,0.57-0.69-2.35-1.31-2.63c-0.62-0.28,0.1-0.65,0.1-0.65
							s0.72-0.73-1.31-2.17c-0.84-0.59-1.57-2.64-1.57-2.64S889.7,676.82,889.5,678.15z"/>
					</g>
				</g>
			</g>
			<g>
				<g>
					<g>
						<path class="st68" d="M923.21,748.81h-5.66c0,0-2.17-3.84-2.34-4.57c-0.17-0.73,7.97-0.57,8-0.28
							C923.24,744.24,923.75,747.75,923.21,748.81z"/>
					</g>
				</g>
				<g>
					<g>
						<path class="st5" d="M918.08,747.92c-0.14-0.24-1.35-2.4-1.46-2.86c-0.02-0.09,0.01-0.18,0.09-0.24
							c0.48-0.42,4.67-0.3,5.03-0.15c0.11,0.04,0.13,0.12,0.14,0.16l0.01,0.08c0.2,1.57,0.19,2.58-0.03,3l-0.05,0.09h-3.68
							L918.08,747.92z M921.55,744.97c-0.64-0.14-4.05-0.14-4.57,0.09c0.15,0.41,0.85,1.72,1.35,2.61h3.26
							C921.69,747.38,921.78,746.68,921.55,744.97z M921.54,744.87L921.54,744.87C921.54,744.87,921.54,744.87,921.54,744.87z"/>
					</g>
				</g>
			</g>
		</g>
	</g>
</g>
</svg>
