<?xml version="1.0" encoding="utf-8"?>
<!-- Generator: Adobe Illustrator 23.0.1, SVG Export Plug-In . SVG Version: 6.00 Build 0)  -->
<svg version="1.1" id="Laag_1" xmlns="http://www.w3.org/2000/svg" xmlns:xlink="http://www.w3.org/1999/xlink" x="0px" y="0px"
	 viewBox="0 0 1440 1024" style="enable-background:new 0 0 1440 1024;" xml:space="preserve">
<style type="text/css">
	.st0{clip-path:url(#SVGID_2_);}
	.st1{fill:url(#SVGID_3_);}
	.st2{fill:#6A7B27;}
	.st3{fill:#808181;}
	.st4{fill:#9A9999;}
	.st5{fill:#FFFFFF;}
	.st6{fill:#B8B32E;}
	.st7{fill:#CAC334;}
	.st8{fill:#A9A325;}
	.st9{fill:#1B1B1B;}
	.st10{fill:#F2F2F2;}
	.st11{fill:#881E2B;}
	.st12{fill:#CDCCCC;}
	.st13{fill-rule:evenodd;clip-rule:evenodd;fill:#C69988;}
	.st14{fill-rule:evenodd;clip-rule:evenodd;fill:#F8AB18;}
	.st15{fill-rule:evenodd;clip-rule:evenodd;fill:#1B1B1B;}
	.st16{fill-rule:evenodd;clip-rule:evenodd;fill:#663810;}
	.st17{fill:#727272;}
	.st18{fill:#A45A2E;}
	.st19{fill:#989898;}
	.st20{fill-rule:evenodd;clip-rule:evenodd;fill:#6BA1AB;}
	.st21{fill-rule:evenodd;clip-rule:evenodd;fill:#89C4CC;}
	.st22{fill:#C69988;}
	.st23{fill-rule:evenodd;clip-rule:evenodd;fill:#2A275E;}
	.st24{fill-rule:evenodd;clip-rule:evenodd;fill:#DCE2E8;}
	.st25{fill-rule:evenodd;clip-rule:evenodd;fill:#32358C;}
	.st26{opacity:0.1;fill-rule:evenodd;clip-rule:evenodd;fill:#020203;}
	.st27{clip-path:url(#SVGID_5_);}
	.st28{fill:url(#SVGID_6_);}
	.st29{clip-path:url(#SVGID_8_);}
	.st30{fill:url(#SVGID_9_);}
	.st31{fill:#E7E6E6;}
	.st32{fill:#D21226;}
	.st33{fill:#BC1829;}
	.st34{clip-path:url(#SVGID_11_);fill:#D21226;}
	.st35{fill:url(#SVGID_12_);}
	.st36{clip-path:url(#SVGID_14_);fill:#D21226;}
	.st37{fill-rule:evenodd;clip-rule:evenodd;fill:#946131;}
	.st38{fill-rule:evenodd;clip-rule:evenodd;fill:#304697;}
	.st39{fill-rule:evenodd;clip-rule:evenodd;fill:#3954A1;}
	.st40{fill-rule:evenodd;clip-rule:evenodd;fill:#E3E3E2;}
	.st41{fill-rule:evenodd;clip-rule:evenodd;fill:#2F3676;}
	.st42{fill-rule:evenodd;clip-rule:evenodd;fill:#222046;}
	.st43{fill-rule:evenodd;clip-rule:evenodd;fill:#27388D;}
	.st44{fill-rule:evenodd;clip-rule:evenodd;fill:#F1F1F1;}
	.st45{fill-rule:evenodd;clip-rule:evenodd;fill:#452311;}
	.st46{fill-rule:evenodd;clip-rule:evenodd;fill:#997759;}
	.st47{fill-rule:evenodd;clip-rule:evenodd;fill:#AEB8C4;}
	.st48{fill-rule:evenodd;clip-rule:evenodd;fill:#C4CED5;}
	.st49{fill-rule:evenodd;clip-rule:evenodd;fill:#020203;fill-opacity:0.1;}
	.st50{fill-rule:evenodd;clip-rule:evenodd;fill:#794A31;}
	.st51{fill-rule:evenodd;clip-rule:evenodd;fill:#333438;}
	.st52{fill-rule:evenodd;clip-rule:evenodd;fill:#DA2922;}
	.st53{fill-rule:evenodd;clip-rule:evenodd;fill:#E9473C;}
	.st54{fill-rule:evenodd;clip-rule:evenodd;fill:#020203;}
	.st55{fill-rule:evenodd;clip-rule:evenodd;fill:#D4A181;}
	.st56{fill-rule:evenodd;clip-rule:evenodd;fill:#B98C74;}
	.st57{fill-rule:evenodd;clip-rule:evenodd;fill:#693189;}
	.st58{fill-rule:evenodd;clip-rule:evenodd;fill:#952C87;}
	.st59{fill-rule:evenodd;clip-rule:evenodd;fill:#B08A67;}
	.st60{fill-rule:evenodd;clip-rule:evenodd;fill:#E87616;}
	.st61{fill-rule:evenodd;clip-rule:evenodd;fill:#F4992B;}
	.st62{fill-rule:evenodd;clip-rule:evenodd;fill:#006C34;}
	.st63{fill-rule:evenodd;clip-rule:evenodd;fill:#00A66B;}
	.st64{fill:#B6181D;}
	.st65{fill-rule:evenodd;clip-rule:evenodd;fill:#E7E6E6;}
	.st66{fill-rule:evenodd;clip-rule:evenodd;fill:#CDCCCC;}
	.st67{fill:#663810;}
	.st68{fill-rule:evenodd;clip-rule:evenodd;fill:#B6181D;}
	.st69{fill-rule:evenodd;clip-rule:evenodd;fill:#B4B4B4;}
	.st70{fill-rule:evenodd;clip-rule:evenodd;fill:#CDA442;}
	.st71{fill:#B4B4B4;}
	.st72{fill-rule:evenodd;clip-rule:evenodd;fill:#AD7B4B;}
	.st73{fill-rule:evenodd;clip-rule:evenodd;fill:#FFFFFF;}
	.st74{fill-rule:evenodd;clip-rule:evenodd;fill:#7C4B1A;}
	.st75{fill:#3D4B59;}
	.st76{fill:#1D2B39;}
	.st77{fill:#4E5B69;}
	.st78{fill:#2C3A49;}
	.st79{fill:#9C6D4F;}
	.st80{fill:#7E4E2F;}
	.st81{fill:#8C5D3F;}
	.st82{fill:#6E3D21;}
	.st83{fill:#863819;}
	.st84{clip-path:url(#SVGID_16_);}
	.st85{fill:url(#SVGID_17_);}
	.st86{clip-path:url(#SVGID_19_);}
	.st87{fill:url(#SVGID_20_);}
	.st88{clip-path:url(#SVGID_22_);}
	.st89{fill:url(#SVGID_23_);}
	.st90{fill:#FFFFFF;stroke:#020203;stroke-miterlimit:10;}
	.st91{fill:url(#SVGID_24_);}
	.st92{clip-path:url(#SVGID_26_);fill:#D21226;}
	.st93{fill:url(#SVGID_27_);}
	.st94{clip-path:url(#SVGID_29_);fill:#D21226;}
	.st95{fill:url(#SVGID_30_);}
	.st96{fill:#020203;}
	.st97{fill:#F8AB18;}
	.st98{fill:#2A275E;}
	.st99{fill-rule:evenodd;clip-rule:evenodd;fill:#9A182A;}
	.st100{fill:#9A182A;}
	.st101{clip-path:url(#SVGID_32_);}
	.st102{fill:url(#SVGID_33_);}
	.st103{clip-path:url(#SVGID_35_);}
	.st104{fill:url(#SVGID_36_);}
	.st105{clip-path:url(#SVGID_38_);}
	.st106{fill:url(#SVGID_39_);}
	.st107{clip-path:url(#SVGID_41_);fill:#D21226;}
	.st108{fill:url(#SVGID_42_);}
	.st109{clip-path:url(#SVGID_44_);fill:#D21226;}
	.st110{clip-path:url(#SVGID_46_);}
	.st111{fill:url(#SVGID_47_);}
	.st112{clip-path:url(#SVGID_49_);fill:#D21226;}
	.st113{fill:url(#SVGID_50_);}
	.st114{clip-path:url(#SVGID_52_);fill:#D21226;}
	.st115{clip-path:url(#SVGID_54_);}
	.st116{fill:url(#SVGID_55_);}
	.st117{clip-path:url(#SVGID_57_);}
	.st118{fill:url(#SVGID_58_);}
	.st119{fill:url(#SVGID_59_);}
	.st120{fill:url(#SVGID_60_);}
	.st121{fill:#DFDFDF;}
	.st122{fill:#32358C;}
	.st123{fill-rule:evenodd;clip-rule:evenodd;fill:#234D64;}
	.st124{fill-rule:evenodd;clip-rule:evenodd;fill:#398AB1;}
	.st125{fill:#234D64;}
	.st126{fill:#9B9B9A;}
	.st127{fill:#B579B2;}
	.st128{fill:#AB6EAC;}
	.st129{fill:#F28C00;}
	.st130{fill:#62B22F;}
	.st131{fill:#54AF32;}
	.st132{fill:#57C0D3;}
	.st133{fill:#36B2BB;}
	.st134{fill:#E83E5D;}
	.st135{fill:#E72E55;}
	.st136{fill:#F7E700;}
	.st137{clip-path:url(#SVGID_62_);}
	.st138{clip-path:url(#SVGID_64_);fill:#D21226;}
	.st139{fill:url(#SVGID_65_);}
	.st140{fill:#4D4230;}
	.st141{fill:#5F4A2F;}
	.st142{fill:#E30613;}
	.st143{clip-path:url(#SVGID_67_);}
	.st144{fill:url(#SVGID_68_);}
	.st145{clip-path:url(#SVGID_70_);fill:#D21226;}
	.st146{fill:url(#SVGID_71_);}
	.st147{clip-path:url(#SVGID_73_);fill:#D21226;}
	.st148{clip-path:url(#SVGID_75_);}
	.st149{fill:url(#SVGID_76_);}
	.st150{clip-path:url(#SVGID_78_);fill:#D21226;}
	.st151{fill:url(#SVGID_79_);}
	.st152{clip-path:url(#SVGID_81_);}
	.st153{fill:url(#SVGID_82_);}
	.st154{clip-path:url(#SVGID_84_);fill:#D21226;}
	.st155{fill:url(#SVGID_85_);}
	.st156{clip-path:url(#SVGID_87_);fill:#D21226;}
	.st157{fill:url(#SVGID_88_);}
	.st158{clip-path:url(#SVGID_90_);}
	.st159{clip-path:url(#SVGID_92_);}
	.st160{fill:url(#SVGID_93_);}
	.st161{clip-path:url(#SVGID_95_);fill:#D21226;}
	.st162{fill:url(#SVGID_96_);}
</style>
<g>
	<defs>
		<rect id="SVGID_91_" x="0" width="1440" height="1024"/>
	</defs>
	<clipPath id="SVGID_2_">
		<use xlink:href="#SVGID_91_"  style="overflow:visible;"/>
	</clipPath>
	<g class="st0">
		
			<rect x="56.9" y="-10.95" transform="matrix(-1.836970e-16 1 -1 -1.836970e-16 1080.8973 -356.8823)" class="st90" width="1323.98" height="745.91"/>
		<g>
			<g>
				<linearGradient id="SVGID_3_" gradientUnits="userSpaceOnUse" x1="720" y1="-2580.3406" x2="720" y2="1024">
					<stop  offset="0" style="stop-color:#020203"/>
					<stop  offset="0.086" style="stop-color:#030404"/>
					<stop  offset="0.1706" style="stop-color:#0B0A0B"/>
					<stop  offset="0.2547" style="stop-color:#1A1716"/>
					<stop  offset="0.3385" style="stop-color:#302620"/>
					<stop  offset="0.4221" style="stop-color:#4F3B2A"/>
					<stop  offset="0.5055" style="stop-color:#795730"/>
					<stop  offset="0.5873" style="stop-color:#B27C2F"/>
					<stop  offset="0.6618" style="stop-color:#F8AB18"/>
					<stop  offset="0.6703" style="stop-color:#F8B311"/>
					<stop  offset="0.694" style="stop-color:#F8C500"/>
					<stop  offset="0.7211" style="stop-color:#F8D200"/>
					<stop  offset="0.7529" style="stop-color:#F8DC00"/>
					<stop  offset="0.7921" style="stop-color:#F7E200"/>
					<stop  offset="0.8472" style="stop-color:#F7E600"/>
					<stop  offset="1" style="stop-color:#F7E700"/>
				</linearGradient>
				<rect x="-295.14" y="-2580.34" class="st1" width="2030.28" height="3604.34"/>
			</g>
			<g>
				<g>
					<path class="st2" d="M1734.81,370.76V1024H-295.14l0.01-24.36l0.22-506.93l0.09-195.47c171.92-77.5,316.88-127.3,546.17-125.64
						c113.06,0.83,320.38,24.2,457.55,43.18c21.29,2.96,40.9,5.8,58.2,8.44C1089.68,272.41,1412.24,321.58,1734.81,370.76z"/>
					<g>
						<rect x="8.62" y="208.65" class="st3" width="45.96" height="154.1"/>
						
							<rect x="54.58" y="208.65" transform="matrix(-1 -1.224647e-16 1.224647e-16 -1 130.5425 571.4092)" class="st4" width="21.38" height="154.1"/>
						
							<rect x="-5.69" y="261.46" transform="matrix(-1 -1.224647e-16 1.224647e-16 -1 20.9336 624.2145)" class="st4" width="32.32" height="101.3"/>
					</g>
				</g>
				<g>
					<path class="st5" d="M211.24,99.72H5.64c5.46-16.04,18.11-30.37,32.37-33.18c14.25-2.81,29.56,3.82,39.02,16.91
						c9.59-20.76,26.3-36.73,45.1-43.44c8.75-3.13,17.96-4.25,27.11-2.9C178.02,41.35,203.74,66.11,211.24,99.72z"/>
				</g>
				<g>
					<path class="st5" d="M723.96,117.99H608.98c4.19-18.8,18.58-32.64,34.68-35.01s32.52,8.89,40.38,25.91
						c2.74-3.8,6.36-6.61,10.31-8.23c3.69-1.52,7.67-1.98,11.51-1.23C713.83,101,720.9,109.01,723.96,117.99z"/>
				</g>
				<g>
					<path class="st6" d="M1734.81,137.73V1024H-295.14V517.16c0.11-0.04,0.22-0.07,0.33-0.11
						c171.07-56.33,344.17-107.03,518.44-154.23c274.33-74.33,551.59-140.04,828.59-205.68c145.65-34.51,293.61-69.29,443.96-65.67
						C1577.47,93.41,1660.33,108.07,1734.81,137.73z"/>
				</g>
				<g>
					<path class="st5" d="M1106.73,209.32H871.69c3.28-15.2,11.27-26.41,24-30.07c12.72-3.64,26.97,1.77,35.62,13.55
						c2.42-21.25,14.4-39.95,30.07-50.04c7.64-4.92,16.15-7.79,24.86-7.92c26.59-0.4,51.8,25.01,56.04,56.5
						c10.12-10.35,25.37-16.53,38.39-13.29C1093.7,181.31,1102.16,192.89,1106.73,209.32z"/>
				</g>
				<g>
					<path class="st7" d="M1735.14,301.38v120.93c-66.99,11.68-133.96,21.67-201.49,14.92c-94.91-9.51-180.18-51.31-273.89-66.61
						c-115.48-18.87-235.43,3.76-346.03,36.21c-247.92,72.75-468.61,193.85-709.64,280c-158.52,56.67-330.16,91.84-498.91,87.1
						v-116.6c319.25-91.51,638.5-183.01,957.74-274.52c176.15-50.49,354.08-101.33,539.89-119.72
						C1380.99,245.45,1563.69,259.11,1735.14,301.38z"/>
				</g>
				<g>
					<path class="st8" d="M1735.14,852.3V1024H-294.81V517.05c171.07-56.33,344.17-107.03,518.44-154.23
						C671.42,471.9,1311.38,648.18,1734.81,852.14C1734.92,852.19,1735.04,852.25,1735.14,852.3z"/>
				</g>
				<g>
					<path class="st6" d="M1735.14,876.65V1024H-294.81V270.21c0,0,177.42,35.52,437.17,97.4c3.9,0.93,7.82,1.86,11.76,2.8
						C603.1,477.69,1289.28,661.81,1735.14,876.65z"/>
				</g>
				<g>
					<path class="st2" d="M950.9,1024C569.03,702.42,144.96,474.99-294.89,355.75v84.2c48.35,0,97.2-1.5,144.69,9.4
						c47.48,10.91,94.2,40.97,118.07,91.4c9.61,20.29,15.31,43.3,27.09,61.88c15.85,25,41.05,39.18,66.48,46.67
						c25.43,7.49,51.77,9.2,77.57,14.54c102.43,21.21,189.92,97.51,275.93,167.52c86.01,70,180.58,192.03,284.52,192.63H950.9z"/>
				</g>
				<g>
					<path class="st2" d="M1735.14,1024H-294.81l0.24-45.52l0.85-161.5c0,0,44.24-10.01,123.5-26.18
						c26.12-5.32,56.03-11.31,89.42-17.84c277.25-54.21,793.92-145.06,1361.29-193.81c19.86-1.72,39.78-3.37,59.75-4.97
						c51.51-4.13,103.39-7.89,155.48-11.23c30.42-1.95,60.89-3.75,91.42-5.41c49.14-2.65,98.4-4.9,147.68-6.7l0.07,99.44l0.05,69.08
						L1735.14,1024z"/>
				</g>
				<g>
					<path class="st6" d="M1734.93,719.38c-64.89-2.86-131.11-0.09-196.04,5.33c-129.53,10.81-257.89,31.56-387.85,36.87
						c-114.21,4.65-231.03-2.44-340.95,22.15c-97.76,21.86-182.48,67.23-277.5,94.9c-158.75,46.21-335.95,40.47-500.41,74.04
						c-76.37,15.59-149.4,39.89-215.9,71.32h-111.09l0.24-45.52c632.18-220.21,1334.35-333.37,2029.45-328.19L1734.93,719.38z"/>
				</g>
				<g>
					<path class="st2" d="M958,561.88c-0.61,5.94-3.23,11.37-6.61,15.05c-2.39,2.62-5.19,4.46-8.14,5.45
						c-3.74,1.26-7.72,1.16-11.41-0.44c-6.57-2.86-12.01-10.45-14.11-19.67c-0.55-2.44-0.88-5.06-0.47-7.55
						c0.42-2.49,1.72-4.81,3.49-5.39c2.97-0.96,5.5,2.93,7.28,6.39c-0.95-9.13,0.94-18.3,4.79-25.76c1.27-2.46,3.08-4.87,5.23-4.66
						c1.95,0.19,3.44,2.47,4.49,4.79c2.63,5.84,3.35,12.97,3.05,19.84c1.01-3.43,3.58-5.14,6.07-4.73c1.22,0.2,2.33,0.94,3.29,2.02
						c1,1.13,1.8,2.64,2.32,4.29C958.29,554.71,958.36,558.39,958,561.88z"/>
				</g>
				<g>
					<rect x="936.6" y="553.36" class="st9" width="1.77" height="46.38"/>
				</g>
				<g>
					<path class="st2" d="M1450.78,215.8c-0.36,3.5-1.9,6.69-3.89,8.86c-1.41,1.54-3.06,2.62-4.79,3.21
						c-2.2,0.74-4.55,0.68-6.71-0.26c-3.87-1.69-7.07-6.15-8.3-11.57c-0.33-1.43-0.52-2.98-0.28-4.44c0.25-1.47,1.01-2.83,2.05-3.17
						c1.75-0.57,3.23,1.72,4.29,3.76c-0.56-5.37,0.55-10.77,2.82-15.16c0.75-1.44,1.81-2.87,3.08-2.74
						c1.15,0.11,2.03,1.45,2.64,2.82c1.54,3.44,1.97,7.63,1.8,11.68c0.6-2.02,2.1-3.03,3.57-2.78c0.72,0.12,1.37,0.55,1.93,1.19
						c0.59,0.67,1.06,1.55,1.37,2.52C1450.95,211.59,1450.99,213.75,1450.78,215.8z"/>
				</g>
				<g>
					<rect x="1438.18" y="210.79" class="st9" width="1.04" height="27.29"/>
				</g>
				<g>
					<path class="st5" d="M1396.33,54.21h-114.98c4.19-18.8,18.58-32.64,34.68-35.01c16.1-2.37,32.52,8.89,40.38,25.91
						c2.74-3.8,6.36-6.61,10.31-8.23c3.69-1.52,7.67-1.98,11.51-1.23C1386.2,37.23,1393.27,45.24,1396.33,54.21z"/>
				</g>
				<g>
					<path class="st2" d="M887.36,577.35c-0.57,5.53-3.01,10.57-6.14,14c-2.22,2.43-4.83,4.14-7.57,5.06
						c-3.48,1.18-7.18,1.08-10.61-0.41c-6.11-2.66-11.17-9.71-13.12-18.29c-0.51-2.27-0.82-4.71-0.44-7.02
						c0.39-2.32,1.6-4.47,3.25-5.01c2.76-0.89,5.11,2.72,6.77,5.94c-0.88-8.49,0.87-17.01,4.46-23.96c1.18-2.28,2.86-4.53,4.86-4.34
						c1.81,0.17,3.2,2.29,4.17,4.45c2.44,5.43,3.11,12.06,2.84,18.45c0.94-3.19,3.33-4.78,5.64-4.4c1.13,0.19,2.17,0.87,3.05,1.88
						c0.93,1.05,1.68,2.45,2.16,3.99C887.63,570.7,887.69,574.11,887.36,577.35z"/>
				</g>
				<g>
					<rect x="867.46" y="569.43" class="st9" width="1.65" height="43.12"/>
				</g>
				<g>
					
						<rect x="138.17" y="506.16" transform="matrix(-1 -1.224647e-16 1.224647e-16 -1 322.4246 1063.5687)" class="st5" width="46.09" height="51.26"/>
					<rect x="60.47" y="506.16" class="st10" width="77.7" height="51.26"/>
					<rect x="154.16" y="518.99" class="st11" width="16.93" height="38.43"/>
					<polygon class="st11" points="83.23,450.09 60.47,506.16 138.72,506.16 161.49,450.09 					"/>
					<rect x="92.31" y="437.03" class="st10" width="14.35" height="19.18"/>
					<polygon class="st5" points="161.49,450.09 138.72,506.16 184.26,506.16 					"/>
					<polygon class="st5" points="106.66,456.21 113.01,449.32 113.01,437.03 106.66,437.03 					"/>
					
						<rect x="156.52" y="472.9" transform="matrix(-1 -1.224647e-16 1.224647e-16 -1 322.4246 956.2486)" class="st3" width="9.39" height="10.45"/>
					
						<rect x="84.02" y="511.47" transform="matrix(-1 -1.224647e-16 1.224647e-16 -1 177.4341 1043.8254)" class="st3" width="9.39" height="20.89"/>
					
						<rect x="100.44" y="511.47" transform="matrix(-1 -1.224647e-16 1.224647e-16 -1 210.2806 1043.8254)" class="st3" width="9.39" height="20.89"/>
				</g>
				<g>
					<rect x="422.87" y="634.57" class="st5" width="55.92" height="44.74"/>
					
						<rect x="478.8" y="634.57" transform="matrix(-1 -3.678936e-11 3.678936e-11 -1 1051.8798 1313.8717)" class="st10" width="94.29" height="44.74"/>
					
						<rect x="455.65" y="645.77" transform="matrix(-1 -5.114854e-11 5.114854e-11 -1 925.9799 1325.0702)" class="st11" width="14.69" height="33.54"/>
					<polygon class="st11" points="545.46,585.64 573.08,634.57 478.13,634.57 450.5,585.64 					"/>
					
						<rect x="518.52" y="574.24" transform="matrix(-1 -5.468216e-11 5.468216e-11 -1 1049.1084 1165.219)" class="st10" width="12.08" height="16.74"/>
					<polygon class="st5" points="450.5,585.64 478.13,634.57 422.87,634.57 					"/>
					<polygon class="st5" points="518.52,590.98 513.18,584.97 513.18,574.24 518.52,574.24 					"/>
					<rect x="447.42" y="605.54" class="st3" width="6.84" height="16.76"/>
					<rect x="553.52" y="645.97" class="st3" width="7.51" height="18.23"/>
					<rect x="540.39" y="645.97" class="st3" width="7.51" height="18.23"/>
					<rect x="504.28" y="645.97" class="st3" width="7.51" height="18.23"/>
					<rect x="491.15" y="645.97" class="st3" width="7.51" height="18.23"/>
					<rect x="442.34" y="645.97" class="st3" width="7.51" height="18.23"/>
					<rect x="429.2" y="645.97" class="st3" width="7.51" height="18.23"/>
				</g>
				<g>
					<path class="st2" d="M1063.4,553.35c-0.52,5.62-2.77,10.74-5.66,14.23c-2.05,2.47-4.45,4.21-6.97,5.15
						c-3.2,1.19-6.61,1.1-9.77-0.42c-5.63-2.71-10.29-9.87-12.08-18.59c-0.47-2.3-0.76-4.79-0.4-7.14c0.36-2.36,1.47-4.55,2.99-5.09
						c2.54-0.91,4.71,2.77,6.24,6.04c-0.81-8.63,0.8-17.29,4.1-24.35c1.09-2.32,2.63-4.6,4.47-4.41c1.67,0.18,2.95,2.33,3.84,4.52
						c2.25,5.52,2.87,12.26,2.61,18.75c0.87-3.24,3.06-4.86,5.19-4.47c1.04,0.19,2,0.88,2.81,1.91c0.85,1.07,1.54,2.49,1.99,4.05
						C1063.65,546.58,1063.7,550.05,1063.4,553.35z"/>
				</g>
				<g>
					<rect x="1045.07" y="545.3" class="st9" width="1.52" height="43.83"/>
				</g>
				<g>
					<path class="st2" d="M1002.91,567.98c-0.49,5.22-2.57,9.99-5.26,13.23c-1.9,2.3-4.14,3.91-6.48,4.79
						c-2.98,1.11-6.15,1.02-9.08-0.39c-5.23-2.52-9.56-9.18-11.23-17.28c-0.44-2.14-0.7-4.45-0.37-6.64
						c0.33-2.19,1.37-4.23,2.78-4.73c2.36-0.84,4.38,2.57,5.8,5.61c-0.75-8.02,0.75-16.08,3.82-22.64c1.01-2.16,2.45-4.28,4.16-4.1
						c1.55,0.16,2.74,2.17,3.57,4.21c2.09,5.13,2.67,11.4,2.43,17.43c0.81-3.01,2.85-4.52,4.83-4.16c0.97,0.18,1.86,0.82,2.62,1.78
						c0.79,0.99,1.43,2.32,1.85,3.77C1003.14,561.68,1003.19,564.91,1002.91,567.98z"/>
				</g>
				<g>
					<rect x="985.87" y="560.49" class="st9" width="1.41" height="40.75"/>
				</g>
				<g>
					
						<rect x="1173.23" y="249.95" transform="matrix(-1 -1.224647e-16 1.224647e-16 -1 2368.7866 524.7325)" class="st5" width="22.32" height="24.82"/>
					<rect x="1135.6" y="249.95" class="st10" width="37.63" height="24.82"/>
					<rect x="1180.98" y="256.17" class="st11" width="8.2" height="18.61"/>
					<polygon class="st11" points="1146.63,222.8 1135.6,249.95 1173.5,249.95 1184.53,222.8 					"/>
					<rect x="1151.02" y="216.48" class="st10" width="6.95" height="9.29"/>
					<polygon class="st5" points="1184.53,222.8 1173.5,249.95 1195.55,249.95 					"/>
					<polygon class="st5" points="1157.98,225.77 1161.05,222.43 1161.05,216.48 1157.98,216.48 					"/>
					
						<rect x="1182.12" y="233.85" transform="matrix(-1 -1.224647e-16 1.224647e-16 -1 2368.7866 472.7588)" class="st3" width="4.55" height="5.06"/>
					
						<rect x="1147.01" y="252.53" transform="matrix(-1 -1.224647e-16 1.224647e-16 -1 2298.5696 515.1711)" class="st3" width="4.55" height="10.12"/>
					
						<rect x="1154.96" y="252.53" transform="matrix(-1 -1.224647e-16 1.224647e-16 -1 2314.4766 515.1711)" class="st3" width="4.55" height="10.12"/>
				</g>
				<g>
					<rect x="1035.89" y="266.74" class="st5" width="27.08" height="21.67"/>
					
						<rect x="1062.97" y="266.74" transform="matrix(-1 -3.720636e-11 3.720636e-11 -1 2171.5981 555.1377)" class="st10" width="45.66" height="21.67"/>
					
						<rect x="1051.76" y="272.16" transform="matrix(-1 -4.935575e-11 4.935575e-11 -1 2110.6265 560.561)" class="st11" width="7.11" height="16.24"/>
					<polygon class="st11" points="1095.25,243.04 1108.63,266.74 1062.64,266.74 1049.26,243.04 					"/>
					
						<rect x="1082.2" y="237.52" transform="matrix(-1 -5.101265e-11 5.101265e-11 -1 2170.2561 483.147)" class="st10" width="5.85" height="8.11"/>
					<polygon class="st5" points="1049.26,243.04 1062.64,266.74 1035.89,266.74 					"/>
					<polygon class="st5" points="1082.2,245.63 1079.62,242.71 1079.62,237.52 1082.2,237.52 					"/>
					<rect x="1047.77" y="252.68" class="st3" width="3.31" height="8.12"/>
					<rect x="1099.16" y="272.26" class="st3" width="3.64" height="8.83"/>
					<rect x="1092.8" y="272.26" class="st3" width="3.64" height="8.83"/>
					<rect x="1075.31" y="272.26" class="st3" width="3.64" height="8.83"/>
					<rect x="1068.95" y="272.26" class="st3" width="3.64" height="8.83"/>
					<rect x="1045.31" y="272.26" class="st3" width="3.64" height="8.83"/>
					<rect x="1038.95" y="272.26" class="st3" width="3.64" height="8.83"/>
				</g>
				<g>
					
						<rect x="997.91" y="287.2" transform="matrix(-1 -1.224647e-16 1.224647e-16 -1 2021.2146 595.2678)" class="st5" width="25.39" height="20.87"/>
					<rect x="955.11" y="287.2" class="st10" width="42.8" height="20.87"/>
					<rect x="1006.72" y="292.42" class="st11" width="9.33" height="15.64"/>
					<polygon class="st11" points="967.65,264.38 955.11,287.2 998.22,287.2 1010.76,264.38 					"/>
					<rect x="972.65" y="259.06" class="st10" width="7.91" height="7.81"/>
					<polygon class="st5" points="1010.76,264.38 998.22,287.2 1023.3,287.2 					"/>
					<polygon class="st5" points="980.56,266.87 984.06,264.06 984.06,259.06 980.56,259.06 					"/>
					
						<rect x="1008.02" y="273.66" transform="matrix(-1 -1.224647e-16 1.224647e-16 -1 2021.2146 551.5753)" class="st3" width="5.17" height="4.25"/>
					
						<rect x="968.09" y="289.36" transform="matrix(-1 -1.224647e-16 1.224647e-16 -1 1941.3501 587.2299)" class="st3" width="5.17" height="8.51"/>
					
						<rect x="977.13" y="289.36" transform="matrix(-1 -1.224647e-16 1.224647e-16 -1 1959.4427 587.2299)" class="st3" width="5.17" height="8.51"/>
				</g>
				<g>
					<rect x="1223.8" y="249.08" class="st5" width="29.45" height="26.12"/>
					<rect x="1288.17" y="186.66" class="st5" width="29.45" height="88.54"/>
					
						<rect x="1253.24" y="249.08" transform="matrix(-1 -3.143675e-11 3.143675e-11 -1 2571.0596 524.2828)" class="st10" width="64.57" height="26.12"/>
					<path class="st11" d="M1232.74,275.2h11.57v-17.37c0-0.5-0.41-0.91-0.91-0.91h-9.75c-0.5,0-0.91,0.41-0.91,0.91V275.2z"/>
					<polygon class="st11" points="1288.34,220.52 1302.89,249.08 1252.89,249.08 1238.34,220.52 					"/>
					
						<rect x="1274.16" y="213.86" transform="matrix(-1 -5.979318e-11 5.979318e-11 -1 2554.6731 437.5017)" class="st10" width="6.36" height="9.77"/>
					<polygon class="st5" points="1238.34,220.52 1252.89,249.08 1223.8,249.08 					"/>
					<polygon class="st5" points="1274.16,223.64 1271.35,220.13 1271.35,213.86 1274.16,213.86 					"/>
					<path class="st3" d="M1240.04,232.14H1237c-0.16,0-0.28,0.13-0.28,0.28v9.5h3.6v-9.5
						C1240.32,232.27,1240.19,232.14,1240.04,232.14z"/>
					<path class="st3" d="M1292.86,255.74h-3.33c-0.17,0-0.31,0.14-0.31,0.31v10.33h3.95v-10.33
						C1293.17,255.88,1293.03,255.74,1292.86,255.74z"/>
					<path class="st3" d="M1266.6,255.74h-3.33c-0.17,0-0.31,0.14-0.31,0.31v10.33h3.95v-10.33
						C1266.91,255.88,1266.77,255.74,1266.6,255.74z"/>
					<path class="st3" d="M1250.76,255.74h-3.33c-0.17,0-0.31,0.14-0.31,0.31v10.33h3.95v-10.33
						C1251.07,255.88,1250.93,255.74,1250.76,255.74z"/>
					<path class="st3" d="M1229.79,255.74h-3.33c-0.17,0-0.31,0.14-0.31,0.31v10.33h3.95v-10.33
						C1230.1,255.88,1229.96,255.74,1229.79,255.74z"/>
					<path class="st3" d="M1279.75,255.74h-3.33c-0.17,0-0.31,0.14-0.31,0.31v10.33h3.95v-10.33
						C1280.06,255.88,1279.92,255.74,1279.75,255.74z"/>
					
						<rect x="1302.89" y="186.66" transform="matrix(-1 -4.622019e-10 4.622019e-10 -1 2620.7065 461.8585)" class="st10" width="14.93" height="88.54"/>
					<polygon class="st11" points="1302.99,159.32 1318.69,187.88 1287.29,187.88 					"/>
					<path class="st3" d="M1296.79,210.74h-3.03c-0.16,0-0.28,0.13-0.28,0.28v9.5h3.6v-9.5
						C1297.07,210.86,1296.95,210.74,1296.79,210.74z"/>
					<circle class="st3" cx="1295.27" cy="198.46" r="3.7"/>
					<path class="st3" d="M1311.87,210.74h-3.03c-0.16,0-0.28,0.13-0.28,0.28v9.5h3.6v-9.5
						C1312.15,210.86,1312.03,210.74,1311.87,210.74z"/>
					<path class="st3" d="M1311.87,228.21h-3.03c-0.16,0-0.28,0.13-0.28,0.28v9.5h3.6v-9.5
						C1312.15,228.33,1312.03,228.21,1311.87,228.21z"/>
					<circle class="st3" cx="1310.35" cy="198.46" r="3.7"/>
				</g>
			</g>
			<g>
				<g>
					<path class="st2" d="M1734.81,370.76V1024H-295.14l0.01-24.36l0.22-506.93l0.09-195.47c171.92-77.5,316.88-127.3,546.17-125.64
						c113.06,0.83,320.38,24.2,457.55,43.18c21.29,2.96,40.9,5.8,58.2,8.44C1089.68,272.41,1412.24,321.58,1734.81,370.76z"/>
					<g>
						<rect x="8.62" y="208.65" class="st3" width="45.96" height="154.1"/>
						
							<rect x="54.58" y="208.65" transform="matrix(-1 -1.224647e-16 1.224647e-16 -1 130.5425 571.4092)" class="st4" width="21.38" height="154.1"/>
						
							<rect x="-5.69" y="261.46" transform="matrix(-1 -1.224647e-16 1.224647e-16 -1 20.9336 624.2145)" class="st4" width="32.32" height="101.3"/>
					</g>
				</g>
				<g>
					<path class="st71" d="M211.24,99.72H5.64c5.46-16.04,18.11-30.37,32.37-33.18c14.25-2.81,29.56,3.82,39.02,16.91
						c9.59-20.76,26.3-36.73,45.1-43.44c8.75-3.13,17.96-4.25,27.11-2.9C178.02,41.35,203.74,66.11,211.24,99.72z"/>
				</g>
				<g>
					<path class="st71" d="M723.96,117.99H608.98c4.19-18.8,18.58-32.64,34.68-35.01s32.52,8.89,40.38,25.91
						c2.74-3.8,6.36-6.61,10.31-8.23c3.69-1.52,7.67-1.98,11.51-1.23C713.83,101,720.9,109.01,723.96,117.99z"/>
				</g>
				<g>
					<path class="st6" d="M1734.81,137.73V1024H-295.14V517.16c0.11-0.04,0.22-0.07,0.33-0.11
						c171.07-56.33,344.17-107.03,518.44-154.23c274.33-74.33,551.59-140.04,828.59-205.68c145.65-34.51,293.61-69.29,443.96-65.67
						C1577.47,93.41,1660.33,108.07,1734.81,137.73z"/>
				</g>
				<g>
					<path class="st71" d="M1106.73,209.32H871.69c3.28-15.2,11.27-26.41,24-30.07c12.72-3.64,26.97,1.77,35.62,13.55
						c2.42-21.25,14.4-39.95,30.07-50.04c7.64-4.92,16.15-7.79,24.86-7.92c26.59-0.4,51.8,25.01,56.04,56.5
						c10.12-10.35,25.37-16.53,38.39-13.29C1093.7,181.31,1102.16,192.89,1106.73,209.32z"/>
				</g>
				<g>
					<path class="st7" d="M1735.14,301.38v120.93c-66.99,11.68-133.96,21.67-201.49,14.92c-94.91-9.51-180.18-51.31-273.89-66.61
						c-115.48-18.87-235.43,3.76-346.03,36.21c-247.92,72.75-468.61,193.85-709.64,280c-158.52,56.67-330.16,91.84-498.91,87.1
						v-116.6c319.25-91.51,638.5-183.01,957.74-274.52c176.15-50.49,354.08-101.33,539.89-119.72
						C1380.99,245.45,1563.69,259.11,1735.14,301.38z"/>
				</g>
				<g>
					<path class="st8" d="M1735.14,852.3V1024H-294.81V517.05c171.07-56.33,344.17-107.03,518.44-154.23
						C671.42,471.9,1311.38,648.18,1734.81,852.14C1734.92,852.19,1735.04,852.25,1735.14,852.3z"/>
				</g>
				<g>
					<path class="st6" d="M1735.14,876.65V1024H-294.81V270.21c0,0,177.42,35.52,437.17,97.4c3.9,0.93,7.82,1.86,11.76,2.8
						C603.1,477.69,1289.28,661.81,1735.14,876.65z"/>
				</g>
				<g>
					<path class="st2" d="M950.9,1024C569.03,702.42,144.96,474.99-294.89,355.75v84.2c48.35,0,97.2-1.5,144.69,9.4
						c47.48,10.91,94.2,40.97,118.07,91.4c9.61,20.29,15.31,43.3,27.09,61.88c15.85,25,41.05,39.18,66.48,46.67
						c25.43,7.49,51.77,9.2,77.57,14.54c102.43,21.21,189.92,97.51,275.93,167.52c86.01,70,180.58,192.03,284.52,192.63H950.9z"/>
				</g>
				<g>
					<path class="st2" d="M1735.14,1024H-294.81l0.24-45.52l0.85-161.5c0,0,44.24-10.01,123.5-26.18
						c26.12-5.32,56.03-11.31,89.42-17.84c277.25-54.21,793.92-145.06,1361.29-193.81c19.86-1.72,39.78-3.37,59.75-4.97
						c51.51-4.13,103.39-7.89,155.48-11.23c30.42-1.95,60.89-3.75,91.42-5.41c49.14-2.65,98.4-4.9,147.68-6.7l0.07,99.44l0.05,69.08
						L1735.14,1024z"/>
				</g>
				<g>
					<path class="st6" d="M1734.93,719.38c-64.89-2.86-131.11-0.09-196.04,5.33c-129.53,10.81-257.89,31.56-387.85,36.87
						c-114.21,4.65-231.03-2.44-340.95,22.15c-97.76,21.86-182.48,67.23-277.5,94.9c-158.75,46.21-335.95,40.47-500.41,74.04
						c-76.37,15.59-149.4,39.89-215.9,71.32h-111.09l0.24-45.52c632.18-220.21,1334.35-333.37,2029.45-328.19L1734.93,719.38z"/>
				</g>
				<g>
					<path class="st2" d="M958,561.88c-0.61,5.94-3.23,11.37-6.61,15.05c-2.39,2.62-5.19,4.46-8.14,5.45
						c-3.74,1.26-7.72,1.16-11.41-0.44c-6.57-2.86-12.01-10.45-14.11-19.67c-0.55-2.44-0.88-5.06-0.47-7.55
						c0.42-2.49,1.72-4.81,3.49-5.39c2.97-0.96,5.5,2.93,7.28,6.39c-0.95-9.13,0.94-18.3,4.79-25.76c1.27-2.46,3.08-4.87,5.23-4.66
						c1.95,0.19,3.44,2.47,4.49,4.79c2.63,5.84,3.35,12.97,3.05,19.84c1.01-3.43,3.58-5.14,6.07-4.73c1.22,0.2,2.33,0.94,3.29,2.02
						c1,1.13,1.8,2.64,2.32,4.29C958.29,554.71,958.36,558.39,958,561.88z"/>
				</g>
				<g>
					<rect x="936.6" y="553.36" class="st9" width="1.77" height="46.38"/>
				</g>
				<g>
					<path class="st2" d="M1450.78,215.8c-0.36,3.5-1.9,6.69-3.89,8.86c-1.41,1.54-3.06,2.62-4.79,3.21
						c-2.2,0.74-4.55,0.68-6.71-0.26c-3.87-1.69-7.07-6.15-8.3-11.57c-0.33-1.43-0.52-2.98-0.28-4.44c0.25-1.47,1.01-2.83,2.05-3.17
						c1.75-0.57,3.23,1.72,4.29,3.76c-0.56-5.37,0.55-10.77,2.82-15.16c0.75-1.44,1.81-2.87,3.08-2.74
						c1.15,0.11,2.03,1.45,2.64,2.82c1.54,3.44,1.97,7.63,1.8,11.68c0.6-2.02,2.1-3.03,3.57-2.78c0.72,0.12,1.37,0.55,1.93,1.19
						c0.59,0.67,1.06,1.55,1.37,2.52C1450.95,211.59,1450.99,213.75,1450.78,215.8z"/>
				</g>
				<g>
					<rect x="1438.18" y="210.79" class="st9" width="1.04" height="27.29"/>
				</g>
				<g>
					<path class="st71" d="M1396.33,54.21h-114.98c4.19-18.8,18.58-32.64,34.68-35.01c16.1-2.37,32.52,8.89,40.38,25.91
						c2.74-3.8,6.36-6.61,10.31-8.23c3.69-1.52,7.67-1.98,11.51-1.23C1386.2,37.23,1393.27,45.24,1396.33,54.21z"/>
				</g>
				<g>
					<path class="st2" d="M887.36,577.35c-0.57,5.53-3.01,10.57-6.14,14c-2.22,2.43-4.83,4.14-7.57,5.06
						c-3.48,1.18-7.18,1.08-10.61-0.41c-6.11-2.66-11.17-9.71-13.12-18.29c-0.51-2.27-0.82-4.71-0.44-7.02
						c0.39-2.32,1.6-4.47,3.25-5.01c2.76-0.89,5.11,2.72,6.77,5.94c-0.88-8.49,0.87-17.01,4.46-23.96c1.18-2.28,2.86-4.53,4.86-4.34
						c1.81,0.17,3.2,2.29,4.17,4.45c2.44,5.43,3.11,12.06,2.84,18.45c0.94-3.19,3.33-4.78,5.64-4.4c1.13,0.19,2.17,0.87,3.05,1.88
						c0.93,1.05,1.68,2.45,2.16,3.99C887.63,570.7,887.69,574.11,887.36,577.35z"/>
				</g>
				<g>
					<rect x="867.46" y="569.43" class="st9" width="1.65" height="43.12"/>
				</g>
				<g>
					
						<rect x="138.17" y="506.16" transform="matrix(-1 -1.224647e-16 1.224647e-16 -1 322.4246 1063.5687)" class="st5" width="46.09" height="51.26"/>
					<rect x="60.47" y="506.16" class="st10" width="77.7" height="51.26"/>
					<rect x="154.16" y="518.99" class="st11" width="16.93" height="38.43"/>
					<polygon class="st11" points="83.23,450.09 60.47,506.16 138.72,506.16 161.49,450.09 					"/>
					<rect x="92.31" y="437.03" class="st10" width="14.35" height="19.18"/>
					<polygon class="st5" points="161.49,450.09 138.72,506.16 184.26,506.16 					"/>
					<polygon class="st5" points="106.66,456.21 113.01,449.32 113.01,437.03 106.66,437.03 					"/>
					
						<rect x="156.52" y="472.9" transform="matrix(-1 -1.224647e-16 1.224647e-16 -1 322.4246 956.2486)" class="st3" width="9.39" height="10.45"/>
					
						<rect x="84.02" y="511.47" transform="matrix(-1 -1.224647e-16 1.224647e-16 -1 177.4341 1043.8254)" class="st3" width="9.39" height="20.89"/>
					
						<rect x="100.44" y="511.47" transform="matrix(-1 -1.224647e-16 1.224647e-16 -1 210.2806 1043.8254)" class="st3" width="9.39" height="20.89"/>
				</g>
				<g>
					<rect x="422.87" y="634.57" class="st5" width="55.92" height="44.74"/>
					
						<rect x="478.8" y="634.57" transform="matrix(-1 -3.678936e-11 3.678936e-11 -1 1051.8798 1313.8717)" class="st10" width="94.29" height="44.74"/>
					
						<rect x="455.65" y="645.77" transform="matrix(-1 -5.114854e-11 5.114854e-11 -1 925.9799 1325.0702)" class="st11" width="14.69" height="33.54"/>
					<polygon class="st11" points="545.46,585.64 573.08,634.57 478.13,634.57 450.5,585.64 					"/>
					
						<rect x="518.52" y="574.24" transform="matrix(-1 -5.468216e-11 5.468216e-11 -1 1049.1084 1165.219)" class="st10" width="12.08" height="16.74"/>
					<polygon class="st5" points="450.5,585.64 478.13,634.57 422.87,634.57 					"/>
					<polygon class="st5" points="518.52,590.98 513.18,584.97 513.18,574.24 518.52,574.24 					"/>
					<rect x="447.42" y="605.54" class="st3" width="6.84" height="16.76"/>
					<rect x="553.52" y="645.97" class="st3" width="7.51" height="18.23"/>
					<rect x="540.39" y="645.97" class="st3" width="7.51" height="18.23"/>
					<rect x="504.28" y="645.97" class="st3" width="7.51" height="18.23"/>
					<rect x="491.15" y="645.97" class="st3" width="7.51" height="18.23"/>
					<rect x="442.34" y="645.97" class="st3" width="7.51" height="18.23"/>
					<rect x="429.2" y="645.97" class="st3" width="7.51" height="18.23"/>
				</g>
				<g>
					<path class="st2" d="M1063.4,553.35c-0.52,5.62-2.77,10.74-5.66,14.23c-2.05,2.47-4.45,4.21-6.97,5.15
						c-3.2,1.19-6.61,1.1-9.77-0.42c-5.63-2.71-10.29-9.87-12.08-18.59c-0.47-2.3-0.76-4.79-0.4-7.14c0.36-2.36,1.47-4.55,2.99-5.09
						c2.54-0.91,4.71,2.77,6.24,6.04c-0.81-8.63,0.8-17.29,4.1-24.35c1.09-2.32,2.63-4.6,4.47-4.41c1.67,0.18,2.95,2.33,3.84,4.52
						c2.25,5.52,2.87,12.26,2.61,18.75c0.87-3.24,3.06-4.86,5.19-4.47c1.04,0.19,2,0.88,2.81,1.91c0.85,1.07,1.54,2.49,1.99,4.05
						C1063.65,546.58,1063.7,550.05,1063.4,553.35z"/>
				</g>
				<g>
					<rect x="1045.07" y="545.3" class="st9" width="1.52" height="43.83"/>
				</g>
				<g>
					<path class="st2" d="M1002.91,567.98c-0.49,5.22-2.57,9.99-5.26,13.23c-1.9,2.3-4.14,3.91-6.48,4.79
						c-2.98,1.11-6.15,1.02-9.08-0.39c-5.23-2.52-9.56-9.18-11.23-17.28c-0.44-2.14-0.7-4.45-0.37-6.64
						c0.33-2.19,1.37-4.23,2.78-4.73c2.36-0.84,4.38,2.57,5.8,5.61c-0.75-8.02,0.75-16.08,3.82-22.64c1.01-2.16,2.45-4.28,4.16-4.1
						c1.55,0.16,2.74,2.17,3.57,4.21c2.09,5.13,2.67,11.4,2.43,17.43c0.81-3.01,2.85-4.52,4.83-4.16c0.97,0.18,1.86,0.82,2.62,1.78
						c0.79,0.99,1.43,2.32,1.85,3.77C1003.14,561.68,1003.19,564.91,1002.91,567.98z"/>
				</g>
				<g>
					<rect x="985.87" y="560.49" class="st9" width="1.41" height="40.75"/>
				</g>
				<g>
					
						<rect x="1173.23" y="249.95" transform="matrix(-1 -1.224647e-16 1.224647e-16 -1 2368.7866 524.7325)" class="st5" width="22.32" height="24.82"/>
					<rect x="1135.6" y="249.95" class="st10" width="37.63" height="24.82"/>
					<rect x="1180.98" y="256.17" class="st11" width="8.2" height="18.61"/>
					<polygon class="st11" points="1146.63,222.8 1135.6,249.95 1173.5,249.95 1184.53,222.8 					"/>
					<rect x="1151.02" y="216.48" class="st10" width="6.95" height="9.29"/>
					<polygon class="st5" points="1184.53,222.8 1173.5,249.95 1195.55,249.95 					"/>
					<polygon class="st5" points="1157.98,225.77 1161.05,222.43 1161.05,216.48 1157.98,216.48 					"/>
					
						<rect x="1182.12" y="233.85" transform="matrix(-1 -1.224647e-16 1.224647e-16 -1 2368.7866 472.7588)" class="st3" width="4.55" height="5.06"/>
					
						<rect x="1147.01" y="252.53" transform="matrix(-1 -1.224647e-16 1.224647e-16 -1 2298.5696 515.1711)" class="st3" width="4.55" height="10.12"/>
					
						<rect x="1154.96" y="252.53" transform="matrix(-1 -1.224647e-16 1.224647e-16 -1 2314.4766 515.1711)" class="st3" width="4.55" height="10.12"/>
				</g>
				<g>
					<rect x="1035.89" y="266.74" class="st5" width="27.08" height="21.67"/>
					
						<rect x="1062.97" y="266.74" transform="matrix(-1 -3.720636e-11 3.720636e-11 -1 2171.5981 555.1377)" class="st10" width="45.66" height="21.67"/>
					
						<rect x="1051.76" y="272.16" transform="matrix(-1 -4.935575e-11 4.935575e-11 -1 2110.6265 560.561)" class="st11" width="7.11" height="16.24"/>
					<polygon class="st11" points="1095.25,243.04 1108.63,266.74 1062.64,266.74 1049.26,243.04 					"/>
					
						<rect x="1082.2" y="237.52" transform="matrix(-1 -5.101265e-11 5.101265e-11 -1 2170.2561 483.147)" class="st10" width="5.85" height="8.11"/>
					<polygon class="st5" points="1049.26,243.04 1062.64,266.74 1035.89,266.74 					"/>
					<polygon class="st5" points="1082.2,245.63 1079.62,242.71 1079.62,237.52 1082.2,237.52 					"/>
					<rect x="1047.77" y="252.68" class="st3" width="3.31" height="8.12"/>
					<rect x="1099.16" y="272.26" class="st3" width="3.64" height="8.83"/>
					<rect x="1092.8" y="272.26" class="st3" width="3.64" height="8.83"/>
					<rect x="1075.31" y="272.26" class="st3" width="3.64" height="8.83"/>
					<rect x="1068.95" y="272.26" class="st3" width="3.64" height="8.83"/>
					<rect x="1045.31" y="272.26" class="st3" width="3.64" height="8.83"/>
					<rect x="1038.95" y="272.26" class="st3" width="3.64" height="8.83"/>
				</g>
				<g>
					
						<rect x="997.91" y="287.2" transform="matrix(-1 -1.224647e-16 1.224647e-16 -1 2021.2146 595.2678)" class="st5" width="25.39" height="20.87"/>
					<rect x="955.11" y="287.2" class="st10" width="42.8" height="20.87"/>
					<rect x="1006.72" y="292.42" class="st11" width="9.33" height="15.64"/>
					<polygon class="st11" points="967.65,264.38 955.11,287.2 998.22,287.2 1010.76,264.38 					"/>
					<rect x="972.65" y="259.06" class="st10" width="7.91" height="7.81"/>
					<polygon class="st5" points="1010.76,264.38 998.22,287.2 1023.3,287.2 					"/>
					<polygon class="st5" points="980.56,266.87 984.06,264.06 984.06,259.06 980.56,259.06 					"/>
					
						<rect x="1008.02" y="273.66" transform="matrix(-1 -1.224647e-16 1.224647e-16 -1 2021.2146 551.5753)" class="st3" width="5.17" height="4.25"/>
					
						<rect x="968.09" y="289.36" transform="matrix(-1 -1.224647e-16 1.224647e-16 -1 1941.3501 587.2299)" class="st3" width="5.17" height="8.51"/>
					
						<rect x="977.13" y="289.36" transform="matrix(-1 -1.224647e-16 1.224647e-16 -1 1959.4427 587.2299)" class="st3" width="5.17" height="8.51"/>
				</g>
				<g>
					<rect x="1223.8" y="249.08" class="st5" width="29.45" height="26.12"/>
					<rect x="1288.17" y="186.66" class="st5" width="29.45" height="88.54"/>
					
						<rect x="1253.24" y="249.08" transform="matrix(-1 -3.143675e-11 3.143675e-11 -1 2571.0596 524.2828)" class="st10" width="64.57" height="26.12"/>
					<path class="st11" d="M1232.74,275.2h11.57v-17.37c0-0.5-0.41-0.91-0.91-0.91h-9.75c-0.5,0-0.91,0.41-0.91,0.91V275.2z"/>
					<polygon class="st11" points="1288.34,220.52 1302.89,249.08 1252.89,249.08 1238.34,220.52 					"/>
					
						<rect x="1274.16" y="213.86" transform="matrix(-1 -5.979318e-11 5.979318e-11 -1 2554.6731 437.5017)" class="st10" width="6.36" height="9.77"/>
					<polygon class="st5" points="1238.34,220.52 1252.89,249.08 1223.8,249.08 					"/>
					<polygon class="st5" points="1274.16,223.64 1271.35,220.13 1271.35,213.86 1274.16,213.86 					"/>
					<path class="st3" d="M1240.04,232.14H1237c-0.16,0-0.28,0.13-0.28,0.28v9.5h3.6v-9.5
						C1240.32,232.27,1240.19,232.14,1240.04,232.14z"/>
					<path class="st3" d="M1292.86,255.74h-3.33c-0.17,0-0.31,0.14-0.31,0.31v10.33h3.95v-10.33
						C1293.17,255.88,1293.03,255.74,1292.86,255.74z"/>
					<path class="st3" d="M1266.6,255.74h-3.33c-0.17,0-0.31,0.14-0.31,0.31v10.33h3.95v-10.33
						C1266.91,255.88,1266.77,255.74,1266.6,255.74z"/>
					<path class="st3" d="M1250.76,255.74h-3.33c-0.17,0-0.31,0.14-0.31,0.31v10.33h3.95v-10.33
						C1251.07,255.88,1250.93,255.74,1250.76,255.74z"/>
					<path class="st3" d="M1229.79,255.74h-3.33c-0.17,0-0.31,0.14-0.31,0.31v10.33h3.95v-10.33
						C1230.1,255.88,1229.96,255.74,1229.79,255.74z"/>
					<path class="st3" d="M1279.75,255.74h-3.33c-0.17,0-0.31,0.14-0.31,0.31v10.33h3.95v-10.33
						C1280.06,255.88,1279.92,255.74,1279.75,255.74z"/>
					
						<rect x="1302.89" y="186.66" transform="matrix(-1 -4.622019e-10 4.622019e-10 -1 2620.7065 461.8585)" class="st10" width="14.93" height="88.54"/>
					<polygon class="st11" points="1302.99,159.32 1318.69,187.88 1287.29,187.88 					"/>
					<path class="st3" d="M1296.79,210.74h-3.03c-0.16,0-0.28,0.13-0.28,0.28v9.5h3.6v-9.5
						C1297.07,210.86,1296.95,210.74,1296.79,210.74z"/>
					<circle class="st3" cx="1295.27" cy="198.46" r="3.7"/>
					<path class="st3" d="M1311.87,210.74h-3.03c-0.16,0-0.28,0.13-0.28,0.28v9.5h3.6v-9.5
						C1312.15,210.86,1312.03,210.74,1311.87,210.74z"/>
					<path class="st3" d="M1311.87,228.21h-3.03c-0.16,0-0.28,0.13-0.28,0.28v9.5h3.6v-9.5
						C1312.15,228.33,1312.03,228.21,1311.87,228.21z"/>
					<circle class="st3" cx="1310.35" cy="198.46" r="3.7"/>
				</g>
			</g>
		</g>
		<g>
			<g transform="translate(40.000000, 27.000000)">
				<g transform="translate(82.000000, 0.000000)">
					<path id="Hair-Back_9_" class="st54" d="M249.32,610.59c-0.53,1.24-1.4,4.07-1,4.59l2.94,0.42c0-0.01,0-0.01,0-0.02
						c1.11,0.03,2.09-0.77,2.25-1.9l0.3-2.13c0.17-1.21-0.67-2.32-1.87-2.49l-0.2-0.03C250.65,608.88,249.63,609.56,249.32,610.59z"
						/>
					<g id="Head_102_" transform="translate(54.000000, 31.000000)">
						<path class="st55" d="M198.44,582.12c0.55-0.48,0.96-1.11,1.01-1.87c0.15-2.19-2.94-2.14-3.68-1.13
							c-0.74,1.01-1.07,3.8-0.33,4.11c0.29,0.12,0.97,0.02,1.68-0.28l-0.82,2.86l2.44,0.34L198.44,582.12z"/>
					</g>
					<path id="Hair-Front_9_" class="st54" d="M251.83,612.66c-0.28,1.19-0.43,2.57-0.14,2.95l2.94,0.42
						c0.57-2.83-1.17-1.95-0.8-4.63c-0.09-0.11-0.17-0.22-0.25-0.31l0.01-0.08c-0.36-1.12-0.94-1.73-1.72-1.84
						c-1.18-0.17-1.62,0.33-2.01,0.75c0.12,0.84,1.02,1.09,1.77,1.71c0.11-0.06,0.24-0.09,0.37-0.08c0.31,0.04,0.52,0.33,0.48,0.64
						s-0.33,0.52-0.64,0.48C251.85,612.66,251.84,612.66,251.83,612.66z"/>
				</g>
				<g transform="translate(0.000000, 187.000000)">
					<path id="Skirt-Shadow_9_" class="st38" d="M336.05,449.08c-2.53,0.34-4.68,0.38-6.45,0.13c-1.77-0.25-3.33-1.01-4.7-2.27
						c2.48-0.36,4.49-0.44,6.04-0.22C332.48,446.95,334.18,447.73,336.05,449.08z"/>
					<path id="Leg_112_" class="st56" d="M327.35,449.9c0.03-0.03,0.05-0.07,0.08-0.11c0.45-0.81,6.97-9.37,7.73-10.99l-5.87-0.83
						c-0.58,1.24-3.5,9.09-3.98,10.67c-1.15,2.44-3.94,10.47-4.23,11.01c-0.3,0.57,0.84,1.37,1.27,0.68c0.69-1.1,2.39-4.19,3.22-6.1
						C326.36,452.44,327.01,450.82,327.35,449.9z"/>
					<path class="st55" d="M332,451.71c2.3,0.94,10.86,3.26,11.44,3.51c0.59,0.26,1.31-0.93,0.59-1.31
						c-1.15-0.61-4.34-2.09-6.31-2.79c-1.58-0.56-3.03-1.04-4-1.34c0.48-2.79,1.81-9.45,1.76-10.94l-5.19-0.73
						c0.05,1.43,0.66,11.87,0.9,12.94C331.26,451.43,331.6,451.64,332,451.71z"/>
					
						<g transform="translate(24.500000, 157.000000) rotate(80.000000) translate(-24.500000, -157.000000) translate(-6.000000, 137.000000)">
						<path id="shoe_61_" class="st40" d="M378.04-243.16c0.04-0.32,0.1-0.55,0.17-0.69c0.09-0.16,0.24-0.39,0.46-0.67
							c0.19,0.1,1.89,1.01,5.1,2.72c-0.1,0.51-0.3,0.71-0.61,0.59c-0.3-0.12-0.56-0.21-0.76-0.28l-2.94-0.21
							c-0.06,0-0.1-0.05-0.1-0.11c0,0,0,0,0,0l0.04-0.45c-0.2-0.26-0.38-0.44-0.55-0.53c-0.13-0.07-0.35-0.12-0.64-0.13l0,0
							c-0.11-0.01-0.2-0.1-0.19-0.22C378.04-243.15,378.04-243.16,378.04-243.16z"/>
					</g>
					<g transform="translate(208.000000, 199.000000)">
						<path class="st40" d="M114.74,261.28c0.07,0.32,0.1,0.55,0.07,0.7c-0.03,0.18-0.09,0.45-0.2,0.79
							c-0.21-0.03-2.12-0.3-5.73-0.81c-0.08-0.51,0.04-0.77,0.37-0.76c0.33,0.01,0.6,0.01,0.81,0.01l2.83-0.81
							c0.05-0.02,0.11,0.02,0.13,0.07c0,0,0,0,0,0l0.11,0.44c0.28,0.18,0.51,0.28,0.69,0.31c0.15,0.02,0.37-0.01,0.65-0.09l0,0
							c0.11-0.03,0.22,0.03,0.26,0.14C114.74,261.27,114.74,261.28,114.74,261.28z"/>
					</g>
					<path id="Skirt_9_" class="st39" d="M335.46,438.85c-2.2-0.98-4.36-1.28-6.5-0.92c-1.17,3.14-3.08,4.18-4.08,9.11
						c3.21,2.2,7.89-0.13,11.2,2.04C337.44,446.88,336.81,441.05,335.46,438.85z"/>
				</g>
				<g transform="translate(22.000000, 82.000000)">
					<path id="Skin_69_" class="st55" d="M303.21,540.12l-3.07-1.75c-1.42-0.06-2.09-0.19-2.02-0.39c0.11-0.3,0.52-0.16,0.63-0.35
						s-0.29-0.67-0.69-1.1c-0.4-0.44-0.09-0.46,0.1-0.43c0.65,0.25,1.35,0.66,2.08,1.22l3.93,1.11L303.21,540.12z M318.36,549.91
						c0.1,0.32,1.05,1.36,1.73,1.98c0.27,0.25,0.11,0.49-0.01,0.55c-1,0.44-1.51-0.32-2.26-0.8c-0.82-0.53-0.9,0.63-1.55,0.22
						c0.28-0.45,0.9-1.26,0.75-1.88c-0.07-0.27-0.93-3.32-2.6-9.15l2.22,0.31C317.65,546.55,318.22,549.48,318.36,549.91z"/>
					<path id="Clothes-Back_17_" class="st57" d="M311.55,533.22l-1.76-0.13c-0.98,3.82-3.66,5.94-8.77,4.37l-1.4,4.9
						c4.8,1.32,9.36-0.03,10.98-5.2C311.03,535.82,311.41,534.42,311.55,533.22z"/>
					<path id="Clothes_19_" class="st58" d="M312.48,532.84l-2.72,0.23c-0.64,4.54-2.49,7.23-3.7,10.46l7.12,1
						c-0.06,1.17-0.17,2.36-0.31,3.58l5.33,0.75c-0.3-6.6-2.15-11.93-5.55-16L312.48,532.84L312.48,532.84z"/>
					<path id="Shade_63_" class="st49" d="M312.97,537.9c-0.22,2.85-0.63,4.99-1.24,6.42l1.45,0.2
						C313.3,542.22,313.25,540.01,312.97,537.9z"/>
				</g>
			</g>
		</g>
		<g>
			<g id="humaaan-8_9_" transform="translate(34.000000, 18.000000)">
				<g transform="translate(85.439497, 0.000000)">
					<g id="Head_101_" transform="translate(56.316359, 32.329762)">
						<path class="st59" d="M216.04,600.09c0.43-0.38,0.76-0.88,0.8-1.48c0.12-1.73-2.32-1.69-2.91-0.89s-0.84,3.01-0.26,3.25
							c0.23,0.1,0.76,0.02,1.33-0.22l-0.65,2.26l1.93,0.27L216.04,600.09z"/>
					</g>
					<path id="hair_25_" class="st16" d="M269.56,628.72c0.06-0.13,0.18-0.24,0.33-0.25c0.04,0,0.07,0,0.11,0
						c0.01,0,0.02,0.01,0.02,0c0.01-0.01,0.01-0.02,0.01-0.03c0.01-0.02,0.02-0.05,0.03-0.07c0.04-0.08,0.1-0.14,0.17-0.19
						c0.13-0.1,0.3-0.15,0.46-0.14c0.09,0,0.17,0.03,0.25,0.07c0.04,0.02,0.08,0.05,0.12,0.07c0.01,0.01,0.05,0.04,0.06,0.04
						c0.01,0,0.05-0.03,0.06-0.04c0.15-0.09,0.33-0.1,0.5-0.08c0.19,0.03,0.38,0.06,0.52,0.2c0.03,0.03,0.06,0.06,0.09,0.09
						c0.01,0.02,0.03,0.04,0.04,0.05c0.01,0.01,0.02,0.02,0.02,0.03c0.01,0.02,0.01,0.02,0.03,0.02c0.08-0.04,0.18-0.05,0.26-0.02
						c0.05,0.01,0.1,0.04,0.15,0.07c0.02,0.01,0.05,0.04,0.07,0.05c0.02,0,0.06-0.02,0.08-0.02c0.1-0.02,0.21-0.02,0.31,0.02
						c0.1,0.03,0.2,0.09,0.29,0.16c0.04,0.03,0.07,0.07,0.1,0.12c0.01,0.02,0.02,0.04,0.03,0.06c0.01,0.01,0.02,0.02,0.03,0.04
						c0-0.01,0.12-0.04,0.14-0.04c0.06-0.01,0.12,0,0.18,0.03c0.11,0.05,0.19,0.15,0.26,0.24c0.03,0.05,0.06,0.1,0.09,0.16
						c0.01,0.03,0.02,0.05,0.03,0.08c0,0.01,0.01,0.03,0.01,0.04c0.01,0.02,0.01,0.02,0.03,0.03c0.09,0.04,0.16,0.11,0.21,0.19
						c0.05,0.08,0.08,0.18,0.09,0.28c0,0.01,0,0.03,0,0.03c0,0,0.02,0.01,0.03,0.01c0.02,0.01,0.05,0.01,0.07,0.02
						c0.04,0.02,0.08,0.04,0.12,0.06c0.14,0.1,0.24,0.26,0.27,0.43c0.03,0.18,0,0.37-0.09,0.53c-0.01,0.03-0.03,0.05-0.05,0.07
						c-0.01,0.01-0.01,0.01-0.01,0.03c0,0.02,0.01,0.04,0.02,0.06c0.02,0.06,0.03,0.12,0.03,0.19c0.01,0.1,0,0.21-0.03,0.31
						c-0.02,0.05-0.04,0.09-0.07,0.13c-0.01,0.02-0.03,0.04-0.05,0.05c-0.01,0.01-0.02,0.02-0.03,0.02c-0.01,0-0.01,0.01-0.02,0.01
						c-0.01,0.01-0.01,0-0.01,0.02c0,0.03,0.02,0.06,0.02,0.09c0.01,0.03,0.01,0.06,0.02,0.09c0.01,0.06,0.02,0.12,0.02,0.19
						c0,0.12-0.02,0.24-0.09,0.34c-0.03,0.04-0.07,0.08-0.12,0.1c-0.02,0.01-0.05,0.02-0.07,0.03c-0.01,0-0.03,0-0.04,0.01
						c-0.01,0.01,0,0.04,0,0.05c0,0.12-0.01,0.25-0.06,0.36c-0.05,0.1-0.13,0.19-0.24,0.24c-0.2,0.1-0.44,0.06-0.62-0.07
						c-0.05-0.03-0.09-0.07-0.12-0.11c-0.13,0.13-0.34,0.09-0.49,0.03c-0.19-0.08-0.32-0.23-0.38-0.42
						c-0.14,0.13-0.39,0.05-0.45-0.13c-0.02-0.04-0.02-0.09-0.02-0.13c0-0.02,0.01-0.05,0.01-0.07c0-0.03-0.01-0.06-0.02-0.09
						c-0.01-0.06-0.02-0.12-0.01-0.18c0-0.03,0.01-0.06,0.02-0.09c0.01-0.03,0-0.05,0-0.08c0.05,0.02,0.11,0.01,0.16,0
						c0.05-0.01,0.1-0.04,0.13-0.07c0.09-0.07,0.15-0.16,0.19-0.26c0.1-0.21,0.11-0.49-0.1-0.64c-0.1-0.07-0.41-0.12-0.54-0.11
						c-0.14,0.01-0.33,0.28-0.34,0.31c-0.01,0.02-0.01,0.04-0.02,0.05c-0.04,0.02-0.09-0.03-0.11-0.06
						c-0.04-0.04-0.06-0.1-0.08-0.15c-0.04-0.12-0.07-0.24-0.09-0.36c-0.01-0.09-0.02-0.19-0.04-0.28
						c-0.02-0.09-0.06-0.18-0.14-0.24c-0.08-0.07-0.18-0.11-0.27-0.16c-0.09-0.05-0.18-0.1-0.25-0.18
						c-0.01-0.02-0.03-0.04-0.04-0.06c-0.01-0.02-0.01-0.05-0.03-0.06c-0.02-0.02-0.06,0.01-0.09,0.03
						c-0.12,0.05-0.22,0.13-0.3,0.23c-0.09,0.09-0.16,0.18-0.22,0.29c-0.05,0.08-0.08,0.18-0.16,0.25c-0.03,0.03-0.24,0.02-0.3-0.02
						c-0.06-0.04-0.13-0.12-0.14-0.16c-0.02-0.05-0.01-0.1,0-0.15c0.01-0.03,0.03-0.05,0.04-0.08c0.01-0.02,0.02-0.05,0.03-0.07
						c0.03-0.04,0.07-0.06,0.12-0.07c-0.04-0.05-0.07-0.11-0.09-0.17c-0.02-0.06-0.03-0.14-0.03-0.21c0-0.05,0.02-0.11,0.05-0.15
						c0.04-0.04,0.1-0.07,0.15-0.09c-0.06-0.07-0.12-0.14-0.16-0.23C269.52,629.09,269.49,628.89,269.56,628.72z"/>
				</g>
				<g transform="translate(0.000000, 194.763541)">
					<polygon id="Leg_111_" class="st38" points="357.73,447.57 352.42,457.24 348.66,464.39 347.11,464.17 353.34,446.95 					"/>
					<path class="st39" d="M358.68,447.71c-0.45,3.51-1.15,8.22-1.08,8.46c0.04,0.15,1.84,2.1,5.38,5.84l-0.99,1.24
						c-4.31-3.72-6.55-5.8-6.73-6.24c-0.28-0.66-1.31-6.54-1.79-10.02L358.68,447.71z"/>
					
						<g transform="translate(58.923598, 197.107258) rotate(50.000000) translate(-58.923598, -197.107258) translate(27.115284, 176.249347)">
						<path id="Shoe_25_" class="st42" d="M431.83-42.05l-1.7,0.14l0.06,1.7c0.59,0.79,1.09,1.82,1.49,3.11l0.32-0.01l-0.11-3.08
							l-0.2-1.05l0.16-0.01L431.83-42.05z"/>
					</g>
					<g transform="translate(216.922274, 207.536214)">
						<path class="st42" d="M131.67,258.32l0.16-1.7l-1.69-0.24c-0.88,0.45-1.99,0.76-3.32,0.92l-0.05,0.32l3.05,0.43l1.07-0.01
							l-0.02,0.16L131.67,258.32z"/>
					</g>
				</g>
				<g transform="translate(22.922792, 85.404334)">
					<path id="Skin_68_" class="st59" d="M328.51,556.44l-2.68,0.69c-0.84,0.74-1.29,1.04-1.35,0.88c-0.1-0.23,0.2-0.38,0.16-0.54
						c-0.04-0.16-0.53-0.22-0.99-0.25c-0.46-0.03-0.3-0.21-0.18-0.3c0.51-0.21,1.12-0.36,1.84-0.45l2.83-1.52L328.51,556.44z
						 M338.28,561.68c0.08,0.25,0.83,1.08,1.37,1.57c0.21,0.2,0.09,0.39-0.01,0.43c-0.79,0.35-1.2-0.25-1.79-0.63
						c-0.65-0.42-0.71,0.5-1.23,0.17c0.22-0.35,0.71-1,0.59-1.49c-0.05-0.22-0.36-2.07-0.93-5.56l1.68,0.23
						C338.06,559.58,338.16,561.34,338.28,561.68z"/>
					<path id="Coat-Back_63_" class="st60" d="M334.19,548.7l-0.68-0.22c-2.89,1.86-4.55,5.99-8.03,7.81l0.63,1.05
						C331.68,557.43,333.78,552.41,334.19,548.7z"/>
					<path id="Shirt_63_" class="st24" d="M335.98,557.85c-2.78-0.39-4.83-0.68-6.14-0.87c-0.28-0.04-0.17-0.44-0.1-0.64
						c0.8-2.29,2.99-4.58,3.46-7.94l1.81-0.03C336.15,550.94,336.24,553.91,335.98,557.85z"/>
					<path id="Coat-Front_32_" class="st61" d="M336.9,551c0.27-0.04,0.5-0.18,0.68-0.43c0.81-1.08,0.67-1.75,0.01-2.06
						c-0.66-0.31-1.34,0.04-2.44-0.12c-0.06-0.01-0.12-0.01-0.17-0.01l-0.56-0.05c-2.35,5.17-3.3,8.7-2.84,10.61l4.83,0.68
						c0.19,0.71,0.39,1.31,0.58,1.8l1.32,0.19C339.01,557.62,338.54,554.09,336.9,551z"/>
					<path id="Shade_61_" class="st49" d="M335.76,556.71c-0.33,1.25-0.71,2.14-1.13,2.67l1.79,0.25
						C336.19,558.8,335.97,557.83,335.76,556.71z"/>
				</g>
			</g>
		</g>
		<g>
			<g>
				<g id="Head_100_" transform="translate(54.000000, 31.000000)">
					<path class="st13" d="M387.45,618.61c0.55-0.48,0.96-1.11,1.01-1.87c0.15-2.19-2.94-2.14-3.68-1.13
						c-0.74,1.01-1.07,3.8-0.33,4.11c0.29,0.12,0.97,0.02,1.68-0.28l-0.82,2.86l2.44,0.34L387.45,618.61z"/>
				</g>
				<path id="Hair_52_" class="st37" d="M440.39,647.69c-0.28,1.29-0.61,1.9-1.01,1.84c-0.6-0.08-1.06-0.54-1.32-0.57
					c-0.19-0.03-0.18,0.22-0.08,0.42c0.08,0.16,0.58,0.38,0.54,0.6s-0.41-0.01-0.43,0.13c-0.03,0.22-0.16,0.63,0.23,0.69
					c0.39,0.06,1.54,0.07,1.81-0.48c0.18-0.36,0.37-1.13,0.57-2.3c0.02,0,0.05,0,0.07,0.01c0.34,0.05,0.57,0.36,0.52,0.69
					c-0.02,0.17-0.12,0.32-0.24,0.41c0.11,0.22,0.24,0.45,0.39,0.69c0.74-0.31,1.41-1.43,0.91-2.68c-0.1-0.59-0.48-0.95-0.95-1.16
					c-0.37-0.22-0.78-0.3-1.15-0.25c-0.69-0.04-1.33,0.08-1.52,0.18c-0.09,0.65,0.01,0.86,1.08,0.99
					C440.06,647.08,440.22,647.34,440.39,647.69z"/>
			</g>
			<g>
				<polygon id="Leg_110_" class="st13" points="440.09,663.29 433.33,675.2 428.49,685.39 427.17,685.21 435.56,662.66 				"/>
				<path class="st13" d="M441.1,663.44c-0.57,4.44-0.64,10.51-0.56,10.81c0.06,0.2,2.57,2.94,7.54,8.23l-1.05,0.84
					c-6.07-4.79-9.23-7.47-9.46-8.02c-0.35-0.84-0.84-8.15-1.45-12.56L441.1,663.44z"/>
				
					<g transform="translate(51.500000, 189.000000) rotate(50.000000) translate(-51.500000, -189.000000) translate(21.000000, 169.000000)">
					<path id="shoe_60_" class="st16" d="M663.32,33.07c0.3-0.13,0.53-0.19,0.68-0.2c0.18-0.01,0.46,0.02,0.81,0.06
						c0.01,0.21,0.07,2.14,0.2,5.78c-0.49,0.17-0.76,0.09-0.81-0.23c-0.05-0.32-0.1-0.59-0.13-0.8l-1.29-2.64
						c-0.02-0.05,0-0.11,0.05-0.14c0,0,0,0,0,0l0.41-0.19c0.13-0.3,0.19-0.55,0.18-0.74c-0.01-0.15-0.07-0.36-0.21-0.62l0,0
						c-0.05-0.1-0.01-0.22,0.09-0.28C663.31,33.07,663.31,33.07,663.32,33.07z"/>
				</g>
				<g transform="translate(208.000000, 199.000000)">
					<path class="st16" d="M221.1,485.98c0.07,0.32,0.1,0.55,0.07,0.7c-0.03,0.18-0.09,0.45-0.2,0.79c-0.21-0.03-2.12-0.3-5.73-0.81
						c-0.08-0.51,0.04-0.77,0.37-0.76c0.33,0.01,0.6,0.01,0.81,0.01l2.83-0.81c0.05-0.02,0.11,0.02,0.13,0.07c0,0,0,0,0,0l0.11,0.44
						c0.28,0.18,0.51,0.28,0.69,0.31c0.15,0.02,0.37-0.01,0.65-0.09l0,0c0.11-0.03,0.22,0.03,0.26,0.14
						C221.1,485.97,221.1,485.97,221.1,485.98z"/>
				</g>
				<polygon id="Pant_9_" class="st20" points="433.62,685 427.44,683.43 435.12,662.59 440.74,663.39 				"/>
				<path class="st21" d="M447.01,680.72l-4.8,4.29c-3.67-5.35-5.76-8.79-6.27-10.34c-0.52-1.55-0.61-5.55-0.29-12.01l6.33,0.89
					c-0.48,5.66-0.68,8.62-0.61,8.9S443.32,675.49,447.01,680.72z"/>
			</g>
			<g>
				<path id="Skin_67_" class="st13" d="M433.27,661.88l-3.39,0.88c-1.06,0.94-1.63,1.31-1.71,1.12c-0.12-0.29,0.26-0.47,0.21-0.68
					c-0.05-0.21-0.66-0.27-1.25-0.31c-0.58-0.04-0.38-0.27-0.22-0.38c0.64-0.27,1.41-0.46,2.33-0.57l3.57-1.92L433.27,661.88z
					 M445.47,668.72c-0.11,0.31,0.01,1.72,0.18,2.62c0.07,0.36-0.21,0.46-0.34,0.43c-1.06-0.26-1.01-1.17-1.31-2.01
					c-0.33-0.92-1.1-0.05-1.37-0.76c0.49-0.19,1.48-0.46,1.73-1.04c0.07-2.94,0,0-0.24-6.81l1.51,1.52
					C445.47,668.72,445.62,662.67,445.47,668.72z"/>
				<path id="Coat-Back_62_" class="st62" d="M440.45,652.1l-0.86-0.27c-3.65,2.35-5.75,7.57-10.15,9.87l0.79,1.33
					C437.28,663.14,439.93,656.79,440.45,652.1z"/>
				<path id="Shirt_62_" class="st24" d="M442.72,663.67c-3.52-0.5-6.11-0.86-7.77-1.1c-0.35-0.05-0.22-0.55-0.13-0.8
					c1.01-2.9,3.78-5.79,4.38-10.04l2.29-0.04C442.92,654.93,443.05,658.69,442.72,663.67z"/>
				<path id="Coat-Front_31_" class="st63" d="M443.88,655.02c0.34-0.05,0.63-0.23,0.87-0.55c1.03-1.36,0.85-2.22,0.01-2.61
					c-0.84-0.39-1.7,0.05-3.09-0.15c-0.08-0.01-0.15-0.02-0.21-0.02l-0.71-0.06c-2.97,6.54-4.17,11.01-3.59,13.41l6.11,0.86
					c0.24,0.9,0.49,1.66,0.74,2.28l1.67,0.23C446.54,663.39,445.94,658.91,443.88,655.02z"/>
				<path id="Shade_34_" class="st49" d="M442.43,662.23c-0.42,1.58-0.9,2.7-1.43,3.37l2.27,0.32
					C442.98,664.87,442.7,663.64,442.43,662.23z"/>
			</g>
		</g>
		<g>
			<g>
				<path class="st18" d="M439.99,768.05V526.2h12.37v241.85c0,0.8-0.65,1.44-1.44,1.44h-9.49
					C440.63,769.5,439.99,768.85,439.99,768.05z"/>
			</g>
			<g>
				<path class="st83" d="M442.66,526.2c0,0,1.92,88.86,1.69,117.78c-0.24,28.93-0.87,66.12-0.55,95.05c0,0,1.67-79.07,1.35-106.42
					S445.24,542.01,442.66,526.2L442.66,526.2z"/>
			</g>
			<g>
				<path class="st83" d="M447.99,535.12c0,0,2.24,34.87,1.88,47.7c-0.36,12.83-0.89,17.62-1.07,34.37c0,0-0.66-19.7-0.33-30.9
					C449.31,557.96,447.99,535.12,447.99,535.12z"/>
			</g>
			<g>
				<path class="st83" d="M447.88,769.5c0,0,1.32-35.04,0.85-43.31c-0.46-8.27-1.93-19.1-1.47-24.88c0,0,1.94,13.13,2.25,21.2
					C449.89,732.1,449.99,754.67,447.88,769.5z"/>
			</g>
			<g>
				<path class="st8" d="M434.77,765.71c0.13-1.02-0.08-2.06-0.17-3.1c-0.09-1.03-0.01-2.19,0.55-2.92
					c0.27-0.35,0.69-0.57,1.04-0.37c0.35,0.19,0.51,0.7,0.64,1.16c0.31,1.08,0.61,2.15,0.92,3.23c0.51-0.35,0.41-1.37,0.74-1.99
					c0.44-0.83,1.53-0.56,2,0.25c0.48,0.81,0.52,1.91,0.54,2.92c0.54-1.17,1.41-2.07,2.41-2.5c0.78-0.24,1.2,2.97,1.01,4.58
					c0.21-1.05,1.43-1.23,2.06-0.5s0.78,1.93,0.77,3.02c0,0.22-0.02,0.47-0.13,0.63c-0.13,0.18-0.35,0.19-0.54,0.18
					c-3.8-0.07-8.64,0.9-12.34-0.24c-1.26-0.39-2.59-1.2-2.26-3.25C432.37,764.5,434.9,765.33,434.77,765.71z"/>
			</g>
			<g>
				<path class="st6" d="M444.64,766.09c0.59-0.57,1.43-0.36,1.94,0.49c-0.07-1.12,0.69-1.95,1.35-1.74
					c0.67,0.21,1.19,1.13,1.56,2.1c0.12,0.32,0.25,0.68,0.46,0.81c0.2,0.12,0.41,0.01,0.59-0.15c0.98-0.82,1.89-2.73,2.92-1.92
					c0.58,0.46,0.91,1.7,1.54,1.91c0.35,0.12,0.68-0.12,1.01-0.3c0.59-0.31,1.24-0.41,1.84-0.03c0.59,0.38,1.1,1.3,1.14,2.35
					c0,0.85-1.96,0.96-2.99,1c-3.19,0.1-6.39,0.12-9.58,0.05C444.98,770.64,442.36,768.27,444.64,766.09z"/>
			</g>
			<g>
				<path class="st18" d="M425.03,526.2h42.28c0.91,0,1.65,0.74,1.65,1.65v10.88c0,0.91-0.74,1.65-1.65,1.65h-42.28
					c-0.91,0-1.65-0.74-1.65-1.65v-10.88C423.37,526.94,424.12,526.2,425.03,526.2z"/>
			</g>
			<g>
				<path class="st83" d="M468.97,529.27c0,0-16.65,2.21-22.07,1.94c-5.42-0.27-12.39-0.99-17.81-0.63c0,0,14.82,1.92,19.94,1.55
					C454.15,531.77,466.01,532.23,468.97,529.27L468.97,529.27z"/>
			</g>
			<g>
				<path class="st83" d="M467.3,535.38c0,0-6.54,2.56-8.94,2.15s-3.3-1.02-6.44-1.23c0,0,3.69-0.76,5.79-0.38
					C463.02,536.9,467.3,535.38,467.3,535.38z"/>
			</g>
			<g>
				<path class="st83" d="M423.37,535.26c0,0,6.57,1.51,8.12,0.98c1.55-0.53,3.58-2.21,4.66-1.69c0,0-2.46,2.23-3.97,2.58
					C430.38,537.56,426.15,537.68,423.37,535.26z"/>
			</g>
		</g>
		<g>
			<rect x="910.2" y="653.04" class="st5" width="9.54" height="47.31"/>
			
				<rect x="967.45" y="653.04" transform="matrix(-1 -1.224647e-16 1.224647e-16 -1 2024.2905 1353.3939)" class="st31" width="89.39" height="47.31"/>
			<path class="st31" d="M1029.48,614.35h-95.43c0,0,0,2.87,6.18,38.78h122.64C1047.25,644.49,1029.48,614.35,1029.48,614.35z"/>
			<path class="st5" d="M934.05,614.35c0,0-14.22,28.54-33.4,38.78h66.8C951.82,644.49,934.05,614.35,934.05,614.35z"/>
			<rect x="929.28" y="653.04" class="st5" width="9.54" height="47.31"/>
			<rect x="948.37" y="653.04" class="st5" width="9.54" height="47.31"/>
			<rect x="957.91" y="653.04" class="st32" width="9.54" height="47.31"/>
			<rect x="900.65" y="653.04" class="st32" width="9.54" height="47.31"/>
			<rect x="996.08" y="653.04" class="st33" width="9.54" height="47.31"/>
			<rect x="1015.16" y="653.04" class="st33" width="9.54" height="47.31"/>
			<rect x="1034.25" y="653.04" class="st33" width="9.54" height="47.31"/>
			<rect x="976.99" y="653.04" class="st33" width="9.54" height="47.31"/>
			<rect x="1053.33" y="653.04" class="st33" width="9.54" height="47.31"/>
			<g>
				<defs>
					<path id="SVGID_94_" d="M934.05,614.35c0,0-14.22,28.54-33.4,38.78h66.8C951.82,644.49,934.05,614.35,934.05,614.35z"/>
				</defs>
				<clipPath id="SVGID_5_">
					<use xlink:href="#SVGID_94_"  style="overflow:visible;"/>
				</clipPath>
				<rect x="919.74" y="605.82" style="clip-path:url(#SVGID_5_);fill:#D21226;" width="9.54" height="47.31"/>
				<rect x="938.82" y="605.82" style="clip-path:url(#SVGID_5_);fill:#D21226;" width="9.54" height="47.31"/>
				<rect x="957.91" y="605.82" style="clip-path:url(#SVGID_5_);fill:#D21226;" width="9.54" height="47.31"/>
				<rect x="900.65" y="605.82" style="clip-path:url(#SVGID_5_);fill:#D21226;" width="9.54" height="47.31"/>
			</g>
			<path class="st33" d="M1029.48,614.35h-9.54c0,0,17.77,30.14,33.4,38.78h9.54C1047.25,644.49,1029.48,614.35,1029.48,614.35z"/>
			<path class="st33" d="M1010.39,614.35h-9.54c0,0,17.77,30.14,33.4,38.78h9.54C1028.16,644.49,1010.39,614.35,1010.39,614.35z"/>
			<path class="st33" d="M991.31,614.35h-9.54c0,0,17.77,30.14,33.4,38.78h9.54C1009.08,644.49,991.31,614.35,991.31,614.35z"/>
			<path class="st33" d="M972.22,614.35h-9.54c0,0,17.77,30.14,33.4,38.78h9.54C989.99,644.49,972.22,614.35,972.22,614.35z"/>
			<path class="st33" d="M953.14,614.35h-9.54c0,0,17.77,30.14,33.4,38.78h9.54C970.91,644.49,953.14,614.35,953.14,614.35z"/>
			<linearGradient id="SVGID_6_" gradientUnits="userSpaceOnUse" x1="919.7378" y1="676.697" x2="948.3655" y2="676.697">
				<stop  offset="0" style="stop-color:#E95019"/>
				<stop  offset="0.0189" style="stop-color:#EC6219"/>
				<stop  offset="0.0525" style="stop-color:#EF7A19"/>
				<stop  offset="0.0912" style="stop-color:#F28C19"/>
				<stop  offset="0.1364" style="stop-color:#F59A19"/>
				<stop  offset="0.1923" style="stop-color:#F7A418"/>
				<stop  offset="0.2707" style="stop-color:#F8A918"/>
				<stop  offset="0.4884" style="stop-color:#F8AB18"/>
				<stop  offset="0.6628" style="stop-color:#F8C400"/>
				<stop  offset="0.8861" style="stop-color:#F8DE00"/>
				<stop  offset="1" style="stop-color:#F7E700"/>
			</linearGradient>
			<rect x="919.74" y="653.04" class="st28" width="28.63" height="47.31"/>
			<path class="st32" d="M934.05,653.04h14.31l4.15,43.19c-1.94-0.67-4.15,4.12-4.15,4.12
				C948.74,670.42,934.05,653.04,934.05,653.04z"/>
			<path class="st32" d="M934.05,653.04h-14.31l-4.15,43.19c1.94-0.67,4.15,4.12,4.15,4.12
				C919.36,670.42,934.05,653.04,934.05,653.04z"/>
		</g>
		<g>
			<g>
				<g>
					<g id="Head_99_" transform="translate(54.000000, 31.000000)">
						<g>
							<g>
								<path class="st13" d="M871.63,638.63c-0.38-0.45-0.64-1-0.6-1.62c0.13-1.79,2.61-1.39,3.09-0.49
									c0.48,0.9,0.43,3.19-0.2,3.35c-0.25,0.06-0.78-0.09-1.32-0.42l0.34,2.4h-2L871.63,638.63z"/>
							</g>
						</g>
					</g>
					<g id="Hair_35_">
						<g>
							<path class="st72" d="M926.71,668.21c0.01,1.22,0.72,2.44,0.72,2.11c-0.01-0.3,0.8-0.82,1.02-0.82c0.16,0,0.12,0.2,0.02,0.34
								c-0.09,0.12-0.51,0.24-0.51,0.42s-1.18,0.16-1.33-0.32c-0.1-0.31-0.17-0.55-0.2-1.52c-0.02,0-0.04,0-0.06,0
								c-0.28,0-0.5,0.22-0.5,0.5c0,0.14,0.06,0.27,0.15,0.36c-0.12,0.16-0.25,0.33-0.39,0.51c-0.56-0.34-0.97-1.32-0.43-2.26
								c0.15-0.46,0.49-0.71,0.9-0.82c0.33-0.14,0.67-0.15,0.95-0.07c0.56,0.05,1.06,0.22,1.21,0.32c0,0.53-0.1,0.69-0.98,0.68
								C927.05,667.75,926.88,667.95,926.71,668.21z"/>
						</g>
					</g>
				</g>
				<g>
					<g id="Leg_66_">
						<g>
							<polygon class="st54" points="925.17,680.82 929.27,691.18 932.01,699.94 933.1,699.94 928.9,680.82 							"/>
						</g>
					</g>
					<g>
						<g>
							<path class="st15" d="M924.35,680.82c-0.04,3.64-0.68,8.55-0.78,8.77c-0.07,0.15-2.41,2.08-7.01,5.77l0.75,0.8
								c5.44-3.17,8.28-4.97,8.53-5.39c0.38-0.63,1.61-6.47,2.59-9.96H924.35z"/>
						</g>
					</g>
					
						<g transform="translate(51.500000, 189.000000) rotate(50.000000) translate(-51.500000, -189.000000) translate(21.000000, 169.000000)">
						<g id="shoe_59_">
							<g>
								<path class="st54" d="M974.17-317.28c-0.09,0.25-0.14,0.44-0.14,0.56c0,0.15,0.03,0.37,0.08,0.66c0.17,0,1.74,0,4.71,0
									c0.12-0.4,0.05-0.62-0.21-0.65c-0.26-0.03-0.48-0.06-0.66-0.09l-2.19-0.98c-0.04-0.02-0.09,0-0.11,0.04c0,0,0,0,0,0
									l-0.14,0.34c-0.24,0.11-0.44,0.17-0.59,0.17c-0.12,0-0.29-0.05-0.51-0.15l0,0c-0.08-0.04-0.18,0-0.22,0.08
									C974.18-317.29,974.18-317.28,974.17-317.28z"/>
							</g>
						</g>
					</g>
					<g transform="translate(208.000000, 199.000000)">
						<g>
							<g>
								<path class="st54" d="M723.57,500.54c-0.09,0.25-0.14,0.44-0.14,0.56c0,0.15,0.03,0.37,0.08,0.66c0.17,0,1.74,0,4.71,0
									c0.12-0.4,0.05-0.62-0.21-0.65c-0.26-0.03-0.48-0.06-0.66-0.09l-2.19-0.98c-0.04-0.02-0.09,0-0.11,0.04c0,0,0,0,0,0
									l-0.14,0.34c-0.24,0.11-0.44,0.17-0.59,0.17c-0.12,0-0.29-0.05-0.51-0.15l0,0c-0.08-0.04-0.18,0-0.22,0.08
									C723.57,500.53,723.57,500.54,723.57,500.54z"/>
							</g>
						</g>
					</g>
				</g>
				<g>
					<g id="Skin_66_">
						<g>
							<path class="st73" d="M931.42,679l2.66,1.95c0.72,0.19,1.32,0.44,1.81,0.73c0.11,0.1,0.25,0.32-0.22,0.28
								s-0.98-0.05-1.04,0.11c-0.07,0.16,0.22,0.36,0.09,0.57c-0.09,0.15-0.51-0.22-1.25-1.09l-2.64-1.09L931.42,679z
								 M920.79,679.69l1.39-1.05c-0.97,5.46-0.69,3.08-0.97,5.46c0.14,0.5,0.9,0.83,1.28,1.04c-0.3,0.55-0.82-0.24-1.19,0.46
								c-0.34,0.64-0.4,1.38-1.28,1.47c-0.11,0.01-0.32-0.1-0.23-0.38c0.23-0.71,0.49-1.83,0.44-2.09
								C920.79,679.69,920.23,684.58,920.79,679.69z"/>
						</g>
					</g>
					<g id="Coat-Back_61_">
						<g>
							<path class="st54" d="M926.16,671.75l0.72-0.12c2.68,2.31,3.78,6.75,7.06,9.11l-0.79,0.98
								C927.46,681.01,926.05,675.59,926.16,671.75z"/>
						</g>
					</g>
					<g id="Shirt_61_">
						<g>
							<path class="st15" d="M924.33,682.57c2.89,0,3.71,0,5.07,0c0.29,0,0.24-0.42,0.19-0.63c-0.49-2.45-0.77-6.29-2.39-10.34
								l-1.84-0.29C923.84,673.76,924.63,678.53,924.33,682.57z"/>
						</g>
					</g>
					<g>
						<g>
							<path class="st15" d="M925.97,671.35l-0.58-0.03c-0.05-0.01-0.11-0.01-0.17-0.01c-1.15,0-2.43,2.33-2.16,2.41
								c-2.11,2.91-3.1,6.44-2.97,10.61h1.37c0.27-0.47,0.56-1.06,0.85-1.75c0.35-0.81,0.71-1.77,1.09-2.88
								c0.16,1.32,0.41,2.28,0.77,2.88h3.16C928.08,680.7,927.63,676.96,925.97,671.35z"/>
						</g>
					</g>
				</g>
				<g>
					<g>
						<path class="st68" d="M926.48,671.44l-2.3-0.3c0,0-0.79,1.68-0.28,2.14c0.51,0.46,2.39,0.52,2.7,0.18
							c0.11-0.12,0.11-0.54,0.09-0.86l0.57,0.13c-0.02-0.17-0.06-1.14-0.06-1.14L926.48,671.44z"/>
					</g>
				</g>
				<g>
					<g>
						<path class="st5" d="M924.24,671.24l2.18,0.28c0.04,0.15,0.13,0.57,0.18,0.99l-2.69-0.35
							C924.02,671.76,924.18,671.38,924.24,671.24 M924.19,671.15c0,0-0.25,0.54-0.38,1.09l2.88,0.37
							c-0.06-0.56-0.21-1.16-0.21-1.16L924.19,671.15L924.19,671.15z"/>
					</g>
				</g>
				<g>
					<g>
						
							<rect x="923.69" y="671.69" transform="matrix(0.6723 -0.7402 0.7402 0.6723 -194.3784 904.3357)" class="st5" width="1.26" height="0.08"/>
					</g>
				</g>
				<g>
					<g>
						
							<rect x="924.45" y="671.12" transform="matrix(0.8871 -0.4615 0.4615 0.8871 -205.6738 502.4444)" class="st5" width="0.08" height="1.26"/>
					</g>
				</g>
				<g>
					<g>
						
							<rect x="924.55" y="671.8" transform="matrix(0.6723 -0.7402 0.7402 0.6723 -194.1802 905.006)" class="st5" width="1.26" height="0.08"/>
					</g>
				</g>
				<g>
					<g>
						
							<rect x="925.3" y="671.23" transform="matrix(0.8871 -0.4615 0.4615 0.8871 -205.6335 502.8859)" class="st5" width="0.08" height="1.26"/>
					</g>
				</g>
				<g>
					<g>
						
							<rect x="925.4" y="671.91" transform="matrix(0.6723 -0.7402 0.7402 0.6723 -193.9834 905.6713)" class="st5" width="1.26" height="0.08"/>
					</g>
				</g>
				<g>
					<g>
						
							<rect x="926.15" y="671.34" transform="matrix(0.8871 -0.4615 0.4615 0.8871 -205.5885 503.2906)" class="st5" width="0.08" height="1.26"/>
					</g>
				</g>
				<g>
					<g>
						<circle class="st71" cx="927.11" cy="673.24" r="0.19"/>
					</g>
				</g>
				<g>
					<g>
						<circle class="st71" cx="927.3" cy="674.29" r="0.19"/>
					</g>
				</g>
				<g>
					<g>
						<circle class="st71" cx="927.56" cy="675.34" r="0.19"/>
					</g>
				</g>
				<g>
					<g>
						<circle class="st71" cx="927.76" cy="676.39" r="0.19"/>
					</g>
				</g>
				<g>
					<g>
						<circle class="st71" cx="927.95" cy="677.44" r="0.19"/>
					</g>
				</g>
				<g>
					<g>
						<circle class="st71" cx="928.21" cy="678.49" r="0.19"/>
					</g>
				</g>
				<g>
					<g>
						<circle class="st71" cx="928.4" cy="679.54" r="0.19"/>
					</g>
				</g>
				<g>
					<g>
						<circle class="st71" cx="928.63" cy="680.59" r="0.19"/>
					</g>
				</g>
				<g>
					<g>
						<circle class="st71" cx="928.83" cy="681.63" r="0.19"/>
					</g>
				</g>
				<g>
					<g>
						<path class="st64" d="M927.76,682.52c-0.01,0-0.01,0-0.01,0l0.01-0.04l0-0.04c0,0,0.01,0,0.03-0.03
							c0.14-0.19,0.45-1.38-1.23-8.94l0.08-0.02c1.67,7.55,1.39,8.83,1.19,9.03C927.81,682.52,927.78,682.52,927.76,682.52z"/>
					</g>
				</g>
				<g>
					<g>
						<polygon class="st64" points="916.91,695.73 916.86,695.67 924.45,690.36 925.99,682.56 926.07,682.58 924.53,690.41 
							924.51,690.42 						"/>
					</g>
				</g>
				<g>
					<g>
						<path class="st64" d="M932.53,699.57c-2.43-9.17-4.86-15.85-4.88-15.91l0.08-0.03c0.02,0.07,2.46,6.74,4.88,15.92
							L932.53,699.57z"/>
					</g>
				</g>
				<g>
					<g>
						<path class="st64" d="M929.44,682.59l-0.08-0.04c0.01-0.03,0.32-0.95-2.13-9.8l0.08-0.02
							C929.8,681.73,929.45,682.56,929.44,682.59z"/>
					</g>
				</g>
				<g>
					<g>
						<g>
							<path class="st15" d="M924.99,668.01c0,0,1.35,0.12,2.28-0.15c1.9,0.49,1.78,0.27,1.78,0.27s-0.39-0.65-0.83-0.78
								c-0.08-0.02,0.3-2.57,0.48-2.82c0.18-0.25-0.03-0.72-0.36-0.77s-3.13-0.04-3.13-0.04s-0.84-0.03-0.66,0.64
								S925,667.19,924.99,668.01z"/>
						</g>
					</g>
					<g>
						<g>
							<circle class="st68" cx="928.46" cy="663.95" r="0.47"/>
						</g>
					</g>
					<g>
						<g>
							<path class="st5" d="M926.24,667.82l-0.04-0.07c0.02-0.01,1.62-0.88,2.22-3.34l0.08,0.02
								C927.89,666.93,926.25,667.81,926.24,667.82z"/>
						</g>
					</g>
					<g>
						<g>
							<circle class="st69" cx="926.24" cy="667.79" r="0.17"/>
						</g>
					</g>
					<g>
						<g>
							<path class="st70" d="M928.22,667.35c0,0-0.69,0.14-0.81,0.28c-0.12,0.14,0.17-0.57,0.32-0.63c0.15-0.06-0.02-0.16-0.02-0.16
								s-0.17-0.18,0.32-0.52c0.2-0.14,0.39-0.63,0.39-0.63S928.18,667.03,928.22,667.35z"/>
						</g>
					</g>
				</g>
				<g>
					<g>
						<path class="st73" d="M934.6,682.09l-0.28,0.01v0.35c0.22,0.19,0.49,0.36,0.53,0.28C934.98,682.55,934.59,682.25,934.6,682.09
							z"/>
					</g>
				</g>
			</g>
			<g>
				<path class="st68" d="M920.1,684.32h1.37c0,0,0.52-0.9,0.52-1.03s-1.81-0.22-1.89-0.2C920.02,683.12,920.1,684.32,920.1,684.32z
					"/>
			</g>
			<g>
				<path class="st5" d="M921.35,684.17h-1l0-0.04c-0.05-0.85-0.01-0.87,0.03-0.88c0.05-0.02,1.19,0.04,1.31,0.13
					c0.02,0.01,0.03,0.03,0.03,0.04c0.01,0.09-0.25,0.54-0.36,0.72L921.35,684.17z M920.43,684.09h0.87
					c0.15-0.27,0.31-0.56,0.33-0.64c-0.14-0.06-1.05-0.12-1.21-0.11C920.4,683.42,920.41,683.76,920.43,684.09z"/>
			</g>
			<g>
				<path class="st68" d="M933.94,680.74l-0.79,0.98c0,0-1.04-0.02-1.22-0.24c-0.18-0.21,1.04-1.43,1.16-1.44
					C933.21,680.03,933.94,680.74,933.94,680.74z"/>
			</g>
			<g>
				<path class="st5" d="M933.08,681.44l-0.02,0c-0.07,0-0.67-0.02-0.79-0.16c-0.04-0.05-0.01-0.13,0-0.16
					c0.1-0.23,0.65-0.8,0.75-0.81c0.08,0,0.35,0.24,0.56,0.45l0.03,0.03L933.08,681.44z M933.03,680.4
					c-0.1,0.05-0.63,0.59-0.69,0.79c-0.01,0.02,0,0.03,0,0.03c0.07,0.08,0.46,0.12,0.71,0.13l0.45-0.56
					C933.31,680.61,933.09,680.42,933.03,680.4z"/>
			</g>
		</g>
		<g>
			<g>
				<g id="Leg_65_">
					<g>
						<polygon class="st54" points="897.78,685.35 901.9,695.78 904.67,704.6 905.76,704.6 901.53,685.35 						"/>
					</g>
				</g>
				<g>
					<g>
						<path class="st15" d="M896.95,685.35c-0.04,3.67-0.68,8.6-0.79,8.83c-0.07,0.15-2.42,2.09-7.06,5.81l0.75,0.8
							c5.47-3.19,8.34-5,8.59-5.43c0.38-0.64,1.62-6.51,2.61-10.02H896.95z"/>
					</g>
				</g>
				
					<g transform="translate(51.500000, 189.000000) rotate(50.000000) translate(-51.500000, -189.000000) translate(21.000000, 169.000000)">
					<g id="shoe_58_">
						<g>
							<path class="st54" d="M960.07-293.28c-0.09,0.25-0.14,0.44-0.14,0.56c0,0.15,0.03,0.37,0.08,0.66c0.18,0,1.75,0,4.74,0
								c0.12-0.41,0.05-0.63-0.21-0.66c-0.27-0.03-0.49-0.06-0.66-0.09l-2.2-0.98c-0.04-0.02-0.09,0-0.11,0.04c0,0,0,0,0,0
								l-0.14,0.34c-0.25,0.11-0.45,0.17-0.6,0.17c-0.12,0-0.3-0.05-0.52-0.15l0,0c-0.08-0.04-0.18,0-0.22,0.08
								C960.08-293.28,960.08-293.28,960.07-293.28z"/>
						</g>
					</g>
				</g>
				<g transform="translate(208.000000, 199.000000)">
					<g>
						<g>
							<path class="st54" d="M696.22,505.2c-0.09,0.25-0.14,0.44-0.14,0.56c0,0.15,0.03,0.37,0.08,0.66c0.18,0,1.75,0,4.74,0
								c0.12-0.41,0.05-0.63-0.21-0.66c-0.27-0.03-0.49-0.06-0.66-0.09l-2.2-0.98c-0.04-0.02-0.09,0-0.11,0.04c0,0,0,0,0,0
								l-0.14,0.34c-0.25,0.11-0.45,0.17-0.6,0.17c-0.12,0-0.3-0.05-0.52-0.15l0,0c-0.08-0.04-0.18,0-0.22,0.08
								C696.22,505.19,696.22,505.19,696.22,505.2z"/>
						</g>
					</g>
				</g>
			</g>
			<g>
				<g>
					<g>
						<path class="st73" d="M903.98,683.27l2.6,1.22c0.71,0.92,1.11,1.3,1.21,1.16c0.14-0.21-0.14-0.42-0.06-0.58
							c0.07-0.16,0.19,0.68,0.66,0.74c0.48,0.06-0.26-1.16-0.37-1.27c0,0-0.37-0.44-0.79-0.61l-2.71-1.83L903.98,683.27z"/>
					</g>
				</g>
				<g>
					<g>
						<path class="st73" d="M893.37,684.21l1.4-1.06c-0.98,5.49-0.7,3.1-0.98,5.49c0.14,0.5,0.91,0.84,1.29,1.04
							c-0.3,0.55-0.83-0.24-1.2,0.46c-0.34,0.64-0.4,1.39-1.29,1.48c-0.11,0.01-0.32-0.1-0.23-0.39c0.24-0.71,0.5-1.84,0.44-2.11
							C893.37,684.21,892.8,689.14,893.37,684.21z"/>
					</g>
				</g>
				<g id="Coat-Back_60_">
					<g>
						<path class="st54" d="M897.89,676.17l0.69-0.25c3.07,1.81,4.95,6.02,8.62,7.76l-0.61,1.11
							C900.83,685.11,898.46,680,897.89,676.17z"/>
					</g>
				</g>
				<g>
					<g>
						<g>
							<path class="st68" d="M906.6,684.79l0.61-1.11l-0.98-0.55c0,0-0.66,1.24-0.58,1.67C905.64,684.81,906.44,684.84,906.6,684.79
								z"/>
						</g>
					</g>
					<g>
						<g>
							<path class="st5" d="M906.27,684.53c-0.14,0-0.3-0.01-0.32-0.01l-0.03,0l-0.01-0.03c-0.05-0.28,0.34-1.01,0.36-1.04
								l0.02-0.04l0.67,0.37l-0.4,0.72l-0.02,0.01C906.49,684.53,906.38,684.53,906.27,684.53z M905.98,684.44
								c0.17,0.01,0.43,0.01,0.51,0l0.34-0.62l-0.52-0.29C906.2,683.74,905.98,684.22,905.98,684.44z"/>
						</g>
					</g>
				</g>
				<g id="Shirt_60_">
					<g>
						<path class="st15" d="M896.93,687.11c2.91,0,3.73,0,5.11,0c0.29,0,0.24-0.42,0.2-0.64c-0.49-2.47-0.77-6.33-2.4-10.41
							l-1.85-0.29C896.44,678.24,897.23,683.04,896.93,687.11z"/>
					</g>
				</g>
				<g>
					<g>
						<path class="st15" d="M898.59,675.82l-0.58-0.03c-0.05-0.01-0.11-0.01-0.17-0.01c-1.15,0-2.44,2.35-2.17,2.42
							c-2.12,2.93-3.12,6.48-2.99,10.68h1.38c0.27-0.48,0.56-1.06,0.86-1.76c0.35-0.82,0.72-1.78,1.1-2.9
							c0.16,1.33,0.42,2.3,0.78,2.9h3.18C900.71,685.23,900.25,681.46,898.59,675.82z"/>
					</g>
				</g>
			</g>
			<g>
				<g id="Head_98_" transform="translate(54.000000, 31.000000)">
					<g>
						<g>
							<path class="st13" d="M844.25,643.09c-0.39-0.45-0.65-1.01-0.61-1.63c0.13-1.8,2.63-1.4,3.11-0.49
								c0.49,0.91,0.43,3.21-0.2,3.37c-0.25,0.06-0.79-0.09-1.33-0.42l0.34,1.88h-2.02L844.25,643.09z"/>
						</g>
					</g>
				</g>
				<g id="Hair_34_">
					<g>
						<path class="st14" d="M899.33,672.65c0.08,1.07,0.28,1.61,0.61,1.61c0.5,0,0.92-0.32,1.14-0.32c0.16,0,0.12,0.2,0.02,0.35
							c-0.09,0.12-0.51,0.24-0.51,0.43c0,0.19,0.33,0.04,0.33,0.15c0,0.18,0.06,0.53-0.26,0.53c-0.32,0-1.26-0.12-1.42-0.6
							c-0.1-0.31-0.17-0.96-0.2-1.93c-0.02,0-0.04,0-0.06,0c-0.28,0-0.5,0.23-0.5,0.5c0,0.14,0.06,0.27,0.15,0.36
							c-0.12,0.16-0.25,0.34-0.4,0.51c-0.56-0.34-0.98-1.33-0.43-2.27c0.15-0.46,0.5-0.71,0.9-0.83c0.33-0.14,0.67-0.15,0.96-0.07
							c0.57,0.05,1.07,0.22,1.21,0.32c0,0.54-0.1,0.69-0.99,0.68C899.67,672.2,899.5,672.4,899.33,672.65z"/>
					</g>
				</g>
			</g>
			<g>
				<g>
					<path class="st68" d="M899.1,675.91l-2.31-0.3c0,0-0.79,1.69-0.28,2.16c0.51,0.46,2.41,0.52,2.71,0.18
						c0.11-0.12,0.11-0.54,0.09-0.86l0.58,0.14c-0.02-0.18-0.06-1.15-0.06-1.15L899.1,675.91z"/>
				</g>
			</g>
			<g>
				<g>
					<path class="st5" d="M896.84,675.7l2.19,0.28c0.04,0.15,0.13,0.58,0.18,1l-2.7-0.35C896.62,676.23,896.78,675.84,896.84,675.7
						 M896.79,675.61c0,0-0.25,0.54-0.38,1.09l2.9,0.38c-0.06-0.56-0.21-1.17-0.21-1.17L896.79,675.61L896.79,675.61z"/>
				</g>
			</g>
			<g>
				<g>
					
						<rect x="896.29" y="676.16" transform="matrix(0.6723 -0.7402 0.7402 0.6723 -206.6652 885.5203)" class="st5" width="1.27" height="0.08"/>
				</g>
			</g>
			<g>
				<g>
					
						<rect x="897.05" y="675.59" transform="matrix(0.8871 -0.4615 0.4615 0.8871 -210.8344 490.3394)" class="st5" width="0.08" height="1.27"/>
				</g>
			</g>
			<g>
				<g>
					
						<rect x="897.15" y="676.27" transform="matrix(0.6723 -0.7402 0.7402 0.6723 -206.4656 886.195)" class="st5" width="1.27" height="0.08"/>
				</g>
			</g>
			<g>
				<g>
					
						<rect x="897.91" y="675.7" transform="matrix(0.8871 -0.4615 0.4615 0.8871 -210.7887 490.7498)" class="st5" width="0.08" height="1.27"/>
				</g>
			</g>
			<g>
				<g>
					
						<rect x="898.01" y="676.38" transform="matrix(0.6723 -0.7402 0.7402 0.6723 -206.2675 886.8647)" class="st5" width="1.27" height="0.08"/>
				</g>
			</g>
			<g>
				<g>
					
						<rect x="898.77" y="675.81" transform="matrix(0.8871 -0.4615 0.4615 0.8871 -210.7434 491.1572)" class="st5" width="0.08" height="1.27"/>
				</g>
			</g>
			<g>
				<g>
					<circle class="st71" cx="899.73" cy="677.72" r="0.19"/>
				</g>
			</g>
			<g>
				<g>
					<circle class="st71" cx="899.92" cy="678.78" r="0.19"/>
				</g>
			</g>
			<g>
				<g>
					<circle class="st71" cx="900.19" cy="679.83" r="0.19"/>
				</g>
			</g>
			<g>
				<g>
					<circle class="st71" cx="900.38" cy="680.89" r="0.19"/>
				</g>
			</g>
			<g>
				<g>
					<circle class="st71" cx="900.58" cy="681.95" r="0.19"/>
				</g>
			</g>
			<g>
				<g>
					<circle class="st71" cx="900.84" cy="683" r="0.19"/>
				</g>
			</g>
			<g>
				<g>
					<circle class="st71" cx="901.04" cy="684.06" r="0.19"/>
				</g>
			</g>
			<g>
				<g>
					<circle class="st71" cx="901.26" cy="685.12" r="0.19"/>
				</g>
			</g>
			<g>
				<g>
					<circle class="st71" cx="901.46" cy="686.17" r="0.19"/>
				</g>
			</g>
			<g>
				<g>
					<path class="st64" d="M900.39,687.06c-0.01,0-0.01,0-0.01,0l0.01-0.04l0-0.04c0,0,0.01,0,0.03-0.03c0.14-0.19,0.45-1.39-1.24-9
						l0.08-0.02c1.68,7.6,1.4,8.89,1.2,9.09C900.43,687.06,900.4,687.06,900.39,687.06z"/>
				</g>
			</g>
			<g>
				<g>
					<polygon class="st64" points="889.46,700.37 889.41,700.3 897.05,694.95 898.6,687.11 898.69,687.12 897.13,695 897.12,695.01 
											"/>
				</g>
			</g>
			<g>
				<g>
					<path class="st64" d="M905.19,704.22c-2.44-9.23-4.89-15.95-4.91-16.02l0.08-0.03c0.02,0.07,2.47,6.79,4.92,16.03
						L905.19,704.22z"/>
				</g>
			</g>
			<g>
				<g>
					<path class="st64" d="M902.07,687.13L902,687.1l0.04,0.02L902,687.1c0.01-0.03,0.32-0.95-2.15-9.87l0.08-0.02
						C902.44,686.27,902.09,687.1,902.07,687.13z"/>
				</g>
			</g>
			<g>
				<g>
					<g>
						<path class="st15" d="M897.64,672.37c0,0,1.36,0.11,2.29-0.18c1.92,0.47,1.8,0.25,1.8,0.25s-0.4-0.65-0.85-0.77
							c-0.08-0.02,0.27-2.59,0.44-2.85s-0.04-0.72-0.37-0.77c-0.33-0.05-3.15,0-3.15,0s-0.85-0.02-0.65,0.65
							C897.35,669.38,897.64,671.54,897.64,672.37z"/>
					</g>
				</g>
				<g>
					<g>
						<circle class="st68" cx="901.08" cy="668.24" r="0.47"/>
					</g>
				</g>
				<g>
					<g>
						<path class="st5" d="M898.89,672.17l-0.04-0.07c0.02-0.01,1.62-0.9,2.19-3.39l0.08,0.02
							C900.54,671.25,898.9,672.16,898.89,672.17z"/>
					</g>
				</g>
				<g>
					<g>
						<circle class="st69" cx="898.89" cy="672.13" r="0.17"/>
					</g>
				</g>
				<g>
					<g>
						<path class="st70" d="M900.88,671.67c0,0-0.7,0.15-0.81,0.29s0.17-0.57,0.32-0.64c0.15-0.07-0.03-0.16-0.03-0.16
							s-0.18-0.18,0.32-0.53c0.2-0.14,0.38-0.64,0.38-0.64S900.83,671.34,900.88,671.67z"/>
					</g>
				</g>
			</g>
			<g>
				<g>
					<g>
						<path class="st68" d="M892.67,688.88h1.38c0,0,0.53-0.94,0.57-1.11c0.04-0.18-1.94-0.14-1.95-0.07
							S892.54,688.62,892.67,688.88z"/>
					</g>
				</g>
				<g>
					<g>
						<path class="st5" d="M893.91,688.68h-0.9l-0.01-0.02c-0.05-0.1-0.06-0.35-0.01-0.73l0-0.02c0-0.01,0.01-0.03,0.03-0.04
							c0.09-0.03,1.11-0.06,1.23,0.04c0.02,0.02,0.03,0.04,0.02,0.06c-0.03,0.11-0.32,0.64-0.35,0.7L893.91,688.68z M893.06,688.6
							h0.79c0.12-0.22,0.29-0.53,0.33-0.63c-0.13-0.05-0.96-0.06-1.11-0.02C893.02,688.36,893.04,688.53,893.06,688.6z
							 M893.08,687.92L893.08,687.92C893.08,687.92,893.08,687.92,893.08,687.92z"/>
					</g>
				</g>
			</g>
		</g>
		<g>
			<g>
				<g>
					<g id="Head_97_" transform="translate(54.000000, 31.000000)">
						<g>
							<g>
								<path class="st13" d="M819.22,646.9c-0.38-0.45-0.64-1-0.6-1.62c0.13-1.79,2.61-1.39,3.09-0.49c0.48,0.9,0.43,3.19-0.2,3.35
									c-0.25,0.06-0.78-0.09-1.32-0.42l0.34,2.4h-2L819.22,646.9z"/>
							</g>
						</g>
					</g>
					<g id="Hair_33_">
						<g>
							<path class="st72" d="M874.29,676.47c0.01,1.22,0.72,2.44,0.72,2.11c-0.01-0.3,0.8-0.82,1.02-0.82c0.16,0,0.12,0.2,0.02,0.34
								c-0.09,0.12-0.51,0.24-0.51,0.42s-1.18,0.16-1.33-0.32c-0.1-0.31-0.17-0.55-0.2-1.52c-0.02,0-0.04,0-0.06,0
								c-0.28,0-0.5,0.22-0.5,0.5c0,0.14,0.06,0.27,0.15,0.36c-0.12,0.16-0.25,0.33-0.39,0.51c-0.56-0.34-0.97-1.32-0.43-2.26
								c0.15-0.46,0.49-0.71,0.9-0.82c0.33-0.14,0.67-0.15,0.95-0.07c0.56,0.05,1.06,0.22,1.21,0.32c0,0.53-0.1,0.69-0.98,0.68
								C874.63,676.01,874.47,676.21,874.29,676.47z"/>
						</g>
					</g>
				</g>
				<g>
					<g id="Leg_64_">
						<g>
							<polygon class="st54" points="872.76,689.08 876.85,699.44 879.6,708.21 880.68,708.21 876.48,689.08 							"/>
						</g>
					</g>
					<g>
						<g>
							<path class="st15" d="M871.93,689.08c-0.04,3.64-0.68,8.55-0.78,8.77c-0.07,0.15-2.41,2.08-7.01,5.77l0.75,0.8
								c5.44-3.17,8.28-4.97,8.53-5.39c0.38-0.63,1.61-6.47,2.59-9.96H871.93z"/>
						</g>
					</g>
					
						<g transform="translate(51.500000, 189.000000) rotate(50.000000) translate(-51.500000, -189.000000) translate(21.000000, 169.000000)">
						<g id="shoe_57_">
							<g>
								<path class="st54" d="M946.81-271.81c-0.09,0.25-0.14,0.44-0.14,0.56c0,0.15,0.03,0.37,0.08,0.66c0.17,0,1.74,0,4.71,0
									c0.12-0.4,0.05-0.62-0.21-0.65c-0.26-0.03-0.48-0.06-0.66-0.09l-2.19-0.98c-0.04-0.02-0.09,0-0.11,0.04c0,0,0,0,0,0
									l-0.14,0.34c-0.24,0.11-0.44,0.17-0.59,0.17c-0.12,0-0.29-0.05-0.51-0.15l0,0c-0.08-0.04-0.18,0-0.22,0.08
									C946.81-271.82,946.81-271.82,946.81-271.81z"/>
							</g>
						</g>
					</g>
					<g transform="translate(208.000000, 199.000000)">
						<g>
							<g>
								<path class="st54" d="M671.15,508.8c-0.09,0.25-0.14,0.44-0.14,0.56c0,0.15,0.03,0.37,0.08,0.66c0.17,0,1.74,0,4.71,0
									c0.12-0.4,0.05-0.62-0.21-0.65c-0.26-0.03-0.48-0.06-0.66-0.09l-2.19-0.98c-0.04-0.02-0.09,0-0.11,0.04c0,0,0,0,0,0
									l-0.14,0.34c-0.24,0.11-0.44,0.17-0.59,0.17c-0.12,0-0.29-0.05-0.51-0.15l0,0c-0.08-0.04-0.18,0-0.22,0.08
									C671.16,508.79,671.16,508.8,671.15,508.8z"/>
							</g>
						</g>
					</g>
				</g>
				<g>
					<g id="Skin_65_">
						<g>
							<path class="st73" d="M879.01,687.26l2.66,1.95c0.72,0.19,1.32,0.44,1.81,0.73c0.11,0.1,0.25,0.32-0.22,0.28
								c-0.47-0.04-0.98-0.05-1.04,0.11c-0.07,0.16,0.22,0.36,0.09,0.57c-0.09,0.15-0.5-0.22-1.25-1.09l-2.64-1.09L879.01,687.26z
								 M868.37,687.95l1.39-1.05c-0.97,5.46-0.69,3.08-0.97,5.46c0.14,0.5,0.9,0.83,1.28,1.04c-0.3,0.55-0.82-0.24-1.19,0.46
								c-0.34,0.64-0.4,1.38-1.28,1.47c-0.11,0.01-0.32-0.1-0.23-0.38c0.23-0.71,0.49-1.83,0.44-2.09
								C868.37,687.95,867.81,692.84,868.37,687.95z"/>
						</g>
					</g>
					<g id="Coat-Back_59_">
						<g>
							<path class="st54" d="M873.74,680.01l0.72-0.12c2.68,2.31,3.78,6.75,7.06,9.11l-0.79,0.98
								C875.04,689.27,873.63,683.85,873.74,680.01z"/>
						</g>
					</g>
					<g id="Shirt_59_">
						<g>
							<path class="st15" d="M871.91,690.83c2.89,0,3.71,0,5.07,0c0.29,0,0.24-0.42,0.19-0.63c-0.49-2.45-0.77-6.29-2.39-10.34
								l-1.84-0.29C871.43,682.02,872.21,686.79,871.91,690.83z"/>
						</g>
					</g>
					<g>
						<g>
							<path class="st15" d="M873.56,679.61l-0.58-0.03c-0.05-0.01-0.11-0.01-0.17-0.01c-1.15,0-2.43,2.33-2.16,2.41
								c-2.11,2.91-3.1,6.44-2.97,10.61h1.37c0.27-0.47,0.56-1.06,0.85-1.75c0.35-0.81,0.71-1.77,1.09-2.88
								c0.16,1.32,0.41,2.28,0.77,2.88h3.16C875.67,688.96,875.21,685.22,873.56,679.61z"/>
						</g>
					</g>
				</g>
				<g>
					<g>
						<path class="st68" d="M874.07,679.71l-2.3-0.3c0,0-0.79,1.68-0.28,2.14c0.51,0.46,2.39,0.52,2.7,0.18
							c0.11-0.12,0.11-0.54,0.09-0.86l0.57,0.13c-0.02-0.17-0.06-1.14-0.06-1.14L874.07,679.71z"/>
					</g>
				</g>
				<g>
					<g>
						<path class="st5" d="M871.82,679.5l2.18,0.28c0.04,0.15,0.13,0.57,0.18,0.99l-2.69-0.35
							C871.6,680.02,871.76,679.64,871.82,679.5 M871.77,679.41c0,0-0.25,0.54-0.38,1.09l2.88,0.37c-0.06-0.56-0.21-1.16-0.21-1.16
							L871.77,679.41L871.77,679.41z"/>
					</g>
				</g>
				<g>
					<g>
						
							<rect x="871.28" y="679.95" transform="matrix(0.6723 -0.7402 0.7402 0.6723 -217.6691 868.2419)" class="st5" width="1.26" height="0.08"/>
					</g>
				</g>
				<g>
					<g>
						
							<rect x="872.03" y="679.38" transform="matrix(0.8871 -0.4615 0.4615 0.8871 -215.4016 479.1877)" class="st5" width="0.08" height="1.26"/>
					</g>
				</g>
				<g>
					<g>
						
							<rect x="872.13" y="680.06" transform="matrix(0.6723 -0.7402 0.7402 0.6723 -217.4708 868.9122)" class="st5" width="1.26" height="0.08"/>
					</g>
				</g>
				<g>
					<g>
						
							<rect x="872.89" y="679.5" transform="matrix(0.8871 -0.4615 0.4615 0.8871 -215.3622 479.6278)" class="st5" width="0.08" height="1.26"/>
					</g>
				</g>
				<g>
					<g>
						
							<rect x="872.98" y="680.17" transform="matrix(0.6723 -0.7402 0.7402 0.6723 -217.274 869.5775)" class="st5" width="1.26" height="0.08"/>
					</g>
				</g>
				<g>
					<g>
						
							<rect x="873.74" y="679.61" transform="matrix(0.8871 -0.4615 0.4615 0.8871 -215.3172 480.0325)" class="st5" width="0.08" height="1.26"/>
					</g>
				</g>
				<g>
					<g>
						<circle class="st71" cx="874.69" cy="681.5" r="0.19"/>
					</g>
				</g>
				<g>
					<g>
						<circle class="st71" cx="874.88" cy="682.55" r="0.19"/>
					</g>
				</g>
				<g>
					<g>
						<circle class="st71" cx="875.15" cy="683.6" r="0.19"/>
					</g>
				</g>
				<g>
					<g>
						<circle class="st71" cx="875.34" cy="684.65" r="0.19"/>
					</g>
				</g>
				<g>
					<g>
						<circle class="st71" cx="875.53" cy="685.7" r="0.19"/>
					</g>
				</g>
				<g>
					<g>
						<circle class="st71" cx="875.8" cy="686.75" r="0.19"/>
					</g>
				</g>
				<g>
					<g>
						<circle class="st71" cx="875.99" cy="687.8" r="0.19"/>
					</g>
				</g>
				<g>
					<g>
						<circle class="st71" cx="876.22" cy="688.85" r="0.19"/>
					</g>
				</g>
				<g>
					<g>
						<circle class="st71" cx="876.41" cy="689.9" r="0.19"/>
					</g>
				</g>
				<g>
					<g>
						<path class="st64" d="M875.34,690.78c-0.01,0-0.01,0-0.01,0l0.01-0.04l0-0.04c0,0,0.01,0,0.03-0.03
							c0.14-0.19,0.45-1.38-1.23-8.94l0.08-0.02c1.67,7.55,1.39,8.83,1.19,9.03C875.39,690.78,875.36,690.78,875.34,690.78z"/>
					</g>
				</g>
				<g>
					<g>
						<polygon class="st64" points="864.49,704 864.44,703.93 872.03,698.62 873.57,690.82 873.66,690.84 872.11,698.67 
							872.1,698.68 						"/>
					</g>
				</g>
				<g>
					<g>
						<path class="st64" d="M880.11,707.83c-2.43-9.17-4.86-15.85-4.88-15.91l0.08-0.03c0.02,0.07,2.46,6.74,4.88,15.92
							L880.11,707.83z"/>
					</g>
				</g>
				<g>
					<g>
						<path class="st64" d="M877.02,690.85l-0.08-0.04c0.01-0.03,0.32-0.95-2.13-9.8l0.08-0.02
							C877.38,689.99,877.04,690.82,877.02,690.85z"/>
					</g>
				</g>
				<g>
					<g>
						<g>
							<path class="st15" d="M872.57,676.27c0,0,1.35,0.12,2.28-0.15c1.9,0.49,1.78,0.27,1.78,0.27s-0.39-0.65-0.83-0.78
								c-0.08-0.02,0.3-2.57,0.48-2.82s-0.03-0.72-0.36-0.77c-0.32-0.05-3.13-0.04-3.13-0.04s-0.84-0.03-0.66,0.64
								S872.59,675.45,872.57,676.27z"/>
						</g>
					</g>
					<g>
						<g>
							<circle class="st68" cx="876.05" cy="672.21" r="0.47"/>
						</g>
					</g>
					<g>
						<g>
							<path class="st5" d="M873.82,676.08l-0.04-0.07c0.02-0.01,1.62-0.88,2.22-3.34l0.08,0.02
								C875.47,675.19,873.84,676.08,873.82,676.08z"/>
						</g>
					</g>
					<g>
						<g>
							<circle class="st69" cx="873.82" cy="676.05" r="0.17"/>
						</g>
					</g>
					<g>
						<g>
							<path class="st70" d="M875.8,675.61c0,0-0.69,0.14-0.81,0.28c-0.12,0.14,0.17-0.57,0.32-0.63s-0.02-0.16-0.02-0.16
								s-0.17-0.18,0.32-0.52c0.2-0.14,0.39-0.63,0.39-0.63S875.76,675.29,875.8,675.61z"/>
						</g>
					</g>
				</g>
				<g>
					<g>
						<path class="st73" d="M882.19,690.36l-0.28,0.01v0.35c0.22,0.19,0.49,0.36,0.53,0.28
							C882.56,690.81,882.17,690.51,882.19,690.36z"/>
					</g>
				</g>
			</g>
			<g>
				<path class="st68" d="M867.68,692.59h1.37c0,0,0.52-0.9,0.52-1.03c-0.01-0.12-1.81-0.22-1.89-0.2
					C867.6,691.38,867.68,692.59,867.68,692.59z"/>
			</g>
			<g>
				<path class="st5" d="M868.93,692.43h-1l0-0.04c-0.05-0.85-0.01-0.87,0.03-0.88c0.05-0.02,1.19,0.04,1.31,0.13
					c0.02,0.01,0.03,0.03,0.03,0.04c0.01,0.09-0.25,0.54-0.36,0.72L868.93,692.43z M868.01,692.35h0.87
					c0.15-0.27,0.31-0.56,0.33-0.64c-0.14-0.06-1.05-0.12-1.21-0.11C867.99,691.68,867.99,692.02,868.01,692.35z"/>
			</g>
			<g>
				<path class="st68" d="M881.52,689l-0.79,0.98c0,0-1.04-0.02-1.22-0.24s1.04-1.43,1.16-1.44C880.79,688.3,881.52,689,881.52,689z
					"/>
			</g>
			<g>
				<path class="st5" d="M880.67,689.7l-0.02,0c-0.07,0-0.67-0.02-0.79-0.16c-0.04-0.05-0.01-0.13,0-0.16
					c0.1-0.23,0.65-0.8,0.75-0.81c0.08,0,0.35,0.24,0.56,0.45l0.03,0.03L880.67,689.7z M880.61,688.66
					c-0.1,0.05-0.63,0.59-0.69,0.79c-0.01,0.02,0,0.03,0,0.03c0.07,0.08,0.46,0.12,0.71,0.13l0.45-0.56
					C880.89,688.87,880.67,688.68,880.61,688.66z"/>
			</g>
		</g>
	</g>
</g>
</svg>
