<?xml version="1.0" encoding="utf-8"?>
<!-- Generator: Adobe Illustrator 23.0.1, SVG Export Plug-In . SVG Version: 6.00 Build 0)  -->
<svg version="1.1" id="Laag_1" xmlns="http://www.w3.org/2000/svg" xmlns:xlink="http://www.w3.org/1999/xlink" x="0px" y="0px"
	 viewBox="0 0 1440 1024" style="enable-background:new 0 0 1440 1024;" xml:space="preserve">
<style type="text/css">
	.st0{clip-path:url(#SVGID_2_);}
	.st1{fill:url(#SVGID_3_);}
	.st2{fill:#6A7B27;}
	.st3{fill:#808181;}
	.st4{fill:#9A9999;}
	.st5{fill:#FFFFFF;}
	.st6{fill:#B8B32E;}
	.st7{fill:#CAC334;}
	.st8{fill:#A9A325;}
	.st9{fill:#1B1B1B;}
	.st10{fill:#F2F2F2;}
	.st11{fill:#881E2B;}
	.st12{fill:#CDCCCC;}
	.st13{fill-rule:evenodd;clip-rule:evenodd;fill:#C69988;}
	.st14{fill-rule:evenodd;clip-rule:evenodd;fill:#F8AB18;}
	.st15{fill-rule:evenodd;clip-rule:evenodd;fill:#1B1B1B;}
	.st16{fill-rule:evenodd;clip-rule:evenodd;fill:#663810;}
	.st17{fill:#727272;}
	.st18{fill:#A45A2E;}
	.st19{fill:#989898;}
	.st20{fill-rule:evenodd;clip-rule:evenodd;fill:#6BA1AB;}
	.st21{fill-rule:evenodd;clip-rule:evenodd;fill:#89C4CC;}
	.st22{fill:#C69988;}
	.st23{fill-rule:evenodd;clip-rule:evenodd;fill:#2A275E;}
	.st24{fill-rule:evenodd;clip-rule:evenodd;fill:#DCE2E8;}
	.st25{fill-rule:evenodd;clip-rule:evenodd;fill:#32358C;}
	.st26{opacity:0.1;fill-rule:evenodd;clip-rule:evenodd;fill:#020203;}
	.st27{clip-path:url(#SVGID_5_);}
	.st28{fill:url(#SVGID_6_);}
	.st29{clip-path:url(#SVGID_8_);}
	.st30{fill:url(#SVGID_9_);}
	.st31{fill:#E7E6E6;}
	.st32{fill:#D21226;}
	.st33{fill:#BC1829;}
	.st34{clip-path:url(#SVGID_11_);fill:#D21226;}
	.st35{fill:url(#SVGID_12_);}
	.st36{clip-path:url(#SVGID_14_);fill:#D21226;}
	.st37{fill-rule:evenodd;clip-rule:evenodd;fill:#946131;}
	.st38{fill-rule:evenodd;clip-rule:evenodd;fill:#304697;}
	.st39{fill-rule:evenodd;clip-rule:evenodd;fill:#3954A1;}
	.st40{fill-rule:evenodd;clip-rule:evenodd;fill:#E3E3E2;}
	.st41{fill-rule:evenodd;clip-rule:evenodd;fill:#2F3676;}
	.st42{fill-rule:evenodd;clip-rule:evenodd;fill:#222046;}
	.st43{fill-rule:evenodd;clip-rule:evenodd;fill:#27388D;}
	.st44{fill-rule:evenodd;clip-rule:evenodd;fill:#F1F1F1;}
	.st45{fill-rule:evenodd;clip-rule:evenodd;fill:#452311;}
	.st46{fill-rule:evenodd;clip-rule:evenodd;fill:#997759;}
	.st47{fill-rule:evenodd;clip-rule:evenodd;fill:#AEB8C4;}
	.st48{fill-rule:evenodd;clip-rule:evenodd;fill:#C4CED5;}
	.st49{fill-rule:evenodd;clip-rule:evenodd;fill:#020203;fill-opacity:0.1;}
	.st50{fill-rule:evenodd;clip-rule:evenodd;fill:#794A31;}
	.st51{fill-rule:evenodd;clip-rule:evenodd;fill:#333438;}
	.st52{fill-rule:evenodd;clip-rule:evenodd;fill:#DA2922;}
	.st53{fill-rule:evenodd;clip-rule:evenodd;fill:#E9473C;}
	.st54{fill-rule:evenodd;clip-rule:evenodd;fill:#020203;}
	.st55{fill-rule:evenodd;clip-rule:evenodd;fill:#D4A181;}
	.st56{fill-rule:evenodd;clip-rule:evenodd;fill:#B98C74;}
	.st57{fill-rule:evenodd;clip-rule:evenodd;fill:#693189;}
	.st58{fill-rule:evenodd;clip-rule:evenodd;fill:#952C87;}
	.st59{fill-rule:evenodd;clip-rule:evenodd;fill:#B08A67;}
	.st60{fill-rule:evenodd;clip-rule:evenodd;fill:#E87616;}
	.st61{fill-rule:evenodd;clip-rule:evenodd;fill:#F4992B;}
	.st62{fill-rule:evenodd;clip-rule:evenodd;fill:#006C34;}
	.st63{fill-rule:evenodd;clip-rule:evenodd;fill:#00A66B;}
	.st64{fill:#B6181D;}
	.st65{fill-rule:evenodd;clip-rule:evenodd;fill:#E7E6E6;}
	.st66{fill-rule:evenodd;clip-rule:evenodd;fill:#CDCCCC;}
	.st67{fill:#663810;}
	.st68{fill-rule:evenodd;clip-rule:evenodd;fill:#B6181D;}
	.st69{fill-rule:evenodd;clip-rule:evenodd;fill:#B4B4B4;}
	.st70{fill-rule:evenodd;clip-rule:evenodd;fill:#CDA442;}
	.st71{fill:#B4B4B4;}
	.st72{fill-rule:evenodd;clip-rule:evenodd;fill:#AD7B4B;}
	.st73{fill-rule:evenodd;clip-rule:evenodd;fill:#FFFFFF;}
	.st74{fill-rule:evenodd;clip-rule:evenodd;fill:#7C4B1A;}
	.st75{fill:#3D4B59;}
	.st76{fill:#1D2B39;}
	.st77{fill:#4E5B69;}
	.st78{fill:#2C3A49;}
	.st79{fill:#9C6D4F;}
	.st80{fill:#7E4E2F;}
	.st81{fill:#8C5D3F;}
	.st82{fill:#6E3D21;}
	.st83{fill:#863819;}
	.st84{clip-path:url(#SVGID_16_);}
	.st85{fill:url(#SVGID_17_);}
	.st86{clip-path:url(#SVGID_19_);}
	.st87{fill:url(#SVGID_20_);}
	.st88{clip-path:url(#SVGID_22_);}
	.st89{fill:url(#SVGID_23_);}
	.st90{fill:#FFFFFF;stroke:#020203;stroke-miterlimit:10;}
	.st91{fill:url(#SVGID_24_);}
	.st92{clip-path:url(#SVGID_26_);fill:#D21226;}
	.st93{fill:url(#SVGID_27_);}
	.st94{clip-path:url(#SVGID_29_);fill:#D21226;}
	.st95{fill:url(#SVGID_30_);}
	.st96{fill:#020203;}
	.st97{fill:#F8AB18;}
	.st98{fill:#2A275E;}
	.st99{fill-rule:evenodd;clip-rule:evenodd;fill:#9A182A;}
	.st100{fill:#9A182A;}
	.st101{clip-path:url(#SVGID_32_);}
	.st102{fill:url(#SVGID_33_);}
	.st103{clip-path:url(#SVGID_35_);}
	.st104{fill:url(#SVGID_36_);}
	.st105{clip-path:url(#SVGID_38_);}
	.st106{fill:url(#SVGID_39_);}
	.st107{clip-path:url(#SVGID_41_);fill:#D21226;}
	.st108{fill:url(#SVGID_42_);}
	.st109{clip-path:url(#SVGID_44_);fill:#D21226;}
	.st110{clip-path:url(#SVGID_46_);}
	.st111{fill:url(#SVGID_47_);}
	.st112{clip-path:url(#SVGID_49_);fill:#D21226;}
	.st113{fill:url(#SVGID_50_);}
	.st114{clip-path:url(#SVGID_52_);fill:#D21226;}
	.st115{clip-path:url(#SVGID_54_);}
	.st116{fill:url(#SVGID_55_);}
	.st117{clip-path:url(#SVGID_57_);}
	.st118{fill:url(#SVGID_58_);}
	.st119{fill:url(#SVGID_59_);}
	.st120{fill:url(#SVGID_60_);}
	.st121{fill:#DFDFDF;}
	.st122{fill:#32358C;}
	.st123{fill-rule:evenodd;clip-rule:evenodd;fill:#234D64;}
	.st124{fill-rule:evenodd;clip-rule:evenodd;fill:#398AB1;}
	.st125{fill:#234D64;}
	.st126{fill:#9B9B9A;}
	.st127{fill:#B579B2;}
	.st128{fill:#AB6EAC;}
	.st129{fill:#F28C00;}
	.st130{fill:#62B22F;}
	.st131{fill:#54AF32;}
	.st132{fill:#57C0D3;}
	.st133{fill:#36B2BB;}
	.st134{fill:#E83E5D;}
	.st135{fill:#E72E55;}
	.st136{fill:#F7E700;}
	.st137{clip-path:url(#SVGID_62_);}
	.st138{clip-path:url(#SVGID_64_);fill:#D21226;}
	.st139{fill:url(#SVGID_65_);}
	.st140{fill:#4D4230;}
	.st141{fill:#5F4A2F;}
	.st142{fill:#E30613;}
	.st143{clip-path:url(#SVGID_67_);}
	.st144{fill:url(#SVGID_68_);}
	.st145{clip-path:url(#SVGID_70_);fill:#D21226;}
	.st146{fill:url(#SVGID_71_);}
	.st147{clip-path:url(#SVGID_73_);fill:#D21226;}
	.st148{clip-path:url(#SVGID_75_);}
	.st149{fill:url(#SVGID_76_);}
	.st150{clip-path:url(#SVGID_78_);fill:#D21226;}
	.st151{fill:url(#SVGID_79_);}
	.st152{clip-path:url(#SVGID_81_);}
	.st153{fill:url(#SVGID_82_);}
	.st154{clip-path:url(#SVGID_84_);fill:#D21226;}
	.st155{fill:url(#SVGID_85_);}
	.st156{clip-path:url(#SVGID_87_);fill:#D21226;}
	.st157{fill:url(#SVGID_88_);}
	.st158{clip-path:url(#SVGID_90_);}
	.st159{clip-path:url(#SVGID_92_);}
	.st160{fill:url(#SVGID_93_);}
</style>
<g>
	<defs>
		<rect id="SVGID_91_" x="0" width="1440" height="1024"/>
	</defs>
	<clipPath id="SVGID_2_">
		<use xlink:href="#SVGID_91_"  style="overflow:visible;"/>
	</clipPath>
	<g class="st0">
		<g>
			<linearGradient id="SVGID_3_" gradientUnits="userSpaceOnUse" x1="720" y1="-597.4393" x2="720" y2="1024.0001">
				<stop  offset="0" style="stop-color:#FFFFFF"/>
				<stop  offset="0.1747" style="stop-color:#FBFCFC"/>
				<stop  offset="0.3404" style="stop-color:#F0F2F3"/>
				<stop  offset="0.5026" style="stop-color:#DDE1E3"/>
				<stop  offset="0.6625" style="stop-color:#C2CACD"/>
				<stop  offset="0.8209" style="stop-color:#9FACB1"/>
				<stop  offset="0.9761" style="stop-color:#75888F"/>
				<stop  offset="1" style="stop-color:#6E8289"/>
			</linearGradient>
			<rect x="0" y="-597.44" class="st1" width="1440" height="1621.44"/>
		</g>
		<g>
			<g>
				<g>
					<path class="st2" d="M1093.54,783.55V1024H346.33l0-8.96l0.08-186.6l0.03-71.95c63.28-28.53,116.64-46.86,201.04-46.25
						c41.62,0.3,117.93,8.91,168.42,15.89c7.84,1.09,15.06,2.13,21.42,3.11C856.08,747.35,974.81,765.45,1093.54,783.55z"/>
					<g>
						<rect x="458.15" y="723.88" class="st3" width="16.92" height="56.72"/>
						
							<rect x="475.06" y="723.88" transform="matrix(-1 -1.224647e-16 1.224647e-16 -1 957.9979 1504.4773)" class="st4" width="7.87" height="56.72"/>
						<rect x="405.35" y="734.59" class="st3" width="16.92" height="46.01"/>
						
							<rect x="422.27" y="734.59" transform="matrix(-1 -1.224647e-16 1.224647e-16 -1 852.4065 1515.1876)" class="st4" width="7.87" height="46.01"/>
						<rect x="427.31" y="743.31" class="st3" width="25.57" height="37.29"/>
						
							<rect x="452.88" y="743.31" transform="matrix(-1 -1.224647e-16 1.224647e-16 -1 917.6516 1523.9146)" class="st4" width="11.9" height="37.29"/>
						
							<rect x="373.54" y="719.51" transform="matrix(-1 -1.224647e-16 1.224647e-16 -1 763.988 1500.1135)" class="st3" width="16.92" height="61.09"/>
						<rect x="365.67" y="719.51" class="st4" width="7.87" height="61.09"/>
					</g>
				</g>
				<g>
					<path class="st5" d="M532.73,683.78h-75.68c2.01-5.9,6.67-11.18,11.91-12.21c5.25-1.04,10.88,1.41,14.36,6.23
						c3.53-7.64,9.68-13.52,16.6-15.99c3.22-1.15,6.61-1.56,9.98-1.07C520.5,662.29,529.97,671.41,532.73,683.78z"/>
				</g>
				<g>
					<path class="st5" d="M721.46,690.5h-42.32c1.54-6.92,6.84-12.01,12.77-12.89s11.97,3.27,14.86,9.54
						c1.01-1.4,2.34-2.43,3.79-3.03c1.36-0.56,2.82-0.73,4.24-0.45C717.73,684.25,720.33,687.2,721.46,690.5z"/>
				</g>
				<g>
					<path class="st6" d="M1093.54,697.77V1024H346.33V837.43c0.04-0.01,0.08-0.03,0.12-0.04c62.97-20.74,126.69-39.4,190.83-56.77
						c100.98-27.36,203.04-51.55,305-75.71c53.61-12.7,108.08-25.51,163.42-24.17C1035.63,681.46,1066.13,686.85,1093.54,697.77z"/>
				</g>
				<g>
					<path class="st5" d="M862.35,724.12h-86.52c1.21-5.59,4.15-9.72,8.83-11.07c4.68-1.34,9.93,0.65,13.11,4.99
						c0.89-7.82,5.3-14.71,11.07-18.42c2.81-1.81,5.95-2.87,9.15-2.91c9.79-0.15,19.07,9.21,20.63,20.8
						c3.73-3.81,9.34-6.08,14.13-4.89C857.56,713.81,860.67,718.07,862.35,724.12z"/>
				</g>
				<g>
					<path class="st5" d="M415.66,704.78h-50.93c0.71-3.29,2.44-5.72,5.2-6.51c2.76-0.79,5.85,0.38,7.72,2.94
						c0.78-6.85,6.14-12.47,11.9-12.56c0.12,0,0.25,0,0.37,0.01c5.62,0.15,10.87,5.56,11.77,12.24c2.19-2.25,5.5-3.58,8.32-2.88
						C412.84,698.71,414.67,701.22,415.66,704.78z"/>
				</g>
				<g>
					<path class="st7" d="M1093.67,758.01v44.51c-24.66,4.3-49.31,7.98-74.17,5.49c-34.94-3.5-66.32-18.89-100.82-24.52
						c-42.51-6.95-86.66,1.38-127.37,13.33c-91.26,26.78-172.49,71.35-261.21,103.07c-58.35,20.86-121.53,33.81-183.64,32.06v-42.92
						c117.51-33.68,235.03-67.37,352.54-101.05c64.84-18.59,130.34-37.3,198.73-44.07C963.31,737.42,1030.56,742.45,1093.67,758.01z
						"/>
				</g>
				<g>
					<path class="st8" d="M1093.67,960.8v63.2H346.46V837.39c62.97-20.74,126.69-39.4,190.83-56.77
						c164.83,40.15,400.39,105.04,556.26,180.12C1093.58,960.76,1093.63,960.78,1093.67,960.8z"/>
				</g>
				<g>
					<path class="st6" d="M1093.67,969.76V1024H346.46V746.53c0,0,65.31,13.08,160.92,35.85c1.44,0.34,2.88,0.69,4.33,1.03
						C676.97,822.91,929.55,890.68,1093.67,969.76z"/>
				</g>
				<g>
					<path class="st2" d="M804.99,1024C664.43,905.63,508.33,821.91,346.43,778.02v30.99c17.8,0,35.78-0.55,53.26,3.46
						c17.48,4.01,34.67,15.08,43.46,33.65c3.54,7.47,5.64,15.94,9.97,22.78c5.83,9.2,15.11,14.42,24.47,17.18
						c9.36,2.76,19.06,3.39,28.55,5.35c37.7,7.81,69.91,35.89,101.57,61.66c31.66,25.77,66.47,70.68,104.73,70.91H804.99z"/>
				</g>
				<g>
					<path class="st2" d="M1093.67,1024H346.46l0.09-16.76l0.31-59.45c0,0,16.28-3.68,45.46-9.64c9.61-1.96,20.62-4.16,32.92-6.57
						c102.05-19.96,292.24-53.4,501.08-71.34c7.31-0.63,14.64-1.24,21.99-1.83c18.96-1.52,38.06-2.9,57.23-4.13
						c11.2-0.72,22.41-1.38,33.65-1.99c18.09-0.98,36.22-1.8,54.36-2.47l0.02,36.6l0.02,25.43L1093.67,1024z"/>
				</g>
				<g>
					<path class="st6" d="M1093.59,911.87c-23.89-1.05-48.26-0.03-72.16,1.96c-47.68,3.98-94.93,11.62-142.76,13.57
						c-42.04,1.71-85.04-0.9-125.5,8.15c-35.98,8.05-67.17,24.75-102.15,34.93c-58.43,17.01-123.66,14.9-184.2,27.25
						c-28.11,5.74-54.99,14.68-79.47,26.25h-40.89l0.09-16.76c232.7-81.06,491.16-122.71,747.03-120.8L1093.59,911.87z"/>
				</g>
				<g>
					<path class="st2" d="M807.61,853.9c-0.22,2.19-1.19,4.18-2.43,5.54c-0.88,0.96-1.91,1.64-3,2c-1.38,0.47-2.84,0.43-4.2-0.16
						c-2.42-1.05-4.42-3.85-5.19-7.24c-0.2-0.9-0.33-1.86-0.17-2.78c0.15-0.92,0.63-1.77,1.28-1.98c1.09-0.35,2.02,1.08,2.68,2.35
						c-0.35-3.36,0.34-6.73,1.76-9.48c0.47-0.9,1.13-1.79,1.92-1.72c0.72,0.07,1.27,0.91,1.65,1.76c0.97,2.15,1.23,4.78,1.12,7.3
						c0.37-1.26,1.32-1.89,2.23-1.74c0.45,0.07,0.86,0.34,1.21,0.74c0.37,0.42,0.66,0.97,0.86,1.58
						C807.71,851.26,807.74,852.61,807.61,853.9z"/>
				</g>
				<g>
					<rect x="799.73" y="850.76" class="st9" width="0.65" height="17.07"/>
				</g>
				<g>
					<path class="st2" d="M416.06,900.29c-0.64,6.26-3.4,11.98-6.96,15.86c-1.59,1.74-3.35,3.15-5.21,4.22
						c-4.84,2.78-10.37,3.23-15.38,1.05c-6.93-3.02-12.65-11-14.86-20.72c-0.58-2.57-0.93-5.33-0.49-7.96
						c0.44-2.63,1.81-5.07,3.68-5.67c3.12-1.01,5.79,3.08,7.67,6.73c-1-9.62,0.99-19.27,5.05-27.14c1.34-2.59,3.24-5.13,5.5-4.91
						c2.05,0.2,3.63,2.6,4.73,5.04c2.77,6.15,3.53,13.67,3.21,20.9c1.07-3.61,3.77-5.42,6.39-4.98c0.51,0.09,1,0.26,1.48,0.51
						c1.96,1.04,3.57,3.4,4.43,6.14C416.37,892.75,416.44,896.62,416.06,900.29z"/>
				</g>
				<g>
					<rect x="393.52" y="891.32" class="st9" width="1.87" height="48.86"/>
				</g>
				<g>
					<path class="st2" d="M448.84,894.77c-0.28,4-1.27,8.32-4.03,10.59c-0.66,0.54-1.39,0.92-2.15,1.15
						c-2.85,0.86-6.17-0.41-8.25-3.02c-2.63-3.3-3.49-8.23-3.05-12.77c0.39-4.05,1.78-11.38,5.01-13.72
						c3.22-2.33,7.75,0.7,9.85,3.91c0.1,0.16,0.21,0.33,0.3,0.49C448.72,885.23,449.16,890.14,448.84,894.77z"/>
				</g>
				<g>
					<rect x="439.13" y="889.63" class="st9" width="1.87" height="33.17"/>
				</g>
				<g>
					<path class="st2" d="M1034.1,794.66c-0.17,1.61-0.87,3.07-1.79,4.07c-0.65,0.71-1.4,1.2-2.2,1.47
						c-1.01,0.34-2.09,0.31-3.08-0.12c-1.78-0.77-3.25-2.82-3.82-5.32c-0.15-0.66-0.24-1.37-0.13-2.04c0.11-0.67,0.46-1.3,0.94-1.46
						c0.8-0.26,1.49,0.79,1.97,1.73c-0.26-2.47,0.25-4.95,1.3-6.97c0.34-0.66,0.83-1.32,1.41-1.26c0.53,0.05,0.93,0.67,1.21,1.29
						c0.71,1.58,0.91,3.51,0.83,5.37c0.27-0.93,0.97-1.39,1.64-1.28c0.33,0.05,0.63,0.25,0.89,0.55c0.27,0.31,0.49,0.71,0.63,1.16
						C1034.18,792.72,1034.2,793.71,1034.1,794.66z"/>
				</g>
				<g>
					<rect x="1028.31" y="792.35" class="st9" width="0.48" height="12.54"/>
				</g>
				<g>
					<path class="st2" d="M988.99,726.51c-0.13,1.29-0.7,2.46-1.43,3.26c-0.52,0.57-1.13,0.97-1.76,1.18
						c-0.81,0.27-1.67,0.25-2.47-0.1c-1.42-0.62-2.6-2.26-3.06-4.26c-0.12-0.53-0.19-1.1-0.1-1.64c0.09-0.54,0.37-1.04,0.76-1.17
						c0.64-0.21,1.19,0.63,1.58,1.38c-0.21-1.98,0.2-3.96,1.04-5.58c0.28-0.53,0.67-1.06,1.13-1.01c0.42,0.04,0.75,0.53,0.97,1.04
						c0.57,1.26,0.73,2.81,0.66,4.3c0.22-0.74,0.77-1.11,1.31-1.02c0.26,0.04,0.51,0.2,0.71,0.44c0.22,0.25,0.39,0.57,0.5,0.93
						C989.06,724.96,989.07,725.75,988.99,726.51z"/>
				</g>
				<g>
					<rect x="984.36" y="724.66" class="st9" width="0.38" height="10.05"/>
				</g>
				<g>
					<path class="st2" d="M995.41,727.56c-0.07,0.95-0.3,1.97-0.95,2.5c-0.16,0.13-0.33,0.22-0.51,0.27
						c-0.67,0.2-1.46-0.1-1.95-0.71c-0.62-0.78-0.83-1.94-0.72-3.02c0.09-0.96,0.42-2.69,1.18-3.24c0.76-0.55,1.83,0.17,2.33,0.93
						c0.02,0.04,0.05,0.08,0.07,0.12C995.38,725.3,995.49,726.46,995.41,727.56z"/>
				</g>
				<g>
					<rect x="993.12" y="726.34" class="st9" width="0.44" height="7.84"/>
				</g>
				<g>
					<path class="st8" d="M1034.98,879.55c-0.31,4.49-1.43,9.34-4.53,11.89c-0.74,0.61-1.56,1.03-2.41,1.29
						c-3.2,0.96-6.92-0.46-9.26-3.39c-2.96-3.71-3.92-9.23-3.42-14.33c0.44-4.55,1.99-12.77,5.63-15.4
						c3.62-2.61,8.7,0.79,11.06,4.39c0.12,0.18,0.23,0.37,0.34,0.55C1034.84,868.84,1035.34,874.36,1034.98,879.55z"/>
				</g>
				<g>
					<rect x="1024.08" y="873.78" class="st9" width="2.1" height="37.24"/>
				</g>
				<g>
					<path class="st5" d="M968.95,667.03h-42.32c1.54-6.92,6.84-12.01,12.77-12.89s11.97,3.27,14.86,9.54
						c1.01-1.4,2.34-2.43,3.79-3.03c1.36-0.56,2.82-0.73,4.24-0.45C965.22,660.78,967.83,663.73,968.95,667.03z"/>
				</g>
				<g>
					<path class="st5" d="M1064.88,683.78h-52.86c1.4-4.12,4.66-7.81,8.32-8.53c3.66-0.72,7.6,0.98,10.03,4.35
						c2.47-5.34,6.76-9.44,11.59-11.17c2.25-0.8,4.62-1.09,6.97-0.75C1056.34,668.77,1062.95,675.14,1064.88,683.78z"/>
				</g>
				<g>
					<path class="st2" d="M781.6,859.59c-0.21,2.03-1.11,3.89-2.26,5.15c-0.82,0.9-1.78,1.52-2.79,1.86
						c-1.28,0.43-2.64,0.4-3.9-0.15c-2.25-0.98-4.11-3.58-4.83-6.73c-0.19-0.83-0.3-1.73-0.16-2.58c0.14-0.85,0.59-1.65,1.19-1.84
						c1.02-0.33,1.88,1,2.49,2.19c-0.32-3.13,0.32-6.26,1.64-8.82c0.43-0.84,1.05-1.67,1.79-1.6c0.67,0.06,1.18,0.84,1.54,1.64
						c0.9,2,1.15,4.44,1.04,6.79c0.35-1.17,1.22-1.76,2.08-1.62c0.42,0.07,0.8,0.32,1.12,0.69c0.34,0.39,0.62,0.9,0.8,1.47
						C781.71,857.14,781.73,858.4,781.6,859.59z"/>
				</g>
				<g>
					<rect x="774.28" y="856.68" class="st9" width="0.61" height="15.87"/>
				</g>
				<g>
					
						<rect x="505.83" y="833.38" transform="matrix(-1 -1.224647e-16 1.224647e-16 -1 1028.6284 1685.6377)" class="st5" width="16.96" height="18.87"/>
					<rect x="477.23" y="833.38" class="st10" width="28.6" height="18.87"/>
					<rect x="511.72" y="838.11" class="st11" width="6.23" height="14.14"/>
					<polygon class="st11" points="485.61,812.75 477.23,833.38 506.04,833.38 514.42,812.75 					"/>
					<rect x="488.95" y="807.94" class="st10" width="5.28" height="7.06"/>
					<polygon class="st5" points="514.42,812.75 506.04,833.38 522.8,833.38 					"/>
					<polygon class="st5" points="494.23,815 496.57,812.46 496.57,807.94 494.23,807.94 					"/>
					
						<rect x="512.59" y="821.14" transform="matrix(-1 -1.224647e-16 1.224647e-16 -1 1028.6284 1646.134)" class="st3" width="3.46" height="3.85"/>
					
						<rect x="485.9" y="835.34" transform="matrix(-1 -1.224647e-16 1.224647e-16 -1 975.2584 1678.3704)" class="st3" width="3.46" height="7.69"/>
					
						<rect x="491.95" y="835.34" transform="matrix(-1 -1.224647e-16 1.224647e-16 -1 987.3489 1678.3704)" class="st3" width="3.46" height="7.69"/>
				</g>
				<g>
					<rect x="610.63" y="880.65" class="st5" width="20.58" height="16.47"/>
					
						<rect x="631.21" y="880.65" transform="matrix(-1 -3.689683e-11 3.689683e-11 -1 1297.1356 1777.7726)" class="st10" width="34.71" height="16.47"/>
					
						<rect x="622.69" y="884.77" transform="matrix(-1 -5.013158e-11 5.013158e-11 -1 1250.7928 1781.8947)" class="st11" width="5.41" height="12.35"/>
					<polygon class="st11" points="655.75,862.64 665.92,880.65 630.97,880.65 620.8,862.64 					"/>
					
						<rect x="645.84" y="858.45" transform="matrix(-1 -5.402002e-11 5.402002e-11 -1 1296.1156 1723.0544)" class="st10" width="4.44" height="6.16"/>
					<polygon class="st5" points="620.8,862.64 630.97,880.65 610.63,880.65 					"/>
					<polygon class="st5" points="645.84,864.61 643.87,862.39 643.87,858.45 645.84,858.45 					"/>
					<rect x="619.66" y="869.97" class="st3" width="2.52" height="6.17"/>
					<rect x="658.72" y="884.85" class="st3" width="2.76" height="6.71"/>
					<rect x="653.89" y="884.85" class="st3" width="2.76" height="6.71"/>
					<rect x="640.6" y="884.85" class="st3" width="2.76" height="6.71"/>
					<rect x="635.76" y="884.85" class="st3" width="2.76" height="6.71"/>
					<rect x="617.79" y="884.85" class="st3" width="2.76" height="6.71"/>
					<rect x="612.96" y="884.85" class="st3" width="2.76" height="6.71"/>
				</g>
				<g>
					<path class="st2" d="M846.4,850.76c-0.19,2.07-1.02,3.95-2.08,5.24c-0.75,0.91-1.64,1.55-2.57,1.89
						c-1.18,0.44-2.43,0.4-3.59-0.15c-2.07-1-3.79-3.63-4.45-6.84c-0.17-0.85-0.28-1.76-0.15-2.63c0.13-0.87,0.54-1.67,1.1-1.87
						c0.93-0.33,1.73,1.02,2.3,2.22c-0.3-3.18,0.3-6.36,1.51-8.96c0.4-0.85,0.97-1.69,1.65-1.62c0.61,0.07,1.09,0.86,1.41,1.67
						c0.83,2.03,1.06,4.51,0.96,6.9c0.32-1.19,1.13-1.79,1.91-1.65c0.38,0.07,0.74,0.33,1.04,0.7c0.31,0.39,0.57,0.92,0.73,1.49
						C846.49,848.27,846.51,849.54,846.4,850.76z"/>
				</g>
				<g>
					<rect x="839.66" y="847.79" class="st9" width="0.56" height="16.13"/>
				</g>
				<g>
					<path class="st2" d="M824.14,856.14c-0.18,1.92-0.95,3.68-1.94,4.87c-0.7,0.85-1.52,1.44-2.39,1.76
						c-1.1,0.41-2.26,0.38-3.34-0.14c-1.93-0.93-3.52-3.38-4.13-6.36c-0.16-0.79-0.26-1.64-0.14-2.44c0.12-0.81,0.5-1.56,1.02-1.74
						c0.87-0.31,1.61,0.95,2.13,2.07c-0.28-2.95,0.27-5.92,1.4-8.33c0.37-0.79,0.9-1.58,1.53-1.51c0.57,0.06,1.01,0.8,1.32,1.55
						c0.77,1.89,0.98,4.2,0.89,6.42c0.3-1.11,1.05-1.66,1.78-1.53c0.36,0.06,0.68,0.3,0.96,0.65c0.29,0.37,0.53,0.85,0.68,1.39
						C824.22,853.82,824.24,855.01,824.14,856.14z"/>
				</g>
				<g>
					<rect x="817.86" y="853.39" class="st9" width="0.52" height="15"/>
				</g>
				<g>
					<path class="st2" d="M1046.15,793.4c-0.17,1.8-0.87,3.45-1.79,4.57c-0.65,0.79-1.4,1.35-2.2,1.65
						c-1.01,0.38-2.09,0.35-3.08-0.13c-1.78-0.87-3.25-3.17-3.82-5.97c-0.15-0.74-0.24-1.54-0.13-2.29
						c0.11-0.76,0.46-1.46,0.94-1.64c0.8-0.29,1.49,0.89,1.97,1.94c-0.26-2.77,0.25-5.56,1.3-7.82c0.34-0.75,0.83-1.48,1.41-1.42
						c0.53,0.06,0.93,0.75,1.21,1.45c0.71,1.77,0.91,3.94,0.83,6.02c0.27-1.04,0.97-1.56,1.64-1.44c0.33,0.06,0.63,0.28,0.89,0.61
						c0.27,0.34,0.49,0.8,0.63,1.3C1046.23,791.22,1046.25,792.34,1046.15,793.4z"/>
				</g>
				<g>
					<rect x="1040.36" y="790.81" class="st9" width="0.48" height="14.08"/>
				</g>
				<g>
					
						<rect x="886.83" y="739.08" transform="matrix(-1 -1.224647e-16 1.224647e-16 -1 1781.8798 1487.2959)" class="st5" width="8.22" height="9.14"/>
					<rect x="872.98" y="739.08" class="st10" width="13.85" height="9.14"/>
					<rect x="889.68" y="741.37" class="st11" width="3.02" height="6.85"/>
					<polygon class="st11" points="877.04,729.09 872.98,739.08 886.93,739.08 890.99,729.09 					"/>
					<rect x="878.66" y="726.76" class="st10" width="2.56" height="3.42"/>
					<polygon class="st5" points="890.99,729.09 886.93,739.08 895.05,739.08 					"/>
					<polygon class="st5" points="881.22,730.18 882.35,728.95 882.35,726.76 881.22,726.76 					"/>
					
						<rect x="890.1" y="733.15" transform="matrix(-1 -1.224647e-16 1.224647e-16 -1 1781.8798 1468.1648)" class="st3" width="1.67" height="1.86"/>
					
						<rect x="877.18" y="740.03" transform="matrix(-1 -1.224647e-16 1.224647e-16 -1 1756.0334 1483.7765)" class="st3" width="1.67" height="3.72"/>
					
						<rect x="880.11" y="740.03" transform="matrix(-1 -1.224647e-16 1.224647e-16 -1 1761.8887 1483.7765)" class="st3" width="1.67" height="3.72"/>
				</g>
				<g>
					<rect x="836.28" y="745.26" class="st5" width="9.97" height="7.97"/>
					
						<rect x="846.24" y="745.26" transform="matrix(-1 -3.755275e-11 3.755275e-11 -1 1709.2961 1498.4879)" class="st10" width="16.81" height="7.97"/>
					
						<rect x="842.12" y="747.25" transform="matrix(-1 -5.002144e-11 5.002144e-11 -1 1686.8529 1500.4841)" class="st11" width="2.62" height="5.98"/>
					<polygon class="st11" points="858.13,736.53 863.05,745.26 846.12,745.26 841.2,736.53 					"/>
					
						<rect x="853.32" y="734.5" transform="matrix(-1 -5.577284e-11 5.577284e-11 -1 1708.8021 1471.9886)" class="st10" width="2.15" height="2.98"/>
					<polygon class="st5" points="841.2,736.53 846.12,745.26 836.28,745.26 					"/>
					<polygon class="st5" points="853.32,737.49 852.37,736.41 852.37,734.5 853.32,734.5 					"/>
					<rect x="840.65" y="740.08" class="st3" width="1.22" height="2.99"/>
					<rect x="859.56" y="747.29" class="st3" width="1.34" height="3.25"/>
					<rect x="857.22" y="747.29" class="st3" width="1.34" height="3.25"/>
					<rect x="850.79" y="747.29" class="st3" width="1.34" height="3.25"/>
					<rect x="848.45" y="747.29" class="st3" width="1.34" height="3.25"/>
					<rect x="839.74" y="747.29" class="st3" width="1.34" height="3.25"/>
					<rect x="837.4" y="747.29" class="st3" width="1.34" height="3.25"/>
				</g>
				<g>
					
						<rect x="822.3" y="752.79" transform="matrix(-1 -1.224647e-16 1.224647e-16 -1 1653.941 1513.2595)" class="st5" width="9.34" height="7.68"/>
					<rect x="806.54" y="752.79" class="st10" width="15.75" height="7.68"/>
					<rect x="825.54" y="754.71" class="st11" width="3.43" height="5.76"/>
					<polygon class="st11" points="811.16,744.39 806.54,752.79 822.41,752.79 827.03,744.39 					"/>
					<rect x="813" y="742.43" class="st10" width="2.91" height="2.87"/>
					<polygon class="st5" points="827.03,744.39 822.41,752.79 831.64,752.79 					"/>
					<polygon class="st5" points="815.91,745.3 817.2,744.27 817.2,742.43 815.91,742.43 					"/>
					
						<rect x="826.02" y="747.81" transform="matrix(-1 -1.224647e-16 1.224647e-16 -1 1653.941 1497.1766)" class="st3" width="1.9" height="1.57"/>
					
						<rect x="811.32" y="753.58" transform="matrix(-1 -1.224647e-16 1.224647e-16 -1 1624.5435 1510.3008)" class="st3" width="1.9" height="3.13"/>
					
						<rect x="814.65" y="753.58" transform="matrix(-1 -1.224647e-16 1.224647e-16 -1 1631.2032 1510.3008)" class="st3" width="1.9" height="3.13"/>
				</g>
				<g>
					<rect x="905.44" y="738.76" class="st5" width="10.84" height="9.61"/>
					<rect x="929.14" y="715.78" class="st5" width="10.84" height="32.59"/>
					
						<rect x="916.28" y="738.76" transform="matrix(-1 -3.122315e-11 3.122315e-11 -1 1856.3351 1487.1304)" class="st10" width="23.77" height="9.61"/>
					<path class="st11" d="M908.73,748.37h4.26v-5.82c0-0.5-0.41-0.91-0.91-0.91h-2.44c-0.5,0-0.91,0.41-0.91,0.91V748.37z"/>
					<polygon class="st11" points="929.2,728.24 934.56,738.76 916.15,738.76 910.8,728.24 					"/>
					
						<rect x="923.98" y="725.79" transform="matrix(-1 -6.450986e-11 6.450986e-11 -1 1850.3033 1455.1869)" class="st10" width="2.34" height="3.6"/>
					<polygon class="st5" points="910.8,728.24 916.15,738.76 905.44,738.76 					"/>
					<polygon class="st5" points="923.98,729.39 922.95,728.1 922.95,725.79 923.98,725.79 					"/>
					<path class="st3" d="M911.24,732.52h-0.76c-0.16,0-0.28,0.13-0.28,0.28v3.32h1.33v-3.32
						C911.53,732.65,911.4,732.52,911.24,732.52z"/>
					<path class="st3" d="M930.67,741.21h-0.83c-0.17,0-0.31,0.14-0.31,0.31v3.61h1.46v-3.61
						C930.98,741.35,930.84,741.21,930.67,741.21z"/>
					<path class="st3" d="M921,741.21h-0.83c-0.17,0-0.31,0.14-0.31,0.31v3.61h1.46v-3.61C921.32,741.35,921.18,741.21,921,741.21z"
						/>
					<path class="st3" d="M915.17,741.21h-0.83c-0.17,0-0.31,0.14-0.31,0.31v3.61h1.46v-3.61
						C915.48,741.35,915.34,741.21,915.17,741.21z"/>
					<path class="st3" d="M907.45,741.21h-0.83c-0.17,0-0.31,0.14-0.31,0.31v3.61h1.46v-3.61
						C907.76,741.35,907.62,741.21,907.45,741.21z"/>
					<path class="st3" d="M925.84,741.21h-0.83c-0.17,0-0.31,0.14-0.31,0.31v3.61h1.46v-3.61
						C926.16,741.35,926.02,741.21,925.84,741.21z"/>
					
						<rect x="934.56" y="715.78" transform="matrix(-1 -4.621433e-10 4.621433e-10 -1 1874.6099 1464.1525)" class="st10" width="5.49" height="32.59"/>
					<polygon class="st11" points="934.6,705.72 940.37,716.23 928.82,716.23 					"/>
					<path class="st3" d="M932.13,724.64h-0.76c-0.16,0-0.28,0.13-0.28,0.28v3.32h1.33v-3.32
						C932.42,724.77,932.29,724.64,932.13,724.64z"/>
					<circle class="st3" cx="931.75" cy="720.12" r="1.36"/>
					<path class="st3" d="M937.68,724.64h-0.76c-0.16,0-0.28,0.13-0.28,0.28v3.32h1.33v-3.32
						C937.97,724.77,937.84,724.64,937.68,724.64z"/>
					<path class="st3" d="M937.68,731.07h-0.76c-0.16,0-0.28,0.13-0.28,0.28v3.32h1.33v-3.32
						C937.97,731.2,937.84,731.07,937.68,731.07z"/>
					<circle class="st3" cx="937.3" cy="720.12" r="1.36"/>
				</g>
			</g>
			<g>
				<g>
					<path class="st2" d="M1093.54,783.55V1024H346.33l0-8.96l0.08-186.6l0.03-71.95c63.28-28.53,116.64-46.86,201.04-46.25
						c41.62,0.3,117.93,8.91,168.42,15.89c7.84,1.09,15.06,2.13,21.42,3.11C856.08,747.35,974.81,765.45,1093.54,783.55z"/>
					<g>
						<rect x="458.15" y="723.88" class="st3" width="16.92" height="56.72"/>
						
							<rect x="475.06" y="723.88" transform="matrix(-1 -1.224647e-16 1.224647e-16 -1 957.9979 1504.4773)" class="st4" width="7.87" height="56.72"/>
						<rect x="405.35" y="734.59" class="st3" width="16.92" height="46.01"/>
						
							<rect x="422.27" y="734.59" transform="matrix(-1 -1.224647e-16 1.224647e-16 -1 852.4065 1515.1876)" class="st4" width="7.87" height="46.01"/>
						<rect x="427.31" y="743.31" class="st3" width="25.57" height="37.29"/>
						
							<rect x="452.88" y="743.31" transform="matrix(-1 -1.224647e-16 1.224647e-16 -1 917.6516 1523.9146)" class="st4" width="11.9" height="37.29"/>
						
							<rect x="373.54" y="719.51" transform="matrix(-1 -1.224647e-16 1.224647e-16 -1 763.988 1500.1135)" class="st3" width="16.92" height="61.09"/>
						<rect x="365.67" y="719.51" class="st4" width="7.87" height="61.09"/>
					</g>
				</g>
				<g>
					<path class="st12" d="M532.73,683.78h-75.68c2.01-5.9,6.67-11.18,11.91-12.21c5.25-1.04,10.88,1.41,14.36,6.23
						c3.53-7.64,9.68-13.52,16.6-15.99c3.22-1.15,6.61-1.56,9.98-1.07C520.5,662.29,529.97,671.41,532.73,683.78z"/>
				</g>
				<g>
					<path class="st12" d="M721.46,690.5h-42.32c1.54-6.92,6.84-12.01,12.77-12.89s11.97,3.27,14.86,9.54
						c1.01-1.4,2.34-2.43,3.79-3.03c1.36-0.56,2.82-0.73,4.24-0.45C717.73,684.25,720.33,687.2,721.46,690.5z"/>
				</g>
				<g>
					<path class="st6" d="M1093.54,697.77c0,0,57.16,29.03,77.91,33.31c102.76,21.16,268.58-20.85,268.58-20.85V1024h-346.48H346.33
						V837.43c0.04-0.01,0.08-0.03,0.12-0.04c62.97-20.74,126.69-39.4,190.83-56.77c100.98-27.36,203.04-51.55,305-75.71
						c53.61-12.7,108.08-25.51,163.42-24.17C1035.63,681.46,1066.13,686.85,1093.54,697.77z"/>
				</g>
				<g>
					<path class="st12" d="M862.35,724.12h-86.52c1.21-5.59,4.15-9.72,8.83-11.07c4.68-1.34,9.93,0.65,13.11,4.99
						c0.89-7.82,5.3-14.71,11.07-18.42c2.81-1.81,5.95-2.87,9.15-2.91c9.79-0.15,19.07,9.21,20.63,20.8
						c3.73-3.81,9.34-6.08,14.13-4.89C857.56,713.81,860.67,718.07,862.35,724.12z"/>
				</g>
				<g>
					<path class="st12" d="M415.66,704.78h-50.93c0.71-3.29,2.44-5.72,5.2-6.51c2.76-0.79,5.85,0.38,7.72,2.94
						c0.78-6.85,6.14-12.47,11.9-12.56c0.12,0,0.25,0,0.37,0.01c5.62,0.15,10.87,5.56,11.77,12.24c2.19-2.25,5.5-3.58,8.32-2.88
						C412.84,698.71,414.67,701.22,415.66,704.78z"/>
				</g>
				<g>
					<path class="st7" d="M1093.67,758.01c0,0,63.93,16.05,88.3,17.12c62.22,2.73,258.04-29.83,258.04-29.83v71.02
						c0,0-191.24-24.86-254.99-23.72c-22.84,0.41-91.35,9.93-91.35,9.93c-24.66,4.3-49.31,7.98-74.17,5.49
						c-34.94-3.5-66.32-18.89-100.82-24.52c-42.51-6.95-86.66,1.38-127.37,13.33c-91.26,26.78-172.49,71.35-261.21,103.07
						c-58.35,20.86-121.53,33.81-183.64,32.06v-42.92c117.51-33.68,235.03-67.37,352.54-101.05
						c64.84-18.59,130.34-37.3,198.73-44.07C963.31,737.42,1030.56,742.45,1093.67,758.01z"/>
				</g>
				<g>
					<path class="st8" d="M1093.67,960.8v63.2H346.46V837.39c62.97-20.74,126.69-39.4,190.83-56.77
						c164.83,40.15,400.39,105.04,556.26,180.12C1093.58,960.76,1093.63,960.78,1093.67,960.8z"/>
				</g>
				<g>
					<path class="st6" d="M1093.67,969.76V1024H346.46H0V690.5l346.46,56.03c0,0,65.31,13.08,160.92,35.85
						c1.44,0.34,2.88,0.69,4.33,1.03C676.97,822.91,929.55,890.68,1093.67,969.76z"/>
				</g>
				<g>
					<path class="st2" d="M804.99,1024C664.43,905.63,508.33,821.91,346.43,778.02l-192.27-62.59L0,690.5v154.68
						c0,0,104.95,38.81,151.31,13.27c73.16-40.31,195.11-49.43,195.11-49.43c17.8,0,35.78-0.55,53.26,3.46
						c17.48,4.01,34.67,15.08,43.46,33.65c3.54,7.47,5.64,15.94,9.97,22.78c5.83,9.2,15.11,14.42,24.47,17.18
						c9.36,2.76,19.06,3.39,28.55,5.35c37.7,7.81,69.91,35.89,101.57,61.66c31.66,25.77,66.47,70.68,104.73,70.91H804.99z"/>
				</g>
				<g>
					<path class="st2" d="M1093.67,1024H346.46l0.09-16.76L292.22,1024H0l346.85-76.2c0,0,16.28-3.68,45.46-9.64
						c9.61-1.96,20.62-4.16,32.92-6.57c102.05-19.96,292.24-53.4,501.08-71.34c7.31-0.63,14.64-1.24,21.99-1.83
						c18.96-1.52,38.06-2.9,57.23-4.13c11.2-0.72,22.41-1.38,33.65-1.99c18.09-0.98,36.22-1.8,54.36-2.47l346.43-10.65l0.06,184.81
						H1093.67z"/>
				</g>
				<g>
					<path class="st6" d="M1093.59,911.87c-23.89-1.05-48.26-0.03-72.16,1.96c-47.68,3.98-94.93,11.62-142.76,13.57
						c-42.04,1.71-85.04-0.9-125.5,8.15c-35.98,8.05-67.17,24.75-102.15,34.93c-58.43,17.01-123.66,14.9-184.2,27.25
						c-28.11,5.74-54.99,14.68-79.47,26.25h-95.13l54.32-16.76c232.7-81.06,491.16-122.71,747.03-120.8l346.46-15.79l-0.92,57.46
						L1093.59,911.87z"/>
				</g>
				<g>
					<path class="st2" d="M807.61,853.9c-0.22,2.19-1.19,4.18-2.43,5.54c-0.88,0.96-1.91,1.64-3,2c-1.38,0.47-2.84,0.43-4.2-0.16
						c-2.42-1.05-4.42-3.85-5.19-7.24c-0.2-0.9-0.33-1.86-0.17-2.78c0.15-0.92,0.63-1.77,1.28-1.98c1.09-0.35,2.02,1.08,2.68,2.35
						c-0.35-3.36,0.34-6.73,1.76-9.48c0.47-0.9,1.13-1.79,1.92-1.72c0.72,0.07,1.27,0.91,1.65,1.76c0.97,2.15,1.23,4.78,1.12,7.3
						c0.37-1.26,1.32-1.89,2.23-1.74c0.45,0.07,0.86,0.34,1.21,0.74c0.37,0.42,0.66,0.97,0.86,1.58
						C807.71,851.26,807.74,852.61,807.61,853.9z"/>
				</g>
				<g>
					<rect x="799.73" y="850.76" class="st9" width="0.65" height="17.07"/>
				</g>
				<g>
					<path class="st2" d="M416.06,900.29c-0.64,6.26-3.4,11.98-6.96,15.86c-1.59,1.74-3.35,3.15-5.21,4.22
						c-4.84,2.78-10.37,3.23-15.38,1.05c-6.93-3.02-12.65-11-14.86-20.72c-0.58-2.57-0.93-5.33-0.49-7.96
						c0.44-2.63,1.81-5.07,3.68-5.67c3.12-1.01,5.79,3.08,7.67,6.73c-1-9.62,0.99-19.27,5.05-27.14c1.34-2.59,3.24-5.13,5.5-4.91
						c2.05,0.2,3.63,2.6,4.73,5.04c2.77,6.15,3.53,13.67,3.21,20.9c1.07-3.61,3.77-5.42,6.39-4.98c0.51,0.09,1,0.26,1.48,0.51
						c1.96,1.04,3.57,3.4,4.43,6.14C416.37,892.75,416.44,896.62,416.06,900.29z"/>
				</g>
				<g>
					<rect x="393.52" y="891.32" class="st9" width="1.87" height="48.86"/>
				</g>
				<g>
					<path class="st2" d="M448.84,894.77c-0.28,4-1.27,8.32-4.03,10.59c-0.66,0.54-1.39,0.92-2.15,1.15
						c-2.85,0.86-6.17-0.41-8.25-3.02c-2.63-3.3-3.49-8.23-3.05-12.77c0.39-4.05,1.78-11.38,5.01-13.72
						c3.22-2.33,7.75,0.7,9.85,3.91c0.1,0.16,0.21,0.33,0.3,0.49C448.72,885.23,449.16,890.14,448.84,894.77z"/>
				</g>
				<g>
					<rect x="439.13" y="889.63" class="st9" width="1.87" height="33.17"/>
				</g>
				<g>
					<path class="st2" d="M1034.1,794.66c-0.17,1.61-0.87,3.07-1.79,4.07c-0.65,0.71-1.4,1.2-2.2,1.47
						c-1.01,0.34-2.09,0.31-3.08-0.12c-1.78-0.77-3.25-2.82-3.82-5.32c-0.15-0.66-0.24-1.37-0.13-2.04c0.11-0.67,0.46-1.3,0.94-1.46
						c0.8-0.26,1.49,0.79,1.97,1.73c-0.26-2.47,0.25-4.95,1.3-6.97c0.34-0.66,0.83-1.32,1.41-1.26c0.53,0.05,0.93,0.67,1.21,1.29
						c0.71,1.58,0.91,3.51,0.83,5.37c0.27-0.93,0.97-1.39,1.64-1.28c0.33,0.05,0.63,0.25,0.89,0.55c0.27,0.31,0.49,0.71,0.63,1.16
						C1034.18,792.72,1034.2,793.71,1034.1,794.66z"/>
				</g>
				<g>
					<rect x="1028.31" y="792.35" class="st9" width="0.48" height="12.54"/>
				</g>
				<g>
					<path class="st2" d="M988.99,726.51c-0.13,1.29-0.7,2.46-1.43,3.26c-0.52,0.57-1.13,0.97-1.76,1.18
						c-0.81,0.27-1.67,0.25-2.47-0.1c-1.42-0.62-2.6-2.26-3.06-4.26c-0.12-0.53-0.19-1.1-0.1-1.64c0.09-0.54,0.37-1.04,0.76-1.17
						c0.64-0.21,1.19,0.63,1.58,1.38c-0.21-1.98,0.2-3.96,1.04-5.58c0.28-0.53,0.67-1.06,1.13-1.01c0.42,0.04,0.75,0.53,0.97,1.04
						c0.57,1.26,0.73,2.81,0.66,4.3c0.22-0.74,0.77-1.11,1.31-1.02c0.26,0.04,0.51,0.2,0.71,0.44c0.22,0.25,0.39,0.57,0.5,0.93
						C989.06,724.96,989.07,725.75,988.99,726.51z"/>
				</g>
				<g>
					<rect x="984.36" y="724.66" class="st9" width="0.38" height="10.05"/>
				</g>
				<g>
					<path class="st2" d="M995.41,727.56c-0.07,0.95-0.3,1.97-0.95,2.5c-0.16,0.13-0.33,0.22-0.51,0.27
						c-0.67,0.2-1.46-0.1-1.95-0.71c-0.62-0.78-0.83-1.94-0.72-3.02c0.09-0.96,0.42-2.69,1.18-3.24c0.76-0.55,1.83,0.17,2.33,0.93
						c0.02,0.04,0.05,0.08,0.07,0.12C995.38,725.3,995.49,726.46,995.41,727.56z"/>
				</g>
				<g>
					<rect x="993.12" y="726.34" class="st9" width="0.44" height="7.84"/>
				</g>
				<g>
					<path class="st8" d="M1034.98,879.55c-0.31,4.49-1.43,9.34-4.53,11.89c-0.74,0.61-1.56,1.03-2.41,1.29
						c-3.2,0.96-6.92-0.46-9.26-3.39c-2.96-3.71-3.92-9.23-3.42-14.33c0.44-4.55,1.99-12.77,5.63-15.4
						c3.62-2.61,8.7,0.79,11.06,4.39c0.12,0.18,0.23,0.37,0.34,0.55C1034.84,868.84,1035.34,874.36,1034.98,879.55z"/>
				</g>
				<g>
					<rect x="1024.08" y="873.78" class="st9" width="2.1" height="37.24"/>
				</g>
				<g>
					<path class="st12" d="M968.95,667.03h-42.32c1.54-6.92,6.84-12.01,12.77-12.89s11.97,3.27,14.86,9.54
						c1.01-1.4,2.34-2.43,3.79-3.03c1.36-0.56,2.82-0.73,4.24-0.45C965.22,660.78,967.83,663.73,968.95,667.03z"/>
				</g>
				<g>
					<path class="st12" d="M1064.88,683.78h-52.86c1.4-4.12,4.66-7.81,8.32-8.53c3.66-0.72,7.6,0.98,10.03,4.35
						c2.47-5.34,6.76-9.44,11.59-11.17c2.25-0.8,4.62-1.09,6.97-0.75C1056.34,668.77,1062.95,675.14,1064.88,683.78z"/>
				</g>
				<g>
					<path class="st2" d="M781.6,859.59c-0.21,2.03-1.11,3.89-2.26,5.15c-0.82,0.9-1.78,1.52-2.79,1.86
						c-1.28,0.43-2.64,0.4-3.9-0.15c-2.25-0.98-4.11-3.58-4.83-6.73c-0.19-0.83-0.3-1.73-0.16-2.58c0.14-0.85,0.59-1.65,1.19-1.84
						c1.02-0.33,1.88,1,2.49,2.19c-0.32-3.13,0.32-6.26,1.64-8.82c0.43-0.84,1.05-1.67,1.79-1.6c0.67,0.06,1.18,0.84,1.54,1.64
						c0.9,2,1.15,4.44,1.04,6.79c0.35-1.17,1.22-1.76,2.08-1.62c0.42,0.07,0.8,0.32,1.12,0.69c0.34,0.39,0.62,0.9,0.8,1.47
						C781.71,857.14,781.73,858.4,781.6,859.59z"/>
				</g>
				<g>
					<rect x="774.28" y="856.68" class="st9" width="0.61" height="15.87"/>
				</g>
				<g>
					
						<rect x="505.83" y="833.38" transform="matrix(-1 -1.224647e-16 1.224647e-16 -1 1028.6284 1685.6377)" class="st5" width="16.96" height="18.87"/>
					<rect x="477.23" y="833.38" class="st10" width="28.6" height="18.87"/>
					<rect x="511.72" y="838.11" class="st11" width="6.23" height="14.14"/>
					<polygon class="st11" points="485.61,812.75 477.23,833.38 506.04,833.38 514.42,812.75 					"/>
					<rect x="488.95" y="807.94" class="st10" width="5.28" height="7.06"/>
					<polygon class="st5" points="514.42,812.75 506.04,833.38 522.8,833.38 					"/>
					<polygon class="st5" points="494.23,815 496.57,812.46 496.57,807.94 494.23,807.94 					"/>
					
						<rect x="512.59" y="821.14" transform="matrix(-1 -1.224647e-16 1.224647e-16 -1 1028.6284 1646.134)" class="st3" width="3.46" height="3.85"/>
					
						<rect x="485.9" y="835.34" transform="matrix(-1 -1.224647e-16 1.224647e-16 -1 975.2584 1678.3704)" class="st3" width="3.46" height="7.69"/>
					
						<rect x="491.95" y="835.34" transform="matrix(-1 -1.224647e-16 1.224647e-16 -1 987.3489 1678.3704)" class="st3" width="3.46" height="7.69"/>
				</g>
				<g>
					<rect x="610.63" y="880.65" class="st5" width="20.58" height="16.47"/>
					
						<rect x="631.21" y="880.65" transform="matrix(-1 -3.689683e-11 3.689683e-11 -1 1297.1356 1777.7726)" class="st10" width="34.71" height="16.47"/>
					
						<rect x="622.69" y="884.77" transform="matrix(-1 -5.013158e-11 5.013158e-11 -1 1250.7928 1781.8947)" class="st11" width="5.41" height="12.35"/>
					<polygon class="st11" points="655.75,862.64 665.92,880.65 630.97,880.65 620.8,862.64 					"/>
					
						<rect x="645.84" y="858.45" transform="matrix(-1 -5.402002e-11 5.402002e-11 -1 1296.1156 1723.0544)" class="st10" width="4.44" height="6.16"/>
					<polygon class="st5" points="620.8,862.64 630.97,880.65 610.63,880.65 					"/>
					<polygon class="st5" points="645.84,864.61 643.87,862.39 643.87,858.45 645.84,858.45 					"/>
					<rect x="619.66" y="869.97" class="st3" width="2.52" height="6.17"/>
					<rect x="658.72" y="884.85" class="st3" width="2.76" height="6.71"/>
					<rect x="653.89" y="884.85" class="st3" width="2.76" height="6.71"/>
					<rect x="640.6" y="884.85" class="st3" width="2.76" height="6.71"/>
					<rect x="635.76" y="884.85" class="st3" width="2.76" height="6.71"/>
					<rect x="617.79" y="884.85" class="st3" width="2.76" height="6.71"/>
					<rect x="612.96" y="884.85" class="st3" width="2.76" height="6.71"/>
				</g>
				<g>
					<path class="st2" d="M846.4,850.76c-0.19,2.07-1.02,3.95-2.08,5.24c-0.75,0.91-1.64,1.55-2.57,1.89
						c-1.18,0.44-2.43,0.4-3.59-0.15c-2.07-1-3.79-3.63-4.45-6.84c-0.17-0.85-0.28-1.76-0.15-2.63c0.13-0.87,0.54-1.67,1.1-1.87
						c0.93-0.33,1.73,1.02,2.3,2.22c-0.3-3.18,0.3-6.36,1.51-8.96c0.4-0.85,0.97-1.69,1.65-1.62c0.61,0.07,1.09,0.86,1.41,1.67
						c0.83,2.03,1.06,4.51,0.96,6.9c0.32-1.19,1.13-1.79,1.91-1.65c0.38,0.07,0.74,0.33,1.04,0.7c0.31,0.39,0.57,0.92,0.73,1.49
						C846.49,848.27,846.51,849.54,846.4,850.76z"/>
				</g>
				<g>
					<rect x="839.66" y="847.79" class="st9" width="0.56" height="16.13"/>
				</g>
				<g>
					<path class="st2" d="M824.14,856.14c-0.18,1.92-0.95,3.68-1.94,4.87c-0.7,0.85-1.52,1.44-2.39,1.76
						c-1.1,0.41-2.26,0.38-3.34-0.14c-1.93-0.93-3.52-3.38-4.13-6.36c-0.16-0.79-0.26-1.64-0.14-2.44c0.12-0.81,0.5-1.56,1.02-1.74
						c0.87-0.31,1.61,0.95,2.13,2.07c-0.28-2.95,0.27-5.92,1.4-8.33c0.37-0.79,0.9-1.58,1.53-1.51c0.57,0.06,1.01,0.8,1.32,1.55
						c0.77,1.89,0.98,4.2,0.89,6.42c0.3-1.11,1.05-1.66,1.78-1.53c0.36,0.06,0.68,0.3,0.96,0.65c0.29,0.37,0.53,0.85,0.68,1.39
						C824.22,853.82,824.24,855.01,824.14,856.14z"/>
				</g>
				<g>
					<rect x="817.86" y="853.39" class="st9" width="0.52" height="15"/>
				</g>
				<g>
					<path class="st2" d="M1046.15,793.4c-0.17,1.8-0.87,3.45-1.79,4.57c-0.65,0.79-1.4,1.35-2.2,1.65
						c-1.01,0.38-2.09,0.35-3.08-0.13c-1.78-0.87-3.25-3.17-3.82-5.97c-0.15-0.74-0.24-1.54-0.13-2.29
						c0.11-0.76,0.46-1.46,0.94-1.64c0.8-0.29,1.49,0.89,1.97,1.94c-0.26-2.77,0.25-5.56,1.3-7.82c0.34-0.75,0.83-1.48,1.41-1.42
						c0.53,0.06,0.93,0.75,1.21,1.45c0.71,1.77,0.91,3.94,0.83,6.02c0.27-1.04,0.97-1.56,1.64-1.44c0.33,0.06,0.63,0.28,0.89,0.61
						c0.27,0.34,0.49,0.8,0.63,1.3C1046.23,791.22,1046.25,792.34,1046.15,793.4z"/>
				</g>
				<g>
					<rect x="1040.36" y="790.81" class="st9" width="0.48" height="14.08"/>
				</g>
				<g>
					
						<rect x="886.83" y="739.08" transform="matrix(-1 -1.224647e-16 1.224647e-16 -1 1781.8798 1487.2959)" class="st5" width="8.22" height="9.14"/>
					<rect x="872.98" y="739.08" class="st10" width="13.85" height="9.14"/>
					<rect x="889.68" y="741.37" class="st11" width="3.02" height="6.85"/>
					<polygon class="st11" points="877.04,729.09 872.98,739.08 886.93,739.08 890.99,729.09 					"/>
					<rect x="878.66" y="726.76" class="st10" width="2.56" height="3.42"/>
					<polygon class="st5" points="890.99,729.09 886.93,739.08 895.05,739.08 					"/>
					<polygon class="st5" points="881.22,730.18 882.35,728.95 882.35,726.76 881.22,726.76 					"/>
					
						<rect x="890.1" y="733.15" transform="matrix(-1 -1.224647e-16 1.224647e-16 -1 1781.8798 1468.1648)" class="st3" width="1.67" height="1.86"/>
					
						<rect x="877.18" y="740.03" transform="matrix(-1 -1.224647e-16 1.224647e-16 -1 1756.0334 1483.7765)" class="st3" width="1.67" height="3.72"/>
					
						<rect x="880.11" y="740.03" transform="matrix(-1 -1.224647e-16 1.224647e-16 -1 1761.8887 1483.7765)" class="st3" width="1.67" height="3.72"/>
				</g>
				<g>
					<rect x="836.28" y="745.26" class="st5" width="9.97" height="7.97"/>
					
						<rect x="846.24" y="745.26" transform="matrix(-1 -3.755275e-11 3.755275e-11 -1 1709.2961 1498.4879)" class="st10" width="16.81" height="7.97"/>
					
						<rect x="842.12" y="747.25" transform="matrix(-1 -5.002144e-11 5.002144e-11 -1 1686.8529 1500.4841)" class="st11" width="2.62" height="5.98"/>
					<polygon class="st11" points="858.13,736.53 863.05,745.26 846.12,745.26 841.2,736.53 					"/>
					
						<rect x="853.32" y="734.5" transform="matrix(-1 -5.577284e-11 5.577284e-11 -1 1708.8021 1471.9886)" class="st10" width="2.15" height="2.98"/>
					<polygon class="st5" points="841.2,736.53 846.12,745.26 836.28,745.26 					"/>
					<polygon class="st5" points="853.32,737.49 852.37,736.41 852.37,734.5 853.32,734.5 					"/>
					<rect x="840.65" y="740.08" class="st3" width="1.22" height="2.99"/>
					<rect x="859.56" y="747.29" class="st3" width="1.34" height="3.25"/>
					<rect x="857.22" y="747.29" class="st3" width="1.34" height="3.25"/>
					<rect x="850.79" y="747.29" class="st3" width="1.34" height="3.25"/>
					<rect x="848.45" y="747.29" class="st3" width="1.34" height="3.25"/>
					<rect x="839.74" y="747.29" class="st3" width="1.34" height="3.25"/>
					<rect x="837.4" y="747.29" class="st3" width="1.34" height="3.25"/>
				</g>
				<g>
					
						<rect x="822.3" y="752.79" transform="matrix(-1 -1.224647e-16 1.224647e-16 -1 1653.941 1513.2595)" class="st5" width="9.34" height="7.68"/>
					<rect x="806.54" y="752.79" class="st10" width="15.75" height="7.68"/>
					<rect x="825.54" y="754.71" class="st11" width="3.43" height="5.76"/>
					<polygon class="st11" points="811.16,744.39 806.54,752.79 822.41,752.79 827.03,744.39 					"/>
					<rect x="813" y="742.43" class="st10" width="2.91" height="2.87"/>
					<polygon class="st5" points="827.03,744.39 822.41,752.79 831.64,752.79 					"/>
					<polygon class="st5" points="815.91,745.3 817.2,744.27 817.2,742.43 815.91,742.43 					"/>
					
						<rect x="826.02" y="747.81" transform="matrix(-1 -1.224647e-16 1.224647e-16 -1 1653.941 1497.1766)" class="st3" width="1.9" height="1.57"/>
					
						<rect x="811.32" y="753.58" transform="matrix(-1 -1.224647e-16 1.224647e-16 -1 1624.5435 1510.3008)" class="st3" width="1.9" height="3.13"/>
					
						<rect x="814.65" y="753.58" transform="matrix(-1 -1.224647e-16 1.224647e-16 -1 1631.2032 1510.3008)" class="st3" width="1.9" height="3.13"/>
				</g>
				<g>
					<rect x="905.44" y="738.76" class="st5" width="10.84" height="9.61"/>
					<rect x="929.14" y="715.78" class="st5" width="10.84" height="32.59"/>
					
						<rect x="916.28" y="738.76" transform="matrix(-1 -3.122315e-11 3.122315e-11 -1 1856.3351 1487.1304)" class="st10" width="23.77" height="9.61"/>
					<path class="st11" d="M908.73,748.37h4.26v-5.82c0-0.5-0.41-0.91-0.91-0.91h-2.44c-0.5,0-0.91,0.41-0.91,0.91V748.37z"/>
					<polygon class="st11" points="929.2,728.24 934.56,738.76 916.15,738.76 910.8,728.24 					"/>
					
						<rect x="923.98" y="725.79" transform="matrix(-1 -6.450986e-11 6.450986e-11 -1 1850.3033 1455.1869)" class="st10" width="2.34" height="3.6"/>
					<polygon class="st5" points="910.8,728.24 916.15,738.76 905.44,738.76 					"/>
					<polygon class="st5" points="923.98,729.39 922.95,728.1 922.95,725.79 923.98,725.79 					"/>
					<path class="st3" d="M911.24,732.52h-0.76c-0.16,0-0.28,0.13-0.28,0.28v3.32h1.33v-3.32
						C911.53,732.65,911.4,732.52,911.24,732.52z"/>
					<path class="st3" d="M930.67,741.21h-0.83c-0.17,0-0.31,0.14-0.31,0.31v3.61h1.46v-3.61
						C930.98,741.35,930.84,741.21,930.67,741.21z"/>
					<path class="st3" d="M921,741.21h-0.83c-0.17,0-0.31,0.14-0.31,0.31v3.61h1.46v-3.61C921.32,741.35,921.18,741.21,921,741.21z"
						/>
					<path class="st3" d="M915.17,741.21h-0.83c-0.17,0-0.31,0.14-0.31,0.31v3.61h1.46v-3.61
						C915.48,741.35,915.34,741.21,915.17,741.21z"/>
					<path class="st3" d="M907.45,741.21h-0.83c-0.17,0-0.31,0.14-0.31,0.31v3.61h1.46v-3.61
						C907.76,741.35,907.62,741.21,907.45,741.21z"/>
					<path class="st3" d="M925.84,741.21h-0.83c-0.17,0-0.31,0.14-0.31,0.31v3.61h1.46v-3.61
						C926.16,741.35,926.02,741.21,925.84,741.21z"/>
					
						<rect x="934.56" y="715.78" transform="matrix(-1 -4.621433e-10 4.621433e-10 -1 1874.6099 1464.1525)" class="st10" width="5.49" height="32.59"/>
					<polygon class="st11" points="934.6,705.72 940.37,716.23 928.82,716.23 					"/>
					<path class="st3" d="M932.13,724.64h-0.76c-0.16,0-0.28,0.13-0.28,0.28v3.32h1.33v-3.32
						C932.42,724.77,932.29,724.64,932.13,724.64z"/>
					<circle class="st3" cx="931.75" cy="720.12" r="1.36"/>
					<path class="st3" d="M937.68,724.64h-0.76c-0.16,0-0.28,0.13-0.28,0.28v3.32h1.33v-3.32
						C937.97,724.77,937.84,724.64,937.68,724.64z"/>
					<path class="st3" d="M937.68,731.07h-0.76c-0.16,0-0.28,0.13-0.28,0.28v3.32h1.33v-3.32
						C937.97,731.2,937.84,731.07,937.68,731.07z"/>
					<circle class="st3" cx="937.3" cy="720.12" r="1.36"/>
				</g>
				<g>
					<path class="st12" d="M98.96,690.5H56.64c1.54-6.92,6.84-12.01,12.77-12.89s11.97,3.27,14.86,9.54
						c1.01-1.4,2.34-2.43,3.79-3.03c1.36-0.56,2.82-0.73,4.24-0.45C95.23,684.25,97.84,687.2,98.96,690.5z"/>
				</g>
				<g>
					<path class="st12" d="M239.85,724.12h-86.52c1.21-5.59,4.15-9.72,8.83-11.07c4.68-1.34,9.93,0.65,13.11,4.99
						c0.89-7.82,5.3-14.71,11.07-18.42c2.81-1.81,5.95-2.87,9.15-2.91c9.79-0.15,19.07,9.21,20.63,20.8
						c3.73-3.81,9.34-6.08,14.13-4.89C235.06,713.81,238.17,718.07,239.85,724.12z"/>
				</g>
				<g>
					<path class="st12" d="M346.46,667.03h-42.32c1.54-6.92,6.84-12.01,12.77-12.89s11.97,3.27,14.86,9.54
						c1.01-1.4,2.34-2.43,3.79-3.03c1.36-0.56,2.82-0.73,4.24-0.45C342.73,660.78,345.33,663.73,346.46,667.03z"/>
				</g>
				<g>
					<path class="st12" d="M1307.32,683.78h-75.68c2.01-5.9,6.67-11.18,11.91-12.21s10.88,1.41,14.36,6.23
						c3.53-7.64,9.68-13.52,16.6-15.99c3.22-1.15,6.61-1.56,9.98-1.07C1295.09,662.29,1304.56,671.41,1307.32,683.78z"/>
				</g>
				<g>
					<path class="st12" d="M1429.23,722.73h-42.32c1.54-6.92,6.84-12.01,12.77-12.89s11.97,3.27,14.86,9.54
						c1.01-1.4,2.34-2.43,3.79-3.03c1.36-0.56,2.82-0.73,4.24-0.45C1425.5,716.48,1428.1,719.43,1429.23,722.73z"/>
				</g>
				<g>
					<path class="st12" d="M1170.06,719.04h-50.93c0.71-3.29,2.44-5.72,5.2-6.51c2.76-0.79,5.85,0.38,7.72,2.94
						c0.78-6.85,6.14-12.47,11.9-12.56c0.12,0,0.25,0,0.37,0.01c5.62,0.15,10.87,5.56,11.77,12.24c2.19-2.25,5.5-3.58,8.32-2.88
						C1167.24,712.97,1169.07,715.48,1170.06,719.04z"/>
				</g>
				<g>
					<path class="st2" d="M52.4,883.46c-0.22,2.19-1.19,4.18-2.43,5.54c-0.88,0.96-1.91,1.64-3,2c-1.38,0.47-2.84,0.43-4.2-0.16
						c-2.42-1.05-4.42-3.85-5.19-7.24c-0.2-0.9-0.33-1.86-0.17-2.78c0.15-0.92,0.63-1.77,1.28-1.98c1.09-0.35,2.02,1.08,2.68,2.35
						c-0.35-3.36,0.34-6.73,1.76-9.48c0.47-0.9,1.13-1.79,1.92-1.72c0.72,0.07,1.27,0.91,1.65,1.76c0.97,2.15,1.23,4.78,1.12,7.3
						c0.37-1.26,1.32-1.89,2.23-1.74c0.45,0.07,0.86,0.34,1.21,0.74c0.37,0.42,0.66,0.97,0.86,1.58
						C52.51,880.82,52.53,882.17,52.4,883.46z"/>
				</g>
				<g>
					<rect x="44.52" y="880.32" class="st9" width="0.65" height="17.07"/>
				</g>
				<g>
					<path class="st2" d="M26.4,889.16c-0.21,2.03-1.11,3.89-2.26,5.15c-0.82,0.9-1.78,1.52-2.79,1.86c-1.28,0.43-2.64,0.4-3.9-0.15
						c-2.25-0.98-4.11-3.58-4.83-6.73c-0.19-0.83-0.3-1.73-0.16-2.58c0.14-0.85,0.59-1.65,1.19-1.84c1.02-0.33,1.88,1,2.49,2.19
						c-0.32-3.13,0.32-6.26,1.64-8.82c0.43-0.84,1.05-1.67,1.79-1.6c0.67,0.06,1.18,0.84,1.54,1.64c0.9,2,1.15,4.44,1.04,6.79
						c0.35-1.17,1.22-1.76,2.08-1.62c0.42,0.07,0.8,0.32,1.12,0.69c0.34,0.39,0.62,0.9,0.8,1.47
						C26.5,886.7,26.52,887.96,26.4,889.16z"/>
				</g>
				<g>
					<rect x="19.07" y="886.24" class="st9" width="0.61" height="15.87"/>
				</g>
				<g>
					<path class="st2" d="M91.19,880.32c-0.19,2.07-1.02,3.95-2.08,5.24c-0.75,0.91-1.64,1.55-2.57,1.89
						c-1.18,0.44-2.43,0.4-3.59-0.15c-2.07-1-3.79-3.63-4.45-6.84c-0.17-0.85-0.28-1.76-0.15-2.63c0.13-0.87,0.54-1.67,1.1-1.87
						c0.93-0.33,1.73,1.02,2.3,2.22c-0.3-3.18,0.3-6.36,1.51-8.96c0.4-0.85,0.97-1.69,1.65-1.62c0.61,0.07,1.09,0.86,1.41,1.67
						c0.83,2.03,1.06,4.51,0.96,6.9c0.32-1.19,1.13-1.79,1.91-1.65c0.38,0.07,0.74,0.33,1.04,0.7c0.31,0.39,0.57,0.92,0.73,1.49
						C91.29,877.83,91.31,879.11,91.19,880.32z"/>
				</g>
				<g>
					<rect x="84.45" y="877.36" class="st9" width="0.56" height="16.13"/>
				</g>
				<g>
					<path class="st2" d="M68.93,885.7c-0.18,1.92-0.95,3.68-1.94,4.87c-0.7,0.85-1.52,1.44-2.39,1.76
						c-1.1,0.41-2.26,0.38-3.34-0.14c-1.93-0.93-3.52-3.38-4.13-6.36c-0.16-0.79-0.26-1.64-0.14-2.44c0.12-0.81,0.5-1.56,1.02-1.74
						c0.87-0.31,1.61,0.95,2.13,2.07c-0.28-2.95,0.27-5.92,1.4-8.33c0.37-0.79,0.9-1.58,1.53-1.51c0.57,0.06,1.01,0.8,1.32,1.55
						c0.77,1.89,0.98,4.2,0.89,6.42c0.3-1.11,1.05-1.66,1.78-1.53c0.36,0.06,0.68,0.3,0.96,0.65c0.29,0.37,0.53,0.85,0.68,1.39
						C69.02,883.39,69.03,884.57,68.93,885.7z"/>
				</g>
				<g>
					<rect x="62.66" y="882.95" class="st9" width="0.52" height="15"/>
				</g>
				<g>
					<path class="st2" d="M1355.55,757.49c-0.13,1.28-0.69,2.44-1.42,3.24c-0.51,0.56-1.12,0.96-1.75,1.17
						c-0.8,0.27-1.66,0.25-2.45-0.1c-1.41-0.62-2.58-2.25-3.03-4.23c-0.12-0.52-0.19-1.09-0.1-1.62c0.09-0.54,0.37-1.03,0.75-1.16
						c0.64-0.21,1.18,0.63,1.57,1.37c-0.2-1.96,0.2-3.93,1.03-5.54c0.27-0.53,0.66-1.05,1.12-1c0.42,0.04,0.74,0.53,0.96,1.03
						c0.56,1.26,0.72,2.79,0.66,4.27c0.22-0.74,0.77-1.11,1.3-1.02c0.26,0.04,0.5,0.2,0.71,0.43c0.21,0.24,0.39,0.57,0.5,0.92
						C1355.62,755.95,1355.63,756.74,1355.55,757.49z"/>
				</g>
				<g>
					<rect x="1350.95" y="755.65" class="st9" width="0.38" height="9.97"/>
				</g>
				<g>
					<path class="st2" d="M1340.37,760.81c-0.12,1.19-0.65,2.27-1.32,3.01c-0.48,0.52-1.04,0.89-1.63,1.09
						c-0.75,0.25-1.54,0.23-2.28-0.09c-1.31-0.57-2.4-2.09-2.82-3.93c-0.11-0.49-0.18-1.01-0.09-1.51c0.08-0.5,0.34-0.96,0.7-1.08
						c0.59-0.19,1.1,0.59,1.46,1.28c-0.19-1.83,0.19-3.66,0.96-5.15c0.25-0.49,0.61-0.97,1.04-0.93c0.39,0.04,0.69,0.49,0.9,0.96
						c0.52,1.17,0.67,2.59,0.61,3.97c0.2-0.69,0.71-1.03,1.21-0.95c0.24,0.04,0.47,0.19,0.66,0.4c0.2,0.23,0.36,0.53,0.46,0.86
						C1340.43,759.38,1340.44,760.12,1340.37,760.81z"/>
				</g>
				<g>
					<rect x="1336.09" y="759.11" class="st9" width="0.35" height="9.27"/>
				</g>
				<g>
					<path class="st2" d="M1378.21,755.65c-0.11,1.21-0.59,2.31-1.22,3.06c-0.44,0.53-0.96,0.91-1.5,1.11
						c-0.69,0.26-1.42,0.24-2.1-0.09c-1.21-0.58-2.21-2.12-2.6-4c-0.1-0.5-0.16-1.03-0.09-1.53c0.08-0.51,0.32-0.98,0.64-1.09
						c0.55-0.2,1.01,0.59,1.34,1.3c-0.17-1.85,0.17-3.72,0.88-5.23c0.23-0.5,0.57-0.99,0.96-0.95c0.36,0.04,0.63,0.5,0.83,0.97
						c0.48,1.19,0.62,2.64,0.56,4.03c0.19-0.7,0.66-1.05,1.12-0.96c0.22,0.04,0.43,0.19,0.6,0.41c0.18,0.23,0.33,0.54,0.43,0.87
						C1378.26,754.2,1378.27,754.94,1378.21,755.65z"/>
				</g>
				<g>
					<rect x="1374.27" y="753.92" class="st9" width="0.33" height="9.42"/>
				</g>
				<g>
					<path class="st2" d="M1365.21,758.8c-0.1,1.12-0.55,2.15-1.13,2.84c-0.41,0.49-0.89,0.84-1.39,1.03
						c-0.64,0.24-1.32,0.22-1.95-0.08c-1.13-0.54-2.06-1.97-2.41-3.71c-0.09-0.46-0.15-0.96-0.08-1.43c0.07-0.47,0.29-0.91,0.6-1.02
						c0.51-0.18,0.94,0.55,1.25,1.21c-0.16-1.72,0.16-3.46,0.82-4.87c0.22-0.46,0.53-0.92,0.89-0.88c0.33,0.04,0.59,0.47,0.77,0.9
						c0.45,1.1,0.57,2.45,0.52,3.75c0.17-0.65,0.61-0.97,1.04-0.89c0.21,0.04,0.4,0.18,0.56,0.38c0.17,0.21,0.31,0.5,0.4,0.81
						C1365.26,757.44,1365.27,758.14,1365.21,758.8z"/>
				</g>
				<g>
					<rect x="1361.54" y="757.19" class="st9" width="0.3" height="8.76"/>
				</g>
				<g>
					<path class="st8" d="M78.25,768.88c-0.14,2-0.64,4.16-2.02,5.29c-0.33,0.27-0.69,0.46-1.07,0.57
						c-1.43,0.43-3.08-0.21-4.13-1.51c-1.32-1.65-1.74-4.11-1.52-6.38c0.2-2.03,0.89-5.69,2.51-6.86c1.61-1.16,3.87,0.35,4.92,1.96
						c0.05,0.08,0.1,0.16,0.15,0.24C78.19,764.11,78.41,766.57,78.25,768.88z"/>
				</g>
				<g>
					<rect x="73.39" y="766.31" class="st9" width="0.93" height="16.58"/>
				</g>
				<g>
					<path class="st8" d="M93.78,776.53c-0.14,2-0.64,4.16-2.02,5.29c-0.33,0.27-0.69,0.46-1.07,0.57
						c-1.43,0.43-3.08-0.21-4.12-1.51c-1.32-1.65-1.74-4.11-1.52-6.38c0.2-2.03,0.89-5.69,2.51-6.86c1.61-1.16,3.87,0.35,4.92,1.96
						c0.05,0.08,0.1,0.16,0.15,0.24C93.71,771.76,93.93,774.22,93.78,776.53z"/>
				</g>
				<g>
					<rect x="88.92" y="773.96" class="st9" width="0.93" height="16.58"/>
				</g>
				<g>
					<path class="st8" d="M106.21,762.52c-0.14,2-0.64,4.16-2.02,5.29c-0.33,0.27-0.69,0.46-1.07,0.57
						c-1.43,0.43-3.08-0.21-4.12-1.51c-1.32-1.65-1.74-4.11-1.52-6.38c0.2-2.03,0.89-5.69,2.51-6.86c1.61-1.16,3.87,0.35,4.92,1.96
						c0.05,0.08,0.1,0.16,0.15,0.24C106.15,757.75,106.37,760.21,106.21,762.52z"/>
				</g>
				<g>
					<rect x="101.35" y="759.95" class="st9" width="0.93" height="16.58"/>
				</g>
				<g>
					<path class="st8" d="M1285.65,971.71c-0.41,5.98-1.9,12.44-6.03,15.83c-0.99,0.81-2.07,1.37-3.21,1.72
						c-4.26,1.28-9.22-0.62-12.33-4.52c-3.94-4.94-5.22-12.29-4.55-19.08c0.59-6.06,2.65-17,7.49-20.5
						c4.82-3.48,11.59,1.05,14.73,5.85c0.16,0.24,0.31,0.49,0.45,0.73C1285.46,957.44,1286.12,964.79,1285.65,971.71z"/>
				</g>
				<g>
					<rect x="1271.12" y="964.02" class="st9" width="2.79" height="49.58"/>
				</g>
				<g>
					<path class="st8" d="M1316.71,956.97c-0.41,5.98-1.9,12.44-6.03,15.83c-0.99,0.81-2.07,1.37-3.21,1.72
						c-4.26,1.28-9.22-0.62-12.33-4.52c-3.94-4.94-5.22-12.29-4.55-19.08c0.59-6.06,2.65-17,7.49-20.5
						c4.82-3.48,11.59,1.05,14.73,5.85c0.16,0.24,0.31,0.49,0.45,0.73C1316.52,942.71,1317.19,950.06,1316.71,956.97z"/>
				</g>
				<g>
					<rect x="1302.19" y="949.29" class="st9" width="2.79" height="49.58"/>
				</g>
				<g>
					<path class="st8" d="M1349.46,973.44c-0.35,5.06-1.61,10.53-5.1,13.4c-0.84,0.69-1.76,1.16-2.72,1.45
						c-3.61,1.08-7.81-0.52-10.45-3.82c-3.34-4.18-4.42-10.41-3.86-16.16c0.5-5.13,2.25-14.4,6.34-17.36
						c4.08-2.94,9.81,0.89,12.47,4.95c0.13,0.2,0.26,0.41,0.38,0.62C1349.3,961.36,1349.86,967.58,1349.46,973.44z"/>
				</g>
				<g>
					<rect x="1337.16" y="966.93" class="st9" width="2.37" height="41.99"/>
				</g>
				<g>
					<path class="st2" d="M1269.44,825.54c-0.12,1.78-0.57,3.7-1.8,4.71c-0.29,0.24-0.62,0.41-0.96,0.51
						c-1.27,0.38-2.75-0.18-3.67-1.35c-1.17-1.47-1.55-3.66-1.36-5.68c0.17-1.8,0.79-5.07,2.23-6.11c1.43-1.04,3.45,0.31,4.39,1.74
						c0.05,0.07,0.09,0.15,0.13,0.22C1269.38,821.29,1269.58,823.48,1269.44,825.54z"/>
				</g>
				<g>
					<rect x="1265.11" y="823.25" class="st9" width="0.83" height="14.77"/>
				</g>
				<g>
					<path class="st2" d="M1253.56,815.16c-0.12,1.78-0.57,3.7-1.8,4.71c-0.29,0.24-0.62,0.41-0.96,0.51
						c-1.27,0.38-2.75-0.18-3.67-1.35c-1.17-1.47-1.55-3.66-1.36-5.68c0.17-1.8,0.79-5.07,2.23-6.11c1.43-1.04,3.45,0.31,4.39,1.74
						c0.05,0.07,0.09,0.15,0.13,0.22C1253.5,810.91,1253.7,813.1,1253.56,815.16z"/>
				</g>
				<g>
					<rect x="1249.23" y="812.87" class="st9" width="0.83" height="14.77"/>
				</g>
			</g>
		</g>
	</g>
	<g class="st0">
		<g>
			<g id="Head_97_" transform="translate(54.000000, 31.000000)">
				<path class="st13" d="M411.26,823.86c-0.6-1.26-0.85-2.68-0.37-4.06c1.38-3.98,6.78-1.56,7.33,0.78
					c0.54,2.34-0.99,7.5-2.51,7.48c-0.61-0.01-1.71-0.69-2.74-1.76l-0.7,5.66l-4.55-1.23L411.26,823.86z"/>
			</g>
			<path id="Hair_33_" class="st14" d="M468.58,852.28c-0.48,2.47-0.35,3.81,0.4,4.01c1.12,0.3,2.26-0.15,2.75-0.02
				c0.36,0.1,0.16,0.52-0.17,0.79c-0.27,0.22-1.3,0.23-1.41,0.65c-0.12,0.43,0.73,0.3,0.66,0.55c-0.11,0.42-0.19,1.24-0.92,1.04
				c-0.73-0.2-2.76-1.03-2.83-2.22c-0.04-0.76,0.2-2.26,0.73-4.49c-0.04-0.02-0.09-0.03-0.13-0.04c-0.63-0.17-1.27,0.2-1.44,0.83
				c-0.09,0.32-0.03,0.64,0.12,0.91c-0.36,0.3-0.76,0.61-1.21,0.92c-1.06-1.1-1.4-3.59,0.42-5.39c0.63-0.96,1.55-1.31,2.54-1.32
				c0.83-0.11,1.61,0.06,2.21,0.43c1.25,0.45,2.28,1.15,2.54,1.47c-0.33,1.21-0.66,1.5-2.65,0.93
				C469.63,851.46,469.13,851.8,468.58,852.28z"/>
			<g>
				<path class="st15" d="M464.81,850.81c0,0,4.06,1.33,6.43,1.25c4.21,2.33,4.51,1.14,4.51,1.14s-1.6-1.24-2.88-1.98
					c-0.18-0.11,0.61-3.32-1.1-3.78C465.84,845.84,465.34,848.87,464.81,850.81z"/>
			</g>
		</g>
		<g>
			<polygon id="Leg_64_" class="st13" points="463.4,881.84 473.03,906.22 479.49,926.84 482.05,926.84 472.17,881.84 			"/>
			<path class="st13" d="M461.46,881.84c-0.1,8.57-1.6,20.1-1.84,20.64c-0.16,0.36-5.66,4.88-16.5,13.58l1.76,1.88
				c12.79-7.46,19.48-11.69,20.08-12.68c0.89-1.49,3.78-15.22,6.1-23.42H461.46z"/>
			
				<g transform="translate(51.500000, 189.000000) rotate(50.000000) translate(-51.500000, -189.000000) translate(21.000000, 169.000000)">
				<path id="shoe_57_" class="st16" d="M838.56,187.12c-0.22,0.59-0.33,1.02-0.33,1.32c0,0.35,0.06,0.87,0.18,1.55
					c0.41,0,4.1,0,11.07,0c0.29-0.95,0.12-1.46-0.5-1.54s-1.13-0.14-1.54-0.21l-5.15-2.29c-0.1-0.04-0.22,0-0.26,0.1c0,0,0,0,0,0.01
					l-0.33,0.8c-0.57,0.27-1.04,0.4-1.4,0.4c-0.29,0-0.69-0.12-1.21-0.35l0,0c-0.2-0.09-0.43,0-0.52,0.19
					C838.57,187.11,838.56,187.12,838.56,187.12z"/>
			</g>
			<g>
				<path class="st17" d="M493.69,875.46c0,0,3.36,3.41,5.89,4.81c0,0-1.66,3.21-4.38,3.9c0,0-1.92-5.42-3.85-6.26L493.69,875.46z"
					/>
				<path class="st18" d="M477.72,895.43c0,0,0.15-2.15,2.94-4.08s12.76-11.11,12.76-11.11s-1.03-1.72-1.44-1.92
					c0,0-3.44,2.74-4.72,4.82c-0.26,0.42-6.36,5.56-6.91,5.81c-0.55,0.25-4.9,4.17-5.35,4.99
					C474.54,894.76,477.22,895.52,477.72,895.43z"/>
				<path class="st19" d="M497.72,879.02c0.63,0.48,1.27,0.92,1.86,1.24c0,0-1.66,3.21-4.38,3.9c0,0-0.34-0.95-0.87-2.12
					L497.72,879.02z"/>
			</g>
			<g transform="translate(208.000000, 199.000000)">
				<path class="st16" d="M270.45,726.88c-0.22,0.59-0.33,1.02-0.33,1.32c0,0.35,0.06,0.87,0.18,1.55c0.41,0,4.1,0,11.07,0
					c0.29-0.95,0.12-1.46-0.5-1.54c-0.62-0.08-1.13-0.14-1.54-0.21l-5.15-2.29c-0.1-0.04-0.22,0-0.26,0.1c0,0,0,0,0,0.01l-0.33,0.8
					c-0.57,0.27-1.04,0.4-1.4,0.4c-0.29,0-0.69-0.12-1.21-0.35l0,0c-0.2-0.09-0.43,0-0.52,0.19
					C270.46,726.87,270.45,726.88,270.45,726.88z"/>
			</g>
			<polygon id="Pant_9_" class="st20" points="469.88,924.71 482.01,923.4 473.02,881.84 462.15,881.84 			"/>
			<path class="st21" d="M445.63,913.03l7.96,9.42c8.38-9.15,13.27-15.13,14.66-17.92c1.39-2.79,2.64-10.35,3.75-22.69h-12.23
				c-0.61,10.85-1.02,16.53-1.23,17.03C458.33,899.38,454.02,904.1,445.63,913.03z"/>
		</g>
		<g>
			<g>
				<path class="st22" d="M454.08,889.55c0.65-5.59,0,0,2.28-12.84l-3.27,2.47c-1.32,11.51,0,0-1.32,11.51
					c0.12,0.62-0.49,3.26-1.04,4.93c-0.22,0.67,0.28,0.93,0.53,0.9c2.08-0.2,2.23-1.95,3.02-3.45c0.87-1.65,2.1,0.2,2.8-1.08
					C456.2,891.5,454.4,890.72,454.08,889.55z"/>
				<path class="st22" d="M488.86,884.38c-0.03,0.03-0.07,0.06-0.1,0.09C488.81,884.45,488.84,884.41,488.86,884.38z"/>
				<path class="st22" d="M487.24,883.16c-0.85-0.38-1.81-0.71-2.88-1l-6.26-4.6l-1.38,3.42l6.2,2.57c0.71,0.84,1.29,1.47,1.75,1.91
					C485.96,884.37,487.08,883.38,487.24,883.16z"/>
			</g>
			<path id="Coat-Back_59_" class="st23" d="M465.72,860.52l1.7-0.29c6.3,5.44,8.88,15.89,16.6,21.43l-1.86,2.3
				C468.77,882.3,465.46,869.55,465.72,860.52z"/>
			<path id="Shirt_59_" class="st24" d="M458.32,881.84c6.8,0,11.81,0,15.02,0c0.69,0,0.56-0.99,0.46-1.49
				c-1.14-5.77-5.61-11.99-5.61-20.2l-4.33-0.68C460.27,865.23,459.03,872.33,458.32,881.84z"/>
			<path id="Coat-Front_31_" class="st25" d="M458.45,865.13c-0.63-0.18-1.13-0.6-1.49-1.27c-1.58-2.86-1.01-4.43,0.68-4.95
				c1.69-0.52,3.2,0.55,5.9,0.55c0.15,0,0.28,0.01,0.4,0.03l3.74,0.57c3.43,16.64,9.05,15.09,6.68,25.9h-17.66
				c-0.7,1.63-1.37,3.01-2.01,4.12h-3.22C451.15,880.29,453.48,871.97,458.45,865.13z"/>
			<path id="Shade_34_" class="st26" d="M459.26,879.19c0.37,3.11,0.98,5.37,1.81,6.77h-4.39
				C457.5,884.06,458.36,881.8,459.26,879.19z"/>
			<path class="st22" d="M487.24,883.16c0,0-1.28,1.2-2.57,2.31c0.67,0.65,1.07,0.87,1.19,0.67c0.31-0.51-0.4-1.1-0.24-1.48
				C485.62,884.65,485.62,884.65,487.24,883.16z"/>
		</g>
	</g>
</g>
</svg>
