<?xml version="1.0" encoding="UTF-8"?>
<svg width="18px" height="14px" viewBox="0 0 18 14" version="1.1" xmlns="http://www.w3.org/2000/svg" xmlns:xlink="http://www.w3.org/1999/xlink">
    <!-- Generator: Sketch 52.5 (67469) - http://www.bohemiancoding.com/sketch -->
    <title>Limburgvlag</title>
    <desc>Created with Sketch.</desc>
    <defs>
        <filter x="-15.6%" y="-20.8%" width="137.5%" height="141.7%" filterUnits="objectBoundingBox" id="filter-1">
            <feOffset dx="0" dy="0" in="SourceAlpha" result="shadowOffsetOuter1"></feOffset>
            <feGaussianBlur stdDeviation="0.5" in="shadowOffsetOuter1" result="shadowBlurOuter1"></feGaussianBlur>
            <feColorMatrix values="0 0 0 0 0   0 0 0 0 0   0 0 0 0 0  0 0 0 0.5 0" type="matrix" in="shadowBlurOuter1" result="shadowMatrixOuter1"></feColorMatrix>
            <feMerge>
                <feMergeNode in="shadowMatrixOuter1"></feMergeNode>
                <feMergeNode in="SourceGraphic"></feMergeNode>
            </feMerge>
        </filter>
        <polygon id="path-2" points="0.0001 0.0007 16 0.0007 16 7.2537 0.0001 7.2537"></polygon>
        <polygon id="path-4" points="0 0.2537 16 0.2537 16 5 0 5"></polygon>
    </defs>
    <g id="Symbols" stroke="none" stroke-width="1" fill="none" fill-rule="evenodd">
        <g id="Button-Limburgvlag" transform="translate(-34.000000, -15.000000)">
            <g id="Limburgvlag" filter="url(#filter-1)" transform="translate(35.000000, 16.000000)">
                <polygon id="Fill-1" fill="#FFFFFF" points="5.3523 0.8805 5.4113 1.0315 5.5243 0.9535 5.4653 0.8035"></polygon>
                <g id="Group-80">
                    <g id="Group-4">
                        <mask id="mask-3" fill="white">
                            <use xlink:href="#path-2"></use>
                        </mask>
                        <g id="Clip-3"></g>
                        <path d="M7.1161,4.1057 C7.1161,4.3537 7.0381,4.4577 6.9531,4.5657 C6.9061,4.6277 6.8591,4.6947 6.8311,4.7847 C6.8261,4.7377 6.8231,4.6897 6.8231,4.6427 C6.8231,4.5597 6.8281,4.4777 6.8331,4.3987 C6.8391,4.3347 6.8421,4.2727 6.8421,4.2167 C6.8421,4.1737 6.8391,4.1357 6.8321,4.1017 L6.7881,4.0017 C6.7811,3.9947 6.7751,3.9867 6.7671,3.9807 L6.7251,3.9507 L6.7061,4.1047 C6.6941,4.1887 6.6841,4.2727 6.6791,4.3517 C6.6731,4.3667 6.6691,4.3807 6.6641,4.3947 C6.6331,4.3487 6.6031,4.3027 6.5781,4.2587 L6.5281,4.1697 C6.4131,3.9477 6.3751,3.7737 6.3751,3.6897 L6.3751,3.5367 L6.3111,3.6637 C6.2651,3.7557 6.2431,3.8687 6.2431,3.9997 C6.2431,4.1907 6.2911,4.4237 6.3881,4.6907 C6.3671,4.7807 6.3471,4.8657 6.3301,4.9477 C6.2651,4.7977 6.1961,4.6137 6.1351,4.3667 C6.1201,4.3077 6.1111,4.2147 6.1111,4.1097 C6.1111,3.8637 6.1631,3.5487 6.3241,3.4267 C6.4441,3.3367 6.6151,3.2837 6.7661,3.3347 L6.8321,3.3677 C6.8421,3.3727 6.8531,3.3767 6.8631,3.3827 C6.8891,3.4017 6.9091,3.4277 6.9301,3.4537 L6.9851,3.5297 C7.0601,3.6587 7.1061,3.8397 7.1161,4.0817 L7.1161,4.1057 Z M6.2701,5.3037 C6.1471,5.1837 5.9471,5.1457 5.7411,5.1837 C5.8771,5.2487 5.9711,5.6557 6.0071,5.9607 C6.0371,6.2097 6.0981,6.5477 6.1811,6.7097 C6.1781,6.6937 6.2051,6.5477 6.2051,6.5227 C6.2051,6.4417 6.2251,6.3417 6.2571,6.2937 C6.3611,6.4957 6.4161,6.6687 6.4161,6.7937 C6.4161,6.8547 6.4041,6.9057 6.3781,6.9427 C6.3031,7.0487 6.1391,7.0247 6.0341,6.9357 C5.9131,6.8327 5.8091,6.6057 5.7001,6.3667 C5.6281,6.2057 5.5531,6.0427 5.4651,5.8927 C5.4781,5.8987 5.5831,5.8977 5.5961,5.9027 C5.4481,5.7127 5.2671,5.4707 5.2651,5.3127 C5.2651,5.2447 5.2881,5.1767 5.3341,5.1097 C5.4261,5.1037 5.5291,5.0627 5.6421,4.9837 L5.7131,4.9347 L5.6371,4.8997 C5.4881,4.8307 5.4361,4.7777 5.4201,4.7457 L6.1731,4.7457 C6.2181,4.8737 6.2621,4.9797 6.3041,5.0697 C6.2881,5.1567 6.2781,5.2327 6.2701,5.3037 Z M5.3951,5.7847 C5.3871,5.7717 5.3121,5.7617 5.3111,5.7707 C5.2261,5.7597 5.1411,5.7617 5.0591,5.7667 C4.8401,5.7767 4.6481,5.7877 4.4951,5.5337 L4.4641,5.4807 L4.4391,5.5407 C4.3671,5.7097 4.2301,5.7567 4.0721,5.8117 C4.0271,5.8287 3.9811,5.8437 3.9361,5.8647 C3.9251,5.8607 3.9121,5.8647 3.9031,5.8767 C3.9011,5.8777 3.9011,5.8787 3.9011,5.8797 C3.7561,5.9517 3.6171,6.0657 3.5311,6.3217 C3.5091,6.2677 3.4961,6.1997 3.4961,6.1217 C3.4961,6.0197 3.5161,5.9027 3.5681,5.7877 L3.5731,5.7757 L3.5731,5.7597 C3.5701,5.7227 3.5681,5.6707 3.5681,5.6077 C3.5681,5.4847 3.5771,5.3187 3.6151,5.1277 L3.6281,5.0647 L3.5791,5.0697 C3.3151,5.1007 3.1931,5.3477 3.1021,5.7147 C3.0241,5.5867 2.9711,5.3927 2.9701,5.1887 L2.9701,5.1737 C2.9701,4.9767 3.0151,4.8057 3.0971,4.7027 L3.1351,4.6557 L3.0871,4.6267 C2.9331,4.5377 2.7031,4.5047 2.4551,4.8217 C2.4351,4.7057 2.4231,4.5957 2.4231,4.4997 C2.4231,4.3497 2.4471,4.2227 2.4941,4.1207 C2.5741,3.9447 2.7231,3.8307 2.9611,3.7627 L2.9971,3.7527 L2.9881,3.7067 C2.9781,3.6577 2.9731,3.6097 2.9731,3.5637 C2.9731,3.3707 3.0541,3.2157 3.1501,3.1707 C3.2201,3.1367 3.2791,3.1707 3.3161,3.2597 C3.2871,3.3377 3.2691,3.4087 3.2691,3.4697 C3.2691,3.5297 3.2831,3.5817 3.3111,3.6267 C3.5211,3.9627 4.4481,3.6487 4.6851,3.5457 L4.6751,3.4557 L4.1521,3.4557 C4.1241,3.4407 4.1051,3.4187 4.0991,3.3857 C4.0951,3.3737 4.0951,3.3607 4.0951,3.3467 C4.0951,3.2517 4.1511,3.1257 4.1881,3.0567 C4.2061,3.0697 4.2331,3.0877 4.2331,3.0877 L4.9351,3.0877 L4.9351,2.4697 L4.7821,2.3217 L4.7621,2.3407 C4.5981,2.5017 4.3911,2.5367 4.2281,2.5477 L4.2141,2.5497 C4.2141,2.5497 4.1761,2.6127 4.1471,2.6567 C4.1391,2.6357 4.1311,2.6157 4.1201,2.5917 C4.0811,2.5067 4.0331,2.4027 4.0271,2.2607 L4.0261,2.2367 L4.0101,2.2227 C3.9451,2.1737 3.9041,2.1147 3.8831,1.9867 C4.1481,1.8407 4.4191,1.6377 4.6161,1.4347 C4.6371,1.4437 5.1591,1.6507 5.4891,1.7827 L5.5821,1.6207 L5.8471,1.7367 L5.7291,1.8777 C5.7301,1.8787 5.7301,1.8787 5.7311,1.8787 L5.7201,1.8887 L5.7001,1.9147 L5.6961,1.9127 L5.5521,2.0527 C5.5361,2.0677 5.5331,2.0967 5.5441,2.1177 C5.5541,2.1377 5.5771,2.1417 5.5931,2.1267 C5.5931,2.1267 5.9221,1.8097 5.9861,1.7477 C5.9961,1.7917 6.0021,1.8357 6.0021,1.8807 C6.0021,2.0977 5.8931,2.3167 5.6941,2.4837 C5.6831,2.4927 5.6781,2.5067 5.6781,2.5227 C5.6781,2.5307 5.6791,2.5407 5.6831,2.5467 C5.6931,2.5687 5.7151,2.5757 5.7311,2.5607 C5.7801,2.5207 5.8231,2.4767 5.8621,2.4297 C5.8301,2.6407 5.8091,2.9067 5.9001,2.9797 C5.9301,3.0047 5.9681,3.0027 6.0111,2.9797 C5.9631,3.1027 5.8831,3.2117 5.7911,3.2297 C5.7881,3.2277 5.7841,3.2267 5.7801,3.2257 C5.7741,3.2247 5.7671,3.2277 5.7621,3.2317 C5.6791,3.2287 5.5971,3.1457 5.5261,2.9877 C5.5161,2.9667 5.4951,2.9597 5.4781,2.9727 C5.4621,2.9867 5.4561,3.0147 5.4671,3.0367 C5.5621,3.2447 5.6611,3.3117 5.7411,3.3227 C5.7311,3.5687 5.7561,3.7027 5.8201,3.7507 C5.8551,3.7757 5.8951,3.7747 5.9441,3.7467 C5.8981,3.9067 5.8261,4.0157 5.7431,4.0307 C5.6421,4.0497 5.5351,3.9297 5.4401,3.6967 C5.4311,3.6737 5.4101,3.6667 5.3931,3.6777 C5.3771,3.6907 5.3701,3.7177 5.3801,3.7407 C5.4701,3.9657 5.5621,4.0627 5.6371,4.1027 C5.6391,4.1177 5.6401,4.1317 5.6401,4.1457 C5.6401,4.2927 5.5491,4.3977 5.4681,4.4937 C5.4011,4.5697 5.3441,4.6367 5.3441,4.7177 C5.3441,4.7267 5.3441,4.7347 5.3451,4.7427 C5.3551,4.8167 5.4181,4.8797 5.5391,4.9467 C5.4761,4.9827 5.4061,5.0117 5.3381,5.0167 C5.3281,5.0107 5.3171,5.0107 5.3071,5.0177 C5.2681,5.0167 5.2301,5.0087 5.1961,4.9867 C5.1061,4.9307 5.0441,4.8007 5.0121,4.6017 L4.9991,4.5307 L4.9561,4.5767 C4.7821,4.7567 4.6231,4.7387 4.4841,4.7217 C4.4091,4.7127 4.3441,4.7087 4.2851,4.7317 C4.2851,4.6057 4.3051,4.5217 4.3231,4.4447 C4.3371,4.3837 4.3501,4.3297 4.3501,4.2667 C4.3501,4.1827 4.3261,4.0867 4.2471,3.9507 L4.2121,3.8867 L4.1881,3.9597 C4.0351,4.4277 3.8431,4.4487 3.7001,4.4617 C3.6721,4.4647 3.6461,4.4687 3.6221,4.4747 C3.6381,4.2647 3.6841,4.1257 3.7781,4.0107 C3.7861,4.0027 3.7891,3.9907 3.7891,3.9777 C3.7891,3.9657 3.7871,3.9557 3.7801,3.9467 C3.7671,3.9277 3.7451,3.9257 3.7311,3.9437 C3.6121,4.0867 3.5591,4.2587 3.5471,4.5377 L3.5441,4.6207 L3.5981,4.5807 C3.6221,4.5627 3.6611,4.5587 3.7061,4.5537 C3.8481,4.5407 4.0581,4.5127 4.2241,4.0667 C4.2641,4.1507 4.2801,4.2107 4.2801,4.2677 C4.2801,4.3167 4.2691,4.3627 4.2581,4.4177 C4.2381,4.4977 4.2161,4.5927 4.2161,4.7327 C4.2161,4.7537 4.2171,4.7777 4.2181,4.8017 L4.2211,4.8797 L4.2711,4.8367 C4.3201,4.7957 4.3881,4.8037 4.4771,4.8137 C4.6121,4.8297 4.7791,4.8437 4.9571,4.6837 C4.9981,4.8767 5.0671,5.0087 5.1661,5.0697 C5.1911,5.0857 5.2201,5.0967 5.2501,5.1037 C5.2151,5.1687 5.1971,5.2377 5.1971,5.3087 L5.1971,5.3137 C5.1981,5.4727 5.2851,5.6217 5.4071,5.7867 C5.4041,5.7857 5.3991,5.7857 5.3951,5.7847 Z M3.4841,5.8047 C3.2631,5.8047 3.2421,5.9527 3.2191,6.1237 C3.1971,6.2767 3.1711,6.4617 3.0081,6.6557 C3.0081,6.6497 3.0091,6.6437 3.0091,6.6367 C3.0091,6.6137 3.0081,6.5847 3.0041,6.5537 C3.0411,6.4417 2.9911,6.3017 2.9471,6.1747 C2.9171,6.0937 2.8821,5.9937 2.9041,5.9787 C2.9221,5.9667 2.9291,5.9397 2.9211,5.9177 C2.9121,5.8927 2.8911,5.8847 2.8741,5.8967 C2.8401,5.9187 2.8281,5.9537 2.8281,5.9957 C2.8281,6.0587 2.8561,6.1367 2.8841,6.2147 C2.9141,6.3007 2.9471,6.3947 2.9471,6.4667 C2.9471,6.4747 2.9471,6.4817 2.9451,6.4907 C2.9341,6.5017 2.9291,6.5177 2.9311,6.5367 C2.9071,6.5767 2.8531,6.5997 2.7731,6.6087 C2.8061,6.5647 2.8371,6.5067 2.8371,6.4487 C2.8371,6.4437 2.8361,6.4377 2.8361,6.4307 C2.8291,6.3707 2.7931,6.3247 2.7261,6.2957 C2.6751,6.2757 2.6231,6.2667 2.5721,6.2577 C2.4391,6.2347 2.3681,6.2147 2.3491,6.0597 C2.3471,6.0347 2.3301,6.0177 2.3101,6.0217 C2.2921,6.0247 2.2791,6.0477 2.2821,6.0747 C2.3031,6.2457 2.3791,6.3017 2.4691,6.3287 C2.4591,6.3667 2.4411,6.4227 2.4121,6.4927 C2.4051,6.5077 2.3971,6.5267 2.3881,6.5427 C2.3731,6.5347 2.3561,6.5287 2.3401,6.5237 C2.2771,6.5047 2.2081,6.5117 2.1491,6.5487 C2.1341,6.5577 2.1201,6.5707 2.1071,6.5837 C2.0821,6.6107 2.0631,6.6427 2.0511,6.6817 C2.0491,6.6857 2.0461,6.6917 2.0451,6.6967 C1.9811,6.6637 1.9521,6.6067 1.9321,6.4797 C1.9501,6.4017 1.9501,6.3317 1.9501,6.2977 C1.9501,6.2717 1.9341,6.2507 1.9161,6.2507 C1.8961,6.2507 1.8821,6.2717 1.8821,6.2977 C1.8821,6.3347 1.8781,6.3777 1.8711,6.4227 C1.8621,6.4337 1.8581,6.4487 1.8591,6.4627 C1.8601,6.4647 1.8601,6.4657 1.8601,6.4667 C1.8471,6.5127 1.8301,6.5567 1.8021,6.5977 C1.8011,6.5967 1.8001,6.5947 1.8001,6.5937 C1.7841,6.5637 1.7651,6.5397 1.7471,6.5177 C1.6881,6.4537 1.6111,6.4217 1.5141,6.4247 C1.4901,6.4257 1.4651,6.4277 1.4371,6.4337 L1.4331,6.4337 C1.4361,6.3927 1.4391,6.3387 1.4401,6.3097 C1.4781,6.2597 1.5091,6.2107 1.5361,6.1677 L1.5531,6.1387 C1.5641,6.1197 1.5631,6.0907 1.5491,6.0757 C1.5341,6.0587 1.5121,6.0607 1.5001,6.0807 L1.4831,6.1087 C1.4571,6.1507 1.4261,6.1997 1.3881,6.2457 C1.3861,6.2497 1.3831,6.2527 1.3801,6.2577 C1.3621,6.2797 1.3431,6.3007 1.3211,6.3217 C1.3171,6.2957 1.3131,6.2707 1.3061,6.2477 C1.2991,6.2147 1.2881,6.1857 1.2761,6.1547 C1.2401,6.0657 1.1861,5.9867 1.1191,5.9267 C1.0971,5.9087 1.0761,5.8907 1.0531,5.8757 L1.0511,5.8757 C1.0801,5.7797 1.1271,5.7357 1.2161,5.7227 L1.2771,5.7157 L1.2411,5.6507 C1.2281,5.6277 1.2211,5.5887 1.2211,5.5427 C1.2211,5.5117 1.2261,5.4757 1.2321,5.4417 C1.2371,5.4407 1.2411,5.4397 1.2451,5.4377 C1.2771,5.4277 1.3101,5.4137 1.3431,5.3927 C1.3821,5.3667 1.4171,5.3297 1.4391,5.2757 C1.4531,5.2417 1.4611,5.2027 1.4611,5.1607 C1.4611,5.1487 1.4601,5.1347 1.4581,5.1217 C1.4561,5.1037 1.4531,5.0867 1.4491,5.0687 C1.4611,5.0607 1.4781,5.0527 1.4971,5.0437 C1.5151,5.0377 1.5371,5.0337 1.5591,5.0337 C1.6801,5.0337 1.7141,5.1857 1.7501,5.4207 C1.7811,5.6207 1.8131,5.8247 1.9601,5.8247 C2.0821,5.8247 2.2111,5.6527 2.3591,5.4537 C2.5271,5.2287 2.7171,4.9737 2.9211,4.9487 C2.9071,5.0177 2.9001,5.0927 2.9001,5.1727 L2.9001,5.1897 C2.9031,5.4537 2.9771,5.7037 3.0941,5.8417 L3.1341,5.8907 L3.1491,5.8207 C3.2441,5.4017 3.3531,5.2187 3.5371,5.1717 C3.5081,5.3427 3.4991,5.4947 3.4991,5.6087 C3.4991,5.6677 3.5001,5.7157 3.5031,5.7547 C3.4961,5.7717 3.4911,5.7887 3.4851,5.8047 L3.4841,5.8047 Z M2.4051,6.9187 C2.3301,6.9457 2.2671,6.9417 2.2211,6.8987 C2.1771,6.8607 2.1431,6.7877 2.1241,6.6917 C2.1391,6.6627 2.1601,6.6427 2.1791,6.6317 C2.2191,6.6067 2.2671,6.5977 2.3111,6.6067 C2.3071,6.6267 2.3041,6.6487 2.3041,6.6707 C2.3041,6.7417 2.3321,6.8267 2.4051,6.9187 Z M1.6201,6.7987 C1.6201,6.8407 1.6291,6.8937 1.6411,6.9497 C1.5661,6.9257 1.5131,6.8797 1.4871,6.8147 C1.4731,6.7777 1.4671,6.7337 1.4671,6.6847 C1.4671,6.6337 1.4741,6.5767 1.4891,6.5137 C1.5821,6.5037 1.6521,6.5267 1.7031,6.5837 C1.6581,6.6267 1.6201,6.6897 1.6201,6.7987 Z M1.2281,6.2257 C1.1431,6.2387 1.0441,6.2957 1.0311,6.5457 C0.9671,6.4867 0.9301,6.4197 0.9251,6.3457 C0.9241,6.3387 0.9241,6.3307 0.9241,6.3227 C0.9241,6.2227 0.9731,6.1037 1.0651,5.9867 C1.1391,6.0447 1.1951,6.1267 1.2291,6.2237 C1.2291,6.2237 1.2281,6.2247 1.2281,6.2257 Z M0.9921,5.2957 C1.0011,5.1957 1.0281,5.1217 1.0741,5.0797 C1.1391,5.0197 1.2471,5.0177 1.3781,5.0727 C1.3871,5.1047 1.3911,5.1337 1.3911,5.1607 C1.3911,5.1877 1.3871,5.2107 1.3791,5.2317 C1.3611,5.2737 1.3251,5.3077 1.2691,5.3327 C1.2181,5.2607 1.1361,5.2097 0.9921,5.2957 Z M2.3771,4.2527 C2.3641,4.2587 2.3171,4.2857 2.2501,4.3297 C2.2551,4.2957 2.2581,4.2617 2.2581,4.2257 C2.2581,4.1467 2.2491,4.0607 2.2411,3.9717 C2.2321,3.8757 2.2221,3.7757 2.2221,3.6797 C2.2221,3.6307 2.2251,3.5847 2.2311,3.5397 L2.2401,3.4797 L2.1941,3.4847 C2.0821,3.4987 1.9741,3.4877 1.8821,3.2657 C1.9991,3.2967 2.0761,3.2867 2.1161,3.2277 C2.1781,3.1357 2.1301,2.9727 2.0801,2.7997 C2.0521,2.7077 2.0231,2.6087 2.0151,2.5307 L2.0121,2.5107 L1.9991,2.4987 C1.9701,2.4727 1.9381,2.4807 1.8911,2.4957 C1.8861,2.4977 1.8811,2.4987 1.8751,2.5017 C1.8751,2.5017 1.8291,2.5137 1.7951,2.5247 C1.7941,2.5087 1.7921,2.4957 1.7891,2.4807 C1.7801,2.4257 1.7621,2.3767 1.7311,2.3357 C1.7031,2.2977 1.6671,2.2727 1.6301,2.2597 C1.6121,2.2527 1.5951,2.2497 1.5791,2.2487 C1.5781,2.2377 1.5751,2.2287 1.5751,2.2167 C1.5751,2.2127 1.5761,2.2097 1.5761,2.2047 C1.5791,2.1227 1.6071,2.0177 1.6841,1.9407 C1.7341,1.9357 1.7821,1.9247 1.8291,1.9027 C1.8471,1.8957 1.8571,1.8697 1.8511,1.8447 C1.8451,1.8217 1.8261,1.8077 1.8071,1.8157 C1.7691,1.8337 1.7311,1.8417 1.6891,1.8457 C1.6801,1.8417 1.6721,1.8417 1.6621,1.8487 C1.6231,1.8497 1.5811,1.8497 1.5351,1.8447 C1.5351,1.8427 1.5361,1.8417 1.5361,1.8397 C1.5391,1.8227 1.5441,1.8057 1.5441,1.7887 C1.5441,1.7737 1.5431,1.7597 1.5421,1.7467 C1.5321,1.6417 1.4861,1.5397 1.4201,1.4687 L1.4081,1.4577 C1.4291,1.4067 1.4671,1.3517 1.5181,1.3227 C1.5321,1.3147 1.5461,1.3087 1.5591,1.3047 C1.6031,1.2927 1.6481,1.2987 1.6971,1.3267 C1.6981,1.3277 1.7001,1.3277 1.7011,1.3277 C1.7321,1.3977 1.7831,1.4517 1.8491,1.4857 C1.8681,1.4947 1.8871,1.4817 1.8941,1.4587 C1.8951,1.4527 1.8961,1.4467 1.8961,1.4427 C1.8961,1.4227 1.8871,1.4067 1.8741,1.3987 C1.8091,1.3667 1.7641,1.3107 1.7441,1.2357 C1.7381,1.2077 1.7341,1.1767 1.7341,1.1457 C1.7341,1.1007 1.7421,1.0547 1.7581,1.0067 C1.7621,0.9917 1.7681,0.9747 1.7751,0.9587 C1.7901,0.9597 1.8041,0.9597 1.8181,0.9597 C1.9131,0.9587 1.9901,0.9067 2.0431,0.8117 C2.0541,0.7927 2.0631,0.7747 2.0701,0.7537 C2.0861,0.7637 2.1011,0.7777 2.1181,0.7927 C2.1721,0.8437 2.2221,0.9227 2.2511,1.0237 C2.2351,1.0647 2.2211,1.1117 2.2081,1.1677 C2.2021,1.1917 2.2111,1.2177 2.2291,1.2267 C2.2481,1.2347 2.2671,1.2207 2.2731,1.1967 C2.3321,0.9607 2.3871,0.9067 2.4761,0.8987 C2.4781,0.9087 2.4831,0.9177 2.4861,0.9277 C2.4961,0.9557 2.5081,0.9817 2.5221,1.0037 C2.5411,1.0327 2.5611,1.0577 2.5851,1.0747 C2.6251,1.1027 2.6691,1.1127 2.7191,1.1057 C2.7361,1.1037 2.7551,1.0997 2.7721,1.0927 C2.7771,1.1087 2.7811,1.1237 2.7841,1.1387 C2.7861,1.1507 2.7871,1.1637 2.7871,1.1737 C2.7871,1.2797 2.7231,1.3817 2.6341,1.5097 C2.5571,1.6187 2.4861,1.7217 2.4761,1.8397 C2.4751,1.8547 2.4741,1.8717 2.4741,1.8877 C2.4741,2.1827 2.6661,2.7467 2.9551,3.2917 C2.9231,3.3677 2.9031,3.4597 2.9031,3.5607 C2.9031,3.5997 2.9101,3.6417 2.9161,3.6827 C2.7561,3.7317 2.5471,3.8267 2.4341,4.0727 C2.4091,4.1267 2.3901,4.1877 2.3771,4.2527 Z M1.4611,2.5477 C1.4111,2.5147 1.3761,2.4457 1.3561,2.3447 C1.4511,2.3827 1.5161,2.3717 1.5631,2.3377 C1.6071,2.3367 1.6501,2.3587 1.6821,2.4007 C1.7061,2.4327 1.7221,2.4737 1.7281,2.5197 C1.6181,2.5807 1.5251,2.5917 1.4611,2.5477 Z M1.2491,1.8647 C1.2481,1.8577 1.2481,1.8497 1.2481,1.8407 C1.2481,1.7497 1.2921,1.6417 1.3711,1.5317 C1.4331,1.5917 1.4691,1.6887 1.4731,1.7737 C1.4151,1.8117 1.3641,1.8927 1.3541,2.0657 C1.2921,2.0057 1.2551,1.9397 1.2491,1.8647 Z M1.6861,0.5847 C1.7691,0.5557 1.8791,0.6127 1.9981,0.7437 C1.9411,0.8597 1.8521,0.8757 1.7871,0.8677 C1.7511,0.7957 1.6821,0.7407 1.5531,0.7537 C1.5881,0.6607 1.6321,0.6027 1.6861,0.5847 Z M2.6041,0.6607 C2.6771,0.6957 2.7241,0.7487 2.7441,0.8187 C2.7521,0.8447 2.7561,0.8757 2.7561,0.9077 C2.7561,0.9387 2.7521,0.9717 2.7451,1.0077 C2.6961,1.0227 2.6531,1.0187 2.6181,0.9937 C2.5981,0.9797 2.5841,0.9617 2.5721,0.9427 C2.5971,0.9007 2.6131,0.8437 2.6131,0.7657 C2.6131,0.7337 2.6101,0.6987 2.6041,0.6607 Z M3.4201,2.1427 C3.5341,2.1427 3.7511,2.1917 3.7511,2.5077 C3.4561,2.2797 3.3311,2.7957 3.7651,2.7957 C3.9821,2.7957 4.3571,2.7197 4.7031,2.9497 C4.1551,2.7057 3.1461,3.3687 3.1461,2.5027 C3.1461,2.2157 3.2931,2.1427 3.4201,2.1427 Z M4.7511,1.3027 C4.7521,1.3367 4.7281,1.3647 4.7001,1.3647 C4.6721,1.3657 4.6481,1.3387 4.6471,1.3057 C4.6471,1.2727 4.6701,1.2457 4.6981,1.2447 C4.7261,1.2437 4.7501,1.2697 4.7511,1.3027 Z M4.8971,1.3667 C4.8971,1.3997 4.8751,1.4267 4.8461,1.4267 C4.8181,1.4277 4.7951,1.4017 4.7941,1.3687 C4.7941,1.3347 4.8161,1.3077 4.8451,1.3067 C4.8731,1.3057 4.8961,1.3327 4.8971,1.3667 Z M5.0441,1.4287 C5.0441,1.4617 5.0211,1.4897 4.9931,1.4897 C4.9651,1.4907 4.9411,1.4637 4.9401,1.4307 C4.9401,1.3977 4.9631,1.3707 4.9911,1.3697 C5.0191,1.3687 5.0431,1.3947 5.0441,1.4287 Z M5.1901,1.4907 C5.1901,1.5247 5.1681,1.5517 5.1391,1.5517 C5.1111,1.5527 5.0881,1.5267 5.0871,1.4937 C5.0861,1.4597 5.1091,1.4327 5.1371,1.4317 C5.1661,1.4307 5.1891,1.4587 5.1901,1.4907 Z M5.3361,1.5537 C5.3371,1.5867 5.3141,1.6147 5.2861,1.6147 C5.2571,1.6157 5.2331,1.5887 5.2331,1.5557 C5.2321,1.5227 5.2561,1.4957 5.2841,1.4947 C5.3121,1.4937 5.3361,1.5207 5.3361,1.5537 Z M5.4821,1.6167 C5.4831,1.6497 5.4611,1.6767 5.4321,1.6767 C5.4031,1.6777 5.3801,1.6517 5.3801,1.6187 C5.3791,1.5847 5.4011,1.5577 5.4301,1.5567 L5.4821,1.6167 Z M4.5171,0.3007 C4.6681,0.5177 4.8091,0.6907 4.9711,0.7777 C4.7991,0.9637 4.9171,1.1517 4.9821,1.1807 C5.0471,1.2097 5.2421,1.2097 5.2091,0.8197 L5.5121,0.6047 L5.6671,1.0137 C5.4711,1.3067 5.6311,1.4567 5.6971,1.4827 C5.7621,1.5077 5.9401,1.4467 5.8791,1.1607 C6.0491,1.2147 6.2391,1.1807 6.4571,1.1207 C6.3371,1.4477 6.2361,1.3877 6.1291,1.3407 C6.0451,1.4747 6.0491,1.6187 5.9711,1.6877 L4.6681,1.1377 C4.6371,1.0217 4.7011,0.9077 4.6901,0.7337 C4.5821,0.6907 4.4731,0.6617 4.5171,0.3007 Z M6.7171,1.5787 C6.8861,1.6167 7.0101,1.8007 7.0231,1.8377 L7.0401,1.8737 C7.0651,1.9217 7.1131,2.0117 7.1131,2.2577 C7.1131,2.4737 7.0761,2.8117 6.9561,3.3437 C6.9561,3.3467 6.9541,3.3497 6.9541,3.3517 C6.9351,3.3347 6.9171,3.3167 6.8971,3.3017 C6.8841,3.2927 6.8691,3.2897 6.8561,3.2817 C6.9361,2.9807 6.9991,2.7217 7.0121,2.5567 C7.0151,2.5167 7.0171,2.4777 7.0171,2.4407 C7.0171,2.2067 6.9581,2.0087 6.8491,1.8897 C6.7791,1.8117 6.6941,1.7777 6.6341,1.8007 C6.6041,1.8137 6.5841,1.8377 6.5731,1.8697 C6.5661,1.8897 6.5621,1.9147 6.5621,1.9417 C6.5621,2.0257 6.5961,2.1387 6.6371,2.2727 C6.6831,2.4287 6.7371,2.6107 6.7371,2.7637 C6.7371,2.8207 6.7291,2.8727 6.7111,2.9187 C6.6811,2.9927 6.6261,3.0437 6.5411,3.0797 C6.5421,3.0527 6.5471,3.0267 6.5471,3.0007 C6.5471,2.7587 6.4691,2.5567 6.3971,2.3767 C6.3411,2.2297 6.2931,2.1067 6.2931,1.9897 C6.2931,1.9027 6.3191,1.8217 6.3861,1.7347 C6.4871,1.6037 6.5981,1.5507 6.7171,1.5787 Z M14.8671,0.0007 L1.1331,0.0007 C0.5071,0.0007 0.0001,0.5917 0.0001,1.3227 L0.0001,4.7457 L2.3721,4.7457 C2.3801,4.8037 2.3881,4.8637 2.4011,4.9257 L2.4181,5.0077 L2.4601,4.9457 C2.5191,4.8597 2.5801,4.7927 2.6411,4.7457 L2.9861,4.7457 C2.9701,4.7797 2.9561,4.8157 2.9441,4.8537 C2.7031,4.8627 2.4941,5.1407 2.3091,5.3887 C2.1781,5.5657 2.0541,5.7327 1.9601,5.7327 C1.8751,5.7327 1.8491,5.6077 1.8171,5.4027 C1.7861,5.1967 1.7461,4.9407 1.5591,4.9407 C1.4981,4.9407 1.4401,4.9717 1.4111,4.9907 C1.2901,4.9367 1.1401,4.9077 1.0351,5.0027 C0.9581,5.0737 0.9191,5.1997 0.9191,5.3767 L0.9191,5.4557 L0.9701,5.4157 C1.0821,5.3297 1.1461,5.3317 1.1871,5.3607 L1.1741,5.3637 L1.1691,5.3917 C1.1591,5.4357 1.1521,5.4907 1.1521,5.5427 C1.1521,5.5807 1.1571,5.6137 1.1651,5.6447 C1.0651,5.6737 1.0051,5.7467 0.9741,5.8797 L0.9651,5.9207 L0.9941,5.9367 C0.9971,5.9377 0.9991,5.9407 1.0011,5.9417 C0.9171,6.0537 0.8441,6.2007 0.8551,6.3557 C0.8651,6.4797 0.9291,6.5847 1.0471,6.6697 L1.0991,6.7067 L1.0961,6.6267 C1.0911,6.3347 1.1891,6.3227 1.2481,6.3147 L1.2541,6.3147 C1.2601,6.3417 1.2621,6.3717 1.2641,6.4017 L1.2681,6.4777 L1.3171,6.4387 C1.3351,6.4227 1.3511,6.4077 1.3671,6.3927 L1.3581,6.5427 L1.4031,6.5297 C1.4071,6.5297 1.4101,6.5297 1.4131,6.5277 C1.3911,6.6397 1.3871,6.7567 1.4261,6.8567 C1.4701,6.9667 1.5581,7.0337 1.6891,7.0557 L1.7501,7.0657 L1.7251,6.9917 C1.6551,6.7727 1.7001,6.6937 1.7481,6.6507 C1.7541,6.6637 1.7611,6.6757 1.7651,6.6917 L1.7841,6.7447 L1.8181,6.7087 C1.8471,6.6767 1.8701,6.6417 1.8871,6.6077 C1.9161,6.7057 1.9621,6.7677 2.0571,6.8027 L2.0831,6.8117 C2.1051,6.8777 2.1371,6.9357 2.1831,6.9767 C2.2621,7.0447 2.3631,7.0467 2.4861,6.9797 L2.5411,6.9507 L2.4941,6.9017 C2.3821,6.7857 2.3651,6.6987 2.3771,6.6337 C2.3801,6.6357 2.3821,6.6377 2.3851,6.6387 L2.4121,6.6617 L2.4301,6.6267 C2.4951,6.5087 2.5251,6.3997 2.5371,6.3437 C2.5461,6.3457 2.5541,6.3467 2.5631,6.3487 C2.6101,6.3577 2.6601,6.3667 2.7061,6.3837 C2.7271,6.3937 2.7631,6.4137 2.7661,6.4437 C2.7711,6.4857 2.7201,6.5637 2.6541,6.6187 L2.5581,6.6987 L2.6721,6.7047 C2.7961,6.7097 2.8841,6.6907 2.9391,6.6457 C2.9381,6.6817 2.9331,6.7057 2.9281,6.7307 L2.8921,6.8897 L2.9731,6.8097 C3.2271,6.5657 3.2621,6.3207 3.2871,6.1407 C3.3091,5.9827 3.3191,5.9077 3.4571,5.8987 C3.4381,5.9747 3.4281,6.0497 3.4281,6.1237 C3.4281,6.2527 3.4571,6.3687 3.5141,6.4457 L3.5531,6.4977 L3.5711,6.4277 C3.6431,6.1507 3.7771,6.0367 3.9251,5.9667 C3.9901,6.0467 4.0581,6.1157 4.1271,6.1787 C4.1291,6.1817 4.1301,6.1857 4.1321,6.1887 C4.3511,6.4507 4.4141,6.7227 4.4481,6.9917 C3.8581,6.7227 3.4971,7.0187 3.2301,7.2367 C3.2231,7.2427 3.2161,7.2487 3.2091,7.2537 L3.3431,7.2537 C3.6031,7.0457 3.9321,6.8397 4.4601,7.0947 C4.4621,7.1217 4.4641,7.1487 4.4681,7.1747 C4.4701,7.2017 4.4721,7.2277 4.4751,7.2537 L4.5451,7.2537 C4.5421,7.2237 4.5391,7.1937 4.5361,7.1627 C4.5121,6.9117 4.4841,6.6347 4.3431,6.3637 C4.5601,6.5477 4.7321,6.7017 4.7811,7.0277 C4.7931,7.1077 4.7881,7.1797 4.7751,7.2537 L4.8451,7.2537 C4.8521,7.2107 4.8571,7.1687 4.8571,7.1227 C4.8571,7.0857 4.8541,7.0477 4.8481,7.0087 C4.7921,6.6297 4.5871,6.4597 4.3491,6.2607 C4.2341,6.1657 4.1151,6.0657 4.0011,5.9337 C4.0301,5.9217 4.0601,5.9117 4.0891,5.9017 C4.2411,5.8497 4.3831,5.7967 4.4721,5.6367 C4.6411,5.8767 4.8461,5.8697 5.0621,5.8577 C5.1591,5.8537 5.2581,5.8497 5.3581,5.8667 C5.4661,6.0307 5.5541,6.2247 5.6411,6.4137 C5.7541,6.6627 5.8611,6.8977 5.9971,7.0127 C6.1251,7.1217 6.3261,7.1497 6.4281,7.0047 C6.4921,6.9167 6.5581,6.6917 6.2921,6.1997 L6.2761,6.1687 L6.2511,6.1827 C6.1961,6.2137 6.1641,6.3067 6.1481,6.4027 C6.1141,6.2677 6.0951,6.1077 6.0751,5.9467 C6.0431,5.6677 6.0111,5.4047 5.9101,5.2677 C6.0881,5.2557 6.1861,5.3187 6.2731,5.4237 L6.3271,5.4877 L6.3311,5.3927 C6.3351,5.3317 6.3451,5.2577 6.3571,5.1807 L6.3791,5.0557 C6.3941,4.9777 6.4131,4.8937 6.4341,4.8057 L6.4641,4.6837 C6.4901,4.5797 6.5191,4.4707 6.5511,4.3597 C6.5751,4.4017 6.6031,4.4447 6.6351,4.4877 C6.5931,4.6127 6.5561,4.7277 6.5271,4.8447 L6.5011,4.9647 C6.4841,5.0447 6.4711,5.1317 6.4631,5.2247 L6.4511,5.3747 C6.4481,5.4407 6.4451,5.5107 6.4451,5.5877 L6.4451,5.6507 L6.4471,5.7577 L6.5061,5.6827 C6.5471,5.6267 6.5641,5.5737 6.5641,5.5187 C6.5641,5.4667 6.5471,5.4127 6.5221,5.3527 C6.5271,5.2517 6.5381,5.1607 6.5531,5.0767 C6.5751,5.1267 6.5981,5.1767 6.6261,5.2287 L6.6421,5.2617 L6.6701,5.2437 C6.8651,5.1077 6.9691,5.1327 7.0481,5.1947 C6.8641,5.3157 6.8311,5.5577 6.8031,5.7737 C6.7701,6.0197 6.7471,6.1997 6.5261,6.1787 L6.4631,6.1727 L6.4941,6.2477 C6.5931,6.4817 6.7391,6.9177 6.6201,7.1997 C6.6121,7.2187 6.6011,7.2367 6.5921,7.2537 L6.6761,7.2537 C6.6781,7.2517 6.6791,7.2477 6.6801,7.2447 C6.7191,7.1537 6.7351,7.0527 6.7351,6.9457 C6.7351,6.7197 6.6611,6.4747 6.5801,6.2707 C6.8071,6.2547 6.8411,6.0197 6.8701,5.7887 C6.9001,5.5657 6.9301,5.3347 7.1301,5.2467 L7.1911,5.2187 L7.1401,5.1667 C7.0391,5.0607 6.9091,4.9877 6.6671,5.1437 C6.6351,5.0787 6.6031,5.0137 6.5751,4.9527 C6.5911,4.8827 6.6081,4.8147 6.6291,4.7457 L6.7621,4.7457 C6.7751,4.8337 6.8081,4.9177 6.8721,4.9977 C6.8711,4.9857 6.8711,4.9727 6.8711,4.9607 C6.8711,4.8677 6.8911,4.8027 6.9241,4.7457 L16.0001,4.7457 L16.0001,1.3227 C16.0001,0.5917 15.4931,0.0007 14.8671,0.0007 Z" id="Fill-2" fill="#FFFFFF" mask="url(#mask-3)"></path>
                    </g>
                    <path d="M4.7284,1.6184 L4.5864,1.7054 L4.6964,1.7624 C4.7074,1.9064 4.8794,1.9224 4.8794,1.7624 L5.0634,1.7484 L4.7284,1.6184 Z" id="Fill-5" fill="#FFFFFF"></path>
                    <g id="Group-9" transform="translate(0.000000, 7.000000)">
                        <mask id="mask-5" fill="white">
                            <use xlink:href="#path-4"></use>
                        </mask>
                        <g id="Clip-8"></g>
                        <path d="M6.163,0.5657 C6.169,0.6327 6.185,0.8207 6.188,0.8547 C6.254,0.8997 6.309,0.9607 6.355,1.0137 C6.419,1.0867 6.468,1.1457 6.52,1.1387 C6.566,1.1337 6.647,1.0407 6.718,0.9577 C6.816,0.8427 6.908,0.7367 6.989,0.7367 C7.082,0.7367 7.153,0.7817 7.184,0.8577 C7.205,0.9117 7.214,1.0077 7.136,1.1547 L7.108,1.2077 L7.08,1.1547 C7.071,1.1367 7.062,1.1317 7.048,1.1367 C6.982,1.1557 6.876,1.3357 6.822,1.5257 C6.935,1.4327 6.987,1.4267 7.076,1.4267 L7.176,1.4267 L7.098,1.5087 C6.888,1.7287 6.966,2.0837 7.04,2.4257 C7.101,2.7117 7.16,2.9817 7.02,3.1237 L6.982,3.1627 L6.968,3.1017 C6.934,2.9767 6.895,2.8937 6.855,2.8337 C6.881,2.9517 6.879,2.9927 6.863,3.1657 C6.961,3.3207 7.038,3.5367 7.023,3.8957 L7.02,3.9717 L6.972,3.9337 C6.743,3.7507 6.691,3.7467 6.606,3.7387 L6.576,3.7347 C6.567,3.7667 6.556,3.7947 6.54,3.8217 L6.52,3.8557 L6.502,3.8387 C6.488,3.9897 6.449,4.1437 6.357,4.2267 C6.279,4.2957 6.178,4.2967 6.055,4.2307 L5.999,4.2007 L6.046,4.1517 C6.184,4.0087 6.178,3.9117 6.151,3.8437 C6.144,3.8617 6.139,3.8797 6.136,3.9007 L6.129,3.9617 L6.088,3.9357 C6.017,3.8927 5.979,3.8437 5.964,3.7837 L5.964,3.7797 C5.92,3.8167 5.843,3.8717 5.744,3.9107 L5.702,3.9247 L5.7,3.8677 C5.699,3.8487 5.695,3.8327 5.691,3.8157 C5.64,3.8547 5.573,3.9257 5.652,4.1697 L5.676,4.2437 L5.616,4.2337 C5.485,4.2137 5.396,4.1467 5.352,4.0347 C5.313,3.9337 5.318,3.8147 5.341,3.7007 C5.322,3.7097 5.304,3.7197 5.286,3.7327 L5.222,3.7797 L5.235,3.6837 C5.238,3.6587 5.243,3.6357 5.247,3.6147 C5.182,3.6267 5.146,3.6237 5.009,3.5627 L4.998,3.5577 C4.95,3.5757 4.901,3.6357 4.88,3.8257 L4.87,3.9047 L4.824,3.8547 C4.72,3.7447 4.671,3.6267 4.678,3.5007 C4.688,3.3267 4.804,3.1867 4.914,3.0937 L4.898,3.0867 L4.987,3.0447 C5.015,3.0297 5.041,3.0217 5.066,3.0157 L5.087,3.0077 L5.098,3.0037 C5.094,2.9767 5.088,2.9407 5.084,2.8987 C5.044,2.8877 4.984,2.9007 4.896,2.9677 L4.846,3.0077 L4.846,2.9287 C4.846,2.7527 4.884,2.6267 4.963,2.5567 C5.073,2.4557 5.229,2.4937 5.353,2.5487 L5.358,2.5507 C5.705,2.5847 5.736,3.0007 5.745,3.2557 L5.921,3.2557 C5.93,3.1077 5.986,2.8707 6.048,2.6157 C6.048,2.6157 6.059,2.5657 6.068,2.5257 C5.756,2.4087 5.585,2.1177 5.573,1.6817 C5.5,1.6947 5.433,1.6947 5.368,1.6827 C5.369,1.8297 5.422,1.9637 5.517,2.0547 L5.566,2.1067 L5.468,2.1577 C5.389,2.2027 5.337,2.2047 5.189,2.0567 C5.184,2.0667 5.178,2.0787 5.178,2.0787 C5.142,2.1487 5.092,2.2427 4.999,2.3447 L4.946,2.3997 L4.939,2.2277 C4.936,2.1937 4.935,2.1577 4.935,2.1177 C4.935,2.0817 4.938,2.0427 4.943,1.9997 C4.826,2.0287 4.678,1.9657 4.591,1.7867 L4.549,1.6987 L4.626,1.7157 C4.685,1.7287 4.726,1.7217 4.748,1.6927 C4.793,1.6297 4.765,1.4447 4.736,1.2657 C4.723,1.1787 4.71,1.0907 4.701,1.0037 C4.574,0.9397 4.465,0.9037 4.36,0.8977 C4.287,1.2077 4.164,1.5257 4.014,1.8037 C4.102,1.9407 4.138,2.1357 4.138,2.3557 C4.138,2.6287 4.086,2.9367 4.024,3.2047 C4.069,3.3527 4.062,3.5627 3.948,3.8837 L3.884,3.8507 C3.924,3.6867 3.793,3.5427 3.637,3.3937 C3.633,3.4427 3.624,3.5097 3.603,3.5907 L3.582,3.6787 L3.543,3.6027 C3.468,3.4597 3.324,3.4397 3.288,3.4357 C3.275,3.4457 3.218,3.4917 3.218,3.4917 C3.218,3.4917 3.173,3.4237 3.147,3.3877 C3.142,3.4077 3.132,3.4357 3.122,3.4657 L3.124,3.4717 L3.124,3.4777 C3.122,3.6607 3.095,3.9017 2.972,4.0107 C2.893,4.0807 2.791,4.0817 2.668,4.0147 L2.612,3.9847 L2.66,3.9357 C2.718,3.8767 2.751,3.8237 2.767,3.7787 C2.699,3.7627 2.618,3.6957 2.552,3.6277 C2.508,3.7117 2.416,3.8627 2.286,3.9577 C2.28,4.0087 2.287,4.0817 2.32,4.1847 L2.344,4.2577 L2.285,4.2497 C2.153,4.2267 2.064,4.1607 2.021,4.0497 C1.99,3.9707 1.986,3.8797 1.997,3.7907 C1.995,3.7887 1.993,3.7877 1.99,3.7837 C1.972,3.7577 1.966,3.7177 1.967,3.6657 C1.957,3.6657 1.948,3.6677 1.938,3.6677 L1.89,3.6677 L1.899,3.6247 C1.852,3.6507 1.807,3.7197 1.811,3.9207 L1.813,4.0017 L1.76,3.9627 C1.643,3.8787 1.58,3.7727 1.57,3.6487 C1.561,3.5427 1.594,3.4397 1.642,3.3487 L1.623,3.3527 L1.672,3.2617 C1.703,3.2007 1.735,3.1607 1.768,3.1317 C1.748,3.1047 1.724,3.0617 1.709,2.9987 L1.703,2.9697 C1.663,2.9617 1.604,2.9767 1.522,3.0407 L1.47,3.0807 L1.47,3.0007 C1.47,2.8247 1.509,2.6987 1.588,2.6287 C1.658,2.5637 1.749,2.5567 1.838,2.5747 L1.878,2.5657 C2.084,2.5247 2.125,2.6387 2.156,2.7707 L2.158,2.7727 L2.157,2.7747 C2.158,2.7827 2.16,2.7917 2.162,2.7997 C2.162,2.7997 2.166,2.8127 2.168,2.8257 C2.306,2.8257 2.444,2.8277 2.694,2.8647 C2.743,2.6787 2.855,2.4577 2.958,2.2587 C2.958,2.2587 3.026,2.1227 3.044,2.0887 C2.996,1.9777 2.959,1.7827 2.945,1.6197 C2.866,1.6187 2.765,1.6227 2.58,1.7457 L2.53,1.7787 L2.53,1.7037 C2.53,1.5547 2.577,1.2477 2.742,1.0037 C2.675,0.9157 2.648,0.7357 2.648,0.5707 C2.648,0.5037 2.652,0.4377 2.661,0.3827 L2.672,0.3127 L2.716,0.3567 C2.876,0.5157 3.017,0.4107 3.209,0.2537 L0,0.2537 L0,3.6777 C0,4.4087 0.507,5.0007 1.133,5.0007 L14.867,5.0007 C15.493,5.0007 16,4.4087 16,3.6777 L16,0.2537 L6.676,0.2537 C6.592,0.4427 6.418,0.5457 6.163,0.5657" id="Fill-7" fill="#F5C40A" mask="url(#mask-5)"></path>
                    </g>
                    <path d="M5.0009,9.6331 C4.9549,9.6741 4.9289,9.7481 4.9199,9.8501 C5.0429,9.7741 5.1209,9.8021 5.1729,9.8581 C5.2239,9.8701 5.2659,9.8611 5.2939,9.8291 C5.3249,9.7931 5.3359,9.7251 5.3259,9.6361 C5.1849,9.5711 5.0689,9.5691 5.0009,9.6331" id="Fill-10" fill="#E1411E"></path>
                    <path d="M6.3192,11.1497 C6.3842,11.0917 6.4252,10.9627 6.4362,10.7847 C6.3622,10.7357 6.2862,10.7247 6.2242,10.7587 C6.2152,10.7647 6.2082,10.7697 6.2002,10.7767 C6.2192,10.8187 6.2352,10.8667 6.2352,10.9217 C6.2352,10.9927 6.2082,11.0767 6.1342,11.1697 C6.2102,11.1967 6.2722,11.1917 6.3192,11.1497" id="Fill-12" fill="#E1411E"></path>
                    <path d="M5.5682,11.1272 C5.5542,11.0712 5.5462,11.0192 5.5462,10.9782 C5.5462,10.8512 5.5972,10.7842 5.6502,10.7432 C5.6412,10.7322 5.6322,10.7242 5.6222,10.7152 C5.5672,10.6762 5.4922,10.6642 5.4202,10.6752 C5.4022,10.7442 5.3922,10.8092 5.3922,10.8632 C5.3922,10.9132 5.3992,10.9562 5.4142,10.9922 C5.4402,11.0592 5.4932,11.1042 5.5682,11.1272" id="Fill-14" fill="#E1411E"></path>
                    <path d="M4.9989,10.1389 C4.9909,10.1419 4.9859,10.1439 4.9829,10.1449 C4.8379,10.2579 4.7539,10.3869 4.7469,10.5079 L4.7469,10.5239 C4.7469,10.5919 4.7729,10.6609 4.8239,10.7309 C4.8629,10.5259 4.9429,10.4709 5.0199,10.4619 C5.0599,10.4099 5.0609,10.3379 5.0579,10.2959 C5.0529,10.2229 5.0239,10.1639 4.9989,10.1389" id="Fill-16" fill="#E1411E"></path>
                    <path d="M2.2372,11.1428 C2.2252,11.0918 2.2162,11.0448 2.2162,11.0048 L2.2032,11.0138 L2.2082,10.8788 C2.2122,10.8208 2.2132,10.8168 2.1502,10.8108 L2.0652,10.8108 C2.0632,10.8338 2.0612,10.8568 2.0612,10.8778 C2.0612,10.9268 2.0682,10.9708 2.0822,11.0068 C2.1082,11.0738 2.1612,11.1188 2.2372,11.1428" id="Fill-18" fill="#E1411E"></path>
                    <path d="M2.7235,7.4729 C2.7205,7.5049 2.7165,7.5359 2.7165,7.5689 C2.7165,7.7449 2.7535,7.9159 2.8085,7.9559 L2.8485,7.9879 L2.8165,8.0309 C2.6705,8.2239 2.6165,8.4779 2.6035,8.6299 C2.7745,8.5309 2.8785,8.5279 2.9535,8.5279 L3.0075,8.5279 L3.0105,8.5709 C3.0215,8.7369 3.0625,8.9739 3.1125,9.0669 L3.1265,9.0899 L3.0145,9.3119 C2.9095,9.5169 2.7885,9.7479 2.7495,9.9269 L2.7415,9.9649 L2.7125,9.9599 C2.4325,9.9169 2.2915,9.9169 2.1435,9.9169 L2.1185,9.9169 L2.1075,9.8729 L2.0965,9.8269 C2.0685,9.7019 2.0505,9.6389 1.9275,9.6539 C1.9305,9.6689 1.9325,9.6849 1.9345,9.7019 C1.9395,9.7289 1.9415,9.7569 1.9415,9.7819 C1.9415,9.8379 1.9325,9.8849 1.9115,9.9249 C1.8965,9.9559 1.8735,9.9809 1.8465,9.9969 C1.8295,10.0079 1.8125,10.0169 1.7915,10.0239 C1.8105,10.0679 1.8345,10.0889 1.8355,10.0919 C1.8365,10.0919 1.8365,10.0929 1.8375,10.0929 C1.8535,10.0879 1.8695,10.0839 1.8865,10.0809 C1.9065,10.0769 1.9265,10.0769 1.9475,10.0759 C1.9535,10.0749 1.9595,10.0749 1.9675,10.0749 L2.0085,10.0719 L2.0325,10.0699 C2.0515,10.0679 2.0685,10.0879 2.0695,10.1139 L2.0695,10.1169 C2.0695,10.1409 2.0555,10.1609 2.0365,10.1609 L1.9835,10.1649 L1.9695,10.1659 C1.9475,10.1669 1.9265,10.1689 1.9065,10.1719 L1.9055,10.1719 C1.8735,10.1929 1.8285,10.2229 1.8245,10.2269 C1.8175,10.2329 1.8115,10.2409 1.8055,10.2479 C1.8535,10.2619 1.8965,10.2919 1.9285,10.3399 C1.9525,10.3779 1.9675,10.4219 1.9765,10.4689 C1.9795,10.4919 1.9825,10.5139 1.9825,10.5359 C1.9825,10.5469 1.9795,10.5589 1.9785,10.5709 C1.9865,10.5689 1.9945,10.5689 2.0025,10.5679 C2.0215,10.5659 2.0375,10.5629 2.0535,10.5569 C2.1105,10.5419 2.1455,10.5159 2.1715,10.4879 C2.1755,10.4829 2.1785,10.4779 2.1835,10.4719 C2.1955,10.4559 2.2115,10.4559 2.2255,10.4659 C2.2275,10.4679 2.2305,10.4689 2.2325,10.4719 C2.2335,10.4729 2.2335,10.4749 2.2345,10.4759 C2.2445,10.4949 2.2445,10.5209 2.2325,10.5359 C2.1975,10.5839 2.1555,10.6169 2.1025,10.6379 C2.0815,10.6469 2.0605,10.6539 2.0365,10.6589 L2.0365,10.6719 C2.0365,10.7029 2.0375,10.7139 2.0385,10.7169 C2.0445,10.7199 2.0615,10.7199 2.0755,10.7179 L2.1575,10.7179 C2.2335,10.7279 2.2635,10.7589 2.2735,10.8019 C2.2775,10.8169 2.2785,10.8339 2.2785,10.8509 L2.2785,10.8579 C2.3335,10.8119 2.3805,10.7549 2.4185,10.7019 C2.4675,10.6319 2.4995,10.5679 2.5145,10.5369 L2.5345,10.4939 L2.5655,10.5269 C2.6665,10.6359 2.7305,10.6719 2.7655,10.6839 C2.7675,10.6719 2.7705,10.6609 2.7725,10.6479 C2.7815,10.6109 2.7935,10.5759 2.8095,10.5459 C2.8325,10.5009 2.8635,10.4679 2.8995,10.4489 C2.9485,10.4239 2.9995,10.4339 3.0465,10.4669 C3.0465,10.4639 3.0485,10.4589 3.0495,10.4559 C3.0645,10.4139 3.0845,10.3519 3.0965,10.3139 C3.1025,10.2969 3.1055,10.2859 3.1055,10.2859 L3.1285,10.2179 C3.1285,10.2179 3.2075,10.3389 3.2315,10.3729 C3.2455,10.3619 3.2685,10.3439 3.2685,10.3439 L3.2795,10.3439 C3.2855,10.3439 3.4445,10.3449 3.5545,10.4829 C3.5675,10.4129 3.5705,10.3639 3.5705,10.3349 L3.5705,10.3289 C3.4485,10.2159 3.3245,10.0979 3.2705,9.9649 C3.2605,9.9429 3.2675,9.9139 3.2845,9.9029 C3.3005,9.8899 3.3225,9.8989 3.3305,9.9209 C3.3785,10.0369 3.4995,10.1519 3.6175,10.2619 L3.6185,10.2619 L3.6285,10.2729 C3.7595,10.3959 3.8905,10.5239 3.9395,10.6699 C3.9675,10.5609 3.9825,10.4689 3.9825,10.3939 C3.9825,10.3489 3.9785,10.3089 3.9695,10.2739 C3.9525,10.2649 3.9435,10.2409 3.9495,10.2169 C3.9505,10.2149 3.9505,10.2119 3.9505,10.2089 C3.9085,10.0999 3.8275,10.0299 3.7425,9.9539 C3.6985,9.9169 3.6535,9.8789 3.6135,9.8339 C3.6055,9.8259 3.6015,9.8129 3.6015,9.7969 C3.6015,9.7879 3.6035,9.7779 3.6095,9.7689 C3.6205,9.7479 3.6435,9.7469 3.6585,9.7639 C3.6945,9.8049 3.7365,9.8399 3.7795,9.8779 C3.8495,9.9389 3.9235,10.0039 3.9765,10.0939 C4.0755,9.6359 4.1355,9.0889 3.9475,8.8379 L3.9255,8.8089 L3.9425,8.7769 C4.0885,8.5139 4.2125,8.1969 4.2865,7.8999 C4.2025,7.9089 4.1185,7.9349 4.0275,7.9839 C4.0085,7.9929 3.9895,7.9799 3.9815,7.9559 C3.9755,7.9329 3.9845,7.9069 4.0015,7.8969 C4.2295,7.7779 4.4155,7.7729 4.6605,7.8859 C4.6515,7.8729 4.6435,7.8619 4.6355,7.8489 C4.6325,7.8449 4.6305,7.8399 4.6275,7.8359 C4.6225,7.8269 4.6185,7.8199 4.6135,7.8109 C4.6115,7.8059 4.6085,7.7999 4.6055,7.7949 L4.5935,7.7719 C4.5905,7.7669 4.5885,7.7609 4.5855,7.7549 C4.5825,7.7469 4.5785,7.7409 4.5765,7.7329 C4.5745,7.7269 4.5715,7.7209 4.5695,7.7149 L4.5605,7.6919 C4.5585,7.6859 4.5565,7.6799 4.5535,7.6739 C4.5515,7.6659 4.5485,7.6589 4.5465,7.6509 C4.5445,7.6449 4.5425,7.6389 4.5405,7.6319 C4.5375,7.6239 4.5355,7.6169 4.5345,7.6089 C4.5325,7.6029 4.5315,7.5969 4.5295,7.5899 C4.5275,7.5819 4.5255,7.5739 4.5235,7.5659 C4.5215,7.5599 4.5205,7.5539 4.5185,7.5479 L4.5125,7.5159 C4.5095,7.5059 4.5075,7.4949 4.5065,7.4849 C4.5045,7.4779 4.5035,7.4709 4.5025,7.4629 C4.5005,7.4549 4.4995,7.4479 4.4975,7.4389 C4.4965,7.4329 4.4955,7.4259 4.4945,7.4199 L4.4925,7.3939 L4.4895,7.3759 C4.4885,7.3669 4.4875,7.3579 4.4865,7.3479 C4.4855,7.3429 4.4845,7.3379 4.4845,7.3329 C4.4825,7.3229 4.4815,7.3119 4.4805,7.3009 C4.4805,7.2979 4.4795,7.2939 4.4795,7.2909 C4.4775,7.2799 4.4765,7.2669 4.4755,7.2539 C4.4725,7.2279 4.4695,7.2019 4.4675,7.1749 C4.4635,7.1489 4.4615,7.1209 4.4595,7.0949 C3.9325,6.8399 3.6035,7.0459 3.3425,7.2539 C3.3175,7.2749 3.2915,7.2949 3.2675,7.3159 C3.0755,7.4729 2.9085,7.6089 2.7235,7.4729" id="Fill-20" fill="#E1411E"></path>
                    <path d="M1.6259,9.7053 C1.5799,9.7463 1.5529,9.8193 1.5439,9.9213 C1.6659,9.8493 1.7429,9.8733 1.7959,9.9263 C1.8209,9.9163 1.8429,9.8973 1.8549,9.8733 C1.8759,9.8313 1.8779,9.7623 1.8609,9.6743 C1.7619,9.6453 1.6799,9.6553 1.6259,9.7053" id="Fill-22" fill="#E1411E"></path>
                    <path d="M1.6376,10.6155 C1.6376,10.6245 1.6376,10.6325 1.6386,10.6385 C1.6446,10.7145 1.6806,10.7815 1.7436,10.8405 C1.7556,10.6195 1.8356,10.5485 1.9126,10.5255 C1.9106,10.4795 1.8986,10.4355 1.8756,10.3995 C1.8446,10.3515 1.7976,10.3275 1.7426,10.3295 C1.6746,10.4305 1.6376,10.5305 1.6376,10.6155" id="Fill-24" fill="#E1411E"></path>
                    <path d="M2.9335,10.9338 C2.9965,10.8778 3.0375,10.7528 3.0495,10.5798 L3.0385,10.5678 C3.0055,10.5268 2.9615,10.5158 2.9225,10.5358 C2.8885,10.5528 2.8615,10.5938 2.8435,10.6498 C2.8465,10.6668 2.8495,10.6858 2.8495,10.7048 C2.8495,10.7778 2.8225,10.8608 2.7485,10.9518 C2.8245,10.9808 2.8865,10.9748 2.9335,10.9338" id="Fill-26" fill="#E1411E"></path>
                    <path d="M4.7479,7.3967 C4.7589,7.3467 4.7689,7.3007 4.7749,7.2537 C4.7879,7.1797 4.7929,7.1077 4.7809,7.0277 C4.7319,6.7017 4.5609,6.5477 4.3429,6.3637 C4.4839,6.6347 4.5119,6.9117 4.5359,7.1627 C4.5389,7.1937 4.5419,7.2237 4.5449,7.2537 C4.5659,7.4577 4.5949,7.6387 4.6919,7.7957 C4.6959,7.6357 4.7229,7.5097 4.7479,7.3967" id="Fill-28" fill="#E1411E"></path>
                    <path d="M4.7616,7.8303 C4.7616,7.8553 4.7616,7.8813 4.7636,7.9083 C4.7696,8.0173 4.7866,8.1343 4.8036,8.2473 C4.8236,8.3683 4.8406,8.4813 4.8406,8.5743 C4.8406,8.6503 4.8286,8.7133 4.7976,8.7573 C4.7736,8.7903 4.7386,8.8063 4.6976,8.8093 C4.7856,8.9243 4.9076,8.9303 4.9736,8.8923 L5.0396,8.8523 L5.0216,8.9463 C5.0086,9.0103 5.0046,9.0653 5.0046,9.1173 C5.0046,9.1493 5.0066,9.1803 5.0076,9.2103 C5.0616,9.1423 5.0936,9.0783 5.1206,9.0263 L5.1766,8.9263 L5.2036,8.9553 C5.3516,9.1103 5.3836,9.1043 5.4326,9.0773 C5.3476,8.9703 5.2976,8.8303 5.2976,8.6753 C5.2976,8.6603 5.2986,8.6433 5.2996,8.6273 L5.3026,8.5763 L5.3396,8.5863 C5.4456,8.6143 5.5376,8.6003 5.5986,8.5863 L5.6396,8.5773 L5.6396,8.6323 C5.6396,9.0723 5.8006,9.3493 6.1206,9.4523 L6.1576,9.4633 L6.1136,9.6443 C6.0496,9.9043 5.9866,10.1743 5.9866,10.3033 L5.9866,10.3503 L5.6796,10.3503 L5.6786,10.3053 C5.6696,10.0253 5.6346,9.8213 5.5246,9.7183 C5.4896,9.6863 5.4476,9.6653 5.3956,9.6533 C5.3966,9.6633 5.3976,9.6773 5.3986,9.6873 L5.3986,9.6963 C5.3986,9.8033 5.3676,9.8643 5.3386,9.8983 C5.3196,9.9213 5.2956,9.9363 5.2706,9.9463 C5.2376,9.9573 5.1996,9.9583 5.1596,9.9483 C5.1606,9.9583 5.1626,9.9663 5.1636,9.9753 C5.1686,9.9833 5.1716,9.9903 5.1756,9.9973 L5.1836,10.0133 L5.2116,10.0213 L5.2726,10.0423 C5.2956,10.0513 5.3196,10.0603 5.3446,10.0723 C5.3636,10.0803 5.3736,10.1053 5.3666,10.1303 C5.3616,10.1533 5.3406,10.1673 5.3236,10.1593 C5.2656,10.1363 5.2196,10.1153 5.1726,10.1063 C5.1706,10.1093 5.1686,10.1113 5.1646,10.1133 C5.1596,10.1163 5.1546,10.1183 5.1476,10.1173 C5.1386,10.1163 5.1306,10.1113 5.1246,10.1023 C5.1076,10.1023 5.0896,10.1043 5.0716,10.1083 C5.0726,10.1083 5.0726,10.1093 5.0736,10.1093 C5.0736,10.1103 5.0736,10.1123 5.0736,10.1133 C5.1016,10.1593 5.1206,10.2193 5.1266,10.2853 C5.1276,10.2993 5.1286,10.3123 5.1286,10.3263 C5.1286,10.3293 5.1276,10.3333 5.1276,10.3363 C5.1266,10.3583 5.1246,10.3803 5.1206,10.3993 C5.1136,10.4353 5.1026,10.4693 5.0856,10.4983 C5.1006,10.5043 5.1136,10.5083 5.1236,10.5133 C5.1836,10.5323 5.2066,10.5283 5.2496,10.5213 L5.2756,10.5163 C5.2996,10.4563 5.3326,10.4053 5.3846,10.3313 L5.3956,10.3153 C5.4076,10.2963 5.4296,10.2963 5.4446,10.3113 C5.4506,10.3203 5.4546,10.3333 5.4546,10.3463 C5.4546,10.3573 5.4516,10.3673 5.4476,10.3763 L5.4356,10.3923 C5.3686,10.4913 5.3376,10.5383 5.3186,10.6183 C5.3336,10.6093 5.3506,10.6033 5.3676,10.6003 C5.3946,10.5913 5.4206,10.5853 5.4486,10.5823 C5.5226,10.5753 5.5966,10.5923 5.6546,10.6353 C5.6646,10.6433 5.6746,10.6513 5.6836,10.6603 C5.7056,10.6823 5.7226,10.7073 5.7366,10.7353 C5.7456,10.7583 5.7556,10.7793 5.7606,10.8053 C5.8826,10.7503 5.9606,10.6713 5.9616,10.6703 C5.9706,10.6223 5.9876,10.5713 6.0066,10.5253 C6.0156,10.5033 6.0366,10.4953 6.0536,10.5083 C6.0656,10.5163 6.0726,10.5313 6.0726,10.5473 C6.0726,10.5553 6.0706,10.5633 6.0676,10.5703 C6.0386,10.6393 6.0266,10.6873 6.0266,10.7243 C6.0266,10.7343 6.0276,10.7443 6.0296,10.7543 C6.0356,10.7783 6.0556,10.8023 6.0806,10.8233 C6.0926,10.7903 6.1096,10.7593 6.1286,10.7343 C6.1476,10.7103 6.1706,10.6883 6.1976,10.6733 C6.1996,10.6733 6.2016,10.6723 6.2046,10.6713 C6.2756,10.6353 6.3576,10.6443 6.4396,10.6913 C6.4586,10.7023 6.4786,10.7153 6.4976,10.7313 C6.5016,10.7203 6.5066,10.7083 6.5096,10.6973 C6.5196,10.6613 6.5256,10.6213 6.5256,10.5773 C6.5256,10.4873 6.5096,10.3873 6.4906,10.2853 C6.4896,10.2823 6.4896,10.2773 6.4896,10.2733 C6.4896,10.2533 6.4996,10.2343 6.5156,10.2293 C6.5336,10.2233 6.5526,10.2383 6.5586,10.2643 C6.5826,10.3953 6.6016,10.5283 6.5916,10.6443 L6.6116,10.6463 C6.6956,10.6533 6.7556,10.6603 6.9556,10.8143 C6.9556,10.8133 6.9566,10.8123 6.9566,10.8113 C6.9566,10.5333 6.8946,10.3603 6.8136,10.2293 C6.8036,10.2233 6.7956,10.2123 6.7936,10.1973 C6.7516,10.1373 6.7076,10.0853 6.6636,10.0363 C6.5766,9.9343 6.4946,9.8403 6.4686,9.6943 C6.4686,9.6903 6.4676,9.6863 6.4676,9.6833 C6.4676,9.6623 6.4786,9.6443 6.4936,9.6383 C6.5126,9.6333 6.5316,9.6473 6.5356,9.6733 C6.5566,9.7893 6.6276,9.8723 6.7096,9.9653 C6.7396,10.0003 6.7706,10.0363 6.8016,10.0763 C6.8116,9.9513 6.8046,9.9253 6.7676,9.7673 L6.7616,9.7403 C6.7606,9.7353 6.7596,9.7283 6.7606,9.7243 C6.7456,9.7113 6.7336,9.6993 6.7196,9.6873 C6.6166,9.5973 6.5106,9.5043 6.4686,9.1573 C6.4646,9.1333 6.4776,9.1093 6.4966,9.1043 C6.5156,9.1013 6.5326,9.1173 6.5356,9.1423 C6.5736,9.4493 6.6586,9.5243 6.7576,9.6103 C6.8426,9.6843 6.9376,9.7693 7.0116,10.0003 C7.0306,9.9633 7.0376,9.9163 7.0376,9.8603 C7.0376,9.7483 7.0066,9.6053 6.9736,9.4523 C6.9346,9.2733 6.8926,9.0823 6.8926,8.9033 C6.8926,8.7673 6.9176,8.6383 6.9876,8.5273 C6.9386,8.5403 6.8846,8.5743 6.7826,8.6693 L6.7106,8.7343 L6.7286,8.6233 C6.7626,8.3933 6.9086,8.0833 7.0326,8.0473 C7.0566,8.0393 7.0786,8.0443 7.0986,8.0573 C7.1166,8.0143 7.1296,7.9743 7.1296,7.9413 C7.1296,7.9273 7.1266,7.9113 7.1216,7.8993 C7.1056,7.8543 7.0546,7.8283 6.9896,7.8283 C6.9346,7.8283 6.8426,7.9333 6.7626,8.0273 C6.6766,8.1283 6.5946,8.2233 6.5276,8.2303 C6.4446,8.2403 6.3786,8.1643 6.3106,8.0843 C6.2586,8.0243 6.2066,7.9653 6.1416,7.9243 L6.1236,7.9123 L6.0846,7.4773 L6.1216,7.4763 C6.3496,7.4673 6.5066,7.3923 6.5916,7.2543 C6.6016,7.2363 6.6126,7.2193 6.6196,7.1993 C6.7396,6.9173 6.5926,6.4813 6.4936,6.2473 L6.4626,6.1733 L6.5266,6.1793 C6.7466,6.1993 6.7706,6.0193 6.8026,5.7733 C6.8306,5.5583 6.8646,5.3153 7.0476,5.1943 C6.9686,5.1333 6.8656,5.1073 6.6696,5.2433 L6.6426,5.2623 L6.6256,5.2283 C6.5986,5.1773 6.5746,5.1273 6.5526,5.0763 C6.5376,5.1603 6.5276,5.2523 6.5226,5.3523 C6.5466,5.4123 6.5646,5.4673 6.5646,5.5183 C6.5646,5.5733 6.5466,5.6273 6.5056,5.6833 L6.4476,5.7583 L6.4456,5.6503 L6.4456,5.5883 C6.4456,5.5113 6.4486,5.4403 6.4506,5.3743 L6.4626,5.2253 C6.4716,5.1323 6.4846,5.0453 6.5006,4.9653 L6.5276,4.8453 C6.5566,4.7273 6.5926,4.6123 6.6346,4.4873 C6.6036,4.4443 6.5746,4.4013 6.5506,4.3593 C6.5196,4.4713 6.4906,4.5793 6.4636,4.6843 L6.4346,4.8063 C6.4126,4.8933 6.3946,4.9773 6.3786,5.0563 L6.3576,5.1813 C6.3446,5.2583 6.3346,5.3313 6.3306,5.3923 L6.3266,5.4873 L6.2736,5.4243 C6.1866,5.3183 6.0876,5.2563 5.9096,5.2673 C6.0106,5.4043 6.0426,5.6683 6.0746,5.9463 C6.0946,6.1073 6.1146,6.2683 6.1486,6.4023 C6.1636,6.3073 6.1966,6.2143 6.2506,6.1833 L6.2766,6.1683 L6.2916,6.1993 C6.5586,6.6913 6.4916,6.9163 6.4276,7.0053 C6.3256,7.1493 6.1246,7.1213 5.9966,7.0133 C5.8616,6.8973 5.7536,6.6623 5.6416,6.4133 C5.5546,6.2253 5.4656,6.0303 5.3586,5.8663 C5.2576,5.8503 5.1586,5.8533 5.0626,5.8573 C4.8466,5.8693 4.6416,5.8773 4.4726,5.6373 C4.3826,5.7973 4.2406,5.8503 4.0886,5.9013 C4.0606,5.9113 4.0306,5.9223 4.0006,5.9343 C4.1156,6.0653 4.2346,6.1653 4.3496,6.2613 C4.5866,6.4593 4.7916,6.6303 4.8486,7.0093 C4.8546,7.0483 4.8576,7.0863 4.8576,7.1223 C4.8576,7.1683 4.8526,7.2113 4.8456,7.2543 C4.8376,7.3103 4.8266,7.3653 4.8146,7.4223 C4.7886,7.5363 4.7616,7.6643 4.7616,7.8303" id="Fill-30" fill="#E1411E"></path>
                    <path d="M1.787,0.8674 C1.852,0.8754 1.941,0.8594 1.998,0.7434 C1.879,0.6124 1.769,0.5554 1.686,0.5844 C1.632,0.6024 1.588,0.6604 1.553,0.7544 C1.683,0.7404 1.751,0.7964 1.787,0.8674" id="Fill-32" fill="#E1411E"></path>
                    <path d="M1.4735,1.7737 C1.4685,1.6887 1.4335,1.5917 1.3705,1.5317 C1.2915,1.6417 1.2475,1.7497 1.2475,1.8407 C1.2475,1.8497 1.2475,1.8577 1.2485,1.8647 C1.2545,1.9397 1.2915,2.0057 1.3545,2.0657 C1.3645,1.8927 1.4145,1.8117 1.4735,1.7737" id="Fill-34" fill="#E1411E"></path>
                    <path d="M2.9159,3.6829 C2.9099,3.6419 2.9029,3.5999 2.9029,3.5609 C2.9029,3.4589 2.9229,3.3679 2.9549,3.2909 C2.6659,2.7459 2.4749,2.1829 2.4749,1.8879 C2.4749,1.8709 2.4759,1.8549 2.4769,1.8399 C2.4859,1.7219 2.5579,1.6189 2.6339,1.5099 C2.7239,1.3819 2.7869,1.2799 2.7869,1.1739 C2.7869,1.1629 2.7859,1.1509 2.7839,1.1389 C2.7809,1.1229 2.7769,1.1089 2.7719,1.0929 C2.7549,1.0999 2.7359,1.1039 2.7189,1.1059 C2.6689,1.1129 2.6249,1.1029 2.5849,1.0749 C2.5619,1.0579 2.5409,1.0329 2.5219,1.0039 C2.5079,0.9819 2.4959,0.9549 2.4859,0.9279 C2.4829,0.9169 2.4789,0.9089 2.4769,0.8989 C2.3869,0.9069 2.3319,0.9609 2.2729,1.1969 C2.2679,1.2209 2.2479,1.2349 2.2289,1.2269 C2.2109,1.2179 2.2019,1.1919 2.2079,1.1669 C2.2219,1.1119 2.2349,1.0649 2.2509,1.0239 C2.2229,0.9229 2.1719,0.8439 2.1179,0.7929 C2.1019,0.7779 2.0859,0.7639 2.0699,0.7539 C2.0629,0.7749 2.0539,0.7929 2.0429,0.8119 C1.9899,0.9069 1.9129,0.9579 1.8179,0.9589 C1.8049,0.9589 1.7899,0.9589 1.7749,0.9579 C1.7689,0.9749 1.7629,0.9919 1.7579,1.0069 C1.7419,1.0549 1.7339,1.1009 1.7339,1.1459 C1.7339,1.1769 1.7379,1.2069 1.7439,1.2359 C1.7649,1.3109 1.8099,1.3669 1.8739,1.3989 C1.8879,1.4069 1.8959,1.4229 1.8959,1.4429 C1.8959,1.4469 1.8949,1.4529 1.8949,1.4579 C1.8869,1.4819 1.8679,1.4949 1.8499,1.4859 C1.7829,1.4519 1.7319,1.3979 1.7009,1.3279 C1.6999,1.3279 1.6979,1.3279 1.6969,1.3269 C1.6479,1.2989 1.6039,1.2929 1.5599,1.3049 C1.5459,1.3089 1.5319,1.3149 1.5189,1.3229 C1.4669,1.3519 1.4289,1.4069 1.4079,1.4569 L1.4199,1.4689 C1.4859,1.5389 1.5319,1.6419 1.5419,1.7459 C1.5429,1.7599 1.5439,1.7739 1.5439,1.7879 C1.5439,1.8059 1.5389,1.8229 1.5359,1.8399 C1.5359,1.8419 1.5349,1.8429 1.5349,1.8449 C1.5809,1.8499 1.6229,1.8499 1.6619,1.8489 C1.6719,1.8419 1.6809,1.8419 1.6889,1.8459 C1.7309,1.8419 1.7699,1.8329 1.8079,1.8159 C1.8259,1.8079 1.8459,1.8219 1.8519,1.8449 C1.8569,1.8699 1.8479,1.8959 1.8289,1.9029 C1.7819,1.9249 1.7339,1.9359 1.6849,1.9409 C1.6069,2.0179 1.5789,2.1219 1.5759,2.2039 C1.5759,2.2089 1.5749,2.2129 1.5749,2.2169 C1.5749,2.2289 1.5779,2.2379 1.5789,2.2479 C1.5959,2.2489 1.6119,2.2529 1.6299,2.2599 C1.6669,2.2729 1.7029,2.2979 1.7309,2.3359 C1.7619,2.3759 1.7799,2.4259 1.7889,2.4809 C1.7919,2.4959 1.7939,2.5089 1.7949,2.5249 C1.8289,2.5139 1.8749,2.5009 1.8749,2.5009 C1.8809,2.4979 1.8859,2.4969 1.8919,2.4959 C1.9379,2.4809 1.9709,2.4729 1.9989,2.4979 L2.0129,2.5109 L2.0159,2.5309 C2.0229,2.6089 2.0519,2.7069 2.0799,2.7999 C2.1299,2.9729 2.1779,3.1359 2.1159,3.2279 C2.0759,3.2869 1.9989,3.2969 1.8819,3.2659 C1.9749,3.4879 2.0819,3.4979 2.1939,3.4849 L2.2399,3.4799 L2.2309,3.5389 C2.2259,3.5839 2.2229,3.6309 2.2229,3.6799 C2.2229,3.7759 2.2319,3.8749 2.2409,3.9719 C2.2489,4.0609 2.2579,4.1469 2.2579,4.2259 C2.2579,4.2619 2.2549,4.2959 2.2499,4.3289 C2.3169,4.2859 2.3639,4.2589 2.3769,4.2529 C2.3909,4.1879 2.4089,4.1269 2.4349,4.0729 C2.5469,3.8269 2.7559,3.7319 2.9159,3.6829" id="Fill-36" fill="#E1411E"></path>
                    <path d="M1.5634,2.3381 C1.5164,2.3711 1.4514,2.3831 1.3564,2.3451 C1.3764,2.4451 1.4114,2.5151 1.4604,2.5481 C1.5254,2.5921 1.6184,2.5801 1.7284,2.5201 C1.7224,2.4741 1.7064,2.4331 1.6824,2.4001 C1.6504,2.3591 1.6074,2.3371 1.5634,2.3381" id="Fill-38" fill="#E1411E"></path>
                    <path d="M2.618,0.9934 C2.653,1.0184 2.696,1.0224 2.745,1.0084 C2.752,0.9724 2.756,0.9384 2.756,0.9074 C2.756,0.8754 2.752,0.8454 2.744,0.8184 C2.724,0.7484 2.677,0.6954 2.604,0.6604 C2.61,0.6984 2.613,0.7334 2.613,0.7654 C2.613,0.8444 2.597,0.9004 2.572,0.9424 C2.584,0.9624 2.598,0.9794 2.618,0.9934" id="Fill-40" fill="#E1411E"></path>
                    <path d="M4.6473,1.3059 C4.6483,1.3389 4.6713,1.3659 4.7003,1.3649 C4.7283,1.3649 4.7513,1.3369 4.7513,1.3029 C4.7503,1.2699 4.7263,1.2439 4.6983,1.2439 C4.6693,1.2449 4.6473,1.2729 4.6473,1.3059" id="Fill-42" fill="#E1411E"></path>
                    <path d="M4.703,2.9495 C4.357,2.7205 3.982,2.7965 3.766,2.7965 C3.331,2.7965 3.456,2.2795 3.751,2.5085 C3.751,2.1915 3.534,2.1425 3.42,2.1425 C3.293,2.1425 3.146,2.2165 3.146,2.5035 C3.146,3.3685 4.155,2.7055 4.703,2.9495" id="Fill-44" fill="#E1411E"></path>
                    <path d="M1.4891,6.5139 C1.4741,6.5759 1.4671,6.6339 1.4671,6.6849 C1.4671,6.7339 1.4731,6.7779 1.4871,6.8149 C1.5131,6.8799 1.5661,6.9259 1.6411,6.9499 C1.6291,6.8939 1.6201,6.8409 1.6201,6.7989 C1.6201,6.6899 1.6581,6.6259 1.7031,6.5829 C1.6521,6.5269 1.5821,6.5039 1.4891,6.5139" id="Fill-46" fill="#E1411E"></path>
                    <path d="M1.2694,5.3323 C1.3254,5.3083 1.3614,5.2733 1.3784,5.2313 C1.3864,5.2113 1.3914,5.1873 1.3914,5.1603 C1.3914,5.1343 1.3864,5.1043 1.3774,5.0723 C1.2474,5.0183 1.1394,5.0203 1.0744,5.0793 C1.0284,5.1213 1.0004,5.1953 0.9924,5.2963 C1.1354,5.2103 1.2174,5.2613 1.2694,5.3323" id="Fill-48" fill="#E1411E"></path>
                    <path d="M3.4989,5.6086 C3.4989,5.4946 3.5079,5.3426 3.5369,5.1716 C3.3529,5.2186 3.2439,5.4016 3.1489,5.8206 L3.1339,5.8906 L3.0939,5.8416 C2.9779,5.7036 2.9029,5.4536 2.8999,5.1896 L2.8999,5.1726 C2.8999,5.0926 2.9069,5.0176 2.9209,4.9486 C2.7169,4.9736 2.5269,5.2286 2.3589,5.4536 C2.2109,5.6526 2.0819,5.8246 1.9599,5.8246 C1.8129,5.8246 1.7809,5.6206 1.7499,5.4216 C1.7139,5.1856 1.6809,5.0336 1.5599,5.0336 C1.5369,5.0336 1.5159,5.0376 1.4969,5.0446 C1.4779,5.0526 1.4609,5.0606 1.4489,5.0686 C1.4529,5.0876 1.4559,5.1036 1.4579,5.1216 C1.4599,5.1346 1.4609,5.1486 1.4609,5.1606 C1.4609,5.2026 1.4529,5.2416 1.4389,5.2756 C1.4169,5.3296 1.3819,5.3666 1.3429,5.3926 C1.3109,5.4136 1.2769,5.4276 1.2449,5.4376 C1.2409,5.4396 1.2369,5.4406 1.2319,5.4416 C1.2269,5.4756 1.2219,5.5116 1.2219,5.5426 C1.2219,5.5886 1.2279,5.6286 1.2409,5.6506 L1.2769,5.7156 L1.2159,5.7226 C1.1269,5.7356 1.0799,5.7796 1.0509,5.8756 L1.0529,5.8756 C1.0759,5.8906 1.0979,5.9086 1.1189,5.9266 C1.1859,5.9866 1.2399,6.0656 1.2759,6.1546 C1.2879,6.1856 1.2989,6.2146 1.3069,6.2476 C1.3129,6.2706 1.3169,6.2956 1.3209,6.3216 C1.3429,6.3006 1.3619,6.2796 1.3799,6.2576 C1.3829,6.2536 1.3859,6.2496 1.3889,6.2456 C1.4259,6.1996 1.4569,6.1506 1.4829,6.1086 L1.4999,6.0806 C1.5129,6.0606 1.5339,6.0586 1.5489,6.0756 C1.5629,6.0906 1.5639,6.1196 1.5529,6.1386 L1.5359,6.1676 C1.5089,6.2116 1.4779,6.2596 1.4399,6.3096 C1.4389,6.3386 1.4359,6.3926 1.4339,6.4336 L1.4369,6.4336 C1.4649,6.4276 1.4899,6.4256 1.5149,6.4246 C1.6109,6.4216 1.6879,6.4536 1.7469,6.5176 C1.7659,6.5396 1.7839,6.5636 1.7999,6.5936 C1.7999,6.5946 1.8009,6.5966 1.8019,6.5976 C1.8299,6.5566 1.8479,6.5126 1.8599,6.4666 C1.8599,6.4656 1.8599,6.4646 1.8589,6.4626 C1.8579,6.4486 1.8619,6.4336 1.8709,6.4226 C1.8779,6.3786 1.8819,6.3356 1.8819,6.2976 C1.8819,6.2716 1.8959,6.2506 1.9159,6.2506 C1.9349,6.2506 1.9499,6.2716 1.9499,6.2976 C1.9499,6.3316 1.9499,6.4016 1.9329,6.4796 C1.9519,6.6066 1.9809,6.6636 2.0449,6.6966 C2.0459,6.6916 2.0489,6.6856 2.0509,6.6816 C2.0629,6.6426 2.0819,6.6106 2.1069,6.5836 C2.1199,6.5706 2.1339,6.5576 2.1489,6.5486 C2.2079,6.5116 2.2769,6.5046 2.3399,6.5236 C2.3559,6.5286 2.3729,6.5346 2.3889,6.5426 C2.3969,6.5266 2.4049,6.5076 2.4119,6.4926 C2.4409,6.4226 2.4589,6.3666 2.4689,6.3286 C2.3789,6.3016 2.3029,6.2456 2.2819,6.0746 C2.2789,6.0476 2.2919,6.0246 2.3109,6.0216 C2.3299,6.0176 2.3479,6.0346 2.3499,6.0596 C2.3679,6.2146 2.4389,6.2346 2.5719,6.2576 C2.6229,6.2666 2.6749,6.2756 2.7269,6.2956 C2.7929,6.3246 2.8289,6.3706 2.8359,6.4306 C2.8359,6.4376 2.8369,6.4436 2.8369,6.4486 C2.8369,6.5066 2.8069,6.5646 2.7729,6.6086 C2.8529,6.5996 2.9069,6.5766 2.9319,6.5366 C2.9289,6.5176 2.9349,6.5016 2.9449,6.4906 C2.9469,6.4816 2.9469,6.4746 2.9469,6.4666 C2.9469,6.3946 2.9139,6.3006 2.8839,6.2146 C2.8559,6.1366 2.8279,6.0586 2.8279,5.9956 C2.8279,5.9536 2.8399,5.9196 2.8739,5.8966 C2.8919,5.8846 2.9119,5.8926 2.9209,5.9176 C2.9289,5.9396 2.9219,5.9666 2.9039,5.9786 C2.8819,5.9936 2.9169,6.0936 2.9469,6.1746 C2.9909,6.3016 3.0409,6.4416 3.0039,6.5536 C3.0079,6.5856 3.0089,6.6136 3.0089,6.6366 C3.0089,6.6436 3.0079,6.6496 3.0079,6.6556 C3.1709,6.4626 3.1969,6.2766 3.2189,6.1236 C3.2419,5.9526 3.2639,5.8046 3.4839,5.8046 L3.4849,5.8046 C3.4909,5.7886 3.4959,5.7716 3.5029,5.7546 C3.4999,5.7156 3.4989,5.6676 3.4989,5.6086" id="Fill-50" fill="#E1411E"></path>
                    <path d="M4.8798,1.762 C4.8798,1.922 4.7068,1.907 4.6958,1.762 L4.5868,1.705 L4.7288,1.618 L5.0638,1.748 L4.8798,1.762 Z M5.1968,5.309 C5.1968,5.238 5.2148,5.169 5.2498,5.104 C5.2198,5.097 5.1918,5.086 5.1658,5.07 C5.0668,5.009 4.9978,4.876 4.9568,4.684 C4.7788,4.844 4.6118,4.829 4.4778,4.814 C4.3888,4.804 4.3198,4.796 4.2718,4.837 L4.2218,4.88 L4.2178,4.802 C4.2168,4.778 4.2158,4.754 4.2158,4.733 C4.2158,4.593 4.2378,4.497 4.2578,4.417 C4.2698,4.363 4.2798,4.317 4.2798,4.268 C4.2798,4.211 4.2648,4.151 4.2248,4.067 C4.0588,4.513 3.8488,4.54 3.7058,4.554 C3.6608,4.559 3.6218,4.563 3.5988,4.58 L3.5438,4.62 L3.5468,4.537 C3.5598,4.259 3.6118,4.087 3.7318,3.944 C3.7448,3.926 3.7678,3.928 3.7798,3.947 C3.7868,3.955 3.7888,3.966 3.7888,3.978 C3.7888,3.991 3.7858,4.003 3.7778,4.011 C3.6848,4.125 3.6388,4.265 3.6218,4.475 C3.6468,4.469 3.6718,4.465 3.6998,4.462 C3.8428,4.449 4.0348,4.428 4.1888,3.959 L4.2118,3.887 L4.2468,3.95 C4.3258,4.087 4.3508,4.183 4.3508,4.267 C4.3508,4.329 4.3368,4.384 4.3228,4.445 C4.3058,4.522 4.2848,4.606 4.2848,4.732 C4.3438,4.708 4.4088,4.713 4.4838,4.722 C4.6228,4.739 4.7818,4.757 4.9558,4.576 L4.9988,4.531 L5.0118,4.602 C5.0438,4.801 5.1068,4.931 5.1958,4.987 C5.2308,5.009 5.2688,5.017 5.3078,5.018 C5.3168,5.011 5.3278,5.011 5.3378,5.017 C5.4058,5.012 5.4768,4.983 5.5388,4.947 C5.4178,4.88 5.3558,4.817 5.3448,4.742 C5.3438,4.735 5.3438,4.727 5.3438,4.718 C5.3438,4.637 5.4008,4.57 5.4678,4.493 C5.5488,4.398 5.6408,4.292 5.6408,4.146 C5.6408,4.132 5.6398,4.117 5.6368,4.103 C5.5628,4.063 5.4698,3.966 5.3798,3.741 C5.3698,3.718 5.3768,3.691 5.3938,3.678 C5.4098,3.666 5.4318,3.674 5.4408,3.697 C5.5348,3.93 5.6428,4.05 5.7428,4.031 C5.8258,4.016 5.8988,3.907 5.9438,3.746 C5.8958,3.775 5.8558,3.776 5.8198,3.75 C5.7558,3.702 5.7318,3.569 5.7408,3.323 C5.6608,3.312 5.5628,3.244 5.4668,3.036 C5.4558,3.015 5.4618,2.987 5.4788,2.973 C5.4948,2.96 5.5168,2.967 5.5258,2.988 C5.5978,3.146 5.6798,3.229 5.7618,3.232 C5.7678,3.228 5.7748,3.225 5.7798,3.226 C5.7838,3.227 5.7878,3.228 5.7908,3.23 C5.8828,3.212 5.9628,3.103 6.0108,2.98 C5.9678,3.003 5.9308,3.005 5.9008,2.98 C5.8098,2.907 5.8298,2.641 5.8618,2.43 C5.8228,2.477 5.7798,2.521 5.7318,2.561 C5.7148,2.575 5.6928,2.569 5.6838,2.547 C5.6798,2.54 5.6778,2.531 5.6778,2.523 C5.6778,2.507 5.6838,2.492 5.6938,2.484 C5.8938,2.317 6.0018,2.098 6.0018,1.881 C6.0018,1.836 5.9958,1.791 5.9858,1.747 C5.9218,1.81 5.5928,2.127 5.5928,2.127 C5.5768,2.142 5.5548,2.138 5.5438,2.117 C5.5328,2.097 5.5358,2.068 5.5518,2.053 L5.6958,1.912 L5.6998,1.914 L5.7208,1.889 L5.7318,1.879 C5.7308,1.879 5.7308,1.879 5.7298,1.878 L5.8478,1.737 L5.5818,1.62 L5.4888,1.783 C5.1588,1.651 4.6378,1.444 4.6158,1.435 C4.4188,1.638 4.1488,1.841 3.8828,1.987 C3.9038,2.115 3.9448,2.174 4.0098,2.223 L4.0258,2.237 L4.0268,2.261 C4.0328,2.403 4.0808,2.507 4.1198,2.592 C4.1308,2.616 4.1398,2.636 4.1478,2.657 C4.1758,2.613 4.2138,2.55 4.2138,2.55 L4.2288,2.548 C4.3918,2.536 4.5988,2.501 4.7628,2.341 L4.7818,2.322 L4.9358,2.47 L4.9358,3.088 L4.2338,3.088 C4.2338,3.088 4.2058,3.07 4.1888,3.057 C4.1508,3.125 4.0948,3.251 4.0948,3.347 C4.0948,3.361 4.0958,3.373 4.0998,3.386 C4.1058,3.418 4.1238,3.441 4.1518,3.455 L4.6748,3.455 L4.6858,3.546 C4.4478,3.649 3.5218,3.963 3.3118,3.626 C3.2828,3.581 3.2698,3.53 3.2698,3.47 C3.2698,3.408 3.2868,3.338 3.3168,3.26 C3.2788,3.171 3.2208,3.137 3.1508,3.171 C3.0548,3.216 2.9738,3.37 2.9738,3.564 C2.9738,3.61 2.9788,3.658 2.9878,3.706 L2.9968,3.753 L2.9608,3.763 C2.7238,3.83 2.5738,3.945 2.4938,4.12 C2.4468,4.223 2.4228,4.35 2.4228,4.499 C2.4228,4.596 2.4358,4.705 2.4548,4.822 C2.7028,4.505 2.9338,4.537 3.0868,4.627 L3.1348,4.656 L3.0978,4.702 C3.0158,4.806 2.9698,4.977 2.9698,5.174 L2.9698,5.189 C2.9718,5.393 3.0248,5.587 3.1028,5.715 C3.1928,5.348 3.3158,5.101 3.5788,5.07 L3.6278,5.065 L3.6148,5.128 C3.5768,5.319 3.5678,5.485 3.5678,5.608 C3.5678,5.671 3.5698,5.723 3.5728,5.76 L3.5728,5.776 L3.5678,5.787 C3.5168,5.903 3.4958,6.02 3.4958,6.121 C3.4958,6.199 3.5088,6.268 3.5308,6.322 C3.6168,6.066 3.7558,5.951 3.9008,5.88 C3.9008,5.879 3.9008,5.878 3.9028,5.876 C3.9118,5.865 3.9248,5.861 3.9368,5.865 C3.9818,5.844 4.0268,5.828 4.0718,5.812 C4.2308,5.757 4.3668,5.709 4.4398,5.54 L4.4638,5.481 L4.4948,5.533 C4.6488,5.787 4.8398,5.777 5.0598,5.767 C5.1418,5.762 5.2268,5.76 5.3118,5.771 C5.3128,5.762 5.3868,5.772 5.3958,5.784 C5.3998,5.785 5.4038,5.785 5.4068,5.786 C5.2848,5.621 5.1978,5.473 5.1968,5.314 L5.1968,5.309 Z" id="Fill-52" fill="#E1411E"></path>
                    <path d="M2.3114,6.6067 C2.2674,6.5977 2.2184,6.6067 2.1784,6.6317 C2.1604,6.6427 2.1394,6.6627 2.1244,6.6917 C2.1434,6.7877 2.1764,6.8607 2.2214,6.8987 C2.2674,6.9417 2.3304,6.9457 2.4054,6.9187 C2.3324,6.8267 2.3044,6.7417 2.3044,6.6707 C2.3044,6.6487 2.3074,6.6277 2.3114,6.6067" id="Fill-54" fill="#E1411E"></path>
                    <path d="M1.0653,5.9866 C0.9733,6.1036 0.9233,6.2226 0.9233,6.3226 C0.9233,6.3306 0.9233,6.3396 0.9243,6.3456 C0.9303,6.4206 0.9663,6.4866 1.0313,6.5466 C1.0443,6.2966 1.1433,6.2386 1.2283,6.2256 C1.2283,6.2246 1.2293,6.2236 1.2293,6.2236 C1.1953,6.1276 1.1393,6.0456 1.0653,5.9866" id="Fill-56" fill="#E1411E"></path>
                    <path d="M4.7938,1.3684 C4.7948,1.4014 4.8178,1.4284 4.8468,1.4274 C4.8748,1.4274 4.8978,1.3994 4.8978,1.3664 C4.8968,1.3324 4.8728,1.3064 4.8448,1.3064 C4.8158,1.3074 4.7938,1.3354 4.7938,1.3684" id="Fill-58" fill="#E1411E"></path>
                    <path d="M5.0868,1.4934 C5.0878,1.5264 5.1108,1.5534 5.1398,1.5524 C5.1678,1.5524 5.1908,1.5244 5.1908,1.4904 C5.1898,1.4584 5.1658,1.4314 5.1378,1.4314 C5.1088,1.4324 5.0858,1.4604 5.0868,1.4934" id="Fill-60" fill="#E1411E"></path>
                    <path d="M6.2928,1.9895 C6.2928,2.1065 6.3408,2.2295 6.3968,2.3775 C6.4688,2.5565 6.5468,2.7595 6.5468,3.0005 C6.5468,3.0265 6.5418,3.0525 6.5408,3.0795 C6.6258,3.0445 6.6818,2.9925 6.7108,2.9185 C6.7298,2.8725 6.7368,2.8205 6.7368,2.7635 C6.7368,2.6105 6.6838,2.4285 6.6368,2.2725 C6.5968,2.1385 6.5628,2.0255 6.5628,1.9415 C6.5628,1.9145 6.5658,1.8895 6.5728,1.8695 C6.5838,1.8385 6.6048,1.8135 6.6338,1.8015 C6.6938,1.7775 6.7788,1.8115 6.8498,1.8895 C6.9578,2.0095 7.0178,2.2065 7.0178,2.4405 C7.0178,2.4775 7.0158,2.5165 7.0128,2.5565 C6.9988,2.7215 6.9368,2.9805 6.8558,3.2815 C6.8688,3.2895 6.8838,3.2925 6.8968,3.3015 C6.9168,3.3165 6.9358,3.3345 6.9538,3.3515 C6.9538,3.3495 6.9558,3.3465 6.9558,3.3435 C7.0758,2.8115 7.1128,2.4735 7.1128,2.2585 C7.1128,2.0115 7.0648,1.9225 7.0398,1.8735 L7.0228,1.8385 C7.0098,1.8015 6.8858,1.6165 6.7168,1.5785 C6.5988,1.5515 6.4868,1.6035 6.3858,1.7345 C6.3188,1.8215 6.2928,1.9025 6.2928,1.9895" id="Fill-62" fill="#E1411E"></path>
                    <path d="M6.9305,3.4534 C6.9095,3.4284 6.8895,3.4014 6.8635,3.3834 C6.8535,3.3764 6.8415,3.3724 6.8315,3.3674 L6.7665,3.3354 C6.6155,3.2834 6.4445,3.3374 6.3245,3.4274 C6.1625,3.5494 6.1115,3.8634 6.1115,4.1094 C6.1115,4.2154 6.1195,4.3074 6.1345,4.3664 C6.1965,4.6134 6.2655,4.7984 6.3295,4.9474 C6.3475,4.8654 6.3675,4.7804 6.3885,4.6904 C6.2905,4.4244 6.2435,4.1904 6.2435,3.9994 C6.2435,3.8684 6.2655,3.7564 6.3115,3.6634 L6.3745,3.5364 L6.3745,3.6894 C6.3745,3.7734 6.4125,3.9474 6.5285,4.1704 L6.5775,4.2594 C6.6035,4.3034 6.6325,4.3494 6.6635,4.3944 C6.6685,4.3814 6.6725,4.3664 6.6785,4.3514 C6.6845,4.2724 6.6945,4.1884 6.7055,4.1044 L6.7255,3.9504 L6.7675,3.9804 C6.7755,3.9864 6.7815,3.9944 6.7875,4.0014 L6.8315,4.1014 C6.8385,4.1364 6.8415,4.1744 6.8415,4.2174 C6.8415,4.2724 6.8385,4.3344 6.8325,4.3984 C6.8275,4.4774 6.8235,4.5594 6.8235,4.6424 C6.8235,4.6894 6.8265,4.7374 6.8305,4.7844 C6.8595,4.6944 6.9065,4.6284 6.9525,4.5654 C7.0375,4.4574 7.1165,4.3534 7.1165,4.1054 L7.1165,4.0814 C7.1065,3.8404 7.0605,3.6584 6.9855,3.5294 L6.9305,3.4534 Z" id="Fill-64" fill="#E1411E"></path>
                    <path d="M5.4647,0.803 L5.5247,0.953 L5.4107,1.032 L5.3527,0.88 L5.4647,0.803 Z M4.6907,0.734 C4.7007,0.907 4.6367,1.022 4.6677,1.138 L5.9717,1.688 C6.0487,1.618 6.0447,1.475 6.1287,1.341 C6.2357,1.388 6.3367,1.448 6.4567,1.12 C6.2387,1.181 6.0487,1.215 5.8787,1.16 C5.9407,1.447 5.7617,1.508 5.6967,1.483 C5.6307,1.456 5.4717,1.307 5.6667,1.014 L5.5117,0.605 L5.2087,0.82 C5.2417,1.21 5.0467,1.21 4.9827,1.181 C4.9167,1.152 4.7987,0.964 4.9717,0.778 C4.8097,0.691 4.6677,0.518 4.5177,0.301 C4.4737,0.661 4.5817,0.691 4.6907,0.734 Z" id="Fill-66" fill="#E1411E"></path>
                    <path d="M5.2333,1.5559 C5.2333,1.5889 5.2563,1.6159 5.2863,1.6149 C5.3143,1.6149 5.3373,1.5869 5.3363,1.5539 C5.3363,1.5209 5.3123,1.4939 5.2843,1.4939 C5.2553,1.4949 5.2323,1.5229 5.2333,1.5559" id="Fill-68" fill="#E1411E"></path>
                    <path d="M4.9403,1.4309 C4.9413,1.4639 4.9643,1.4909 4.9933,1.4899 C5.0213,1.4899 5.0443,1.4619 5.0443,1.4289 C5.0433,1.3949 5.0193,1.3689 4.9913,1.3689 C4.9623,1.3699 4.9403,1.3979 4.9403,1.4309" id="Fill-70" fill="#E1411E"></path>
                    <path d="M5.3798,1.6184 C5.3798,1.6514 5.4028,1.6784 5.4328,1.6774 C5.4608,1.6774 5.4838,1.6494 5.4828,1.6164 L5.4308,1.5564 C5.4008,1.5574 5.3788,1.5854 5.3798,1.6184" id="Fill-72" fill="#E1411E"></path>
                    <path d="M6.871,4.9612 C6.871,4.9732 6.871,4.9852 6.872,4.9972 C6.809,4.9172 6.775,4.8332 6.762,4.7452 L6.629,4.7452 C6.608,4.8152 6.591,4.8832 6.575,4.9522 C6.603,5.0142 6.635,5.0782 6.667,5.1442 C6.909,4.9872 7.039,5.0612 7.141,5.1662 L7.191,5.2192 L7.13,5.2462 C6.931,5.3352 6.9,5.5652 6.87,5.7882 C6.841,6.0202 6.808,6.2552 6.58,6.2712 C6.661,6.4752 6.735,6.7202 6.735,6.9452 C6.735,7.0532 6.719,7.1532 6.681,7.2442 C6.679,7.2472 6.678,7.2512 6.676,7.2542 L16,7.2542 L16,4.7452 L6.924,4.7452 C6.892,4.8032 6.871,4.8672 6.871,4.9612" id="Fill-74" fill="#2D558D"></path>
                    <path d="M5.4198,4.7454 C5.4368,4.7774 5.4878,4.8304 5.6368,4.8994 L5.7128,4.9344 L5.6428,4.9834 C5.5288,5.0624 5.4258,5.1034 5.3338,5.1094 C5.2878,5.1774 5.2658,5.2444 5.2658,5.3124 C5.2678,5.4714 5.4478,5.7134 5.5968,5.9024 C5.5828,5.8974 5.4788,5.8984 5.4648,5.8924 C5.5528,6.0424 5.6278,6.2054 5.6998,6.3664 C5.8098,6.6054 5.9128,6.8324 6.0338,6.9354 C6.1398,7.0244 6.3028,7.0494 6.3778,6.9424 C6.4038,6.9054 6.4158,6.8544 6.4158,6.7944 C6.4158,6.6694 6.3608,6.4954 6.2568,6.2944 C6.2258,6.3424 6.2048,6.4414 6.2048,6.5224 C6.2048,6.5484 6.1778,6.6934 6.1818,6.7104 C6.0988,6.5484 6.0368,6.2094 6.0068,5.9614 C5.9718,5.6554 5.8768,5.2484 5.7408,5.1834 C5.9468,5.1454 6.1478,5.1834 6.2708,5.3044 C6.2778,5.2324 6.2878,5.1564 6.3038,5.0694 C6.2628,4.9794 6.2178,4.8734 6.1728,4.7454 L5.4198,4.7454 Z" id="Fill-76" fill="#2D558D"></path>
                    <path d="M3.2303,7.2366 C3.4973,7.0186 3.8583,6.7226 4.4483,6.9916 C4.4143,6.7226 4.3513,6.4506 4.1313,6.1886 C4.1293,6.1856 4.1283,6.1816 4.1263,6.1786 C4.0583,6.1156 3.9903,6.0476 3.9243,5.9666 C3.7773,6.0366 3.6433,6.1506 3.5713,6.4276 L3.5523,6.4976 L3.5143,6.4456 C3.4573,6.3686 3.4273,6.2536 3.4273,6.1236 C3.4273,6.0496 3.4383,5.9746 3.4573,5.8986 C3.3193,5.9076 3.3093,5.9826 3.2873,6.1406 C3.2613,6.3206 3.2273,6.5656 2.9733,6.8096 L2.8923,6.8896 L2.9273,6.7306 C2.9333,6.7056 2.9383,6.6816 2.9393,6.6456 C2.8833,6.6906 2.7953,6.7096 2.6713,6.7046 L2.5583,6.6986 L2.6543,6.6186 C2.7203,6.5636 2.7713,6.4856 2.7663,6.4436 C2.7633,6.4136 2.7273,6.3936 2.7063,6.3836 C2.6603,6.3666 2.6103,6.3576 2.5633,6.3486 C2.5543,6.3466 2.5453,6.3456 2.5373,6.3436 C2.5253,6.3996 2.4953,6.5086 2.4303,6.6276 L2.4123,6.6616 L2.3843,6.6386 C2.3813,6.6376 2.3793,6.6356 2.3763,6.6336 C2.3653,6.6986 2.3813,6.7856 2.4943,6.9016 L2.5413,6.9506 L2.4863,6.9796 C2.3633,7.0476 2.2613,7.0456 2.1833,6.9766 C2.1373,6.9356 2.1053,6.8786 2.0833,6.8116 L2.0573,6.8026 C1.9613,6.7676 1.9163,6.7056 1.8873,6.6076 C1.8703,6.6416 1.8473,6.6766 1.8183,6.7086 L1.7843,6.7446 L1.7653,6.6916 C1.7603,6.6756 1.7533,6.6636 1.7483,6.6506 C1.7003,6.6936 1.6553,6.7726 1.7253,6.9916 L1.7503,7.0656 L1.6893,7.0556 C1.5583,7.0336 1.4693,6.9666 1.4253,6.8566 C1.3863,6.7576 1.3913,6.6396 1.4133,6.5276 C1.4103,6.5296 1.4073,6.5296 1.4033,6.5296 L1.3583,6.5426 L1.3673,6.3926 C1.3513,6.4076 1.3343,6.4236 1.3173,6.4386 L1.2683,6.4776 L1.2643,6.4016 C1.2623,6.3716 1.2593,6.3416 1.2533,6.3146 L1.2483,6.3146 C1.1893,6.3226 1.0903,6.3346 1.0963,6.6276 L1.0993,6.7066 L1.0463,6.6706 C0.9293,6.5856 0.8653,6.4796 0.8553,6.3556 C0.8433,6.2006 0.9173,6.0536 1.0013,5.9416 C0.9993,5.9406 0.9973,5.9376 0.9943,5.9366 L0.9643,5.9216 L0.9743,5.8806 C1.0043,5.7466 1.0653,5.6746 1.1653,5.6446 C1.1573,5.6136 1.1523,5.5806 1.1523,5.5436 C1.1523,5.4906 1.1593,5.4356 1.1683,5.3916 L1.1733,5.3636 L1.1873,5.3606 C1.1463,5.3316 1.0823,5.3296 0.9703,5.4156 L0.9183,5.4556 L0.9183,5.3766 C0.9183,5.1996 0.9583,5.0736 1.0353,5.0036 C1.1403,4.9076 1.2903,4.9366 1.4113,4.9906 C1.4403,4.9716 1.4983,4.9406 1.5593,4.9406 C1.7463,4.9406 1.7863,5.1966 1.8173,5.4026 C1.8493,5.6076 1.8753,5.7326 1.9593,5.7326 C2.0533,5.7326 2.1773,5.5656 2.3093,5.3886 C2.4943,5.1406 2.7033,4.8626 2.9443,4.8536 C2.9563,4.8156 2.9693,4.7796 2.9863,4.7456 L2.6413,4.7456 C2.5803,4.7936 2.5193,4.8596 2.4593,4.9456 L2.4183,5.0076 L2.4013,4.9256 C2.3883,4.8636 2.3793,4.8036 2.3723,4.7456 L0.0003,4.7456 L0.0003,7.2546 L3.2093,7.2546 C3.2153,7.2486 3.2233,7.2426 3.2303,7.2366" id="Fill-78" fill="#2D558D"></path>
                </g>
            </g>
        </g>
    </g>
</svg>