<svg class="m-story__object m-story__object3" version="1.1" id="Laag_1" xmlns="http://www.w3.org/2000/svg" xmlns:xlink="http://www.w3.org/1999/xlink" x="0px" y="0px"
	 viewBox="0 0 238.9 229.93" style="enable-background:new 0 0 238.9 229.93;" xml:space="preserve">
<style type="text/css">
	.st0{fill:#3D4B59;}
	.st1{fill:#1D2B39;}
	.st2{fill:#4E5B69;}
	.st3{fill:#2C3A49;}
	.st4{fill:#9C6D4F;}
	.st5{fill:#7E4E2F;}
	.st6{fill:#8C5D3F;}
	.st7{fill:#6E3D21;}
	.st8{fill:#E7E6E6;}
	.st9{fill:url(#SVGID_1_);}
	.st10{fill:#FFFFFF;}
	.st11{fill-rule:evenodd;clip-rule:evenodd;}
	.st12{fill:#F2F2F2;}
	.st13{fill:#DFDFDF;}
	.st14{fill:#32358C;}
	.st15{fill:url(#SVGID_2_);}
	.st16{fill-rule:evenodd;clip-rule:evenodd;fill:#234D64;}
	.st17{fill-rule:evenodd;clip-rule:evenodd;fill:#F8AB18;}
	.st18{fill-rule:evenodd;clip-rule:evenodd;fill:#398AB1;}
	.st19{fill:#234D64;}
	.st20{fill-rule:evenodd;clip-rule:evenodd;fill:#1B1B1B;}
	.st21{fill-rule:evenodd;clip-rule:evenodd;fill:#020203;}
	.st22{fill:url(#SVGID_3_);}
	.st23{fill-rule:evenodd;clip-rule:evenodd;fill:#B6181D;}
	.st24{fill-rule:evenodd;clip-rule:evenodd;fill:#B4B4B4;}
	.st25{fill-rule:evenodd;clip-rule:evenodd;fill:#CDA442;}
	.st26{fill:url(#SVGID_4_);}
	.st27{fill:#9B9B9A;}
	.st28{fill:#B579B2;}
	.st29{fill:#AB6EAC;}
	.st30{fill:#F8AB18;}
	.st31{fill:#F28C00;}
	.st32{fill:#62B22F;}
	.st33{fill:#54AF32;}
	.st34{fill:#57C0D3;}
	.st35{fill:#36B2BB;}
	.st36{fill:#E83E5D;}
	.st37{fill:#E72E55;}
	.st38{fill:url(#SVGID_5_);}
	.st39{fill:#F7E700;}
	.st40{fill:url(#SVGID_6_);}
	.st41{fill:url(#SVGID_7_);}
	.st42{fill:url(#SVGID_8_);}
	.st43{fill:#4D4230;}
	.st44{fill:#5F4A2F;}
	.st45{fill:url(#SVGID_9_);}
	.st46{fill:url(#SVGID_10_);}
</style>

<g class="object object3">
	<g class="object__object3">
		<g>
			<path class="st16" d="M113.01,100.47l58.75,5.55L128.4,13.75c0,0-25.58-30.6-14.94,4.14c0,0-22.02-13.46-6.8,13.63
				c0,0-18.11-1.43-0.35,17.34c0,0-21.14-3.6,2.37,15.97c0,0-20.89-1.76,2.37,15.97C111.06,80.8,84.74,95.95,113.01,100.47z"/>
		</g>
		<g>
			<path class="st17" d="M133,102.45l37.73,3.57l-27.85-59.25c0,0-16.43-19.65-9.59,2.66c0,0-14.14-8.64-4.37,8.76
				c0,0-11.63-0.92-0.22,11.13c0,0-13.58-2.31,1.52,10.25c0,0-13.42-1.13,1.52,10.25C131.74,89.82,114.84,99.55,133,102.45z"/>
		</g>
		<g>
			<path class="st18" d="M143.24,103.42l27.49,2.6l-20.29-43.18c0,0-11.97-14.32-6.99,1.94c0,0-10.3-6.3-3.18,6.38
				c0,0-8.47-0.67-0.16,8.11c0,0-9.89-1.69,1.11,7.47c0,0-9.78-0.82,1.11,7.47C142.32,94.22,130,101.31,143.24,103.42z"/>
		</g>
		<g>
			<path class="st18" d="M111.83,150.77c0,0,12.05,34.44,12.29,45.75c0,4.11,23.79,3.86,25.07,2.57
				c1.28-1.29,16.38-43.18,15.36-48.32C163.54,145.63,111.83,150.77,111.83,150.77z"/>
			<path class="st19" d="M140.25,200.45c-0.56,0-1.09-0.01-1.55-0.01c-3.04-0.06-10.43-0.36-13.53-1.98c-1-0.52-1.5-1.18-1.5-1.94
				c-0.24-11.07-12.14-45.21-12.26-45.55l-0.23-0.66l0.62-0.06c0.13-0.01,13.08-1.29,26-1.93c26.49-1.3,27,1.25,27.21,2.34
				c1.09,5.47-14.05,47.38-15.5,48.83C148.74,200.26,143.76,200.45,140.25,200.45z M112.49,151.24c1.72,4.98,11.87,34.73,12.1,45.27
				c0,0.36,0.44,0.68,0.7,0.84c4.17,2.58,22.31,2.34,23.62,1.33c1.36-1.65,16.13-43.12,15.2-47.79
				C163.53,147.98,137.52,148.78,112.49,151.24z"/>
		</g>
		<g>
			<path class="st18" d="M195.66,98.93c-9.57-1.93-18.64,0.66-24.54,6.18c-9.12-2.95-19.86-4.65-31.36-4.65
				c-83.29,0-59.76-3.07-59.76,31.26c0,12.78,21.3,23.78,40.85,28.62c4.83,1.2,9.56,2.02,13.83,2.4c1.78,0.16,3.48,0.24,5.08,0.24
				c8.25,0,16.11-0.87,23.26-2.46c11.93-2.64,21.88-7.25,28.36-13.05c13.93,1.46,26.17-6.58,28.06-18.96
				C221.46,115.23,210.81,101.99,195.66,98.93z"/>
			<path class="st19" d="M139.75,163.51c-1.59,0-3.31-0.08-5.11-0.24c-4.25-0.38-9.06-1.21-13.9-2.41
				c-19.85-4.92-41.21-16.14-41.21-29.14c0-7.66-1.2-13.53-2.07-17.82c-0.97-4.74-1.61-7.86-0.09-10.06
				c2.82-4.09,13.1-4.05,43.58-3.95c5.56,0.02,11.81,0.04,18.8,0.04c11.05,0,21.86,1.59,31.26,4.6c6.23-5.7,15.45-7.99,24.72-6.11h0
				c7.43,1.5,14.03,5.45,18.59,11.12c4.59,5.71,6.57,12.48,5.56,19.07c-1.91,12.51-14.09,20.82-28.37,19.42
				c-6.55,5.8-16.63,10.42-28.41,13.03C155.7,162.68,147.85,163.51,139.75,163.51z M108.95,100.92c-20.44,0-28.69,0.44-30.86,3.58
				c-1.24,1.8-0.64,4.72,0.26,9.16c0.89,4.34,2.1,10.28,2.1,18.06c0,12.42,20.98,23.27,40.48,28.1c4.8,1.19,9.56,2.02,13.77,2.39
				c1.78,0.16,3.48,0.24,5.04,0.24c8.04,0,15.83-0.82,23.17-2.45c11.73-2.59,21.73-7.19,28.16-12.95l0.14-0.13l0.18,0.02
				c13.88,1.44,25.73-6.51,27.56-18.53c0.95-6.25-0.94-12.71-5.33-18.17c-4.42-5.5-10.84-9.34-18.07-10.79
				c-9.1-1.83-18.14,0.43-24.17,6.07l-0.19,0.17l-0.23-0.07c-9.38-3.03-20.18-4.63-31.24-4.63c-7,0-13.24-0.02-18.8-0.04
				C116.55,100.93,112.56,100.92,108.95,100.92z"/>
		</g>
		<g>
			<path class="st16" d="M145.44,170.71c0,0-16.84,5.05-19.28-0.08c-4.21-8.83,11.15-18.07,11.15-18.07
				c-15.17,1.77-16.69-0.56-17.95-5.79c-2.02-8.41,11.96-12.03,11.96-12.03s-15.52,3.45-15.94-6.4c-0.39-9.16,12.29-8.18,12.29-8.18
				l51.75,2.14l36.8,82.98c0,0,7.39,41.61-11.43,11.81c0,0-2.86,28.51-13.61-1.28c0,0-9.24,17.98-12.61-9.5
				c0,0-9.41,22.09-10.08-11.3c0,0-10.59,20.8-10.08-11.3C158.41,183.71,132.64,200.08,145.44,170.71z"/>
			<path class="st19" d="M199.67,229.93c-2.53,0-5.34-4.26-8.57-12.99c-1.08,1.81-3.82,5.76-6.73,5.1
				c-2.79-0.64-4.82-5.37-6.03-14.08c-1.17,2.35-3.64,6.57-6.03,5.98c-2.5-0.63-3.88-6.26-4.22-17.2c-1.34,2.25-4.04,6.1-6.46,5.32
				c-2.58-0.83-3.78-6.55-3.67-17.47c-2.63,1.56-11.84,6.58-15.26,2.79c-2.19-2.43-1.57-7.63,1.91-15.9
				c-3.88,1.08-16.55,4.17-18.83-0.61c-0.85-1.78-1.01-3.71-0.48-5.72c1.37-5.2,7-9.75,9.97-11.85c-13.09,1.3-15.01-0.93-16.32-6.41
				c-0.43-1.77-0.22-3.48,0.61-5.07c1.47-2.82,4.63-4.78,7.29-6c-3.16,0.14-7.22-0.19-9.7-2.43c-1.37-1.24-2.12-2.94-2.21-5.04
				c-0.09-2.16,0.49-3.97,1.74-5.38c3.44-3.89,10.73-3.38,11.04-3.35l52.01,2.15l36.97,83.39c0.38,2.11,3.54,20.73-0.88,22.97
				c-2.24,1.13-5.74-2.04-10.7-9.68c-0.44,3.23-1.81,10.91-5.07,11.44C199.91,229.92,199.79,229.93,199.67,229.93z M191.25,214.64
				l0.35,0.98c4.11,11.38,6.78,13.48,8.29,13.24c2.72-0.44,4.13-8.68,4.44-11.81l0.14-1.35l0.69,1.1
				c6.49,10.28,9.21,10.92,10.26,10.39c3.16-1.6,1.34-16.15,0.36-21.72l-36.65-82.63l-51.48-2.13c-0.09-0.01-7.2-0.51-10.35,3.05
				c-1.05,1.19-1.54,2.73-1.46,4.57c0.08,1.81,0.68,3.2,1.86,4.26c4.09,3.69,13.44,1.67,13.54,1.65l0.19,1.04
				c-0.09,0.02-8.58,2.28-11.1,7.13c-0.7,1.35-0.87,2.74-0.51,4.24c1.17,4.89,2.41,7.16,17.46,5.4l2.38-0.28l-2.12,1.27
				c-0.1,0.06-9.65,5.87-11.37,12.44c-0.45,1.73-0.32,3.38,0.41,4.9c1.87,3.91,14.18,1.2,18.76-0.18l0.98-0.29l-0.46,1.04
				c-3.56,8.16-4.43,13.58-2.53,15.69c2.85,3.16,11.7-1.37,14.87-3.38l0.7-0.44l-0.01,0.92c-0.22,14.16,1.78,16.93,2.99,17.33
				c2.13,0.7,5.22-4.31,6.23-6.3l0.82-1.61l0.04,1.87c0.3,14.88,2.35,17.61,3.54,17.91c2.04,0.5,4.79-4.76,5.67-6.83l0.66-1.55
				l0.21,1.71c1.4,11.48,3.77,14.37,5.51,14.77c3.04,0.7,6.21-5.4,6.24-5.46L191.25,214.64z"/>
		</g>
		<g>
			<path class="st16" d="M90.22,110.79L29.89,60.52c0,0-29.22-9.72-10.03,8.18c0,0-21.04-0.25-0.81,11.12c0,0-14.22,5.86,5.28,11.05
				c0,0-17.22,5.63,6.91,9.17c0,0-16.44,6.69,6.91,9.17c0,0-11.86,15.16,1.29,13.31c-10.72,7.33,8.18,10.64,8.18,10.64
				c-15.62,17.39,1.09,11.4,1.09,11.4c-15.48,18.7,1.09,11.4,1.09,11.4c-10.94,16.83,3.56,11.7,3.56,11.7
				c-7.3,21.91,8.13,7.7,8.13,7.7c-2.12,26.05,12.97-0.62,12.97-0.62L90.22,110.79z"/>
		</g>
		<g>
			<path class="st17" d="M218.63,131.91l20.27-4.24l-20.18-8.54C214.98,125.57,218.63,131.91,218.63,131.91z"/>
		</g>
		<g>
			<ellipse class="st21" cx="211.78" cy="119.13" rx="2.73" ry="2.36"/>
		</g>
		<g>
			<path class="st17" d="M88.89,111.41L47.11,76.6c0,0-20.24-6.73-6.94,5.67c0,0-14.57-0.17-0.56,7.7c0,0-9.85,4.06,3.66,7.65
				c0,0-11.93,3.9,4.78,6.35c0,0-11.38,4.64,4.78,6.35c0,0-8.21,10.5,0.89,9.22c-7.42,5.08,5.66,7.37,5.66,7.37
				c-10.82,12.04,0.75,7.89,0.75,7.89c-10.72,12.95,0.75,7.89,0.75,7.89c-7.58,11.66,2.47,8.11,2.47,8.11
				c-5.05,15.17,5.63,5.34,5.63,5.34c-1.47,18.04,8.98-0.43,8.98-0.43L88.89,111.41z"/>
		</g>
		<g>
			<path class="st17" d="M157.19,154.29c0,0-10.81,3.24-12.38-0.05c-2.71-5.67,7.16-11.6,7.16-11.6c-9.74,1.14-10.72-0.36-11.52-3.72
				c-1.3-5.4,7.68-7.72,7.68-7.72s-9.97,2.22-10.24-4.11c-0.25-5.88,7.89-5.25,7.89-5.25l33.23,1.37l23.63,53.29
				c0,0,4.75,26.72-7.34,7.59c0,0-1.83,18.31-8.74-0.82c0,0-5.94,11.55-8.09-6.1c0,0-6.04,14.18-6.48-7.26c0,0-6.8,13.36-6.48-7.26
				C165.51,162.64,148.97,173.15,157.19,154.29z"/>
		</g>
		<g>
			<path class="st17" d="M206.84,111.85c0,0,10.79-6.53,7.71-18.1s-7.71-6.31-7.71-6.31s-3.14,5.5-6.1,3.16
				c-2.94-2.32-9.27-2.55-11.38,0.73c-1.92,2.98-5,5.06-6.82,4.01c-1.81-1.05-7.65-2.66-10.39,3.72c-2.73,6.38,0.55,9.98,0.55,9.98
				s3.77,1.95,7.28,0c3.51-1.95,5.83-3.99,8.97-3.9c6.99,0.19,12.62,6.73,12.62,6.73S204.1,114.02,206.84,111.85z"/>
		</g>
		<g>
			<path class="st18" d="M88.9,111.41L60.11,87.41c0,0-13.95-4.64-4.79,3.9c0,0-10.04-0.12-0.39,5.31c0,0-6.79,2.8,2.52,5.27
				c0,0-8.22,2.69,3.3,4.38c0,0-7.85,3.2,3.3,4.38c0,0-5.66,7.24,0.61,6.35c-5.12,3.5,3.9,5.08,3.9,5.08
				c-7.46,8.3,0.52,5.44,0.52,5.44c-7.39,8.93,0.52,5.44,0.52,5.44c-5.22,8.04,1.7,5.59,1.7,5.59c-3.48,10.46,3.88,3.68,3.88,3.68
				c-1.01,12.44,6.19-0.3,6.19-0.3L88.9,111.41z"/>
		</g>
		<g>
			<path class="st18" d="M162.45,146.79c0,0-8.31,2.49-9.52-0.04c-2.08-4.36,5.51-8.92,5.51-8.92c-7.49,0.88-8.24-0.28-8.86-2.86
				c-1-4.15,5.9-5.94,5.9-5.94s-7.66,1.7-7.87-3.16c-0.19-4.52,6.07-4.04,6.07-4.04l25.55,1.06l18.17,40.97c0,0,3.65,20.54-5.64,5.83
				c0,0-1.41,14.08-6.72-0.63c0,0-4.56,8.88-6.22-4.69c0,0-4.65,10.91-4.98-5.58c0,0-5.23,10.27-4.98-5.58
				C168.85,153.21,156.13,161.29,162.45,146.79z"/>
		</g>
	</g>
	<g class="object__plus3">
		<polygon class="st11" points="45.41,33.73 45.41,44.83 34.31,44.83 34.31,48.53 45.41,48.53 45.41,59.62 49.11,59.62 49.11,48.53 
			60.21,48.53 60.21,44.83 49.11,44.83 49.11,33.73 	"/>
		<g>
			<radialGradient id="SVGID_1_" cx="43.6201" cy="43.6201" r="43.6201" gradientUnits="userSpaceOnUse">
				<stop  offset="0" style="stop-color:#000000"/>
				<stop  offset="0.9987" style="stop-color:#000000;stop-opacity:0"/>
			</radialGradient>
			<circle class="st9" cx="43.62" cy="43.62" r="43.62"/>
			<circle class="st10" cx="43.62" cy="43.62" r="36.99"/>
			<polygon class="st11" points="41.77,30.67 41.77,41.77 30.67,41.77 30.67,45.47 41.77,45.47 41.77,56.57 45.47,56.57 45.47,45.47 
				56.57,45.47 56.57,41.77 45.47,41.77 45.47,30.67 		"/>
		</g>
	</g>
</g>
</svg>
