<svg class="m-story__object m-story__object4" version="1.1" id="Laag_1" xmlns="http://www.w3.org/2000/svg" xmlns:xlink="http://www.w3.org/1999/xlink" x="0px" y="0px"
	 viewBox="0 0 219.01 282.81" style="enable-background:new 0 0 219.01 282.81;" xml:space="preserve">
<style type="text/css">
	.st0{fill:#3D4B59;}
	.st1{fill:#1D2B39;}
	.st2{fill:#4E5B69;}
	.st3{fill:#2C3A49;}
	.st4{fill:#9C6D4F;}
	.st5{fill:#7E4E2F;}
	.st6{fill:#8C5D3F;}
	.st7{fill:#6E3D21;}
	.st8{fill:#E7E6E6;}
	.st9{fill:url(#SVGID_1_);}
	.st10{fill:#FFFFFF;}
	.st11{fill-rule:evenodd;clip-rule:evenodd;}
	.st12{fill:#F2F2F2;}
	.st13{fill:#DFDFDF;}
	.st14{fill:#32358C;}
	.st15{fill:url(#SVGID_2_);}
	.st16{fill-rule:evenodd;clip-rule:evenodd;fill:#234D64;}
	.st17{fill-rule:evenodd;clip-rule:evenodd;fill:#F8AB18;}
	.st18{fill-rule:evenodd;clip-rule:evenodd;fill:#398AB1;}
	.st19{fill:#234D64;}
	.st20{fill-rule:evenodd;clip-rule:evenodd;fill:#1B1B1B;}
	.st21{fill-rule:evenodd;clip-rule:evenodd;fill:#020203;}
	.st22{fill:url(#SVGID_3_);}
	.st23{fill-rule:evenodd;clip-rule:evenodd;fill:#B6181D;}
	.st24{fill-rule:evenodd;clip-rule:evenodd;fill:#B4B4B4;}
	.st25{fill-rule:evenodd;clip-rule:evenodd;fill:#CDA442;}
	.st26{fill:url(#SVGID_4_);}
	.st27{fill:#9B9B9A;}
	.st28{fill:#B579B2;}
	.st29{fill:#AB6EAC;}
	.st30{fill:#F8AB18;}
	.st31{fill:#F28C00;}
	.st32{fill:#62B22F;}
	.st33{fill:#54AF32;}
	.st34{fill:#57C0D3;}
	.st35{fill:#36B2BB;}
	.st36{fill:#E83E5D;}
	.st37{fill:#E72E55;}
	.st38{fill:url(#SVGID_5_);}
	.st39{fill:#F7E700;}
	.st40{fill:url(#SVGID_6_);}
	.st41{fill:url(#SVGID_7_);}
	.st42{fill:url(#SVGID_8_);}
	.st43{fill:#4D4230;}
	.st44{fill:#5F4A2F;}
	.st45{fill:url(#SVGID_9_);}
	.st46{fill:url(#SVGID_10_);}
</style>
<g class="object object4">
	<g class="object__object4">
		<g>
			<path class="st20" d="M8.68,216.65c0,0,49.22,24.64,88.28,28.05c64.55,46.88,63.3,36.64,63.3,36.64s-5.11-30.28-19.89-41.6
				c-2.79-2.14,49.5-92.6,59.88-99.52c10.38-6.92,9.36-27.6-2.08-34.3C186.73,99.24,80.72,58.05,80.72,58.05S49.49,44.3,46.5,72.48
				S21.43,185.82,8.68,216.65z"/>
		</g>
		<g>
			<circle class="st23" cx="199.9" cy="115.08" r="19.1"/>
		</g>
		<g>
			<path class="st10" d="M58.4,227.68l-0.28-2.52c0.74-0.08,74.21-9.07,133.53-93.12l2.07,1.46c-31.35,44.42-66.43,67.65-90.34,79.32
				C77.43,225.49,59.16,227.6,58.4,227.68z"/>
		</g>
		<g>
			<circle class="st24" cx="59.19" cy="226.8" r="7.01"/>
		</g>
		<g>
			<path class="st25" d="M140.37,239.75c0,0-28.3-5.01-34.79-1.6c-6.49,3.41,14.96-18.82,21.61-19.03c6.65-0.21,1.48-6.32,1.48-6.32
				s-3.87-9.26,19.91-14.85c9.81-2.3,24.01-18.19,24.01-18.19S143.44,226.91,140.37,239.75z"/>
		</g>
	</g>
	<g class="object__plus4">
		<radialGradient id="SVGID_1_" cx="43.6201" cy="43.6201" r="43.6201" gradientUnits="userSpaceOnUse">
			<stop  offset="0" style="stop-color:#000000"/>
			<stop  offset="0.9987" style="stop-color:#000000;stop-opacity:0"/>
		</radialGradient>
		<circle class="st9" cx="43.62" cy="43.62" r="43.62"/>
		<circle class="st10" cx="43.62" cy="43.62" r="36.99"/>
		<polygon class="st11" points="41.77,30.67 41.77,41.77 30.67,41.77 30.67,45.47 41.77,45.47 41.77,56.57 45.47,56.57 45.47,45.47 
			56.57,45.47 56.57,41.77 45.47,41.77 45.47,30.67 	"/>
	</g>
</g>
</svg>
