<svg class="m-story__object m-story__object5" version="1.1" id="Laag_1" xmlns="http://www.w3.org/2000/svg" xmlns:xlink="http://www.w3.org/1999/xlink" x="0px" y="0px"
	 viewBox="0 0 96.19 521.42" style="enable-background:new 0 0 96.19 521.42;" xml:space="preserve">
<style type="text/css">
	.st0{fill:#3D4B59;}
	.st1{fill:#1D2B39;}
	.st2{fill:#4E5B69;}
	.st3{fill:#2C3A49;}
	.st4{fill:#9C6D4F;}
	.st5{fill:#7E4E2F;}
	.st6{fill:#8C5D3F;}
	.st7{fill:#6E3D21;}
	.st8{fill:#E7E6E6;}
	.st9{fill:url(#SVGID_1_);}
	.st10{fill:#FFFFFF;}
	.st11{fill-rule:evenodd;clip-rule:evenodd;}
	.st12{fill:#F2F2F2;}
	.st13{fill:#DFDFDF;}
	.st14{fill:#32358C;}
	.st15{fill:url(#SVGID_2_);}
	.st16{fill-rule:evenodd;clip-rule:evenodd;fill:#234D64;}
	.st17{fill-rule:evenodd;clip-rule:evenodd;fill:#F8AB18;}
	.st18{fill-rule:evenodd;clip-rule:evenodd;fill:#398AB1;}
	.st19{fill:#234D64;}
	.st20{fill-rule:evenodd;clip-rule:evenodd;fill:#1B1B1B;}
	.st21{fill-rule:evenodd;clip-rule:evenodd;fill:#020203;}
	.st22{fill:url(#SVGID_3_);}
	.st23{fill-rule:evenodd;clip-rule:evenodd;fill:#B6181D;}
	.st24{fill-rule:evenodd;clip-rule:evenodd;fill:#B4B4B4;}
	.st25{fill-rule:evenodd;clip-rule:evenodd;fill:#CDA442;}
	.st26{fill:url(#SVGID_4_);}
	.st27{fill:#9B9B9A;}
	.st28{fill:#B579B2;}
	.st29{fill:#AB6EAC;}
	.st30{fill:#F8AB18;}
	.st31{fill:#F28C00;}
	.st32{fill:#62B22F;}
	.st33{fill:#54AF32;}
	.st34{fill:#57C0D3;}
	.st35{fill:#36B2BB;}
	.st36{fill:#E83E5D;}
	.st37{fill:#E72E55;}
	.st38{fill:url(#SVGID_5_);}
	.st39{fill:#F7E700;}
	.st40{fill:url(#SVGID_6_);}
	.st41{fill:url(#SVGID_7_);}
	.st42{fill:url(#SVGID_8_);}
	.st43{fill:#4D4230;}
	.st44{fill:#5F4A2F;}
	.st45{fill:url(#SVGID_9_);}
	.st46{fill:url(#SVGID_10_);}
</style>
<g class="object object5">
	<g class="object__object5">
		<g>
			<path class="st0" d="M4,314.84c1.32,0,2.39,1.07,2.39,2.39v34.12c0,1.32-1.07,2.39-2.39,2.39l0,0c-1.32,0-2.39-1.07-2.39-2.39
				v-34.12C1.62,315.91,2.68,314.84,4,314.84L4,314.84z"/>
		</g>
		<g>
			<path class="st1" d="M15.99,384.74c0.35,0,0.64,0.29,0.64,0.64v7.07c0,0.36-0.29,0.64-0.64,0.64l-6.26-7.71
				c0-0.35,0.29-0.64,0.64-0.64H15.99z"/>
		</g>
		<g>
			<g>
				<path class="st1" d="M8.82,379.34c0.02-1.46,1.22-2.63,2.69-2.61l0.88,0.01c1.46,0.02,2.63,1.22,2.61,2.68l0,0
					c-0.02,1.46-1.22,2.64-2.69,2.62l-0.88-0.02C9.97,382.01,8.8,380.81,8.82,379.34L8.82,379.34z"/>
			</g>
			<g>
				<path class="st1" d="M10.69,371.42c0.01-0.73,0.61-1.32,1.34-1.31l0,0c0.73,0.01,1.32,0.61,1.31,1.34l-0.08,6.62
					c-0.01,0.73-0.61,1.32-1.34,1.3l0,0c-0.73-0.01-1.32-0.61-1.31-1.34L10.69,371.42z"/>
			</g>
		</g>
		<g>
			<path class="st1" d="M34.53,364.21c0.84,0.84,0.84,2.2,0,3.04l0,0c-0.84,0.84-2.2,0.84-3.04,0l-6.75-6.75
				c-0.84-0.84-0.84-2.2,0-3.03l0,0c0.84-0.84,2.2-0.84,3.03,0L34.53,364.21z"/>
		</g>
		<g>
			<g>
				<path class="st1" d="M38.87,355.16v17.66c0,2.37-1.92,4.29-4.29,4.29h-8.98c-2.37,0-4.29-1.93-4.29-4.29v-17.66
					c0-2.37,1.93-4.29,4.29-4.29h8.98C36.94,350.87,38.87,352.79,38.87,355.16z M24.16,372.82c0,0.79,0.64,1.43,1.43,1.43h8.98
					c0.79,0,1.43-0.64,1.43-1.43v-17.66c0-0.79-0.64-1.43-1.43-1.43h-8.98c-0.79,0-1.43,0.64-1.43,1.43V372.82z"/>
			</g>
		</g>
		<g>
			<path class="st2" d="M7.59,1.3h3.82c0.07,0,0.13,0,0.18,0.04c0.13,0,0.26,0.04,0.39,0.12c1.3,0.71,2.29,3.77,2.29,7.38V338.3
				c0,4.14-1.29,7.53-2.86,7.53H7.59c-1.57,0-2.86-3.39-2.86-7.53V5.17C4.73,1.04,6.01,1.3,7.59,1.3z"/>
		</g>
		<g>
			<path class="st3" d="M11.6,1.34c0.13,0,0.26,0.04,0.39,0.12c1.3,0.71,2.29,0.11,2.29,3.72v323.41c-0.22,0.68-0.7,1.14-1.27,1.14
				c-0.77,0-1.41-0.87-1.41-1.92V1.34z"/>
		</g>
		<g>
			<path class="st4" d="M21.82,13.86c2.44,0,4.43,5.59,4.43,12.48l2.57,324.74c0,6.9-1.99,12.5-4.44,12.5H13.3
				c-2.45,0-4.43-5.6-4.43-12.5V26.34c0-6.88,1.99-12.48,4.43-12.48H21.82z"/>
		</g>
		<g>
			<path class="st4" d="M18.28,390.2h12.41c1.57,0,2.86,1.28,2.86,2.86l0.82,4.81l20.17,117.86l0.49,2.82c0,1.59-1.29,2.86-2.86,2.86
				H12.55c-1.59,0-2.86-1.28-2.86-2.86l0.13-2.82l5.6-122.67C15.42,391.47,16.69,390.2,18.28,390.2z"/>
		</g>
		<g>
			<path class="st3" d="M3.19,13.85c1.77,0,3.2,0.87,3.2,1.94v6.48c0,1.07-1.43,1.93-3.2,1.93l0,0C1.43,24.2,0,23.34,0,22.27l0-6.48
				C0,14.72,1.43,13.85,3.19,13.85L3.19,13.85z"/>
		</g>
		<g>
			<path class="st5" d="M32.95,397.87h1.42l20.17,117.86l0.49,2.82c0,1.59-1.29,2.86-2.86,2.86H30.09V400.74
				C30.09,399.14,31.36,397.87,32.95,397.87z"/>
		</g>
		<g>
			<path class="st6" d="M9.82,515.73h44.72l0.49,2.82c0,1.59-1.29,2.86-2.86,2.86H12.55c-1.59,0-2.86-1.28-2.86-2.86L9.82,515.73z"/>
		</g>
		<g>
			<path class="st7" d="M30.09,515.73h24.45l0.49,2.82c0,1.59-1.29,2.86-2.86,2.86H30.09V515.73z"/>
		</g>
		<g>
			<path class="st5" d="M8.79,350.99l14.33,2.95l4.23,0.87c1.27,0.27,2.16,1.39,2.16,2.65c0,0.18-0.01,0.37-0.06,0.54
				c0,0.03-0.77,4.04-0.77,9.51c0,5.95,0.93,14.39,5.37,20.79c3.68,5.31,9.39,8.53,17.44,9.82c0.87,0.14,1.62,0.7,2,1.49
				c0.19,0.37,0.27,0.79,0.27,1.19c0,0.44-0.11,0.89-0.33,1.29l-1.3,2.41l-10.39,19.07c-0.54,1-1.68,1.56-2.81,1.38
				c-19.04-3.08-24.07-20.24-24.07-32.31c0-19.03-7.72-26.48-8.79-34.31c-0.4-2.86-0.54-3.88-0.54-4.53c0-0.25,0.03-0.47,0.07-0.69
				C5.89,351.63,7.33,350.69,8.79,350.99z"/>
		</g>
		<g>
			<path class="st6" d="M8.79,350.99l14.33,2.95c-0.3,1.98-0.78,5.98-0.78,10.92c0,7.69,1.2,18.6,6.93,26.86
				c4.75,6.87,12.12,11.01,22.53,12.7c0.11,0.01,0.22,0.04,0.33,0.07l-10.39,19.07c-0.54,1-1.68,1.56-2.81,1.38
				c-19.04-3.08-24.07-20.24-24.07-32.31c0-19.03-7.72-26.48-8.79-34.31c-0.4-2.86-0.54-3.88-0.54-4.53c0-0.25,0.03-0.47,0.07-0.69
				C5.89,351.63,7.33,350.69,8.79,350.99z"/>
		</g>
		<g>
			<path class="st5" d="M21.3,344.78c0.73,0,1.31,0.59,1.31,1.31s-0.59,1.31-1.31,1.31c-0.72,0-1.31-0.59-1.31-1.31
				S20.57,344.78,21.3,344.78z"/>
		</g>
	</g>
	<g class="object__plus5">
		<radialGradient id="SVGID_1_" cx="52.566" cy="43.6201" r="43.6201" gradientUnits="userSpaceOnUse">
			<stop  offset="0" style="stop-color:#000000"/>
			<stop  offset="0.9987" style="stop-color:#000000;stop-opacity:0"/>
		</radialGradient>
		<circle class="st9" cx="52.57" cy="43.62" r="43.62"/>
		<circle class="st10" cx="52.57" cy="43.62" r="36.99"/>
		<polygon class="st11" points="50.72,30.67 50.72,41.77 39.62,41.77 39.62,45.47 50.72,45.47 50.72,56.57 54.42,56.57 54.42,45.47 
			65.51,45.47 65.51,41.77 54.42,41.77 54.42,30.67 	"/>
	</g>
</g>
</svg>
