<svg class="m-story__object m-story__object6" version="1.1" id="Laag_1" xmlns="http://www.w3.org/2000/svg" xmlns:xlink="http://www.w3.org/1999/xlink" x="0px" y="0px"
	 viewBox="0 0 274.97 457.82" style="enable-background:new 0 0 274.97 457.82;" xml:space="preserve">
<style type="text/css">
	.st0{fill:#3D4B59;}
	.st1{fill:#1D2B39;}
	.st2{fill:#4E5B69;}
	.st3{fill:#2C3A49;}
	.st4{fill:#9C6D4F;}
	.st5{fill:#7E4E2F;}
	.st6{fill:#8C5D3F;}
	.st7{fill:#6E3D21;}
	.st8{fill:#E7E6E6;}
	.st9{fill:url(#SVGID_1_);}
	.st10{fill:#FFFFFF;}
	.st11{fill-rule:evenodd;clip-rule:evenodd;}
	.st12{fill:#F2F2F2;}
	.st13{fill:#DFDFDF;}
	.st14{fill:#32358C;}
	.st15{fill:url(#SVGID_2_);}
	.st16{fill-rule:evenodd;clip-rule:evenodd;fill:#234D64;}
	.st17{fill-rule:evenodd;clip-rule:evenodd;fill:#F8AB18;}
	.st18{fill-rule:evenodd;clip-rule:evenodd;fill:#398AB1;}
	.st19{fill:#234D64;}
	.st20{fill-rule:evenodd;clip-rule:evenodd;fill:#1B1B1B;}
	.st21{fill-rule:evenodd;clip-rule:evenodd;fill:#020203;}
	.st22{fill:url(#SVGID_3_);}
	.st23{fill-rule:evenodd;clip-rule:evenodd;fill:#B6181D;}
	.st24{fill-rule:evenodd;clip-rule:evenodd;fill:#B4B4B4;}
	.st25{fill-rule:evenodd;clip-rule:evenodd;fill:#CDA442;}
	.st26{fill:url(#SVGID_4_);}
	.st27{fill:#9B9B9A;}
	.st28{fill:#B579B2;}
	.st29{fill:#AB6EAC;}
	.st30{fill:#F8AB18;}
	.st31{fill:#F28C00;}
	.st32{fill:#62B22F;}
	.st33{fill:#54AF32;}
	.st34{fill:#57C0D3;}
	.st35{fill:#36B2BB;}
	.st36{fill:#E83E5D;}
	.st37{fill:#E72E55;}
	.st38{fill:url(#SVGID_5_);}
	.st39{fill:#F7E700;}
	.st40{fill:url(#SVGID_6_);}
	.st41{fill:url(#SVGID_7_);}
	.st42{fill:url(#SVGID_8_);}
	.st43{fill:#4D4230;}
	.st44{fill:#5F4A2F;}
	.st45{fill:url(#SVGID_9_);}
	.st46{fill:url(#SVGID_10_);}
</style>
<g class="object object6">
	<g class="object__object6">
		<g>
			<g>
				<path class="st27" d="M118.97,349.88c-1.02-7.38,4.62-16.69,11.74-28.49c13.71-22.67,32.47-53.71,11.7-89.17
					c-31.38-53.55-31.76-108.62-31.76-109.17h2.46c0,0.54,0.39,54.97,31.42,107.93c21.51,36.71,2.3,68.49-11.72,91.68
					c-6.6,10.93-12.31,20.36-11.41,26.88L118.97,349.88z"/>
			</g>
			<g>
				<g>
					<g>
						<g>
							<path class="st28" d="M107.95,128.84c0,0,3.86,1.1,1.65,3.84c-2.22,2.73-9.84,5.41-5.89,7.53c3.95,2.11,16.62,1.35,19.62-2.87
								c0.79-1.49-3.15-2.3-6.41-3.6c-3.27-1.29-1.77-4.58,0.11-5.64C117.66,127.75,107.95,128.84,107.95,128.84z"/>
						</g>
						<g>
							<path class="st29" d="M116.92,133.73c-3.27-1.29-1.77-4.58,0.11-5.64c0.63-0.35-9.08,0.75-9.08,0.75s2.56,0.73,2.31,2.48
								c1.32,3.15,10.33,2.5,6.52,7.45c-1.69,1.67-3.81,2.18-5.83,2.56c4.92-0.09,10.52-1.38,12.39-4.01
								C124.12,135.84,120.18,135.03,116.92,133.73z"/>
						</g>
					</g>
					<g>
						<g>
							<path class="st28" d="M154.07,53.15c3.21,38.25-21.87,74.58-41.29,76.21c-19.43,1.63-50.25-30.63-53.41-68.27
								C57.18,34.94,76.6,11.96,102.75,9.77C128.9,7.58,151.88,27,154.07,53.15z"/>
						</g>
						<g>
							<path class="st29" d="M102.75,9.77c-6.74,0.57-13.03,2.52-18.63,5.55c3.75-1.32,7.71-2.19,11.85-2.54
								c26.15-2.19,44.73,19.43,46.92,45.58c2.65,31.66-11.06,60.49-26.89,70.4c18.85-5.03,41.09-39.46,38.06-75.62
								C151.88,27,128.9,7.58,102.75,9.77z"/>
						</g>
					</g>
				</g>
				<g>
					<path class="st27" d="M110.89,132.74c-1.87-0.23-2.73-0.67-2.85-1.45c-0.15-0.92,0.89-1.4,1.23-1.56l0.22-0.1l0.52,0.07
						c0.79,0.1,3.51,0.38,5.29-0.11l0.38-0.03c0.67,0.08,1.2,0.78,1.17,1.52c-0.02,0.51-0.36,1.72-2.96,1.78
						C112.86,132.89,111.79,132.85,110.89,132.74z"/>
				</g>
			</g>
		</g>
		<g>
			<g>
				<path class="st27" d="M110.58,424.65c-4.93-24.46-19.05-46.57-31.5-66.03c-3.68-5.77-7.17-11.21-10.35-16.57
					C46.1,303.92,54.42,280.13,54.5,279.9l-2.31-0.86c-0.37,1-8.87,25.03,14.42,64.27c3.2,5.39,6.69,10.85,10.39,16.64
					c12.54,19.61,25.97,40.64,31.02,63.59C108.96,423.65,109.85,424.02,110.58,424.65z"/>
			</g>
			<g>
				<g>
					<g>
						<g>
							<path class="st30" d="M49.28,272.87c0,0,3.68,1.69,1.06,4.07c-2.62,2.39-10.63,3.91-7.01,6.61
								c3.62,2.71,16.37,3.87,20.01,0.11c1.02-1.37-2.79-2.78-5.85-4.56c-3.06-1.78-1.07-4.83,0.96-5.6
								C59.13,273.24,49.28,272.87,49.28,272.87z"/>
						</g>
						<g>
							<path class="st31" d="M57.48,279.1c-3.06-1.78-1.07-4.83,0.96-5.6c0.68-0.26-9.17-0.63-9.17-0.63s2.44,1.12,1.93,2.83
								c0.84,3.34,9.93,4.05,5.37,8.42c-1.94,1.41-4.14,1.6-6.21,1.67c4.92,0.66,10.7,0.22,12.96-2.11
								C64.35,282.3,60.55,280.88,57.48,279.1z"/>
						</g>
					</g>
					<g>
						<g>
							<path class="st30" d="M106.74,204.35c-2.59,38.63-33.1,71.08-52.72,69.76c-19.62-1.32-45.49-38.16-42.94-76.18
								c1.77-26.41,24.62-46.39,51.04-44.62C88.53,155.08,108.51,177.93,106.74,204.35z"/>
						</g>
						<g>
							<path class="st31" d="M62.12,153.31c-6.81-0.46-13.38,0.54-19.42,2.71c3.93-0.75,8.02-1.02,12.2-0.74
								c26.41,1.77,41.67,26.15,39.9,52.57c-2.14,31.98-20.19,58.66-37.47,66.15c19.57-2.17,46.96-33.15,49.41-69.66
								C108.51,177.93,88.53,155.08,62.12,153.31z"/>
						</g>
					</g>
				</g>
				<g>
					<path class="st27" d="M54.64,277.15l-0.01,0c-1.25-0.15-5.32-0.77-5.44-2.23c-0.07-0.86,0.99-1.17,1.34-1.27l0.18-0.05
						l0.18,0.05c0.02,0.01,1.67,0.51,3.43,0.73c0.87,0.11,1.61,0.12,2.21,0.05l0.19,0c0.59,0.07,1.04,0.73,0.96,1.42
						c-0.06,0.49-0.39,0.9-0.91,1.13C56.25,277.21,55.53,277.26,54.64,277.15z M50.67,274.9c0.64,0.33,2.19,0.79,4.11,1.03
						l-0.07,0.61l0.07-0.61c1.2,0.15,1.6-0.1,1.65-0.2c0.01-0.02,0.01-0.04,0.01-0.06c-0.59,0.06-1.39,0.04-2.29-0.07
						c-1.53-0.19-2.95-0.57-3.45-0.72C50.69,274.89,50.68,274.9,50.67,274.9z"/>
				</g>
			</g>
		</g>
		<g>
			<g>
				<path class="st27" d="M51.85,411.65l-1.96-1.49c0.28-0.37,28.04-37.64,11.52-75.3c-19.56-44.57,15.79-75.98,48.78-98.36
					c41.01-27.83,62.24-65.13,62.45-65.5l2.14,1.2c-0.21,0.38-21.73,38.19-63.21,66.34c-47.83,32.45-62.6,61.85-47.91,95.34
					C80.78,372.87,52.15,411.27,51.85,411.65z"/>
			</g>
			<g>
				<g>
					<g>
						<g>
							<path class="st32" d="M168.47,171.75c0,0,2.8,2.79-0.41,4.08c-3.21,1.29-11.04-0.04-8.65,3.66c2.38,3.7,13.65,9.1,18.25,6.89
								c1.39-0.91-1.61-3.49-3.8-6.16c-2.19-2.67,0.67-4.78,2.79-4.79C177.35,175.43,168.47,171.75,168.47,171.75z"/>
						</g>
						<g>
							<path class="st33" d="M173.86,180.23c-2.19-2.67,0.67-4.78,2.79-4.79c0.7-0.01-8.17-3.69-8.17-3.69s1.86,1.85,0.81,3.24
								c-0.37,3.34,7.69,7.07,2.05,9.52c-2.25,0.63-4.32,0.05-6.24-0.58c4.28,2.27,9.71,3.83,12.57,2.47
								C179.05,185.48,176.06,182.9,173.86,180.23z"/>
						</g>
					</g>
					<g>
						<g>
							<path class="st32" d="M244.26,128.63c-15.48,34.43-54.38,53.72-71.87,45.86c-17.49-7.87-28.61-50.32-13.38-84.2
								c10.59-23.54,38.25-34.04,61.79-23.45C244.34,77.43,254.84,105.09,244.26,128.63z"/>
						</g>
						<g>
							<path class="st33" d="M220.8,66.84c-6.07-2.73-12.41-4.05-18.67-4.11c3.85,0.65,7.68,1.79,11.4,3.47
								c23.54,10.59,29.21,38.05,18.62,61.59c-12.82,28.5-38.36,46.75-56.7,47.74c18.62,4.66,54.17-14.34,68.8-46.89
								C254.84,105.09,244.34,77.43,220.8,66.84z"/>
						</g>
					</g>
				</g>
				<g>
					<path class="st27" d="M173.69,178.93c-0.47-0.06-1.02-0.25-1.64-0.57c-1.42-0.74-4.68-2.61-4.28-4.03
						c0.17-0.6,0.78-0.87,1.79-0.8l0.22,0.02l0.18,0.13c0.03,0.02,2.74,2.09,4.84,2.6c0.59,0.17,0.92,0.83,0.79,1.5
						C175.45,178.4,174.88,179.08,173.69,178.93z"/>
				</g>
			</g>
		</g>
		<g>
			<g>
				<path class="st27" d="M199.19,287.94l-2.08-1.32c-0.21,0.32-20.67,33.1-10.12,73.45c5.14,19.69-0.37,40.55-9.8,59.44
					c0.72,0.64,1.25,1.48,1.46,2.48c10.08-19.72,16.16-41.71,10.72-62.55C179.11,320.16,198.99,288.26,199.19,287.94z"/>
			</g>
			<g>
				<g>
					<g>
						<g>
							<path class="st34" d="M195.67,281.02c0,0,2.4,2.81-0.69,3.78c-3.09,0.97-10.3-0.84-8.35,2.79c1.96,3.63,12.08,9.49,16.53,7.78
								c1.37-0.74-1.24-3.38-3.1-6.03c-1.85-2.65,0.97-4.41,2.95-4.27C203.68,285.11,195.67,281.02,195.67,281.02z"/>
						</g>
						<g>
							<path class="st35" d="M200.07,289.34c-1.85-2.65,0.97-4.41,2.95-4.27c0.66,0.05-7.35-4.04-7.35-4.04s1.6,1.86,0.51,3.08
								c-0.59,3.09,6.67,7.17,1.22,9.04c-2.15,0.42-4.04-0.27-5.78-1c3.82,2.43,8.78,4.29,11.55,3.23
								C204.54,294.62,201.93,291.99,200.07,289.34z"/>
						</g>
					</g>
					<g>
						<g>
							<path class="st34" d="M269.58,246.33c-16.98,31-54.71,46.16-70.46,37.54c-15.75-8.62-23.02-49.07-6.31-79.58
								c11.61-21.19,38.21-28.97,59.41-17.36C273.42,198.54,281.19,225.13,269.58,246.33z"/>
						</g>
						<g>
							<path class="st35" d="M252.22,186.92c-5.47-2.99-11.3-4.69-17.13-5.21c3.54,0.89,7.03,2.24,10.38,4.08
								c21.2,11.61,24.48,37.66,12.87,58.87c-14.06,25.66-39.25,40.83-56.44,40.4c17.04,5.72,51.63-9.42,67.68-38.72
								C281.19,225.13,273.42,198.54,252.22,186.92z"/>
						</g>
					</g>
				</g>
				<g>
					<path class="st27" d="M199.48,288.48c-0.48-0.06-1.03-0.29-1.66-0.68c-1.25-0.78-4.12-2.74-3.67-3.98
						c0.18-0.5,0.69-0.71,1.53-0.6l0.31,0.04l0.13,0.12c0.03,0.02,2.42,2.16,4.36,2.8c0.49,0.18,0.73,0.75,0.59,1.32
						C200.95,288.03,200.45,288.6,199.48,288.48z M195.95,284.84c0.55,0.53,1.44,1.24,2.53,1.92c0.84,0.52,1.21,0.52,1.34,0.49
						C198.36,286.7,196.8,285.53,195.95,284.84z"/>
				</g>
			</g>
		</g>
		<g>
			<g>
				<path class="st27" d="M117.13,457.82c0.71-0.58,1.6-0.93,2.54-1.04c1.55-17.58,0.51-37.01-4.93-57.59
					c-17.17-64.94-4.98-84.49-4.85-84.68l-2.04-1.37c-0.54,0.8-13.02,20.34,4.51,86.68C117.86,420.59,118.81,440.18,117.13,457.82z"
					/>
			</g>
			<g>
				<g>
					<g>
						<g>
							<path class="st36" d="M107.22,306.63c0,0,3.18,2.51,0.07,4.21c-3.11,1.7-11.25,1.28-8.37,4.77
								c2.88,3.48,14.99,7.63,19.42,4.83c1.31-1.09-2.06-3.36-4.61-5.82c-2.55-2.45,0.11-4.95,2.26-5.22
								C116.7,309.32,107.22,306.63,107.22,306.63z"/>
						</g>
						<g>
							<path class="st37" d="M113.72,314.63c-2.55-2.45,0.11-4.95,2.26-5.22c0.72-0.09-8.76-2.78-8.76-2.78s2.11,1.66,1.21,3.2
								c0.03,3.45,8.69,6.29,3.23,9.45c-2.22,0.91-4.4,0.58-6.42,0.16c4.63,1.8,10.35,2.74,13.1,1.01
								C119.64,319.35,116.28,317.08,113.72,314.63z"/>
						</g>
					</g>
					<g>
						<g>
							<path class="st36" d="M179.23,253.61c-11.64,36.93-48.94,61.26-67.7,55.35c-18.76-5.91-35.19-47.82-23.74-84.16
								c7.96-25.25,34.87-39.27,60.13-31.31C173.17,201.44,187.19,228.36,179.23,253.61z"/>
						</g>
						<g>
							<path class="st37" d="M147.92,193.49c-6.51-2.05-13.13-2.63-19.51-1.95c4,0.2,8.04,0.9,12.03,2.17
								c25.25,7.96,34.32,35.25,26.36,60.5c-9.63,30.57-33.46,52.24-52.03,55.44c19.52,2.51,53.46-21.12,64.46-56.03
								C187.19,228.36,173.17,201.44,147.92,193.49z"/>
						</g>
					</g>
				</g>
				<g>
					<path class="st27" d="M112.61,312.84c-0.39-0.05-0.83-0.16-1.32-0.34c-1.17-0.45-4.99-2.01-4.76-3.45
						c0.14-0.85,1.24-0.9,1.6-0.92l0.18-0.01l0.16,0.1c0.03,0.02,3.07,1.82,5.3,2.09c0.58,0.09,0.95,0.71,0.86,1.37
						C114.53,312.32,113.95,313.01,112.61,312.84z M107.97,309.37c0.55,0.48,1.94,1.29,3.75,1.97c0.39,0.15,0.74,0.24,1.03,0.28
						c0.42,0.05,0.6-0.03,0.64-0.08c0.01-0.01,0.01-0.03,0.01-0.04c-2.14-0.33-4.71-1.74-5.4-2.13
						C108,309.37,107.98,309.37,107.97,309.37z"/>
				</g>
			</g>
		</g>
	</g>
	<g class="object__plus6">
		<radialGradient id="SVGID_1_" cx="43.6201" cy="43.6201" r="43.6201" gradientUnits="userSpaceOnUse">
			<stop  offset="0" style="stop-color:#000000"/>
			<stop  offset="0.9987" style="stop-color:#000000;stop-opacity:0"/>
		</radialGradient>
		<circle class="st9" cx="43.62" cy="43.62" r="43.62"/>
		<circle class="st10" cx="43.62" cy="43.62" r="36.99"/>
		<polygon class="st11" points="41.77,30.67 41.77,41.77 30.67,41.77 30.67,45.47 41.77,45.47 41.77,56.57 45.47,56.57 45.47,45.47 
			56.57,45.47 56.57,41.77 45.47,41.77 45.47,30.67 	"/>
	</g>
</g>
</svg>
