<svg class="m-story__object m-story__object2" version="1.1" id="Laag_1" xmlns="http://www.w3.org/2000/svg" xmlns:xlink="http://www.w3.org/1999/xlink" x="0px" y="0px"
	 viewBox="0 0 238.28 283.32" style="enable-background:new 0 0 238.28 283.32;" xml:space="preserve">
<style type="text/css">
	.st9{fill:url(#SVGID_1_);}
	.st10{fill:#FFFFFF;}
	.st11{fill-rule:evenodd;clip-rule:evenodd;}
	.st12{fill:#F2F2F2;}
	.st13{fill:#DFDFDF;}
	.st14{fill:#32358C;}
</style>
<g class="object object2">
	<g class="object__object2">
		<g>
			<path class="st12" d="M43.96,74.1L43.96,74.1v209.22h142.95c8.91,0,16.13-6.91,16.13-15.43V74.1v-1.63
				c0-9.82,8.32-17.79,18.59-17.79H64.26C53.05,54.68,43.96,63.38,43.96,74.1z"/>
			<path class="st13" d="M167.79,267.37v-29.77H9.65v29.77c0,8.81,7.46,15.94,16.66,15.94l0,0h0.03h158.11
				C175.25,283.32,167.79,276.18,167.79,267.37z"/>
			<path class="st13" d="M238.28,70.63c0-8.81-7.46-15.94-16.66-15.94c-10.27,0-18.59,7.96-18.59,17.79v1.63v25.96h35.25V70.63z"/>
		</g>
		<g>
			<g>
				<path class="st13" d="M81.66,106.11H66.65c-2.19,0-3.97-1.7-3.97-3.8V87.95c0-2.1,1.78-3.8,3.97-3.8h15.01
					c2.19,0,3.97,1.7,3.97,3.8v14.36C85.63,104.4,83.84,106.11,81.66,106.11z M66.65,86.36c-0.91,0-1.66,0.71-1.66,1.58v14.36
					c0,0.87,0.74,1.58,1.66,1.58h15.01c0.91,0,1.66-0.71,1.66-1.58V87.95c0-0.87-0.74-1.58-1.66-1.58H66.65z"/>
			</g>
			<g>
				<g>
					<polygon class="st14" points="74.48,102.78 66.42,91.25 69.5,89.28 73.83,95.47 82.78,76.24 86.16,77.68 					"/>
				</g>
			</g>
			<g>
				<path class="st13" d="M81.66,144.97H66.65c-2.19,0-3.97-1.7-3.97-3.8v-14.36c0-2.1,1.78-3.8,3.97-3.8h15.01
					c2.19,0,3.97,1.7,3.97,3.8v14.36C85.63,143.26,83.84,144.97,81.66,144.97z M66.65,125.22c-0.91,0-1.66,0.71-1.66,1.58v14.36
					c0,0.87,0.74,1.58,1.66,1.58h15.01c0.91,0,1.66-0.71,1.66-1.58v-14.36c0-0.87-0.74-1.58-1.66-1.58H66.65z"/>
			</g>
			<g>
				<g>
					<polygon class="st14" points="74.48,141.64 66.42,130.11 69.5,128.14 73.83,134.34 82.78,115.1 86.16,116.55 					"/>
				</g>
			</g>
			<g>
				<path class="st13" d="M81.66,183.83H66.65c-2.19,0-3.97-1.7-3.97-3.8v-14.36c0-2.1,1.78-3.8,3.97-3.8h15.01
					c2.19,0,3.97,1.7,3.97,3.8v14.36C85.63,182.12,83.84,183.83,81.66,183.83z M66.65,164.09c-0.91,0-1.66,0.71-1.66,1.58v14.36
					c0,0.87,0.74,1.58,1.66,1.58h15.01c0.91,0,1.66-0.71,1.66-1.58v-14.36c0-0.87-0.74-1.58-1.66-1.58H66.65z"/>
			</g>
			<g>
				<g>
					<polygon class="st14" points="74.48,180.5 66.42,168.98 69.5,167 73.83,173.2 82.78,153.96 86.16,155.41 					"/>
				</g>
			</g>
			<g>
				<path class="st13" d="M81.66,222.69H66.65c-2.19,0-3.97-1.7-3.97-3.8v-14.36c0-2.1,1.78-3.8,3.97-3.8h15.01
					c2.19,0,3.97,1.7,3.97,3.8v14.36C85.63,220.99,83.84,222.69,81.66,222.69z M66.65,202.95c-0.91,0-1.66,0.71-1.66,1.58v14.36
					c0,0.87,0.74,1.58,1.66,1.58h15.01c0.91,0,1.66-0.71,1.66-1.58v-14.36c0-0.87-0.74-1.58-1.66-1.58H66.65z"/>
			</g>
			<g>
				<rect x="97.05" y="213.71" class="st13" width="87.4" height="5.87"/>
				<rect x="97.05" y="203.84" class="st13" width="47.72" height="5.87"/>
			</g>
			<g>
				<rect x="97.05" y="174.85" class="st13" width="87.4" height="5.87"/>
				<rect x="97.05" y="164.98" class="st13" width="47.72" height="5.87"/>
			</g>
			<g>
				<rect x="97.05" y="135.99" class="st13" width="87.4" height="5.87"/>
				<rect x="97.05" y="126.12" class="st13" width="47.72" height="5.87"/>
			</g>
			<g>
				<rect x="97.05" y="97.13" class="st13" width="87.4" height="5.87"/>
				<rect x="97.05" y="87.26" class="st13" width="47.72" height="5.87"/>
			</g>
		</g>
	</g>
	<g class="object__plus2">
		<radialGradient id="SVGID_1_" cx="43.6201" cy="43.6201" r="43.6201" gradientUnits="userSpaceOnUse">
			<stop  offset="0" style="stop-color:#000000"/>
			<stop  offset="0.9987" style="stop-color:#000000;stop-opacity:0"/>
		</radialGradient>
		<circle class="st9" cx="43.62" cy="43.62" r="43.62"/>
		<circle class="st10" cx="43.62" cy="43.62" r="36.99"/>
		<polygon class="st11" points="41.77,30.67 41.77,41.77 30.67,41.77 30.67,45.47 41.77,45.47 41.77,56.57 45.47,56.57 45.47,45.47 
			56.57,45.47 56.57,41.77 45.47,41.77 45.47,30.67 		"/>
	</g>
</g>
</svg>