<svg class="m-story__object m-story__object9" version="1.1" id="Laag_1" xmlns="http://www.w3.org/2000/svg" xmlns:xlink="http://www.w3.org/1999/xlink" x="0px" y="0px"
	 viewBox="0 0 150.06 298.23" style="enable-background:new 0 0 150.06 298.23;" xml:space="preserve">
<style type="text/css">
	.st0{fill:#3D4B59;}
	.st1{fill:#1D2B39;}
	.st2{fill:#4E5B69;}
	.st3{fill:#2C3A49;}
	.st4{fill:#9C6D4F;}
	.st5{fill:#7E4E2F;}
	.st6{fill:#8C5D3F;}
	.st7{fill:#6E3D21;}
	.st8{fill:#E7E6E6;}
	.st9{fill:url(#SVGID_1_);}
	.st10{fill:#FFFFFF;}
	.st11{fill-rule:evenodd;clip-rule:evenodd;}
	.st12{fill:#F2F2F2;}
	.st13{fill:#DFDFDF;}
	.st14{fill:#32358C;}
	.st15{fill:url(#SVGID_2_);}
	.st16{fill-rule:evenodd;clip-rule:evenodd;fill:#234D64;}
	.st17{fill-rule:evenodd;clip-rule:evenodd;fill:#F8AB18;}
	.st18{fill-rule:evenodd;clip-rule:evenodd;fill:#398AB1;}
	.st19{fill:#234D64;}
	.st20{fill-rule:evenodd;clip-rule:evenodd;fill:#1B1B1B;}
	.st21{fill-rule:evenodd;clip-rule:evenodd;fill:#020203;}
	.st22{fill:url(#SVGID_3_);}
	.st23{fill-rule:evenodd;clip-rule:evenodd;fill:#B6181D;}
	.st24{fill-rule:evenodd;clip-rule:evenodd;fill:#B4B4B4;}
	.st25{fill-rule:evenodd;clip-rule:evenodd;fill:#CDA442;}
	.st26{fill:url(#SVGID_4_);}
	.st27{fill:#9B9B9A;}
	.st28{fill:#B579B2;}
	.st29{fill:#AB6EAC;}
	.st30{fill:#F8AB18;}
	.st31{fill:#F28C00;}
	.st32{fill:#62B22F;}
	.st33{fill:#54AF32;}
	.st34{fill:#57C0D3;}
	.st35{fill:#36B2BB;}
	.st36{fill:#E83E5D;}
	.st37{fill:#E72E55;}
	.st38{fill:url(#SVGID_5_);}
	.st39{fill:#F7E700;}
	.st40{fill:url(#SVGID_6_);}
	.st41{fill:url(#SVGID_7_);}
	.st42{fill:url(#SVGID_8_);}
	.st43{fill:#4D4230;}
	.st44{fill:#5F4A2F;}
	.st45{fill:url(#SVGID_9_);}
	.st46{fill:url(#SVGID_10_);}
</style>
<g class="object object9">
	<g class="object__object9">
		<path class="st43" d="M90.12,87.32c0,0-3.76-2.85-0.52-4.02c3.24-1.17,3.5-6.09,2.98-10.1c-0.52-4.02-8.55-5.18-10.88-0.91
			c-2.33,4.27,1.42,7.95,1.42,7.95s1.81,22.63-1.42,26.25s-7.77,3.11-9.72,4.66c-1.94,1.55-8.03,4.27-8.81,2.2
			c-0.78-2.07-3.24-2.2-4.92-3.37c-1.68-1.17-1.42-2.59,0.52-6.09c1.94-3.5-0.78-4.27,3.24-6.74c4.02-2.46-3.63-5.18-3.63-5.18
			v-9.33c-7.9-5.44-15.16,0-15.16,0l0.13,8.42c-5.96,1.17-2.33,3.5-2.33,3.5s3.11,0.65,1.17,3.63c-1.94,2.98,4.27,6.61,5.36,9.59
			c1.09,2.98,0.98,7.64-6.92,8.16c-7.9,0.52-13.86,14.25-16.32,18.65c-2.46,4.4-14.12,8.29-14.12,8.29
			c-1.17-11.27-3.76-12.44-5.31-10.88c-1.55,1.55,0.52,10.23-1.04,13.73c-1.55,3.5,1.42,8.03,1.42,8.03s2.46,49.87,2.98,55.31
			s7,6.48,4.79,9.97c-2.21,3.5,2.08,4.92,2.08,4.92s-0.65,2.2-1.94,3.63c-1.3,1.43,7,23.05,7,23.05h13.47c0,0-3.85-8.22-5.24-14.51
			c-1.4-6.29-6.01-14.54-6.01-14.54s4.89,1.96,5.31-4.89c0.42-6.85,2.02-4.82,2.02-4.82c6.46,1.29,3.55-13.88,3.55-13.88
			s3.55-30.02,11.62-14.38c8.07,15.64,4.52,67.03,4.52,67.03s7.81,7.27,10.53,0c2.72-7.27,1.68-36.26,1.42-44.81
			c-0.26-8.55,3.89-16.19,5.57-14.9s4.15-0.65,5.31-4.15c2.46-18.78-3.63-21.5-5.57-25.65c-1.94-4.15-2.2-23.58-0.78-26.69
			c1.42-3.11,10.23-12.82,15.42-14.9c5.18-2.07,8.29-7.38,8.03-10.1c-0.26-2.72,2.33-12.57,3.45-16.84
			C93.91,88.36,90.12,87.32,90.12,87.32z M31.61,160.2c-0.24,6.84-3.3,8.49-7.08,13.69s-7.31,29.73-7.31,29.73s6.13,20.29,0,10.85
			c-6.13-9.44-6.84-62.53-6.84-62.53c8.97,1.42,22.89-13.45,22.89-13.45S31.84,153.36,31.61,160.2z"/>
		<path class="st44" d="M86.72,87.32c0,0-3.76-2.85-0.52-4.02c3.24-1.17,3.5-6.09,2.98-10.1c-0.52-4.02-8.55-5.18-10.88-0.91
			c-2.33,4.27,1.42,7.95,1.42,7.95s1.81,22.63-1.42,26.25c-3.24,3.63-7.77,3.11-9.72,4.66c-1.94,1.55-8.03,4.27-8.81,2.2
			c-0.78-2.07-3.24-2.2-4.92-3.37c-1.68-1.17-1.42-2.59,0.52-6.09c1.94-3.5-0.78-4.27,3.24-6.74c4.02-2.46-3.63-5.18-3.63-5.18
			v-9.33c-7.9-5.44-15.16,0-15.16,0l0.13,8.42c-5.96,1.17-2.33,3.5-2.33,3.5s3.11,0.65,1.17,3.63c-1.94,2.98,4.27,6.61,5.36,9.59
			c1.09,2.98,0.98,7.64-6.92,8.16c-7.9,0.52-13.86,14.25-16.32,18.65c-2.46,4.4-14.12,8.29-14.12,8.29
			c-1.17-11.27-3.76-12.44-5.31-10.88c-1.55,1.55,0.52,10.23-1.04,13.73c-1.55,3.5,1.42,8.03,1.42,8.03s2.46,49.87,2.98,55.31
			s7,6.48,4.79,9.97c-2.21,3.5,2.08,4.92,2.08,4.92s-0.65,2.2-1.94,3.63c-1.3,1.43,7,23.05,7,23.05h13.47c0,0-3.85-8.22-5.24-14.51
			c-1.4-6.29-6.01-14.54-6.01-14.54s4.89,1.96,5.31-4.89c0.42-6.85,2.02-4.82,2.02-4.82c6.46,1.29,3.55-13.88,3.55-13.88
			s3.55-30.02,11.62-14.38c8.07,15.64,4.52,67.03,4.52,67.03s7.81,7.27,10.53,0c2.72-7.27,1.68-36.26,1.42-44.81
			c-0.26-8.55,3.89-16.19,5.57-14.9c1.68,1.3,4.15-0.65,5.31-4.15c2.46-18.78-3.63-21.5-5.57-25.65c-1.94-4.15-2.2-23.58-0.78-26.69
			c1.42-3.11,10.23-12.82,15.42-14.9c5.18-2.07,8.29-7.38,8.03-10.1c-0.26-2.72,2.33-12.57,3.45-16.84
			C90.51,88.36,86.72,87.32,86.72,87.32z M28.21,160.2c-0.24,6.84-3.3,8.49-7.08,13.69s-7.31,29.73-7.31,29.73s6.13,20.29,0,10.85
			c-6.13-9.44-6.84-62.53-6.84-62.53c8.97,1.42,22.89-13.45,22.89-13.45S28.44,153.36,28.21,160.2z"/>
		<rect x="24.41" y="250.66" class="st43" width="47.57" height="47.57"/>
		<rect x="13.64" y="250.66" class="st44" width="47.57" height="47.57"/>
	</g>
	<g class="object__plus9">
		<radialGradient id="SVGID_1_" cx="106.4353" cy="43.6201" r="43.6201" gradientUnits="userSpaceOnUse">
			<stop  offset="0" style="stop-color:#000000"/>
			<stop  offset="0.9987" style="stop-color:#000000;stop-opacity:0"/>
		</radialGradient>
		<circle class="st9" cx="106.44" cy="43.62" r="43.62"/>
		<circle class="st10" cx="106.44" cy="43.62" r="36.99"/>
		<polygon class="st11" points="104.59,30.67 104.59,41.77 93.49,41.77 93.49,45.47 104.59,45.47 104.59,56.57 108.29,56.57 
			108.29,45.47 119.38,45.47 119.38,41.77 108.29,41.77 108.29,30.67 		"/>
	</g>
</g>
</svg>
