<?xml version="1.0" encoding="utf-8"?>
<!-- Generator: Adobe Illustrator 23.0.1, SVG Export Plug-In . SVG Version: 6.00 Build 0)  -->
<svg version="1.1" id="Laag_1" xmlns="http://www.w3.org/2000/svg" xmlns:xlink="http://www.w3.org/1999/xlink" x="0px" y="0px"
	 viewBox="0 0 78.85 568" style="enable-background:new 0 0 78.85 568;" xml:space="preserve">
<style type="text/css">
	.st0{fill:#A2592E;}
	.st1{fill:#843818;}
	.st2{fill:#A7A123;}
	.st3{fill:#B6B22D;}
	.st4{fill:#B2B2B2;}
	.st5{fill:#989898;}
	.st6{fill:none;}
</style>
<g>
	
		<rect x="-244.58" y="244.58" transform="matrix(-4.489227e-11 1 -1 -4.489227e-11 323.4235 244.5775)" class="st0" width="568" height="78.85"/>
	<path class="st1" d="M74.04,0c0,0-11.51,108.39-10.39,143.67c1.11,35.29,4.08,80.66,2.6,115.95c0,0-7.88-96.45-6.38-129.81
		C61.36,96.45,64.69,18.72,64.19,0L74.04,0z"/>
	<path class="st1" d="M50.11,307.61c0,0-17.42,110.19-15.52,150.54c1.91,40.35,5.42,55.37,5.89,108.13c0,0,5.63-62.17,3.81-97.4
		C39.69,379.76,50.11,307.61,50.11,307.61z"/>
	<path class="st1" d="M20.38,93.61c0,0,6.33,117.45,4.11,145.15s-9.29,63.99-7.07,83.38c0,0,9.34-44.01,10.83-71.06
		C30.02,218.93,30.52,143.31,20.38,93.61z"/>
</g>
</svg>
