<?xml version="1.0" encoding="utf-8"?>
<!-- Generator: Adobe Illustrator 23.0.1, SVG Export Plug-In . SVG Version: 6.00 Build 0)  -->
<svg version="1.1" id="Laag_1" xmlns="http://www.w3.org/2000/svg" xmlns:xlink="http://www.w3.org/1999/xlink" x="0px" y="0px"
	 viewBox="0 0 78.8 568" style="enable-background:new 0 0 78.8 568;" xml:space="preserve">
<style type="text/css">
	.st0{fill:#A2592E;}
	.st1{fill:#843818;}
</style>
<g>
	<rect y="-13.6" class="st0" width="78.8" height="595.2"/>
	<path class="st1" d="M12.3-13.6c0,0,10.4,201.1,8.9,266.7s-5.5,149.8-3.5,215.2c0,0,10.6-179.1,8.6-240.9S22.6,5.7,12.3-13.6
		L12.3-13.6z"/>
	<path class="st1" d="M46.5,22.2c0,0,16.2,86.4,13.4,118.3s-6.7,43.7-8.2,85.3c0,0-4.7-48.9-2.2-76.6C56.1,78.8,46.5,22.2,46.5,22.2
		z"/>
	<path class="st1" d="M50.3,581.6c0,0,8.4-124.1,5.4-153.4c-2.9-29.3-12.3-67.6-9.4-88.1c0,0,12.4,46.6,14.3,75.1
		C63.1,449.1,63.8,529.1,50.3,581.6z"/>
</g>
</svg>
