<?xml version="1.0" encoding="utf-8"?>
<!-- Generator: Adobe Illustrator 23.0.1, SVG Export Plug-In . SVG Version: 6.00 Build 0)  -->
<svg version="1.1" id="Laag_1" xmlns="http://www.w3.org/2000/svg" xmlns:xlink="http://www.w3.org/1999/xlink" x="0px" y="0px"
	 viewBox="0 0 78.85 568" style="enable-background:new 0 0 78.85 568;" xml:space="preserve">
<style type="text/css">
	.st0{fill:#A2592E;}
	.st1{fill:#843818;}
	.st2{fill:#A7A123;}
	.st3{fill:#B6B22D;}
	.st4{fill:#B2B2B2;}
	.st5{fill:#989898;}
	.st6{fill:none;}
</style>
<g>
	
		<rect x="-244.58" y="244.58" transform="matrix(-1.836970e-16 1 -1 -1.836970e-16 323.423 244.577)" class="st0" width="568" height="78.85"/>
	<path class="st1" d="M12.29,0c0,0,10.38,191.98,8.87,254.49s-5.52,142.87-3.51,205.38c0,0,10.65-170.85,8.62-229.93
		S22.64,18.44,12.29,0L12.29,0z"/>
	<path class="st1" d="M46.51,34.16c0,0,16.17,82.48,13.42,112.85c-2.75,30.36-6.72,41.71-8.19,81.38c0,0-4.73-46.62-2.17-73.13
		C56.06,88.19,46.51,34.16,46.51,34.16z"/>
	<path class="st1" d="M50.34,568c0,0,8.38-118.49,5.44-146.44s-12.3-64.56-9.36-84.13c0,0,12.37,44.41,14.34,71.69
		C63.1,441.56,63.77,517.86,50.34,568z"/>
</g>
</svg>
