<?xml version="1.0" encoding="utf-8"?>
<!-- Generator: Adobe Illustrator 23.0.1, SVG Export Plug-In . SVG Version: 6.00 Build 0)  -->
<svg version="1.1" id="Laag_1" xmlns="http://www.w3.org/2000/svg" xmlns:xlink="http://www.w3.org/1999/xlink" x="0px" y="0px"
	 viewBox="0 0 641.1 864.3" style="enable-background:new 0 0 641.1 864.3;" xml:space="preserve">
<style type="text/css">
	.st0{fill:#B2B2B2;}
	.st1{fill:#989898;}
	.st2{fill:#A2592E;}
	.st3{fill:none;}
</style>
<g>
	<g>
		<rect x="281" y="533.3" class="st0" width="78.8" height="331.5"/>
		<path class="st1" d="M294.8,659.4V555.9c0-1.4,1.1-2.5,2.5-2.5l0,0c1.4,0,2.5,1.1,2.5,2.5v103.5c0,1.4-1.1,2.5-2.5,2.5l0,0
			C295.9,661.9,294.8,660.8,294.8,659.4z"/>
		<path class="st1" d="M338,757.5V610c0-1.3,1-2.3,2.3-2.3h1.1c1.3,0,2.3,1,2.3,2.3v147.5c0,1.3-1,2.3-2.3,2.3h-1.1
			C339,759.8,338,758.7,338,757.5z"/>
		<path class="st1" d="M309,864.8V731.2c0-1.5,1.2-2.7,2.7-2.7h0.1c1.5,0,2.7,1.2,2.7,2.7v133.6H309z"/>
	</g>
	<g>
		<rect x="35.2" y="484.1" class="st0" width="570.6" height="49.2"/>
		<rect x="35.2" y="12.3" class="st0" width="24.6" height="521"/>
		<rect x="308.3" y="12.3" class="st0" width="24.6" height="521"/>
		<rect x="444.6" y="12.3" class="st0" width="24.6" height="521"/>
		<rect x="171.8" y="12.3" class="st0" width="24.6" height="521"/>
		<g>
			<g>
				<rect x="332.9" y="459.5" class="st0" width="20.2" height="6.1"/>
				<rect x="353.1" y="456.4" class="st2" width="15.1" height="12.4"/>
				<rect x="332.9" y="434.8" class="st0" width="20.2" height="6.1"/>
				<rect x="353.1" y="431.6" class="st2" width="15.1" height="12.4"/>
				<rect x="332.9" y="410" class="st0" width="20.2" height="6.1"/>
				<rect x="353.1" y="406.9" class="st2" width="15.1" height="12.4"/>
				<rect x="332.9" y="385.3" class="st0" width="20.2" height="6.1"/>
				<rect x="353.1" y="382.1" class="st2" width="15.1" height="12.4"/>
				<rect x="332.9" y="360.6" class="st0" width="20.2" height="6.1"/>
				<rect x="353.1" y="357.4" class="st2" width="15.1" height="12.4"/>
				<rect x="332.9" y="335.8" class="st0" width="20.2" height="6.1"/>
				<rect x="353.1" y="332.7" class="st2" width="15.1" height="12.4"/>
				<rect x="332.9" y="311.1" class="st0" width="20.2" height="6.1"/>
				<rect x="353.1" y="307.9" class="st2" width="15.1" height="12.4"/>
				<rect x="332.9" y="286.3" class="st0" width="20.2" height="6.1"/>
				<rect x="353.1" y="283.2" class="st2" width="15.1" height="12.4"/>
				<g>
					<g>
						<rect x="332.9" y="261.5" class="st0" width="20.2" height="6.1"/>
						<rect x="353.1" y="258.3" class="st2" width="15.1" height="12.4"/>
						<rect x="332.9" y="236.7" class="st0" width="20.2" height="6.1"/>
						<rect x="353.1" y="233.6" class="st2" width="15.1" height="12.4"/>
						<rect x="332.9" y="212" class="st0" width="20.2" height="6.1"/>
						<rect x="353.1" y="208.8" class="st2" width="15.1" height="12.4"/>
						<rect x="332.9" y="187.3" class="st0" width="20.2" height="6.1"/>
						<rect x="353.1" y="184.1" class="st2" width="15.1" height="12.4"/>
						<rect x="332.9" y="162.5" class="st0" width="20.2" height="6.1"/>
						<rect x="353.1" y="159.4" class="st2" width="15.1" height="12.4"/>
						<rect x="332.9" y="137.8" class="st0" width="20.2" height="6.1"/>
						<rect x="353.1" y="134.6" class="st2" width="15.1" height="12.4"/>
						<rect x="332.9" y="113.1" class="st0" width="20.2" height="6.1"/>
						<rect x="353.1" y="109.9" class="st2" width="15.1" height="12.4"/>
						<rect x="332.9" y="88.3" class="st0" width="20.2" height="6.1"/>
						<rect x="353.1" y="85.2" class="st2" width="15.1" height="12.4"/>
					</g>
					<rect x="332.9" y="63.6" class="st0" width="20.2" height="6.1"/>
					<rect x="353.1" y="60.4" class="st2" width="15.1" height="12.4"/>
					<rect x="332.9" y="38.8" class="st0" width="20.2" height="6.1"/>
				</g>
			</g>
			<rect x="353.1" y="35.7" class="st2" width="15.1" height="12.4"/>
		</g>
		<rect x="35.2" y="0" class="st0" width="570.6" height="24.6"/>
		<g>
			<g>
				<rect x="288.2" y="38.8" class="st0" width="20.2" height="6.1"/>
				<rect x="273.1" y="35.7" class="st2" width="15.1" height="12.4"/>
				<rect x="288.2" y="63.6" class="st0" width="20.2" height="6.1"/>
				<rect x="273.1" y="60.4" class="st2" width="15.1" height="12.4"/>
				<rect x="288.2" y="88.3" class="st0" width="20.2" height="6.1"/>
				<rect x="273.1" y="85.2" class="st2" width="15.1" height="12.4"/>
				<rect x="288.2" y="113" class="st0" width="20.2" height="6.1"/>
				<rect x="273.1" y="109.9" class="st2" width="15.1" height="12.4"/>
				<rect x="288.2" y="137.8" class="st0" width="20.2" height="6.1"/>
				<rect x="273.1" y="134.6" class="st2" width="15.1" height="12.4"/>
				<rect x="288.2" y="162.5" class="st0" width="20.2" height="6.1"/>
				<rect x="273.1" y="159.4" class="st2" width="15.1" height="12.4"/>
				<rect x="288.2" y="187.3" class="st0" width="20.2" height="6.1"/>
				<rect x="273.1" y="184.1" class="st2" width="15.1" height="12.4"/>
				<rect x="288.2" y="212" class="st0" width="20.2" height="6.1"/>
				<rect x="273.1" y="208.8" class="st2" width="15.1" height="12.4"/>
				<g>
					<g>
						<rect x="288.2" y="236.9" class="st0" width="20.2" height="6.1"/>
						<rect x="273.1" y="233.7" class="st2" width="15.1" height="12.4"/>
						<rect x="288.2" y="261.6" class="st0" width="20.2" height="6.1"/>
						<rect x="273.1" y="258.5" class="st2" width="15.1" height="12.4"/>
						<rect x="288.2" y="286.3" class="st0" width="20.2" height="6.1"/>
						<rect x="273.1" y="283.2" class="st2" width="15.1" height="12.4"/>
						<rect x="288.2" y="311.1" class="st0" width="20.2" height="6.1"/>
						<rect x="273.1" y="307.9" class="st2" width="15.1" height="12.4"/>
						<rect x="288.2" y="335.8" class="st0" width="20.2" height="6.1"/>
						<rect x="273.1" y="332.7" class="st2" width="15.1" height="12.4"/>
						<rect x="288.2" y="360.6" class="st0" width="20.2" height="6.1"/>
						<rect x="273.1" y="357.4" class="st2" width="15.1" height="12.4"/>
						<rect x="288.2" y="385.3" class="st0" width="20.2" height="6.1"/>
						<rect x="273.1" y="382.1" class="st2" width="15.1" height="12.4"/>
						<rect x="288.2" y="410" class="st0" width="20.2" height="6.1"/>
						<rect x="273.1" y="406.9" class="st2" width="15.1" height="12.4"/>
					</g>
					<rect x="288.2" y="434.8" class="st0" width="20.2" height="6.1"/>
					<rect x="273.1" y="431.6" class="st2" width="15.1" height="12.4"/>
					<rect x="288.2" y="459.5" class="st0" width="20.2" height="6.1"/>
				</g>
			</g>
			<rect x="273.1" y="456.3" class="st2" width="15.1" height="12.4"/>
		</g>
		<g>
			<g>
				<g>
					<rect x="196.3" y="459.5" class="st0" width="20.2" height="6.1"/>
					<rect x="216.6" y="456.4" class="st2" width="15.1" height="12.4"/>
					<rect x="196.3" y="434.8" class="st0" width="20.2" height="6.1"/>
					<rect x="216.6" y="431.6" class="st2" width="15.1" height="12.4"/>
					<rect x="196.3" y="410" class="st0" width="20.2" height="6.1"/>
					<rect x="216.6" y="406.9" class="st2" width="15.1" height="12.4"/>
					<rect x="196.3" y="385.3" class="st0" width="20.2" height="6.1"/>
					<rect x="216.6" y="382.1" class="st2" width="15.1" height="12.4"/>
					<rect x="196.3" y="360.6" class="st0" width="20.2" height="6.1"/>
					<rect x="216.6" y="357.4" class="st2" width="15.1" height="12.4"/>
					<rect x="196.3" y="335.8" class="st0" width="20.2" height="6.1"/>
					<rect x="216.6" y="332.7" class="st2" width="15.1" height="12.4"/>
					<rect x="196.3" y="311.1" class="st0" width="20.2" height="6.1"/>
					<rect x="216.6" y="307.9" class="st2" width="15.1" height="12.4"/>
					<rect x="196.3" y="286.3" class="st0" width="20.2" height="6.1"/>
					<rect x="216.6" y="283.2" class="st2" width="15.1" height="12.4"/>
					<g>
						<g>
							<rect x="196.3" y="261.5" class="st0" width="20.2" height="6.1"/>
							<rect x="216.6" y="258.3" class="st2" width="15.1" height="12.4"/>
							<rect x="196.3" y="236.7" class="st0" width="20.2" height="6.1"/>
							<rect x="216.6" y="233.6" class="st2" width="15.1" height="12.4"/>
							<rect x="196.3" y="212" class="st0" width="20.2" height="6.1"/>
							<rect x="216.6" y="208.8" class="st2" width="15.1" height="12.4"/>
							<rect x="196.3" y="187.3" class="st0" width="20.2" height="6.1"/>
							<rect x="216.6" y="184.1" class="st2" width="15.1" height="12.4"/>
							<rect x="196.3" y="162.5" class="st0" width="20.2" height="6.1"/>
							<rect x="216.6" y="159.4" class="st2" width="15.1" height="12.4"/>
							<rect x="196.3" y="137.8" class="st0" width="20.2" height="6.1"/>
							<rect x="216.6" y="134.6" class="st2" width="15.1" height="12.4"/>
							<rect x="196.3" y="113.1" class="st0" width="20.2" height="6.1"/>
							<rect x="216.6" y="109.9" class="st2" width="15.1" height="12.4"/>
							<rect x="196.3" y="88.3" class="st0" width="20.2" height="6.1"/>
							<rect x="216.6" y="85.2" class="st2" width="15.1" height="12.4"/>
						</g>
						<rect x="196.3" y="63.6" class="st0" width="20.2" height="6.1"/>
						<rect x="216.6" y="60.4" class="st2" width="15.1" height="12.4"/>
						<rect x="196.3" y="38.8" class="st0" width="20.2" height="6.1"/>
					</g>
				</g>
				<rect x="216.6" y="35.7" class="st2" width="15.1" height="12.4"/>
			</g>
			<g>
				<g>
					<rect x="151.6" y="38.8" class="st0" width="20.2" height="6.1"/>
					<rect x="136.6" y="35.7" class="st2" width="15.1" height="12.4"/>
					<rect x="151.6" y="63.6" class="st0" width="20.2" height="6.1"/>
					<rect x="136.6" y="60.4" class="st2" width="15.1" height="12.4"/>
					<rect x="151.6" y="88.3" class="st0" width="20.2" height="6.1"/>
					<rect x="136.6" y="85.2" class="st2" width="15.1" height="12.4"/>
					<rect x="151.6" y="113" class="st0" width="20.2" height="6.1"/>
					<rect x="136.6" y="109.9" class="st2" width="15.1" height="12.4"/>
					<rect x="151.6" y="137.8" class="st0" width="20.2" height="6.1"/>
					<rect x="136.6" y="134.6" class="st2" width="15.1" height="12.4"/>
					<rect x="151.6" y="162.5" class="st0" width="20.2" height="6.1"/>
					<rect x="136.6" y="159.4" class="st2" width="15.1" height="12.4"/>
					<rect x="151.6" y="187.3" class="st0" width="20.2" height="6.1"/>
					<rect x="136.6" y="184.1" class="st2" width="15.1" height="12.4"/>
					<rect x="151.6" y="212" class="st0" width="20.2" height="6.1"/>
					<rect x="136.6" y="208.8" class="st2" width="15.1" height="12.4"/>
					<g>
						<g>
							<rect x="151.6" y="236.9" class="st0" width="20.2" height="6.1"/>
							<rect x="136.6" y="233.7" class="st2" width="15.1" height="12.4"/>
							<rect x="151.6" y="261.6" class="st0" width="20.2" height="6.1"/>
							<rect x="136.6" y="258.5" class="st2" width="15.1" height="12.4"/>
							<rect x="151.6" y="286.3" class="st0" width="20.2" height="6.1"/>
							<rect x="136.6" y="283.2" class="st2" width="15.1" height="12.4"/>
							<rect x="151.6" y="311.1" class="st0" width="20.2" height="6.1"/>
							<rect x="136.6" y="307.9" class="st2" width="15.1" height="12.4"/>
							<rect x="151.6" y="335.8" class="st0" width="20.2" height="6.1"/>
							<rect x="136.6" y="332.7" class="st2" width="15.1" height="12.4"/>
							<rect x="151.6" y="360.6" class="st0" width="20.2" height="6.1"/>
							<rect x="136.6" y="357.4" class="st2" width="15.1" height="12.4"/>
							<rect x="151.6" y="385.3" class="st0" width="20.2" height="6.1"/>
							<rect x="136.6" y="382.1" class="st2" width="15.1" height="12.4"/>
							<rect x="151.6" y="410" class="st0" width="20.2" height="6.1"/>
							<rect x="136.6" y="406.9" class="st2" width="15.1" height="12.4"/>
						</g>
						<rect x="151.6" y="434.8" class="st0" width="20.2" height="6.1"/>
						<rect x="136.6" y="431.6" class="st2" width="15.1" height="12.4"/>
						<rect x="151.6" y="459.5" class="st0" width="20.2" height="6.1"/>
					</g>
				</g>
				<rect x="136.6" y="456.3" class="st2" width="15.1" height="12.4"/>
			</g>
		</g>
		<g>
			<g>
				<g>
					<rect x="469.1" y="459.5" class="st0" width="20.2" height="6.1"/>
					<rect x="489.4" y="456.4" class="st2" width="15.1" height="12.4"/>
					<rect x="469.1" y="434.8" class="st0" width="20.2" height="6.1"/>
					<rect x="489.4" y="431.6" class="st2" width="15.1" height="12.4"/>
					<rect x="469.1" y="410" class="st0" width="20.2" height="6.1"/>
					<rect x="489.4" y="406.9" class="st2" width="15.1" height="12.4"/>
					<rect x="469.1" y="385.3" class="st0" width="20.2" height="6.1"/>
					<rect x="489.4" y="382.1" class="st2" width="15.1" height="12.4"/>
					<rect x="469.1" y="360.6" class="st0" width="20.2" height="6.1"/>
					<rect x="489.4" y="357.4" class="st2" width="15.1" height="12.4"/>
					<rect x="469.1" y="335.8" class="st0" width="20.2" height="6.1"/>
					<rect x="489.4" y="332.7" class="st2" width="15.1" height="12.4"/>
					<rect x="469.1" y="311.1" class="st0" width="20.2" height="6.1"/>
					<rect x="489.4" y="307.9" class="st2" width="15.1" height="12.4"/>
					<rect x="469.1" y="286.3" class="st0" width="20.2" height="6.1"/>
					<rect x="489.4" y="283.2" class="st2" width="15.1" height="12.4"/>
					<g>
						<g>
							<rect x="469.1" y="261.5" class="st0" width="20.2" height="6.1"/>
							<rect x="489.4" y="258.3" class="st2" width="15.1" height="12.4"/>
							<rect x="469.1" y="236.7" class="st0" width="20.2" height="6.1"/>
							<rect x="489.4" y="233.6" class="st2" width="15.1" height="12.4"/>
							<rect x="469.1" y="212" class="st0" width="20.2" height="6.1"/>
							<rect x="489.4" y="208.8" class="st2" width="15.1" height="12.4"/>
							<rect x="469.1" y="187.3" class="st0" width="20.2" height="6.1"/>
							<rect x="489.4" y="184.1" class="st2" width="15.1" height="12.4"/>
							<rect x="469.1" y="162.5" class="st0" width="20.2" height="6.1"/>
							<rect x="489.4" y="159.4" class="st2" width="15.1" height="12.4"/>
							<rect x="469.1" y="137.8" class="st0" width="20.2" height="6.1"/>
							<rect x="489.4" y="134.6" class="st2" width="15.1" height="12.4"/>
							<rect x="469.1" y="113.1" class="st0" width="20.2" height="6.1"/>
							<rect x="489.4" y="109.9" class="st2" width="15.1" height="12.4"/>
							<rect x="469.1" y="88.3" class="st0" width="20.2" height="6.1"/>
							<rect x="489.4" y="85.2" class="st2" width="15.1" height="12.4"/>
						</g>
						<rect x="469.1" y="63.6" class="st0" width="20.2" height="6.1"/>
						<rect x="489.4" y="60.4" class="st2" width="15.1" height="12.4"/>
						<rect x="469.1" y="38.8" class="st0" width="20.2" height="6.1"/>
					</g>
				</g>
				<rect x="489.4" y="35.7" class="st2" width="15.1" height="12.4"/>
			</g>
			<g>
				<g>
					<rect x="424.4" y="38.8" class="st0" width="20.2" height="6.1"/>
					<rect x="409.4" y="35.7" class="st2" width="15.1" height="12.4"/>
					<rect x="424.4" y="63.6" class="st0" width="20.2" height="6.1"/>
					<rect x="409.4" y="60.4" class="st2" width="15.1" height="12.4"/>
					<rect x="424.4" y="88.3" class="st0" width="20.2" height="6.1"/>
					<rect x="409.4" y="85.2" class="st2" width="15.1" height="12.4"/>
					<rect x="424.4" y="113" class="st0" width="20.2" height="6.1"/>
					<rect x="409.4" y="109.9" class="st2" width="15.1" height="12.4"/>
					<rect x="424.4" y="137.8" class="st0" width="20.2" height="6.1"/>
					<rect x="409.4" y="134.6" class="st2" width="15.1" height="12.4"/>
					<rect x="424.4" y="162.5" class="st0" width="20.2" height="6.1"/>
					<rect x="409.4" y="159.4" class="st2" width="15.1" height="12.4"/>
					<rect x="424.4" y="187.3" class="st0" width="20.2" height="6.1"/>
					<rect x="409.4" y="184.1" class="st2" width="15.1" height="12.4"/>
					<rect x="424.4" y="212" class="st0" width="20.2" height="6.1"/>
					<rect x="409.4" y="208.8" class="st2" width="15.1" height="12.4"/>
					<g>
						<g>
							<rect x="424.4" y="236.9" class="st0" width="20.2" height="6.1"/>
							<rect x="409.4" y="233.7" class="st2" width="15.1" height="12.4"/>
							<rect x="424.4" y="261.6" class="st0" width="20.2" height="6.1"/>
							<rect x="409.4" y="258.5" class="st2" width="15.1" height="12.4"/>
							<rect x="424.4" y="286.3" class="st0" width="20.2" height="6.1"/>
							<rect x="409.4" y="283.2" class="st2" width="15.1" height="12.4"/>
							<rect x="424.4" y="311.1" class="st0" width="20.2" height="6.1"/>
							<rect x="409.4" y="307.9" class="st2" width="15.1" height="12.4"/>
							<rect x="424.4" y="335.8" class="st0" width="20.2" height="6.1"/>
							<rect x="409.4" y="332.7" class="st2" width="15.1" height="12.4"/>
							<rect x="424.4" y="360.6" class="st0" width="20.2" height="6.1"/>
							<rect x="409.4" y="357.4" class="st2" width="15.1" height="12.4"/>
							<rect x="424.4" y="385.3" class="st0" width="20.2" height="6.1"/>
							<rect x="409.4" y="382.1" class="st2" width="15.1" height="12.4"/>
							<rect x="424.4" y="410" class="st0" width="20.2" height="6.1"/>
							<rect x="409.4" y="406.9" class="st2" width="15.1" height="12.4"/>
						</g>
						<rect x="424.4" y="434.8" class="st0" width="20.2" height="6.1"/>
						<rect x="409.4" y="431.6" class="st2" width="15.1" height="12.4"/>
						<rect x="424.4" y="459.5" class="st0" width="20.2" height="6.1"/>
					</g>
				</g>
				<rect x="409.4" y="456.3" class="st2" width="15.1" height="12.4"/>
			</g>
		</g>
		<g>
			<g>
				<g>
					<rect x="59.8" y="459.5" class="st0" width="20.2" height="6.1"/>
					<rect x="80" y="456.4" class="st2" width="15.1" height="12.4"/>
					<rect x="59.8" y="434.8" class="st0" width="20.2" height="6.1"/>
					<rect x="80" y="431.6" class="st2" width="15.1" height="12.4"/>
					<rect x="59.8" y="410" class="st0" width="20.2" height="6.1"/>
					<rect x="80" y="406.9" class="st2" width="15.1" height="12.4"/>
					<rect x="59.8" y="385.3" class="st0" width="20.2" height="6.1"/>
					<rect x="80" y="382.1" class="st2" width="15.1" height="12.4"/>
					<rect x="59.8" y="360.6" class="st0" width="20.2" height="6.1"/>
					<rect x="80" y="357.4" class="st2" width="15.1" height="12.4"/>
					<rect x="59.8" y="335.8" class="st0" width="20.2" height="6.1"/>
					<rect x="80" y="332.7" class="st2" width="15.1" height="12.4"/>
					<rect x="59.8" y="311.1" class="st0" width="20.2" height="6.1"/>
					<rect x="80" y="307.9" class="st2" width="15.1" height="12.4"/>
					<rect x="59.8" y="286.3" class="st0" width="20.2" height="6.1"/>
					<rect x="80" y="283.2" class="st2" width="15.1" height="12.4"/>
					<g>
						<g>
							<rect x="59.8" y="261.5" class="st0" width="20.2" height="6.1"/>
							<rect x="80" y="258.3" class="st2" width="15.1" height="12.4"/>
							<rect x="59.8" y="236.7" class="st0" width="20.2" height="6.1"/>
							<rect x="80" y="233.6" class="st2" width="15.1" height="12.4"/>
							<rect x="59.8" y="212" class="st0" width="20.2" height="6.1"/>
							<rect x="80" y="208.8" class="st2" width="15.1" height="12.4"/>
							<rect x="59.8" y="187.3" class="st0" width="20.2" height="6.1"/>
							<rect x="80" y="184.1" class="st2" width="15.1" height="12.4"/>
							<rect x="59.8" y="162.5" class="st0" width="20.2" height="6.1"/>
							<rect x="80" y="159.4" class="st2" width="15.1" height="12.4"/>
							<rect x="59.8" y="137.8" class="st0" width="20.2" height="6.1"/>
							<rect x="80" y="134.6" class="st2" width="15.1" height="12.4"/>
							<rect x="59.8" y="113.1" class="st0" width="20.2" height="6.1"/>
							<rect x="80" y="109.9" class="st2" width="15.1" height="12.4"/>
							<rect x="59.8" y="88.3" class="st0" width="20.2" height="6.1"/>
							<rect x="80" y="85.2" class="st2" width="15.1" height="12.4"/>
						</g>
						<rect x="59.8" y="63.6" class="st0" width="20.2" height="6.1"/>
						<rect x="80" y="60.4" class="st2" width="15.1" height="12.4"/>
						<rect x="59.8" y="38.8" class="st0" width="20.2" height="6.1"/>
					</g>
				</g>
				<rect x="80" y="35.7" class="st2" width="15.1" height="12.4"/>
			</g>
			<g>
				<g>
					<rect x="15.1" y="38.8" class="st0" width="20.2" height="6.1"/>
					<rect x="0" y="35.7" class="st2" width="15.1" height="12.4"/>
					<rect x="15.1" y="63.6" class="st0" width="20.2" height="6.1"/>
					<rect x="0" y="60.4" class="st2" width="15.1" height="12.4"/>
					<rect x="15.1" y="88.3" class="st0" width="20.2" height="6.1"/>
					<rect x="0" y="85.2" class="st2" width="15.1" height="12.4"/>
					<rect x="15.1" y="113" class="st0" width="20.2" height="6.1"/>
					<rect x="0" y="109.9" class="st2" width="15.1" height="12.4"/>
					<rect x="15.1" y="137.8" class="st0" width="20.2" height="6.1"/>
					<rect x="0" y="134.6" class="st2" width="15.1" height="12.4"/>
					<rect x="15.1" y="162.5" class="st0" width="20.2" height="6.1"/>
					<rect x="0" y="159.4" class="st2" width="15.1" height="12.4"/>
					<rect x="15.1" y="187.3" class="st0" width="20.2" height="6.1"/>
					<rect x="0" y="184.1" class="st2" width="15.1" height="12.4"/>
					<rect x="15.1" y="212" class="st0" width="20.2" height="6.1"/>
					<rect x="0" y="208.8" class="st2" width="15.1" height="12.4"/>
					<g>
						<g>
							<rect x="15.1" y="236.9" class="st0" width="20.2" height="6.1"/>
							<rect x="0" y="233.7" class="st2" width="15.1" height="12.4"/>
							<rect x="15.1" y="261.6" class="st0" width="20.2" height="6.1"/>
							<rect x="0" y="258.5" class="st2" width="15.1" height="12.4"/>
							<rect x="15.1" y="286.3" class="st0" width="20.2" height="6.1"/>
							<rect x="0" y="283.2" class="st2" width="15.1" height="12.4"/>
							<rect x="15.1" y="311.1" class="st0" width="20.2" height="6.1"/>
							<rect x="0" y="307.9" class="st2" width="15.1" height="12.4"/>
							<rect x="15.1" y="335.8" class="st0" width="20.2" height="6.1"/>
							<rect x="0" y="332.7" class="st2" width="15.1" height="12.4"/>
							<rect x="15.1" y="360.6" class="st0" width="20.2" height="6.1"/>
							<rect x="0" y="357.4" class="st2" width="15.1" height="12.4"/>
							<rect x="15.1" y="385.3" class="st0" width="20.2" height="6.1"/>
							<rect x="0" y="382.1" class="st2" width="15.1" height="12.4"/>
							<rect x="15.1" y="410" class="st0" width="20.2" height="6.1"/>
							<rect x="0" y="406.9" class="st2" width="15.1" height="12.4"/>
						</g>
						<rect x="15.1" y="434.8" class="st0" width="20.2" height="6.1"/>
						<rect x="0" y="431.6" class="st2" width="15.1" height="12.4"/>
						<rect x="15.1" y="459.5" class="st0" width="20.2" height="6.1"/>
					</g>
				</g>
				<rect x="0" y="456.3" class="st2" width="15.1" height="12.4"/>
			</g>
		</g>
		<g>
			<g>
				<g>
					<rect x="605.8" y="459.5" class="st0" width="20.2" height="6.1"/>
					<rect x="626" y="456.4" class="st2" width="15.1" height="12.4"/>
					<rect x="605.8" y="434.8" class="st0" width="20.2" height="6.1"/>
					<rect x="626" y="431.6" class="st2" width="15.1" height="12.4"/>
					<rect x="605.8" y="410" class="st0" width="20.2" height="6.1"/>
					<rect x="626" y="406.9" class="st2" width="15.1" height="12.4"/>
					<rect x="605.8" y="385.3" class="st0" width="20.2" height="6.1"/>
					<rect x="626" y="382.1" class="st2" width="15.1" height="12.4"/>
					<rect x="605.8" y="360.6" class="st0" width="20.2" height="6.1"/>
					<rect x="626" y="357.4" class="st2" width="15.1" height="12.4"/>
					<rect x="605.8" y="335.8" class="st0" width="20.2" height="6.1"/>
					<rect x="626" y="332.7" class="st2" width="15.1" height="12.4"/>
					<rect x="605.8" y="311.1" class="st0" width="20.2" height="6.1"/>
					<rect x="626" y="307.9" class="st2" width="15.1" height="12.4"/>
					<rect x="605.8" y="286.3" class="st0" width="20.2" height="6.1"/>
					<rect x="626" y="283.2" class="st2" width="15.1" height="12.4"/>
					<g>
						<g>
							<rect x="605.8" y="261.5" class="st0" width="20.2" height="6.1"/>
							<rect x="626" y="258.3" class="st2" width="15.1" height="12.4"/>
							<rect x="605.8" y="236.7" class="st0" width="20.2" height="6.1"/>
							<rect x="626" y="233.6" class="st2" width="15.1" height="12.4"/>
							<rect x="605.8" y="212" class="st0" width="20.2" height="6.1"/>
							<rect x="626" y="208.8" class="st2" width="15.1" height="12.4"/>
							<rect x="605.8" y="187.3" class="st0" width="20.2" height="6.1"/>
							<rect x="626" y="184.1" class="st2" width="15.1" height="12.4"/>
							<rect x="605.8" y="162.5" class="st0" width="20.2" height="6.1"/>
							<rect x="626" y="159.4" class="st2" width="15.1" height="12.4"/>
							<rect x="605.8" y="137.8" class="st0" width="20.2" height="6.1"/>
							<rect x="626" y="134.6" class="st2" width="15.1" height="12.4"/>
							<rect x="605.8" y="113.1" class="st0" width="20.2" height="6.1"/>
							<rect x="626" y="109.9" class="st2" width="15.1" height="12.4"/>
							<rect x="605.8" y="88.3" class="st0" width="20.2" height="6.1"/>
							<rect x="626" y="85.2" class="st2" width="15.1" height="12.4"/>
						</g>
						<rect x="605.8" y="63.6" class="st0" width="20.2" height="6.1"/>
						<rect x="626" y="60.4" class="st2" width="15.1" height="12.4"/>
						<rect x="605.8" y="38.8" class="st0" width="20.2" height="6.1"/>
					</g>
				</g>
				<rect x="626" y="35.7" class="st2" width="15.1" height="12.4"/>
			</g>
			<g>
				<g>
					<rect x="561.1" y="38.8" class="st0" width="20.2" height="6.1"/>
					<rect x="546" y="35.7" class="st2" width="15.1" height="12.4"/>
					<rect x="561.1" y="63.6" class="st0" width="20.2" height="6.1"/>
					<rect x="546" y="60.4" class="st2" width="15.1" height="12.4"/>
					<rect x="561.1" y="88.3" class="st0" width="20.2" height="6.1"/>
					<rect x="546" y="85.2" class="st2" width="15.1" height="12.4"/>
					<rect x="561.1" y="113" class="st0" width="20.2" height="6.1"/>
					<rect x="546" y="109.9" class="st2" width="15.1" height="12.4"/>
					<rect x="561.1" y="137.8" class="st0" width="20.2" height="6.1"/>
					<rect x="546" y="134.6" class="st2" width="15.1" height="12.4"/>
					<rect x="561.1" y="162.5" class="st0" width="20.2" height="6.1"/>
					<rect x="546" y="159.4" class="st2" width="15.1" height="12.4"/>
					<rect x="561.1" y="187.3" class="st0" width="20.2" height="6.1"/>
					<rect x="546" y="184.1" class="st2" width="15.1" height="12.4"/>
					<rect x="561.1" y="212" class="st0" width="20.2" height="6.1"/>
					<rect x="546" y="208.8" class="st2" width="15.1" height="12.4"/>
					<g>
						<g>
							<rect x="561.1" y="236.9" class="st0" width="20.2" height="6.1"/>
							<rect x="546" y="233.7" class="st2" width="15.1" height="12.4"/>
							<rect x="561.1" y="261.6" class="st0" width="20.2" height="6.1"/>
							<rect x="546" y="258.5" class="st2" width="15.1" height="12.4"/>
							<rect x="561.1" y="286.3" class="st0" width="20.2" height="6.1"/>
							<rect x="546" y="283.2" class="st2" width="15.1" height="12.4"/>
							<rect x="561.1" y="311.1" class="st0" width="20.2" height="6.1"/>
							<rect x="546" y="307.9" class="st2" width="15.1" height="12.4"/>
							<rect x="561.1" y="335.8" class="st0" width="20.2" height="6.1"/>
							<rect x="546" y="332.7" class="st2" width="15.1" height="12.4"/>
							<rect x="561.1" y="360.6" class="st0" width="20.2" height="6.1"/>
							<rect x="546" y="357.4" class="st2" width="15.1" height="12.4"/>
							<rect x="561.1" y="385.3" class="st0" width="20.2" height="6.1"/>
							<rect x="546" y="382.1" class="st2" width="15.1" height="12.4"/>
							<rect x="561.1" y="410" class="st0" width="20.2" height="6.1"/>
							<rect x="546" y="406.9" class="st2" width="15.1" height="12.4"/>
						</g>
						<rect x="561.1" y="434.8" class="st0" width="20.2" height="6.1"/>
						<rect x="546" y="431.6" class="st2" width="15.1" height="12.4"/>
						<rect x="561.1" y="459.5" class="st0" width="20.2" height="6.1"/>
					</g>
				</g>
				<rect x="546" y="456.3" class="st2" width="15.1" height="12.4"/>
			</g>
		</g>
		<rect x="581.2" y="12.3" class="st0" width="24.6" height="521"/>
	</g>
	<rect x="160.5" y="296.5" class="st3" width="320" height="568.3"/>
</g>
</svg>
