<?xml version="1.0" encoding="utf-8"?>
<!-- Generator: Adobe Illustrator 23.0.1, SVG Export Plug-In . SVG Version: 6.00 Build 0)  -->
<svg version="1.1" id="Laag_1" xmlns="http://www.w3.org/2000/svg" xmlns:xlink="http://www.w3.org/1999/xlink" x="0px" y="0px"
	 viewBox="0 0 78.8 568" style="enable-background:new 0 0 78.8 568;" xml:space="preserve">
<style type="text/css">
	.st0{fill:#A2592E;}
	.st1{fill:#843818;}
</style>
<g>
	<rect y="-13.6" class="st0" width="78.8" height="595.3"/>
	<path class="st1" d="M74-13.6c0,0-11.5,113.6-10.4,150.6c1.1,36.9,4.1,84.6,2.6,121.5c0,0-7.9-101.1-6.4-136.1S64.6,5.9,64.1-13.6
		C64.1-13.6,74-13.6,74-13.6z"/>
	<path class="st1" d="M50.1,308.7c0,0-17.4,115.5-15.5,157.8c1.9,42.3,5.4,58.1,5.9,113.3c0,0,5.6-65.2,3.8-102
		C39.7,384.4,50.1,308.7,50.1,308.7z"/>
	<path class="st1" d="M20.4,84.4c0,0,6.3,123.1,4.1,152.2s-9.3,67.1-7.1,87.4c0,0,9.3-46.2,10.8-74.5C30,215.8,30.5,136.5,20.4,84.4
		z"/>
</g>
</svg>
