<?xml version="1.0" encoding="utf-8"?>
<!-- Generator: Adobe Illustrator 23.0.1, SVG Export Plug-In . SVG Version: 6.00 Build 0)  -->
<svg version="1.1" id="Laag_1" xmlns="http://www.w3.org/2000/svg" xmlns:xlink="http://www.w3.org/1999/xlink" x="0px" y="0px"
	 viewBox="0 0 172.36 532.12" style="enable-background:new 0 0 172.36 532.12;" xml:space="preserve">
<style type="text/css">
	.st0{fill:#A2592E;}
	.st1{fill:#843818;}
	.st2{fill:#A7A123;}
	.st3{fill:#B6B22D;}
	.st4{fill:#B2B2B2;}
	.st5{fill:#989898;}
	.st6{fill:none;}
</style>
<g>
	<g>
		<path class="st0" d="M51.19,500.61V1.42h78.85v499.19c0,14.62-11.86,26.48-26.48,26.48H77.67
			C63.05,527.09,51.19,515.23,51.19,500.61z"/>
		<path class="st1" d="M68.24,1.42c0,0,12.26,191.98,10.76,254.49c-1.5,62.51-5.52,142.87-3.51,205.38c0,0,10.65-170.85,8.62-229.93
			S84.69,35.58,68.24,1.42L68.24,1.42z"/>
		<path class="st1" d="M102.18,20.69c0,0,14.25,75.35,11.96,103.06s-5.69,38.06-6.85,74.27c0,0-4.24-42.57-2.1-66.77
			C110.62,70.04,102.18,20.69,102.18,20.69z"/>
		<path class="st1" d="M101.53,527.09c0,0,8.38-75.72,5.44-93.58c-2.94-17.86-12.3-41.26-9.36-53.76c0,0,12.37,28.38,14.34,45.81
			C114.3,446.29,114.96,495.05,101.53,527.09z"/>
	</g>
	<path class="st2" d="M17.98,506.08c0.82-5.68-0.52-11.47-1.07-17.21c-0.55-5.74-0.09-12.16,3.5-16.2c1.72-1.93,4.38-3.14,6.63-2.04
		c2.21,1.08,3.26,3.9,4.09,6.45c1.95,5.98,3.91,11.95,5.86,17.93c3.27-1.95,2.59-7.6,4.69-11.04c2.82-4.62,9.74-3.11,12.77,1.41
		c3.03,4.52,3.29,10.59,3.42,16.23c3.45-6.49,8.98-11.51,15.34-13.91c4.96-1.31,7.67,16.48,6.44,25.42c1.33-5.85,9.1-6.83,13.14-2.8
		c4.03,4.03,4.99,10.7,4.92,16.75c-0.01,1.24-0.1,2.59-0.85,3.48c-0.85,1-2.23,1.05-3.46,1.03c-24.24-0.39-55.09,4.99-78.65-1.36
		c-8.02-2.16-16.52-6.68-14.42-18.08C2.69,499.35,18.8,503.94,17.98,506.08z"/>
	<path class="st3" d="M80.86,508.15c3.78-3.14,9.11-1.97,12.35,2.7c-0.47-6.24,4.39-10.83,8.63-9.65c4.25,1.17,7.61,6.27,9.96,11.67
		c0.78,1.79,1.59,3.78,2.95,4.5c1.25,0.67,2.61,0.03,3.76-0.81c6.23-4.54,12.07-15.16,18.63-10.64c3.71,2.56,5.81,9.44,9.79,10.62
		c2.2,0.65,4.35-0.68,6.44-1.64c3.74-1.72,7.92-2.26,11.71-0.17c3.79,2.09,7.03,7.24,7.27,13.05c0,4.7-12.46,5.34-19.08,5.53
		c-20.34,0.58-40.7,0.68-61.08,0.3C83.01,533.44,66.31,520.25,80.86,508.15z"/>
</g>
</svg>
