<?xml version="1.0" encoding="utf-8"?>
<!-- Generator: Adobe Illustrator 23.0.1, SVG Export Plug-In . SVG Version: 6.00 Build 0)  -->
<svg version="1.1" id="Laag_1" xmlns="http://www.w3.org/2000/svg" xmlns:xlink="http://www.w3.org/1999/xlink" x="0px" y="0px"
	 viewBox="0 0 78.8 568" style="enable-background:new 0 0 78.8 568;" xml:space="preserve">
<style type="text/css">
	.st0{fill:#A2592E;}
	.st1{fill:#843818;}
</style>
<g>
	<rect y="-13.6" class="st0" width="78.8" height="595.3"/>
	<path class="st1" d="M74,581.6c0,0-11.5-201.2-10.4-266.7s4.1-149.8,2.6-215.2c0,0-7.9,179.1-6.4,241s4.8,206.2,4.3,241H74
		L74,581.6z"/>
	<path class="st1" d="M40,545.8c0,0-17.1-102-14.7-139.5s6.2-51.4,7.3-100.3c0,0,5.3,57.6,3,90.3C29.9,479,40,545.8,40,545.8z"/>
	<path class="st1" d="M28.8-13.6c0,0-8.4,124.2-5.4,153.4s12.3,67.7,9.4,88.2c0,0-12.4-46.5-14.3-75.1C16,118.8,15.3,38.9,28.8-13.6
		z"/>
</g>
</svg>
