<?xml version="1.0" encoding="utf-8"?>
<!-- Generator: Adobe Illustrator 23.0.1, SVG Export Plug-In . SVG Version: 6.00 Build 0)  -->
<svg version="1.1" id="Laag_1" xmlns="http://www.w3.org/2000/svg" xmlns:xlink="http://www.w3.org/1999/xlink" x="0px" y="0px"
	 viewBox="0 0 78.8 568" style="enable-background:new 0 0 78.8 568;" xml:space="preserve">
<style type="text/css">
	.st0{fill:#A2592E;}
	.st1{fill:#843818;}
</style>
<g>
	<rect y="-13.5" class="st0" width="78.8" height="595.1"/>
	<path class="st1" d="M0-13.5c0,0,15.5,201.2,14,266.6s-5.5,149.7-3.5,215.2c0,0,10.7-179,8.6-241s-6.5-206.2-5.8-241H0V-13.5z"/>
	<path class="st1" d="M39,22.3c0,0,17.1,102.1,14.7,139.4s-6.2,51.4-7.3,100.4c0,0-5.3-57.6-3-90.3C49.2,89,39,22.3,39,22.3z"/>
	<path class="st1" d="M50.3,581.6c0,0,8.4-124.1,5.4-153.5s-12.3-67.6-9.4-88.1c0,0,12.4,46.6,14.3,75.2
		C63.1,449.1,63.8,529.1,50.3,581.6z"/>
</g>
</svg>
