<?xml version="1.0" encoding="utf-8"?>
<!-- Generator: Adobe Illustrator 23.0.1, SVG Export Plug-In . SVG Version: 6.00 Build 0)  -->
<svg version="1.1" id="Laag_1" xmlns="http://www.w3.org/2000/svg" xmlns:xlink="http://www.w3.org/1999/xlink" x="0px" y="0px"
	 viewBox="0 0 172.4 532.1" style="enable-background:new 0 0 172.4 532.1;" xml:space="preserve">
<style type="text/css">
	.st0{fill:#A2592E;}
	.st1{fill:#843818;}
	.st2{fill:#A7A123;}
	.st3{fill:#B6B22D;}
</style>
<g>
	<g>
		<path class="st0" d="M46.8,503.2V-33.4h78.8v536.5c0,15.7-11.9,28.5-26.5,28.5H73.3C58.6,531.6,46.8,518.9,46.8,503.2z"/>
		<path class="st1" d="M63.8-33.4c0,0,12.3,206.3,10.8,273.5s-5.5,153.6-3.5,220.7c0,0,10.7-183.6,8.6-247.1S80.3,3.3,63.8-33.4
			L63.8-33.4z"/>
		<path class="st1" d="M97.8-12.7c0,0,14.2,81,12,110.8s-5.7,40.9-6.8,79.8c0,0-4.2-45.8-2.1-71.8C106.2,40.4,97.8-12.7,97.8-12.7z"
			/>
		<path class="st1" d="M97.1,531.6c0,0,8.4-81.4,5.4-100.6c-2.9-19.2-12.3-44.3-9.4-57.8c0,0,12.4,30.5,14.3,49.2
			C109.9,444.8,110.6,497.2,97.1,531.6z"/>
	</g>
	<path class="st2" d="M18,506.1c0.8-5.7-0.5-11.5-1.1-17.2s-0.1-12.2,3.5-16.2c1.7-1.9,4.4-3.1,6.6-2s3.3,3.9,4.1,6.5
		c2,6,3.9,12,5.9,17.9c3.3-2,2.6-7.6,4.7-11c2.8-4.6,9.7-3.1,12.8,1.4c3,4.5,3.3,10.6,3.4,16.2c3.5-6.5,9-11.5,15.3-13.9
		c5-1.3,7.7,16.5,6.4,25.4c1.3-5.8,9.1-6.8,13.1-2.8s5,10.7,4.9,16.7c0,1.2-0.1,2.6-0.8,3.5c-0.8,1-2.2,1-3.5,1
		c-24.2-0.4-55.1,5-78.7-1.4c-8-2.2-16.5-6.7-14.4-18.1C2.7,499.4,18.8,503.9,18,506.1z"/>
	<path class="st3" d="M80.9,508.2c3.8-3.1,9.1-2,12.3,2.7c-0.5-6.2,4.4-10.8,8.6-9.6c4.2,1.2,7.6,6.3,10,11.7
		c0.8,1.8,1.6,3.8,2.9,4.5c1.2,0.7,2.6,0,3.8-0.8c6.2-4.5,12.1-15.2,18.6-10.6c3.7,2.6,5.8,9.4,9.8,10.6c2.2,0.7,4.4-0.7,6.4-1.6
		c3.7-1.7,7.9-2.3,11.7-0.2s7,7.2,7.3,13c0,4.7-12.5,5.3-19.1,5.5c-20.3,0.6-40.7,0.7-61.1,0.3C83,533.4,66.3,520.2,80.9,508.2z"/>
</g>
</svg>
