<?xml version="1.0" encoding="utf-8"?>
<!-- Generator: Adobe Illustrator 23.0.1, SVG Export Plug-In . SVG Version: 6.00 Build 0)  -->
<svg version="1.1" id="Laag_1" xmlns="http://www.w3.org/2000/svg" xmlns:xlink="http://www.w3.org/1999/xlink" x="0px" y="0px"
	 viewBox="0 0 78.85 568" style="enable-background:new 0 0 78.85 568;" xml:space="preserve">
<style type="text/css">
	.st0{fill:#A2592E;}
	.st1{fill:#843818;}
	.st2{fill:#A7A123;}
	.st3{fill:#B6B22D;}
	.st4{fill:#B2B2B2;}
	.st5{fill:#989898;}
	.st6{fill:none;}
</style>
<g>
	
		<rect x="-244.58" y="244.58" transform="matrix(6.123234e-17 -1 1 6.123234e-17 -244.577 323.423)" class="st0" width="568" height="78.85"/>
	<path class="st1" d="M74.04,568c0,0-11.51-191.98-10.39-254.49c1.11-62.51,4.08-142.87,2.6-205.38c0,0-7.88,170.85-6.38,229.93
		c1.5,59.08,4.82,196.78,4.32,229.93H74.04z"/>
	<path class="st1" d="M40.04,533.84c0,0-17.11-97.36-14.7-133.1s6.25-49.07,7.28-95.78c0,0,5.26,54.97,2.99,86.19
		C29.87,470.08,40.04,533.84,40.04,533.84z"/>
	<path class="st1" d="M28.75,0c0,0-8.38,118.49-5.44,146.44s12.3,64.56,9.36,84.13c0,0-12.37-44.41-14.34-71.69
		C15.98,126.44,15.31,50.14,28.75,0z"/>
</g>
</svg>
