<?xml version="1.0" encoding="utf-8"?>
<!-- Generator: Adobe Illustrator 23.0.1, SVG Export Plug-In . SVG Version: 6.00 Build 0)  -->
<svg version="1.1" id="Laag_1" xmlns="http://www.w3.org/2000/svg" xmlns:xlink="http://www.w3.org/1999/xlink" x="0px" y="0px"
	 viewBox="0 0 78.8 457.5" style="enable-background:new 0 0 78.8 457.5;" xml:space="preserve">
<style type="text/css">
	.st0{fill:#A2592E;}
	.st1{fill:#843818;}
</style>
<g>
	<path class="st0" d="M0,458.1V26.9C0,9.4,17.6,0.5,39.4,0.5l0,0c21.8,0,39.4,8.9,39.4,26.4v431.1H0z"/>
	<path class="st1" d="M0,458.1c0,0,15.5-129.9,14-172.1S8.5,189.3,10.5,147c0,0,10.7,115.6,8.6,155.5s-6.5,133.1-5.8,155.5L0,458.1
		L0,458.1z"/>
	<path class="st1" d="M28.1,148.8c0,0,8.4-75.3,5.4-93s-12.3-41-9.4-53.4c0,0,12.4,28.2,14.3,45.5C40.9,68.5,41.6,117,28.1,148.8z"
		/>
	<path class="st1" d="M54,455.9c0,0-8.6-33.8-4.9-46s7.3-16.7,10.4-32.7c0,0,1.4,19-1.9,29.7C49.2,433.8,54,455.9,54,455.9z"/>
	<path class="st1" d="M51.4,327c0,0-11.6-80.4,0-150.3s4-90.8,4-90.8s9.1,32,5.3,84.2S51.7,235,51.4,327z"/>
</g>
</svg>
