<?xml version="1.0" encoding="utf-8"?>
<!-- Generator: Adobe Illustrator 23.0.1, SVG Export Plug-In . SVG Version: 6.00 Build 0)  -->
<svg version="1.1" id="Laag_1" xmlns="http://www.w3.org/2000/svg" xmlns:xlink="http://www.w3.org/1999/xlink" x="0px" y="0px"
	 viewBox="0 0 641.08 864.29" style="enable-background:new 0 0 641.08 864.29;" xml:space="preserve">
<style type="text/css">
	.st0{fill:#A2592E;}
	.st1{fill:#843818;}
	.st2{fill:#A7A123;}
	.st3{fill:#B6B22D;}
	.st4{fill:#B2B2B2;}
	.st5{fill:#989898;}
	.st6{fill:none;}
</style>
<g>
	<g>
		
			<rect x="154.78" y="659.2" transform="matrix(-1.836970e-16 1 -1 -1.836970e-16 1019.0739 378.1753)" class="st4" width="331.34" height="78.85"/>
		<path class="st5" d="M294.81,659.02V555.61c0-1.37,1.11-2.49,2.49-2.49l0,0c1.37,0,2.49,1.11,2.49,2.49v103.41
			c0,1.37-1.11,2.49-2.49,2.49l0,0C295.92,661.51,294.81,660.4,294.81,659.02z"/>
		<path class="st5" d="M337.98,757.04V609.61c0-1.26,1.03-2.29,2.29-2.29h1.12c1.26,0,2.29,1.03,2.29,2.29v147.43
			c0,1.26-1.03,2.29-2.29,2.29h-1.12C339,759.33,337.98,758.3,337.98,757.04z"/>
		<path class="st5" d="M308.99,864.29V730.73c0-1.49,1.21-2.7,2.7-2.7h0.09c1.49,0,2.7,1.21,2.7,2.7v133.56H308.99z"/>
	</g>
	<g>
		
			<rect x="35.25" y="483.79" transform="matrix(-1 -1.224647e-16 1.224647e-16 -1 641.1193 1016.7453)" class="st4" width="570.62" height="49.17"/>
		
			<rect x="-212.79" y="260.33" transform="matrix(6.123234e-17 -1 1 6.123234e-17 -225.0831 320.1655)" class="st4" width="520.66" height="24.58"/>
		
			<rect x="60.23" y="260.33" transform="matrix(6.123234e-17 -1 1 6.123234e-17 47.9349 593.1844)" class="st4" width="520.66" height="24.58"/>
		
			<rect x="196.57" y="260.33" transform="matrix(6.123234e-17 -1 1 6.123234e-17 184.2767 729.5253)" class="st4" width="520.66" height="24.58"/>
		
			<rect x="-76.22" y="260.33" transform="matrix(6.123234e-17 -1 1 6.123234e-17 -88.5156 456.733)" class="st4" width="520.66" height="24.58"/>
		<g>
			<g>
				<rect x="332.85" y="459.24" class="st4" width="20.23" height="6.06"/>
				<rect x="353.08" y="456.09" class="st0" width="15.08" height="12.36"/>
				<rect x="332.85" y="434.52" class="st4" width="20.23" height="6.06"/>
				<rect x="353.08" y="431.37" class="st0" width="15.08" height="12.36"/>
				<rect x="332.85" y="409.79" class="st4" width="20.23" height="6.06"/>
				<rect x="353.08" y="406.64" class="st0" width="15.08" height="12.36"/>
				<rect x="332.85" y="385.07" class="st4" width="20.23" height="6.06"/>
				<rect x="353.08" y="381.92" class="st0" width="15.08" height="12.36"/>
				<rect x="332.85" y="360.35" class="st4" width="20.23" height="6.06"/>
				<rect x="353.08" y="357.2" class="st0" width="15.08" height="12.36"/>
				<rect x="332.85" y="335.63" class="st4" width="20.23" height="6.06"/>
				<rect x="353.08" y="332.48" class="st0" width="15.08" height="12.36"/>
				<rect x="332.85" y="310.91" class="st4" width="20.23" height="6.06"/>
				<rect x="353.08" y="307.75" class="st0" width="15.08" height="12.36"/>
				<rect x="332.85" y="286.18" class="st4" width="20.23" height="6.06"/>
				<rect x="353.08" y="283.03" class="st0" width="15.08" height="12.36"/>
				<g>
					<g>
						<rect x="332.85" y="261.32" class="st4" width="20.23" height="6.06"/>
						<rect x="353.08" y="258.17" class="st0" width="15.08" height="12.36"/>
						<rect x="332.85" y="236.6" class="st4" width="20.23" height="6.06"/>
						<rect x="353.08" y="233.45" class="st0" width="15.08" height="12.36"/>
						<rect x="332.85" y="211.88" class="st4" width="20.23" height="6.06"/>
						<rect x="353.08" y="208.72" class="st0" width="15.08" height="12.36"/>
						<rect x="332.85" y="187.15" class="st4" width="20.23" height="6.06"/>
						<rect x="353.08" y="184" class="st0" width="15.08" height="12.36"/>
						<rect x="332.85" y="162.43" class="st4" width="20.23" height="6.06"/>
						<rect x="353.08" y="159.28" class="st0" width="15.08" height="12.36"/>
						<rect x="332.85" y="137.71" class="st4" width="20.23" height="6.06"/>
						<rect x="353.08" y="134.56" class="st0" width="15.08" height="12.36"/>
						<rect x="332.85" y="112.99" class="st4" width="20.23" height="6.06"/>
						<rect x="353.08" y="109.83" class="st0" width="15.08" height="12.36"/>
						<rect x="332.85" y="88.26" class="st4" width="20.23" height="6.06"/>
						<rect x="353.08" y="85.11" class="st0" width="15.08" height="12.36"/>
					</g>
					<rect x="332.85" y="63.54" class="st4" width="20.23" height="6.06"/>
					<rect x="353.08" y="60.39" class="st0" width="15.08" height="12.36"/>
					<rect x="332.85" y="38.82" class="st4" width="20.23" height="6.06"/>
				</g>
			</g>
			<rect x="353.08" y="35.67" class="st0" width="15.08" height="12.36"/>
		</g>
		<rect x="35.25" y="0" class="st4" width="570.62" height="24.58"/>
		<g>
			<g>
				
					<rect x="288.16" y="38.82" transform="matrix(-1 -1.224647e-16 1.224647e-16 -1 596.5405 83.6963)" class="st4" width="20.23" height="6.06"/>
				
					<rect x="273.08" y="35.67" transform="matrix(-1 -1.224647e-16 1.224647e-16 -1 561.233 83.6963)" class="st0" width="15.08" height="12.36"/>
				
					<rect x="288.16" y="63.54" transform="matrix(-1 -1.224647e-16 1.224647e-16 -1 596.5405 133.141)" class="st4" width="20.23" height="6.06"/>
				
					<rect x="273.08" y="60.39" transform="matrix(-1 -1.224647e-16 1.224647e-16 -1 561.233 133.141)" class="st0" width="15.08" height="12.36"/>
				
					<rect x="288.16" y="88.26" transform="matrix(-1 -1.224647e-16 1.224647e-16 -1 596.5405 182.5856)" class="st4" width="20.23" height="6.06"/>
				
					<rect x="273.08" y="85.11" transform="matrix(-1 -1.224647e-16 1.224647e-16 -1 561.233 182.5856)" class="st0" width="15.08" height="12.36"/>
				
					<rect x="288.16" y="112.99" transform="matrix(-1 -1.224647e-16 1.224647e-16 -1 596.5405 232.0303)" class="st4" width="20.23" height="6.06"/>
				
					<rect x="273.08" y="109.83" transform="matrix(-1 -1.224647e-16 1.224647e-16 -1 561.233 232.0303)" class="st0" width="15.08" height="12.36"/>
				
					<rect x="288.16" y="137.71" transform="matrix(-1 -1.224647e-16 1.224647e-16 -1 596.5405 281.4749)" class="st4" width="20.23" height="6.06"/>
				
					<rect x="273.08" y="134.56" transform="matrix(-1 -1.224647e-16 1.224647e-16 -1 561.233 281.4749)" class="st0" width="15.08" height="12.36"/>
				
					<rect x="288.16" y="162.43" transform="matrix(-1 -1.224647e-16 1.224647e-16 -1 596.5405 330.9196)" class="st4" width="20.23" height="6.06"/>
				
					<rect x="273.08" y="159.28" transform="matrix(-1 -1.224647e-16 1.224647e-16 -1 561.233 330.9196)" class="st0" width="15.08" height="12.36"/>
				
					<rect x="288.16" y="187.15" transform="matrix(-1 -1.224647e-16 1.224647e-16 -1 596.5405 380.3642)" class="st4" width="20.23" height="6.06"/>
				
					<rect x="273.08" y="184" transform="matrix(-1 -1.224647e-16 1.224647e-16 -1 561.233 380.3642)" class="st0" width="15.08" height="12.36"/>
				
					<rect x="288.16" y="211.88" transform="matrix(-1 -1.224647e-16 1.224647e-16 -1 596.5405 429.8089)" class="st4" width="20.23" height="6.06"/>
				
					<rect x="273.08" y="208.72" transform="matrix(-1 -1.224647e-16 1.224647e-16 -1 561.233 429.8089)" class="st0" width="15.08" height="12.36"/>
				<g>
					<g>
						
							<rect x="288.16" y="236.74" transform="matrix(-1 -1.224647e-16 1.224647e-16 -1 596.5405 479.5349)" class="st4" width="20.23" height="6.06"/>
						
							<rect x="273.08" y="233.59" transform="matrix(-1 -1.224647e-16 1.224647e-16 -1 561.233 479.5349)" class="st0" width="15.08" height="12.36"/>
						
							<rect x="288.16" y="261.46" transform="matrix(-1 -1.224647e-16 1.224647e-16 -1 596.5405 528.9795)" class="st4" width="20.23" height="6.06"/>
						
							<rect x="273.08" y="258.31" transform="matrix(-1 -1.224647e-16 1.224647e-16 -1 561.233 528.9795)" class="st0" width="15.08" height="12.36"/>
						
							<rect x="288.16" y="286.18" transform="matrix(-1 -1.224647e-16 1.224647e-16 -1 596.5405 578.4241)" class="st4" width="20.23" height="6.06"/>
						
							<rect x="273.08" y="283.03" transform="matrix(-1 -1.224647e-16 1.224647e-16 -1 561.233 578.4241)" class="st0" width="15.08" height="12.36"/>
						
							<rect x="288.16" y="310.91" transform="matrix(-1 -1.224647e-16 1.224647e-16 -1 596.5405 627.8688)" class="st4" width="20.23" height="6.06"/>
						
							<rect x="273.08" y="307.75" transform="matrix(-1 -1.224647e-16 1.224647e-16 -1 561.233 627.8688)" class="st0" width="15.08" height="12.36"/>
						
							<rect x="288.16" y="335.63" transform="matrix(-1 -1.224647e-16 1.224647e-16 -1 596.5405 677.3135)" class="st4" width="20.23" height="6.06"/>
						
							<rect x="273.08" y="332.48" transform="matrix(-1 -1.224647e-16 1.224647e-16 -1 561.233 677.3135)" class="st0" width="15.08" height="12.36"/>
						
							<rect x="288.16" y="360.35" transform="matrix(-1 -1.224647e-16 1.224647e-16 -1 596.5405 726.7581)" class="st4" width="20.23" height="6.06"/>
						
							<rect x="273.08" y="357.2" transform="matrix(-1 -1.224647e-16 1.224647e-16 -1 561.233 726.7581)" class="st0" width="15.08" height="12.36"/>
						
							<rect x="288.16" y="385.07" transform="matrix(-1 -1.224647e-16 1.224647e-16 -1 596.5405 776.2028)" class="st4" width="20.23" height="6.06"/>
						
							<rect x="273.08" y="381.92" transform="matrix(-1 -1.224647e-16 1.224647e-16 -1 561.233 776.2028)" class="st0" width="15.08" height="12.36"/>
						
							<rect x="288.16" y="409.79" transform="matrix(-1 -1.224647e-16 1.224647e-16 -1 596.5405 825.6474)" class="st4" width="20.23" height="6.06"/>
						
							<rect x="273.08" y="406.64" transform="matrix(-1 -1.224647e-16 1.224647e-16 -1 561.233 825.6474)" class="st0" width="15.08" height="12.36"/>
					</g>
					
						<rect x="288.16" y="434.52" transform="matrix(-1 -1.224647e-16 1.224647e-16 -1 596.5405 875.092)" class="st4" width="20.23" height="6.06"/>
					
						<rect x="273.08" y="431.37" transform="matrix(-1 -1.224647e-16 1.224647e-16 -1 561.233 875.092)" class="st0" width="15.08" height="12.36"/>
					
						<rect x="288.16" y="459.24" transform="matrix(-1 -1.224647e-16 1.224647e-16 -1 596.5405 924.5367)" class="st4" width="20.23" height="6.06"/>
				</g>
			</g>
			
				<rect x="273.08" y="456.09" transform="matrix(-1 -1.224647e-16 1.224647e-16 -1 561.233 924.5367)" class="st0" width="15.08" height="12.36"/>
		</g>
		<g>
			<g>
				<g>
					<rect x="196.34" y="459.24" class="st4" width="20.23" height="6.06"/>
					<rect x="216.57" y="456.09" class="st0" width="15.08" height="12.36"/>
					<rect x="196.34" y="434.52" class="st4" width="20.23" height="6.06"/>
					<rect x="216.57" y="431.37" class="st0" width="15.08" height="12.36"/>
					<rect x="196.34" y="409.79" class="st4" width="20.23" height="6.06"/>
					<rect x="216.57" y="406.64" class="st0" width="15.08" height="12.36"/>
					<rect x="196.34" y="385.07" class="st4" width="20.23" height="6.06"/>
					<rect x="216.57" y="381.92" class="st0" width="15.08" height="12.36"/>
					<rect x="196.34" y="360.35" class="st4" width="20.23" height="6.06"/>
					<rect x="216.57" y="357.2" class="st0" width="15.08" height="12.36"/>
					<rect x="196.34" y="335.63" class="st4" width="20.23" height="6.06"/>
					<rect x="216.57" y="332.48" class="st0" width="15.08" height="12.36"/>
					<rect x="196.34" y="310.91" class="st4" width="20.23" height="6.06"/>
					<rect x="216.57" y="307.75" class="st0" width="15.08" height="12.36"/>
					<rect x="196.34" y="286.18" class="st4" width="20.23" height="6.06"/>
					<rect x="216.57" y="283.03" class="st0" width="15.08" height="12.36"/>
					<g>
						<g>
							<rect x="196.34" y="261.32" class="st4" width="20.23" height="6.06"/>
							<rect x="216.57" y="258.17" class="st0" width="15.08" height="12.36"/>
							<rect x="196.34" y="236.6" class="st4" width="20.23" height="6.06"/>
							<rect x="216.57" y="233.45" class="st0" width="15.08" height="12.36"/>
							<rect x="196.34" y="211.88" class="st4" width="20.23" height="6.06"/>
							<rect x="216.57" y="208.72" class="st0" width="15.08" height="12.36"/>
							<rect x="196.34" y="187.15" class="st4" width="20.23" height="6.06"/>
							<rect x="216.57" y="184" class="st0" width="15.08" height="12.36"/>
							<rect x="196.34" y="162.43" class="st4" width="20.23" height="6.06"/>
							<rect x="216.57" y="159.28" class="st0" width="15.08" height="12.36"/>
							<rect x="196.34" y="137.71" class="st4" width="20.23" height="6.06"/>
							<rect x="216.57" y="134.56" class="st0" width="15.08" height="12.36"/>
							<rect x="196.34" y="112.99" class="st4" width="20.23" height="6.06"/>
							<rect x="216.57" y="109.83" class="st0" width="15.08" height="12.36"/>
							<rect x="196.34" y="88.26" class="st4" width="20.23" height="6.06"/>
							<rect x="216.57" y="85.11" class="st0" width="15.08" height="12.36"/>
						</g>
						<rect x="196.34" y="63.54" class="st4" width="20.23" height="6.06"/>
						<rect x="216.57" y="60.39" class="st0" width="15.08" height="12.36"/>
						<rect x="196.34" y="38.82" class="st4" width="20.23" height="6.06"/>
					</g>
				</g>
				<rect x="216.57" y="35.67" class="st0" width="15.08" height="12.36"/>
			</g>
			<g>
				<g>
					
						<rect x="151.65" y="38.82" transform="matrix(-1 -1.224647e-16 1.224647e-16 -1 323.522 83.6963)" class="st4" width="20.23" height="6.06"/>
					
						<rect x="136.57" y="35.67" transform="matrix(-1 -1.224647e-16 1.224647e-16 -1 288.2146 83.6963)" class="st0" width="15.08" height="12.36"/>
					
						<rect x="151.65" y="63.54" transform="matrix(-1 -1.224647e-16 1.224647e-16 -1 323.522 133.141)" class="st4" width="20.23" height="6.06"/>
					
						<rect x="136.57" y="60.39" transform="matrix(-1 -1.224647e-16 1.224647e-16 -1 288.2146 133.141)" class="st0" width="15.08" height="12.36"/>
					
						<rect x="151.65" y="88.26" transform="matrix(-1 -1.224647e-16 1.224647e-16 -1 323.522 182.5856)" class="st4" width="20.23" height="6.06"/>
					
						<rect x="136.57" y="85.11" transform="matrix(-1 -1.224647e-16 1.224647e-16 -1 288.2146 182.5856)" class="st0" width="15.08" height="12.36"/>
					
						<rect x="151.65" y="112.99" transform="matrix(-1 -1.224647e-16 1.224647e-16 -1 323.522 232.0303)" class="st4" width="20.23" height="6.06"/>
					
						<rect x="136.57" y="109.83" transform="matrix(-1 -1.224647e-16 1.224647e-16 -1 288.2146 232.0303)" class="st0" width="15.08" height="12.36"/>
					
						<rect x="151.65" y="137.71" transform="matrix(-1 -1.224647e-16 1.224647e-16 -1 323.522 281.4749)" class="st4" width="20.23" height="6.06"/>
					
						<rect x="136.57" y="134.56" transform="matrix(-1 -1.224647e-16 1.224647e-16 -1 288.2146 281.4749)" class="st0" width="15.08" height="12.36"/>
					
						<rect x="151.65" y="162.43" transform="matrix(-1 -1.224647e-16 1.224647e-16 -1 323.522 330.9196)" class="st4" width="20.23" height="6.06"/>
					
						<rect x="136.57" y="159.28" transform="matrix(-1 -1.224647e-16 1.224647e-16 -1 288.2146 330.9196)" class="st0" width="15.08" height="12.36"/>
					
						<rect x="151.65" y="187.15" transform="matrix(-1 -1.224647e-16 1.224647e-16 -1 323.522 380.3642)" class="st4" width="20.23" height="6.06"/>
					
						<rect x="136.57" y="184" transform="matrix(-1 -1.224647e-16 1.224647e-16 -1 288.2146 380.3642)" class="st0" width="15.08" height="12.36"/>
					
						<rect x="151.65" y="211.88" transform="matrix(-1 -1.224647e-16 1.224647e-16 -1 323.522 429.8089)" class="st4" width="20.23" height="6.06"/>
					
						<rect x="136.57" y="208.72" transform="matrix(-1 -1.224647e-16 1.224647e-16 -1 288.2146 429.8089)" class="st0" width="15.08" height="12.36"/>
					<g>
						<g>
							
								<rect x="151.65" y="236.74" transform="matrix(-1 -1.224647e-16 1.224647e-16 -1 323.522 479.5349)" class="st4" width="20.23" height="6.06"/>
							
								<rect x="136.57" y="233.59" transform="matrix(-1 -1.224647e-16 1.224647e-16 -1 288.2146 479.5349)" class="st0" width="15.08" height="12.36"/>
							
								<rect x="151.65" y="261.46" transform="matrix(-1 -1.224647e-16 1.224647e-16 -1 323.522 528.9795)" class="st4" width="20.23" height="6.06"/>
							
								<rect x="136.57" y="258.31" transform="matrix(-1 -1.224647e-16 1.224647e-16 -1 288.2146 528.9795)" class="st0" width="15.08" height="12.36"/>
							
								<rect x="151.65" y="286.18" transform="matrix(-1 -1.224647e-16 1.224647e-16 -1 323.522 578.4241)" class="st4" width="20.23" height="6.06"/>
							
								<rect x="136.57" y="283.03" transform="matrix(-1 -1.224647e-16 1.224647e-16 -1 288.2146 578.4241)" class="st0" width="15.08" height="12.36"/>
							
								<rect x="151.65" y="310.91" transform="matrix(-1 -1.224647e-16 1.224647e-16 -1 323.522 627.8688)" class="st4" width="20.23" height="6.06"/>
							
								<rect x="136.57" y="307.75" transform="matrix(-1 -1.224647e-16 1.224647e-16 -1 288.2146 627.8688)" class="st0" width="15.08" height="12.36"/>
							
								<rect x="151.65" y="335.63" transform="matrix(-1 -1.224647e-16 1.224647e-16 -1 323.522 677.3135)" class="st4" width="20.23" height="6.06"/>
							
								<rect x="136.57" y="332.48" transform="matrix(-1 -1.224647e-16 1.224647e-16 -1 288.2146 677.3135)" class="st0" width="15.08" height="12.36"/>
							
								<rect x="151.65" y="360.35" transform="matrix(-1 -1.224647e-16 1.224647e-16 -1 323.522 726.7581)" class="st4" width="20.23" height="6.06"/>
							
								<rect x="136.57" y="357.2" transform="matrix(-1 -1.224647e-16 1.224647e-16 -1 288.2146 726.7581)" class="st0" width="15.08" height="12.36"/>
							
								<rect x="151.65" y="385.07" transform="matrix(-1 -1.224647e-16 1.224647e-16 -1 323.522 776.2028)" class="st4" width="20.23" height="6.06"/>
							
								<rect x="136.57" y="381.92" transform="matrix(-1 -1.224647e-16 1.224647e-16 -1 288.2146 776.2028)" class="st0" width="15.08" height="12.36"/>
							
								<rect x="151.65" y="409.79" transform="matrix(-1 -1.224647e-16 1.224647e-16 -1 323.522 825.6474)" class="st4" width="20.23" height="6.06"/>
							
								<rect x="136.57" y="406.64" transform="matrix(-1 -1.224647e-16 1.224647e-16 -1 288.2146 825.6474)" class="st0" width="15.08" height="12.36"/>
						</g>
						
							<rect x="151.65" y="434.52" transform="matrix(-1 -1.224647e-16 1.224647e-16 -1 323.522 875.092)" class="st4" width="20.23" height="6.06"/>
						
							<rect x="136.57" y="431.37" transform="matrix(-1 -1.224647e-16 1.224647e-16 -1 288.2146 875.092)" class="st0" width="15.08" height="12.36"/>
						
							<rect x="151.65" y="459.24" transform="matrix(-1 -1.224647e-16 1.224647e-16 -1 323.522 924.5367)" class="st4" width="20.23" height="6.06"/>
					</g>
				</g>
				
					<rect x="136.57" y="456.09" transform="matrix(-1 -1.224647e-16 1.224647e-16 -1 288.2146 924.5367)" class="st0" width="15.08" height="12.36"/>
			</g>
		</g>
		<g>
			<g>
				<g>
					<rect x="469.13" y="459.24" class="st4" width="20.23" height="6.06"/>
					<rect x="489.36" y="456.09" class="st0" width="15.08" height="12.36"/>
					<rect x="469.13" y="434.52" class="st4" width="20.23" height="6.06"/>
					<rect x="489.36" y="431.37" class="st0" width="15.08" height="12.36"/>
					<rect x="469.13" y="409.79" class="st4" width="20.23" height="6.06"/>
					<rect x="489.36" y="406.64" class="st0" width="15.08" height="12.36"/>
					<rect x="469.13" y="385.07" class="st4" width="20.23" height="6.06"/>
					<rect x="489.36" y="381.92" class="st0" width="15.08" height="12.36"/>
					<rect x="469.13" y="360.35" class="st4" width="20.23" height="6.06"/>
					<rect x="489.36" y="357.2" class="st0" width="15.08" height="12.36"/>
					<rect x="469.13" y="335.63" class="st4" width="20.23" height="6.06"/>
					<rect x="489.36" y="332.48" class="st0" width="15.08" height="12.36"/>
					<rect x="469.13" y="310.91" class="st4" width="20.23" height="6.06"/>
					<rect x="489.36" y="307.75" class="st0" width="15.08" height="12.36"/>
					<rect x="469.13" y="286.18" class="st4" width="20.23" height="6.06"/>
					<rect x="489.36" y="283.03" class="st0" width="15.08" height="12.36"/>
					<g>
						<g>
							<rect x="469.13" y="261.32" class="st4" width="20.23" height="6.06"/>
							<rect x="489.36" y="258.17" class="st0" width="15.08" height="12.36"/>
							<rect x="469.13" y="236.6" class="st4" width="20.23" height="6.06"/>
							<rect x="489.36" y="233.45" class="st0" width="15.08" height="12.36"/>
							<rect x="469.13" y="211.88" class="st4" width="20.23" height="6.06"/>
							<rect x="489.36" y="208.72" class="st0" width="15.08" height="12.36"/>
							<rect x="469.13" y="187.15" class="st4" width="20.23" height="6.06"/>
							<rect x="489.36" y="184" class="st0" width="15.08" height="12.36"/>
							<rect x="469.13" y="162.43" class="st4" width="20.23" height="6.06"/>
							<rect x="489.36" y="159.28" class="st0" width="15.08" height="12.36"/>
							<rect x="469.13" y="137.71" class="st4" width="20.23" height="6.06"/>
							<rect x="489.36" y="134.56" class="st0" width="15.08" height="12.36"/>
							<rect x="469.13" y="112.99" class="st4" width="20.23" height="6.06"/>
							<rect x="489.36" y="109.83" class="st0" width="15.08" height="12.36"/>
							<rect x="469.13" y="88.26" class="st4" width="20.23" height="6.06"/>
							<rect x="489.36" y="85.11" class="st0" width="15.08" height="12.36"/>
						</g>
						<rect x="469.13" y="63.54" class="st4" width="20.23" height="6.06"/>
						<rect x="489.36" y="60.39" class="st0" width="15.08" height="12.36"/>
						<rect x="469.13" y="38.82" class="st4" width="20.23" height="6.06"/>
					</g>
				</g>
				<rect x="489.36" y="35.67" class="st0" width="15.08" height="12.36"/>
			</g>
			<g>
				<g>
					
						<rect x="424.44" y="38.82" transform="matrix(-1 -1.224647e-16 1.224647e-16 -1 869.1061 83.6963)" class="st4" width="20.23" height="6.06"/>
					
						<rect x="409.36" y="35.67" transform="matrix(-1 -1.224647e-16 1.224647e-16 -1 833.7988 83.6963)" class="st0" width="15.08" height="12.36"/>
					
						<rect x="424.44" y="63.54" transform="matrix(-1 -1.224647e-16 1.224647e-16 -1 869.1061 133.141)" class="st4" width="20.23" height="6.06"/>
					
						<rect x="409.36" y="60.39" transform="matrix(-1 -1.224647e-16 1.224647e-16 -1 833.7988 133.141)" class="st0" width="15.08" height="12.36"/>
					
						<rect x="424.44" y="88.26" transform="matrix(-1 -1.224647e-16 1.224647e-16 -1 869.1061 182.5856)" class="st4" width="20.23" height="6.06"/>
					
						<rect x="409.36" y="85.11" transform="matrix(-1 -1.224647e-16 1.224647e-16 -1 833.7988 182.5856)" class="st0" width="15.08" height="12.36"/>
					
						<rect x="424.44" y="112.99" transform="matrix(-1 -1.224647e-16 1.224647e-16 -1 869.1061 232.0303)" class="st4" width="20.23" height="6.06"/>
					
						<rect x="409.36" y="109.83" transform="matrix(-1 -1.224647e-16 1.224647e-16 -1 833.7988 232.0303)" class="st0" width="15.08" height="12.36"/>
					
						<rect x="424.44" y="137.71" transform="matrix(-1 -1.224647e-16 1.224647e-16 -1 869.1061 281.4749)" class="st4" width="20.23" height="6.06"/>
					
						<rect x="409.36" y="134.56" transform="matrix(-1 -1.224647e-16 1.224647e-16 -1 833.7988 281.4749)" class="st0" width="15.08" height="12.36"/>
					
						<rect x="424.44" y="162.43" transform="matrix(-1 -1.224647e-16 1.224647e-16 -1 869.1061 330.9196)" class="st4" width="20.23" height="6.06"/>
					
						<rect x="409.36" y="159.28" transform="matrix(-1 -1.224647e-16 1.224647e-16 -1 833.7988 330.9196)" class="st0" width="15.08" height="12.36"/>
					
						<rect x="424.44" y="187.15" transform="matrix(-1 -1.224647e-16 1.224647e-16 -1 869.1061 380.3642)" class="st4" width="20.23" height="6.06"/>
					
						<rect x="409.36" y="184" transform="matrix(-1 -1.224647e-16 1.224647e-16 -1 833.7988 380.3642)" class="st0" width="15.08" height="12.36"/>
					
						<rect x="424.44" y="211.88" transform="matrix(-1 -1.224647e-16 1.224647e-16 -1 869.1061 429.8089)" class="st4" width="20.23" height="6.06"/>
					
						<rect x="409.36" y="208.72" transform="matrix(-1 -1.224647e-16 1.224647e-16 -1 833.7988 429.8089)" class="st0" width="15.08" height="12.36"/>
					<g>
						<g>
							
								<rect x="424.44" y="236.74" transform="matrix(-1 -1.224647e-16 1.224647e-16 -1 869.1061 479.5349)" class="st4" width="20.23" height="6.06"/>
							
								<rect x="409.36" y="233.59" transform="matrix(-1 -1.224647e-16 1.224647e-16 -1 833.7988 479.5349)" class="st0" width="15.08" height="12.36"/>
							
								<rect x="424.44" y="261.46" transform="matrix(-1 -1.224647e-16 1.224647e-16 -1 869.1061 528.9795)" class="st4" width="20.23" height="6.06"/>
							
								<rect x="409.36" y="258.31" transform="matrix(-1 -1.224647e-16 1.224647e-16 -1 833.7988 528.9795)" class="st0" width="15.08" height="12.36"/>
							
								<rect x="424.44" y="286.18" transform="matrix(-1 -1.224647e-16 1.224647e-16 -1 869.1061 578.4241)" class="st4" width="20.23" height="6.06"/>
							
								<rect x="409.36" y="283.03" transform="matrix(-1 -1.224647e-16 1.224647e-16 -1 833.7988 578.4241)" class="st0" width="15.08" height="12.36"/>
							
								<rect x="424.44" y="310.91" transform="matrix(-1 -1.224647e-16 1.224647e-16 -1 869.1061 627.8688)" class="st4" width="20.23" height="6.06"/>
							
								<rect x="409.36" y="307.75" transform="matrix(-1 -1.224647e-16 1.224647e-16 -1 833.7988 627.8688)" class="st0" width="15.08" height="12.36"/>
							
								<rect x="424.44" y="335.63" transform="matrix(-1 -1.224647e-16 1.224647e-16 -1 869.1061 677.3135)" class="st4" width="20.23" height="6.06"/>
							
								<rect x="409.36" y="332.48" transform="matrix(-1 -1.224647e-16 1.224647e-16 -1 833.7988 677.3135)" class="st0" width="15.08" height="12.36"/>
							
								<rect x="424.44" y="360.35" transform="matrix(-1 -1.224647e-16 1.224647e-16 -1 869.1061 726.7581)" class="st4" width="20.23" height="6.06"/>
							
								<rect x="409.36" y="357.2" transform="matrix(-1 -1.224647e-16 1.224647e-16 -1 833.7988 726.7581)" class="st0" width="15.08" height="12.36"/>
							
								<rect x="424.44" y="385.07" transform="matrix(-1 -1.224647e-16 1.224647e-16 -1 869.1061 776.2028)" class="st4" width="20.23" height="6.06"/>
							
								<rect x="409.36" y="381.92" transform="matrix(-1 -1.224647e-16 1.224647e-16 -1 833.7988 776.2028)" class="st0" width="15.08" height="12.36"/>
							
								<rect x="424.44" y="409.79" transform="matrix(-1 -1.224647e-16 1.224647e-16 -1 869.1061 825.6474)" class="st4" width="20.23" height="6.06"/>
							
								<rect x="409.36" y="406.64" transform="matrix(-1 -1.224647e-16 1.224647e-16 -1 833.7988 825.6474)" class="st0" width="15.08" height="12.36"/>
						</g>
						
							<rect x="424.44" y="434.52" transform="matrix(-1 -1.224647e-16 1.224647e-16 -1 869.1061 875.092)" class="st4" width="20.23" height="6.06"/>
						
							<rect x="409.36" y="431.37" transform="matrix(-1 -1.224647e-16 1.224647e-16 -1 833.7988 875.092)" class="st0" width="15.08" height="12.36"/>
						
							<rect x="424.44" y="459.24" transform="matrix(-1 -1.224647e-16 1.224647e-16 -1 869.1061 924.5367)" class="st4" width="20.23" height="6.06"/>
					</g>
				</g>
				
					<rect x="409.36" y="456.09" transform="matrix(-1 -1.224647e-16 1.224647e-16 -1 833.7988 924.5367)" class="st0" width="15.08" height="12.36"/>
			</g>
		</g>
		<g>
			<g>
				<g>
					<rect x="59.77" y="459.24" class="st4" width="20.23" height="6.06"/>
					<rect x="80" y="456.09" class="st0" width="15.08" height="12.36"/>
					<rect x="59.77" y="434.52" class="st4" width="20.23" height="6.06"/>
					<rect x="80" y="431.37" class="st0" width="15.08" height="12.36"/>
					<rect x="59.77" y="409.79" class="st4" width="20.23" height="6.06"/>
					<rect x="80" y="406.64" class="st0" width="15.08" height="12.36"/>
					<rect x="59.77" y="385.07" class="st4" width="20.23" height="6.06"/>
					<rect x="80" y="381.92" class="st0" width="15.08" height="12.36"/>
					<rect x="59.77" y="360.35" class="st4" width="20.23" height="6.06"/>
					<rect x="80" y="357.2" class="st0" width="15.08" height="12.36"/>
					<rect x="59.77" y="335.63" class="st4" width="20.23" height="6.06"/>
					<rect x="80" y="332.48" class="st0" width="15.08" height="12.36"/>
					<rect x="59.77" y="310.91" class="st4" width="20.23" height="6.06"/>
					<rect x="80" y="307.75" class="st0" width="15.08" height="12.36"/>
					<rect x="59.77" y="286.18" class="st4" width="20.23" height="6.06"/>
					<rect x="80" y="283.03" class="st0" width="15.08" height="12.36"/>
					<g>
						<g>
							<rect x="59.77" y="261.32" class="st4" width="20.23" height="6.06"/>
							<rect x="80" y="258.17" class="st0" width="15.08" height="12.36"/>
							<rect x="59.77" y="236.6" class="st4" width="20.23" height="6.06"/>
							<rect x="80" y="233.45" class="st0" width="15.08" height="12.36"/>
							<rect x="59.77" y="211.88" class="st4" width="20.23" height="6.06"/>
							<rect x="80" y="208.72" class="st0" width="15.08" height="12.36"/>
							<rect x="59.77" y="187.15" class="st4" width="20.23" height="6.06"/>
							<rect x="80" y="184" class="st0" width="15.08" height="12.36"/>
							<rect x="59.77" y="162.43" class="st4" width="20.23" height="6.06"/>
							<rect x="80" y="159.28" class="st0" width="15.08" height="12.36"/>
							<rect x="59.77" y="137.71" class="st4" width="20.23" height="6.06"/>
							<rect x="80" y="134.56" class="st0" width="15.08" height="12.36"/>
							<rect x="59.77" y="112.99" class="st4" width="20.23" height="6.06"/>
							<rect x="80" y="109.83" class="st0" width="15.08" height="12.36"/>
							<rect x="59.77" y="88.26" class="st4" width="20.23" height="6.06"/>
							<rect x="80" y="85.11" class="st0" width="15.08" height="12.36"/>
						</g>
						<rect x="59.77" y="63.54" class="st4" width="20.23" height="6.06"/>
						<rect x="80" y="60.39" class="st0" width="15.08" height="12.36"/>
						<rect x="59.77" y="38.82" class="st4" width="20.23" height="6.06"/>
					</g>
				</g>
				<rect x="80" y="35.67" class="st0" width="15.08" height="12.36"/>
			</g>
			<g>
				<g>
					
						<rect x="15.08" y="38.82" transform="matrix(-1 -1.224647e-16 1.224647e-16 -1 50.387 83.6963)" class="st4" width="20.23" height="6.06"/>
					
						<rect y="35.67" transform="matrix(-1 -1.224647e-16 1.224647e-16 -1 15.0796 83.6963)" class="st0" width="15.08" height="12.36"/>
					
						<rect x="15.08" y="63.54" transform="matrix(-1 -1.224647e-16 1.224647e-16 -1 50.387 133.141)" class="st4" width="20.23" height="6.06"/>
					
						<rect y="60.39" transform="matrix(-1 -1.224647e-16 1.224647e-16 -1 15.0796 133.141)" class="st0" width="15.08" height="12.36"/>
					
						<rect x="15.08" y="88.26" transform="matrix(-1 -1.224647e-16 1.224647e-16 -1 50.387 182.5856)" class="st4" width="20.23" height="6.06"/>
					
						<rect y="85.11" transform="matrix(-1 -1.224647e-16 1.224647e-16 -1 15.0796 182.5856)" class="st0" width="15.08" height="12.36"/>
					
						<rect x="15.08" y="112.99" transform="matrix(-1 -1.224647e-16 1.224647e-16 -1 50.387 232.0303)" class="st4" width="20.23" height="6.06"/>
					
						<rect y="109.83" transform="matrix(-1 -1.224647e-16 1.224647e-16 -1 15.0796 232.0303)" class="st0" width="15.08" height="12.36"/>
					
						<rect x="15.08" y="137.71" transform="matrix(-1 -1.224647e-16 1.224647e-16 -1 50.387 281.4749)" class="st4" width="20.23" height="6.06"/>
					
						<rect y="134.56" transform="matrix(-1 -1.224647e-16 1.224647e-16 -1 15.0796 281.4749)" class="st0" width="15.08" height="12.36"/>
					
						<rect x="15.08" y="162.43" transform="matrix(-1 -1.224647e-16 1.224647e-16 -1 50.387 330.9196)" class="st4" width="20.23" height="6.06"/>
					
						<rect y="159.28" transform="matrix(-1 -1.224647e-16 1.224647e-16 -1 15.0796 330.9196)" class="st0" width="15.08" height="12.36"/>
					
						<rect x="15.08" y="187.15" transform="matrix(-1 -1.224647e-16 1.224647e-16 -1 50.387 380.3642)" class="st4" width="20.23" height="6.06"/>
					
						<rect y="184" transform="matrix(-1 -1.224647e-16 1.224647e-16 -1 15.0796 380.3642)" class="st0" width="15.08" height="12.36"/>
					
						<rect x="15.08" y="211.88" transform="matrix(-1 -1.224647e-16 1.224647e-16 -1 50.387 429.8089)" class="st4" width="20.23" height="6.06"/>
					
						<rect y="208.72" transform="matrix(-1 -1.224647e-16 1.224647e-16 -1 15.0796 429.8089)" class="st0" width="15.08" height="12.36"/>
					<g>
						<g>
							
								<rect x="15.08" y="236.74" transform="matrix(-1 -1.224647e-16 1.224647e-16 -1 50.387 479.5349)" class="st4" width="20.23" height="6.06"/>
							
								<rect y="233.59" transform="matrix(-1 -1.224647e-16 1.224647e-16 -1 15.0796 479.5349)" class="st0" width="15.08" height="12.36"/>
							
								<rect x="15.08" y="261.46" transform="matrix(-1 -1.224647e-16 1.224647e-16 -1 50.387 528.9795)" class="st4" width="20.23" height="6.06"/>
							
								<rect y="258.31" transform="matrix(-1 -1.224647e-16 1.224647e-16 -1 15.0796 528.9795)" class="st0" width="15.08" height="12.36"/>
							
								<rect x="15.08" y="286.18" transform="matrix(-1 -1.224647e-16 1.224647e-16 -1 50.387 578.4241)" class="st4" width="20.23" height="6.06"/>
							
								<rect y="283.03" transform="matrix(-1 -1.224647e-16 1.224647e-16 -1 15.0796 578.4241)" class="st0" width="15.08" height="12.36"/>
							
								<rect x="15.08" y="310.91" transform="matrix(-1 -1.224647e-16 1.224647e-16 -1 50.387 627.8688)" class="st4" width="20.23" height="6.06"/>
							
								<rect y="307.75" transform="matrix(-1 -1.224647e-16 1.224647e-16 -1 15.0796 627.8688)" class="st0" width="15.08" height="12.36"/>
							
								<rect x="15.08" y="335.63" transform="matrix(-1 -1.224647e-16 1.224647e-16 -1 50.387 677.3135)" class="st4" width="20.23" height="6.06"/>
							
								<rect y="332.48" transform="matrix(-1 -1.224647e-16 1.224647e-16 -1 15.0796 677.3135)" class="st0" width="15.08" height="12.36"/>
							
								<rect x="15.08" y="360.35" transform="matrix(-1 -1.224647e-16 1.224647e-16 -1 50.387 726.7581)" class="st4" width="20.23" height="6.06"/>
							
								<rect y="357.2" transform="matrix(-1 -1.224647e-16 1.224647e-16 -1 15.0796 726.7581)" class="st0" width="15.08" height="12.36"/>
							
								<rect x="15.08" y="385.07" transform="matrix(-1 -1.224647e-16 1.224647e-16 -1 50.387 776.2028)" class="st4" width="20.23" height="6.06"/>
							
								<rect y="381.92" transform="matrix(-1 -1.224647e-16 1.224647e-16 -1 15.0796 776.2028)" class="st0" width="15.08" height="12.36"/>
							
								<rect x="15.08" y="409.79" transform="matrix(-1 -1.224647e-16 1.224647e-16 -1 50.387 825.6474)" class="st4" width="20.23" height="6.06"/>
							
								<rect y="406.64" transform="matrix(-1 -1.224647e-16 1.224647e-16 -1 15.0796 825.6474)" class="st0" width="15.08" height="12.36"/>
						</g>
						
							<rect x="15.08" y="434.52" transform="matrix(-1 -1.224647e-16 1.224647e-16 -1 50.387 875.092)" class="st4" width="20.23" height="6.06"/>
						
							<rect y="431.37" transform="matrix(-1 -1.224647e-16 1.224647e-16 -1 15.0796 875.092)" class="st0" width="15.08" height="12.36"/>
						
							<rect x="15.08" y="459.24" transform="matrix(-1 -1.224647e-16 1.224647e-16 -1 50.387 924.5367)" class="st4" width="20.23" height="6.06"/>
					</g>
				</g>
				
					<rect y="456.09" transform="matrix(-1 -1.224647e-16 1.224647e-16 -1 15.0796 924.5367)" class="st0" width="15.08" height="12.36"/>
			</g>
		</g>
		<g>
			<g>
				<g>
					<rect x="605.78" y="459.24" class="st4" width="20.23" height="6.06"/>
					<rect x="626.01" y="456.09" class="st0" width="15.08" height="12.36"/>
					<rect x="605.78" y="434.52" class="st4" width="20.23" height="6.06"/>
					<rect x="626.01" y="431.37" class="st0" width="15.08" height="12.36"/>
					<rect x="605.78" y="409.79" class="st4" width="20.23" height="6.06"/>
					<rect x="626.01" y="406.64" class="st0" width="15.08" height="12.36"/>
					<rect x="605.78" y="385.07" class="st4" width="20.23" height="6.06"/>
					<rect x="626.01" y="381.92" class="st0" width="15.08" height="12.36"/>
					<rect x="605.78" y="360.35" class="st4" width="20.23" height="6.06"/>
					<rect x="626.01" y="357.2" class="st0" width="15.08" height="12.36"/>
					<rect x="605.78" y="335.63" class="st4" width="20.23" height="6.06"/>
					<rect x="626.01" y="332.48" class="st0" width="15.08" height="12.36"/>
					<rect x="605.78" y="310.91" class="st4" width="20.23" height="6.06"/>
					<rect x="626.01" y="307.75" class="st0" width="15.08" height="12.36"/>
					<rect x="605.78" y="286.18" class="st4" width="20.23" height="6.06"/>
					<rect x="626.01" y="283.03" class="st0" width="15.08" height="12.36"/>
					<g>
						<g>
							<rect x="605.78" y="261.32" class="st4" width="20.23" height="6.06"/>
							<rect x="626.01" y="258.17" class="st0" width="15.08" height="12.36"/>
							<rect x="605.78" y="236.6" class="st4" width="20.23" height="6.06"/>
							<rect x="626.01" y="233.45" class="st0" width="15.08" height="12.36"/>
							<rect x="605.78" y="211.88" class="st4" width="20.23" height="6.06"/>
							<rect x="626.01" y="208.72" class="st0" width="15.08" height="12.36"/>
							<rect x="605.78" y="187.15" class="st4" width="20.23" height="6.06"/>
							<rect x="626.01" y="184" class="st0" width="15.08" height="12.36"/>
							<rect x="605.78" y="162.43" class="st4" width="20.23" height="6.06"/>
							<rect x="626.01" y="159.28" class="st0" width="15.08" height="12.36"/>
							<rect x="605.78" y="137.71" class="st4" width="20.23" height="6.06"/>
							<rect x="626.01" y="134.56" class="st0" width="15.08" height="12.36"/>
							<rect x="605.78" y="112.99" class="st4" width="20.23" height="6.06"/>
							<rect x="626.01" y="109.83" class="st0" width="15.08" height="12.36"/>
							<rect x="605.78" y="88.26" class="st4" width="20.23" height="6.06"/>
							<rect x="626.01" y="85.11" class="st0" width="15.08" height="12.36"/>
						</g>
						<rect x="605.78" y="63.54" class="st4" width="20.23" height="6.06"/>
						<rect x="626.01" y="60.39" class="st0" width="15.08" height="12.36"/>
						<rect x="605.78" y="38.82" class="st4" width="20.23" height="6.06"/>
					</g>
				</g>
				<rect x="626.01" y="35.67" class="st0" width="15.08" height="12.36"/>
			</g>
			<g>
				<g>
					
						<rect x="561.08" y="38.82" transform="matrix(-1 -1.224647e-16 1.224647e-16 -1 1142.3915 83.6963)" class="st4" width="20.23" height="6.06"/>
					
						<rect x="546" y="35.67" transform="matrix(-1 -1.224647e-16 1.224647e-16 -1 1107.0841 83.6963)" class="st0" width="15.08" height="12.36"/>
					
						<rect x="561.08" y="63.54" transform="matrix(-1 -1.224647e-16 1.224647e-16 -1 1142.3915 133.141)" class="st4" width="20.23" height="6.06"/>
					
						<rect x="546" y="60.39" transform="matrix(-1 -1.224647e-16 1.224647e-16 -1 1107.0841 133.141)" class="st0" width="15.08" height="12.36"/>
					
						<rect x="561.08" y="88.26" transform="matrix(-1 -1.224647e-16 1.224647e-16 -1 1142.3915 182.5856)" class="st4" width="20.23" height="6.06"/>
					
						<rect x="546" y="85.11" transform="matrix(-1 -1.224647e-16 1.224647e-16 -1 1107.0841 182.5856)" class="st0" width="15.08" height="12.36"/>
					
						<rect x="561.08" y="112.99" transform="matrix(-1 -1.224647e-16 1.224647e-16 -1 1142.3915 232.0303)" class="st4" width="20.23" height="6.06"/>
					
						<rect x="546" y="109.83" transform="matrix(-1 -1.224647e-16 1.224647e-16 -1 1107.0841 232.0303)" class="st0" width="15.08" height="12.36"/>
					
						<rect x="561.08" y="137.71" transform="matrix(-1 -1.224647e-16 1.224647e-16 -1 1142.3915 281.4749)" class="st4" width="20.23" height="6.06"/>
					
						<rect x="546" y="134.56" transform="matrix(-1 -1.224647e-16 1.224647e-16 -1 1107.0841 281.4749)" class="st0" width="15.08" height="12.36"/>
					
						<rect x="561.08" y="162.43" transform="matrix(-1 -1.224647e-16 1.224647e-16 -1 1142.3915 330.9196)" class="st4" width="20.23" height="6.06"/>
					
						<rect x="546" y="159.28" transform="matrix(-1 -1.224647e-16 1.224647e-16 -1 1107.0841 330.9196)" class="st0" width="15.08" height="12.36"/>
					
						<rect x="561.08" y="187.15" transform="matrix(-1 -1.224647e-16 1.224647e-16 -1 1142.3915 380.3642)" class="st4" width="20.23" height="6.06"/>
					
						<rect x="546" y="184" transform="matrix(-1 -1.224647e-16 1.224647e-16 -1 1107.0841 380.3642)" class="st0" width="15.08" height="12.36"/>
					
						<rect x="561.08" y="211.88" transform="matrix(-1 -1.224647e-16 1.224647e-16 -1 1142.3915 429.8089)" class="st4" width="20.23" height="6.06"/>
					
						<rect x="546" y="208.72" transform="matrix(-1 -1.224647e-16 1.224647e-16 -1 1107.0841 429.8089)" class="st0" width="15.08" height="12.36"/>
					<g>
						<g>
							
								<rect x="561.08" y="236.74" transform="matrix(-1 -1.224647e-16 1.224647e-16 -1 1142.3915 479.5349)" class="st4" width="20.23" height="6.06"/>
							
								<rect x="546" y="233.59" transform="matrix(-1 -1.224647e-16 1.224647e-16 -1 1107.0841 479.5349)" class="st0" width="15.08" height="12.36"/>
							
								<rect x="561.08" y="261.46" transform="matrix(-1 -1.224647e-16 1.224647e-16 -1 1142.3915 528.9795)" class="st4" width="20.23" height="6.06"/>
							
								<rect x="546" y="258.31" transform="matrix(-1 -1.224647e-16 1.224647e-16 -1 1107.0841 528.9795)" class="st0" width="15.08" height="12.36"/>
							
								<rect x="561.08" y="286.18" transform="matrix(-1 -1.224647e-16 1.224647e-16 -1 1142.3915 578.4241)" class="st4" width="20.23" height="6.06"/>
							
								<rect x="546" y="283.03" transform="matrix(-1 -1.224647e-16 1.224647e-16 -1 1107.0841 578.4241)" class="st0" width="15.08" height="12.36"/>
							
								<rect x="561.08" y="310.91" transform="matrix(-1 -1.224647e-16 1.224647e-16 -1 1142.3915 627.8688)" class="st4" width="20.23" height="6.06"/>
							
								<rect x="546" y="307.75" transform="matrix(-1 -1.224647e-16 1.224647e-16 -1 1107.0841 627.8688)" class="st0" width="15.08" height="12.36"/>
							
								<rect x="561.08" y="335.63" transform="matrix(-1 -1.224647e-16 1.224647e-16 -1 1142.3915 677.3135)" class="st4" width="20.23" height="6.06"/>
							
								<rect x="546" y="332.48" transform="matrix(-1 -1.224647e-16 1.224647e-16 -1 1107.0841 677.3135)" class="st0" width="15.08" height="12.36"/>
							
								<rect x="561.08" y="360.35" transform="matrix(-1 -1.224647e-16 1.224647e-16 -1 1142.3915 726.7581)" class="st4" width="20.23" height="6.06"/>
							
								<rect x="546" y="357.2" transform="matrix(-1 -1.224647e-16 1.224647e-16 -1 1107.0841 726.7581)" class="st0" width="15.08" height="12.36"/>
							
								<rect x="561.08" y="385.07" transform="matrix(-1 -1.224647e-16 1.224647e-16 -1 1142.3915 776.2028)" class="st4" width="20.23" height="6.06"/>
							
								<rect x="546" y="381.92" transform="matrix(-1 -1.224647e-16 1.224647e-16 -1 1107.0841 776.2028)" class="st0" width="15.08" height="12.36"/>
							
								<rect x="561.08" y="409.79" transform="matrix(-1 -1.224647e-16 1.224647e-16 -1 1142.3915 825.6474)" class="st4" width="20.23" height="6.06"/>
							
								<rect x="546" y="406.64" transform="matrix(-1 -1.224647e-16 1.224647e-16 -1 1107.0841 825.6474)" class="st0" width="15.08" height="12.36"/>
						</g>
						
							<rect x="561.08" y="434.52" transform="matrix(-1 -1.224647e-16 1.224647e-16 -1 1142.3915 875.092)" class="st4" width="20.23" height="6.06"/>
						
							<rect x="546" y="431.37" transform="matrix(-1 -1.224647e-16 1.224647e-16 -1 1107.0841 875.092)" class="st0" width="15.08" height="12.36"/>
						
							<rect x="561.08" y="459.24" transform="matrix(-1 -1.224647e-16 1.224647e-16 -1 1142.3915 924.5367)" class="st4" width="20.23" height="6.06"/>
					</g>
				</g>
				
					<rect x="546" y="456.09" transform="matrix(-1 -1.224647e-16 1.224647e-16 -1 1107.0841 924.5367)" class="st0" width="15.08" height="12.36"/>
			</g>
		</g>
		
			<rect x="333.21" y="260.33" transform="matrix(6.123234e-17 -1 1 6.123234e-17 320.9192 866.1678)" class="st4" width="520.66" height="24.58"/>
	</g>
	<rect x="160.48" y="296.29" class="st6" width="319.95" height="568"/>
</g>
</svg>
